<?xml version="1.0" encoding="UTF-8"?>
<svg id="Layer_2" data-name="Layer 2" xmlns="http://www.w3.org/2000/svg" xmlns:xlink="http://www.w3.org/1999/xlink" viewBox="0 0 310.53 258.26">
  <defs>
    <style>
      .cls-1, .cls-2 {
        fill: #fff;
      }

      .cls-3 {
        fill: #3b82f6;
      }

      .cls-4, .cls-2, .cls-5, .cls-6, .cls-7, .cls-8, .cls-9, .cls-10 {
        stroke-miterlimit: 10;
      }

      .cls-4, .cls-5, .cls-6, .cls-7, .cls-11, .cls-8, .cls-9 {
        fill: none;
      }

      .cls-4, .cls-10 {
        stroke: #fff;
      }

      .cls-2, .cls-6, .cls-7, .cls-8, .cls-9 {
        stroke: #231f20;
      }

      .cls-12 {
        fill: url(#linear-gradient-7);
        stroke: url(#linear-gradient-8);
      }

      .cls-12, .cls-13, .cls-14, .cls-15 {
        isolation: isolate;
      }

      .cls-12, .cls-5, .cls-14, .cls-6, .cls-7, .cls-16, .cls-15, .cls-8, .cls-9 {
        stroke-width: 2px;
      }

      .cls-12, .cls-14, .cls-16, .cls-15 {
        fill-rule: evenodd;
      }

      .cls-12, .cls-14, .cls-15 {
        fill-opacity: .6;
      }

      .cls-13 {
        opacity: .6;
      }

      .cls-5 {
        stroke: #3b82f6;
        stroke-linecap: round;
      }

      .cls-14 {
        fill: url(#linear-gradient-5);
        opacity: .15;
        stroke: url(#linear-gradient-6);
      }

      .cls-6 {
        stroke-dasharray: 0 0 0 12 2 2;
      }

      .cls-16 {
        fill: url(#linear-gradient);
        stroke: url(#linear-gradient-2);
      }

      .cls-15 {
        fill: url(#linear-gradient-3);
        opacity: .5;
        stroke: url(#linear-gradient-4);
      }

      .cls-17 {
        clip-path: url(#clippath);
      }

      .cls-11 {
        clip-rule: evenodd;
      }

      .cls-8 {
        stroke-dasharray: 0 0 0 0 1.88 11.29 1.88 1.88;
      }

      .cls-9 {
        stroke-dasharray: 0 0 0 0 0 0 11.29 1.88 1.88 11.29 1.88 1.88;
      }

      .cls-10 {
        fill: #184fa8;
        stroke-width: 4px;
      }
    </style>
    <linearGradient id="linear-gradient" x1="27.4" y1="22.48" x2="221.69" y2="228.08" gradientUnits="userSpaceOnUse">
      <stop offset="0" stop-color="#dde1ff"/>
      <stop offset=".44" stop-color="#5468ff"/>
      <stop offset="1" stop-color="#fff"/>
    </linearGradient>
    <linearGradient id="linear-gradient-2" x1="0" y1="146.73" x2="245.17" y2="146.73" gradientUnits="userSpaceOnUse">
      <stop offset="0" stop-color="#fff"/>
      <stop offset="1" stop-color="#fff" stop-opacity=".13"/>
    </linearGradient>
    <clipPath id="clippath">
      <path class="cls-11" d="m103.45,201.99H20.81c-3.76,0-7.49-.92-10.68-2.91-5.77-3.6-9.14-9.84-9.14-16.43V55.93c0-10.9,8.83-19.73,19.73-19.73h203.7c10.9,0,19.73,8.83,19.73,19.73v126.25c0,3.76-.92,7.49-2.91,10.68-3.6,5.77-9.84,9.14-16.43,9.14h-83.11c-.24,0-1.04,55.26,42.83,55.26s-158.15,0-123.92,0c45.9,0,43.07-55.26,42.83-55.26Z"/>
    </clipPath>
    <linearGradient id="linear-gradient-3" x1="294.63" y1="124.03" x2="321.99" y2="95.08" gradientTransform="translate(-171.54) skewX(17)" gradientUnits="userSpaceOnUse">
      <stop offset="0" stop-color="#fff"/>
      <stop offset="1" stop-color="#fff"/>
    </linearGradient>
    <linearGradient id="linear-gradient-4" x1="319.18" y1="126.83" x2="300.37" y2="77.63" gradientTransform="translate(-171.54) skewX(17)" xlink:href="#linear-gradient-2"/>
    <linearGradient id="linear-gradient-5" x1="317.14" y1="124.03" x2="344.5" y2="95.08" xlink:href="#linear-gradient-3"/>
    <linearGradient id="linear-gradient-6" x1="341.7" y1="126.83" x2="322.89" y2="77.63" gradientTransform="translate(-171.54) skewX(17)" xlink:href="#linear-gradient-2"/>
    <linearGradient id="linear-gradient-7" x1="271.32" y1="124.03" x2="298.68" y2="95.08" xlink:href="#linear-gradient-3"/>
    <linearGradient id="linear-gradient-8" x1="295.88" y1="126.83" x2="277.07" y2="77.63" gradientTransform="translate(-171.54) skewX(17)" xlink:href="#linear-gradient-2"/>
  </defs>
  <g id="Layer_1-2" data-name="Layer 1">
    <g class="cls-13">
      <path class="cls-16" d="m103.45,201.99H20.81c-3.76,0-7.49-.92-10.68-2.91-5.77-3.6-9.14-9.84-9.14-16.43V55.93c0-10.9,8.83-19.73,19.73-19.73h203.7c10.9,0,19.73,8.83,19.73,19.73v126.25c0,3.76-.92,7.49-2.91,10.68-3.6,5.77-9.84,9.14-16.43,9.14h-83.11c-.24,0-1.04,55.26,42.83,55.26s-158.15,0-123.92,0c45.9,0,43.07-55.26,42.83-55.26Z"/>
    </g>
    <g class="cls-17">
      <g>
        <circle class="cls-4" cx="179.87" cy="128.73" r="117.09"/>
        <circle class="cls-4" cx="179.87" cy="128.73" r="97.81"/>
        <circle class="cls-4" cx="179.87" cy="128.73" r="78.53"/>
        <circle class="cls-4" cx="179.87" cy="128.73" r="59.24"/>
        <circle class="cls-4" cx="179.87" cy="128.73" r="39.96"/>
        <circle class="cls-1" cx="179.87" cy="128.73" r="20.68"/>
        <circle class="cls-1" cx="291.25" cy="84.32" r="13.57"/>
        <circle class="cls-1" cx="291.25" cy="84.32" r="13.57"/>
        <circle class="cls-1" cx="244.83" cy="57.18" r="13.57"/>
        <circle class="cls-1" cx="207.01" cy="13.57" r="13.57"/>
        <circle class="cls-1" cx="296.97" cy="160.84" r="13.57"/>
        <circle class="cls-1" cx="117.89" cy="174.41" r="13.57"/>
        <circle class="cls-1" cx="126.35" cy="23.99" r="13.57"/>
        <circle class="cls-1" cx="258.4" cy="128.73" r="13.57"/>
        <circle class="cls-1" cx="258.4" cy="182.26" r="13.57"/>
        <circle class="cls-1" cx="244.83" cy="226.54" r="13.57"/>
        <circle class="cls-1" cx="82.07" cy="142.3" r="13.57"/>
        <circle class="cls-1" cx="68.5" cy="88.78" r="13.57"/>
        <circle class="cls-1" cx="101.35" cy="70.75" r="13.57"/>
        <circle class="cls-1" cx="120.63" cy="117.51" r="13.57"/>
        <circle class="cls-1" cx="112.78" cy="223.06" r="13.57"/>
        <circle class="cls-1" cx="193.44" cy="226.54" r="13.57"/>
        <circle class="cls-1" cx="198.42" cy="162.98" r="13.57"/>
        <circle class="cls-1" cx="173.42" cy="187.98" r="13.57"/>
        <circle class="cls-1" cx="225.55" cy="94.49" r="13.57"/>
        <circle class="cls-1" cx="186.98" cy="50.21" r="13.57"/>
        <circle class="cls-1" cx="159.2" cy="94.49" r="13.57"/>
      </g>
    </g>
    <g>
      <rect class="cls-1" x="179.04" y="142.06" width="3.92" height="81.92"/>
      <g>
        <line class="cls-7" x1="180.99" y1="140.01" x2="180.99" y2="146.01"/>
        <line class="cls-8" x1="180.99" y1="147.89" x2="180.99" y2="163.89"/>
        <line class="cls-9" x1="180.99" y1="164.83" x2="180.99" y2="224.12"/>
        <line class="cls-7" x1="180.99" y1="225.07" x2="180.99" y2="231.07"/>
      </g>
      <path class="cls-1" d="m174.29,143.1v20.9c0,6.48-5.27,11.75-11.75,11.75h-32.87c-4.32,0-7.83,3.51-7.83,7.83v47.48h-3.92v-47.48c0-6.48,5.27-11.75,11.75-11.75h32.87c4.32,0,7.83-3.51,7.83-7.83v-20.9h3.92Z"/>
      <path class="cls-6" d="m172.33,141.57v22.43c0,5.41-4.38,9.79-9.79,9.79h-32.87c-5.41,0-9.79,4.38-9.79,9.79v47.48"/>
      <path class="cls-1" d="m243.98,183.58v47.48h-3.92v-47.48c0-4.32-3.51-7.83-7.83-7.83h-32.87c-6.48,0-11.75-5.27-11.75-11.75v-20.21h3.92v20.21c0,4.32,3.51,7.83,7.83,7.83h32.87c6.48,0,11.75,5.27,11.75,11.75Z"/>
      <path class="cls-6" d="m189.57,141.57v22.43c0,5.41,4.38,9.79,9.79,9.79h13.3s7.75,0,7.75,0h11.82c5.41,0,9.79,4.38,9.79,9.79v47.48"/>
      <g>
        <g>
          <rect class="cls-10" x="92.01" y="184.81" width="55.62" height="70.89" rx="8.5" ry="8.5"/>
          <rect class="cls-2" x="92.01" y="184.81" width="55.62" height="70.89" rx="8.5" ry="8.5"/>
        </g>
        <line class="cls-5" x1="98.21" y1="203.98" x2="141.43" y2="203.98"/>
        <line class="cls-5" x1="98.21" y1="213.56" x2="141.43" y2="213.56"/>
        <line class="cls-5" x1="98.21" y1="208.77" x2="141.43" y2="208.77"/>
        <line class="cls-5" x1="98.21" y1="218.35" x2="141.43" y2="218.35"/>
        <line class="cls-5" x1="98.21" y1="223.14" x2="141.43" y2="223.14"/>
        <line class="cls-5" x1="98.21" y1="232.72" x2="141.43" y2="232.72"/>
        <line class="cls-5" x1="98.21" y1="227.93" x2="141.43" y2="227.93"/>
        <line class="cls-5" x1="98.21" y1="237.51" x2="141.43" y2="237.51"/>
        <line class="cls-5" x1="98.21" y1="242.3" x2="141.43" y2="242.3"/>
        <line class="cls-5" x1="98.21" y1="247.09" x2="141.43" y2="247.09"/>
        <rect class="cls-3" x="97.19" y="192.42" width="46.17" height="5.94" rx="2.97" ry="2.97"/>
      </g>
      <g>
        <g>
          <rect class="cls-10" x="155.47" y="184.81" width="55.62" height="70.89" rx="8.5" ry="8.5"/>
          <rect class="cls-2" x="155.47" y="184.81" width="55.62" height="70.89" rx="8.5" ry="8.5"/>
        </g>
        <line class="cls-5" x1="161.68" y1="203.98" x2="204.89" y2="203.98"/>
        <line class="cls-5" x1="161.68" y1="213.56" x2="204.89" y2="213.56"/>
        <line class="cls-5" x1="161.68" y1="208.77" x2="204.89" y2="208.77"/>
        <line class="cls-5" x1="161.68" y1="218.35" x2="204.89" y2="218.35"/>
        <line class="cls-5" x1="161.68" y1="223.14" x2="204.89" y2="223.14"/>
        <line class="cls-5" x1="161.68" y1="232.72" x2="204.89" y2="232.72"/>
        <line class="cls-5" x1="161.68" y1="227.93" x2="204.89" y2="227.93"/>
        <line class="cls-5" x1="161.68" y1="237.51" x2="204.89" y2="237.51"/>
        <line class="cls-5" x1="161.68" y1="242.3" x2="204.89" y2="242.3"/>
        <line class="cls-5" x1="161.68" y1="247.09" x2="204.89" y2="247.09"/>
        <rect class="cls-3" x="160.66" y="192.42" width="46.17" height="5.94" rx="2.97" ry="2.97"/>
      </g>
      <g>
        <g>
          <rect class="cls-10" x="218.94" y="184.81" width="55.62" height="70.89" rx="8.5" ry="8.5"/>
          <rect class="cls-2" x="218.94" y="184.81" width="55.62" height="70.89" rx="8.5" ry="8.5"/>
        </g>
        <line class="cls-5" x1="225.14" y1="203.98" x2="268.36" y2="203.98"/>
        <line class="cls-5" x1="225.14" y1="213.56" x2="268.36" y2="213.56"/>
        <line class="cls-5" x1="225.14" y1="208.77" x2="268.36" y2="208.77"/>
        <line class="cls-5" x1="225.14" y1="218.35" x2="268.36" y2="218.35"/>
        <line class="cls-5" x1="225.14" y1="223.14" x2="268.36" y2="223.14"/>
        <line class="cls-5" x1="225.14" y1="232.72" x2="268.36" y2="232.72"/>
        <line class="cls-5" x1="225.14" y1="227.93" x2="268.36" y2="227.93"/>
        <line class="cls-5" x1="225.14" y1="237.51" x2="268.36" y2="237.51"/>
        <line class="cls-5" x1="225.14" y1="242.3" x2="268.36" y2="242.3"/>
        <line class="cls-5" x1="225.14" y1="247.09" x2="268.36" y2="247.09"/>
        <rect class="cls-3" x="224.13" y="192.42" width="46.17" height="5.94" rx="2.97" ry="2.97"/>
      </g>
      <g>
        <path class="cls-10" d="m118.59,149.35v1.32c0,3.65,2.15,6.62,4.81,6.62h131.73c2.66,0,4.81-2.96,4.81-6.62v-1.32H118.59Z"/>
        <path class="cls-10" d="m235,145.77h-112.17c-2.61,0-4.88-1.79-5.48-4.33l-15.15-63.78c-.84-3.54,1.84-6.94,5.48-6.94h112.93c2.63,0,4.92,1.82,5.5,4.39l14.4,63.78c.8,3.52-1.88,6.87-5.5,6.87Z"/>
        <path class="cls-2" d="m235.71,145.79h-112.37c-2.56,0-4.79-1.76-5.39-4.26l-15.2-63.98c-.83-3.48,1.81-6.82,5.39-6.82h113.13c2.59,0,4.83,1.79,5.4,4.32l14.44,63.98c.78,3.46-1.85,6.75-5.4,6.75Zm-19.52-70.17h-101.09c-3.59,0-6.24,3.37-5.37,6.86l12.43,50.36c.61,2.47,2.83,4.21,5.37,4.21h100.36c3.56,0,6.2-3.32,5.39-6.79l-11.69-50.36c-.58-2.51-2.82-4.28-5.39-4.28Z"/>
        <path class="cls-2" d="m118.59,149.35v1.32c0,3.65,2.15,6.62,4.81,6.62h131.73c2.66,0,4.81-2.96,4.81-6.62v-1.32H118.59Z"/>
        <path class="cls-15" d="m193.93,106.34c.22.72.4,1.43.55,2.13-.02.46-.25.84-.65,1.04l-4.28,2.2c-.19.1-.31.29-.33.51-.02.21-.04.42-.07.62-.03.22.04.48.2.71l3.49,5.06c.32.47.45.98.38,1.42-.57,1.1-1.27,2.12-2.1,3.02-.37.21-.88.23-1.4.05l-5.65-1.95c-.26-.09-.51-.08-.7.02-.18.09-.36.18-.54.26-.2.09-.33.26-.37.48l-.69,4.95c-.06.46-.34.8-.75.97-.68.07-1.38.1-2.1.1s-1.44-.04-2.17-.1c-.51-.16-.99-.51-1.34-.97l-3.72-4.95c-.17-.22-.41-.4-.66-.48-.23-.08-.47-.17-.7-.26-.25-.1-.51-.11-.71-.02l-4.46,1.95c-.41.18-.93.15-1.43-.05-.68-.44-1.34-.91-1.98-1.4l-.09-.07c-.64-.49-1.27-1.01-1.88-1.55-.34-.44-.52-.95-.49-1.42l.4-5.06c.02-.23-.07-.48-.24-.71-.15-.21-.3-.41-.45-.62-.16-.23-.39-.41-.64-.51l-5.63-2.2c-.52-.2-.98-.59-1.28-1.04-.28-.7-.54-1.41-.76-2.13s-.4-1.43-.55-2.13c.02-.46.25-.84.65-1.04l4.28-2.2c.19-.1.31-.29.33-.51.02-.21.04-.42.07-.62.03-.22-.04-.48-.2-.71l-3.49-5.06c-.32-.47-.45-.98-.38-1.42.28-.54.59-1.06.93-1.55l.05-.07c.34-.49.72-.96,1.12-1.4.37-.21.88-.23,1.4-.05l5.65,1.95c.26.09.51.08.7-.02.18-.09.36-.18.54-.26.2-.09.33-.26.37-.48l.69-4.95c.06-.46.34-.8.75-.97.68-.07,1.38-.1,2.1-.1s1.44.04,2.17.1c.51.16.99.51,1.34.97l3.72,4.95c.17.22.41.4.66.48.23.08.47.17.7.26.25.1.51.11.71.02l4.46-1.95c.41-.18.93-.15,1.43.05,1.38.91,2.71,1.92,3.95,3.02.34.44.52.95.49,1.42l-.4,5.06c-.02.23.07.48.24.71.15.21.3.41.45.62.16.23.39.41.64.51l5.63,2.2c.52.2.98.59,1.28,1.04.28.7.54,1.41.76,2.13h0Zm-25.1-11.43c-6.31,0-9.86,5.12-7.93,11.43s8.61,11.43,14.92,11.43,9.86-5.12,7.93-11.43-8.61-11.43-14.92-11.43Z"/>
        <path class="cls-14" d="m216.44,106.34c.22.72.4,1.43.55,2.13-.02.46-.25.84-.65,1.04l-4.28,2.2c-.19.1-.31.29-.33.51-.02.21-.04.42-.07.62-.03.22.04.48.2.71l3.49,5.06c.32.47.45.98.38,1.42-.57,1.1-1.27,2.12-2.1,3.02-.37.21-.88.23-1.4.05l-5.65-1.95c-.26-.09-.51-.08-.7.02-.18.09-.36.18-.54.26-.2.09-.33.26-.37.48l-.69,4.95c-.06.46-.34.8-.75.97-.68.07-1.38.1-2.1.1s-1.44-.04-2.17-.1c-.51-.16-.99-.51-1.34-.97l-3.72-4.95c-.17-.22-.41-.4-.66-.48-.23-.08-.47-.17-.7-.26-.25-.1-.51-.11-.71-.02l-4.46,1.95c-.41.18-.93.15-1.43-.05-.68-.44-1.34-.91-1.98-1.4l-.09-.07c-.64-.49-1.27-1.01-1.88-1.55-.34-.44-.52-.95-.49-1.42l.4-5.06c.02-.23-.07-.48-.24-.71-.15-.21-.3-.41-.45-.62-.16-.23-.39-.41-.64-.51l-5.63-2.2c-.52-.2-.98-.59-1.28-1.04-.28-.7-.54-1.41-.76-2.13s-.4-1.43-.55-2.13c.02-.46.25-.84.65-1.04l4.28-2.2c.19-.1.31-.29.33-.51.02-.21.04-.42.07-.62.03-.22-.04-.48-.2-.71l-3.49-5.06c-.32-.47-.45-.98-.38-1.42.28-.54.59-1.06.93-1.55l.05-.07c.34-.49.72-.96,1.12-1.4.37-.21.88-.23,1.4-.05l5.65,1.95c.26.09.51.08.7-.02.18-.09.36-.18.54-.26.2-.09.33-.26.37-.48l.69-4.95c.06-.46.34-.8.75-.97.68-.07,1.38-.1,2.1-.1s1.44.04,2.17.1c.51.16.99.51,1.34.97l3.72,4.95c.17.22.41.4.66.48.23.08.47.17.7.26.25.1.51.11.71.02l4.46-1.95c.41-.18.93-.15,1.43.05,1.38.91,2.71,1.92,3.95,3.02.34.44.52.95.49,1.42l-.4,5.06c-.02.23.07.48.24.71.15.21.3.41.45.62.16.23.39.41.64.51l5.63,2.2c.52.2.98.59,1.28,1.04.28.7.54,1.41.76,2.13h0Zm-25.1-11.43c-6.31,0-9.86,5.12-7.93,11.43s8.61,11.43,14.92,11.43,9.86-5.12,7.93-11.43-8.61-11.43-14.92-11.43Z"/>
        <path class="cls-12" d="m170.62,106.34c.22.72.4,1.43.55,2.13-.02.46-.25.84-.65,1.04l-4.28,2.2c-.19.1-.31.29-.33.51-.02.21-.04.42-.07.62-.03.22.04.48.2.71l3.49,5.06c.32.47.45.98.38,1.42-.57,1.1-1.27,2.12-2.1,3.02-.37.21-.88.23-1.4.05l-5.65-1.95c-.26-.09-.51-.08-.7.02-.18.09-.36.18-.54.26-.2.09-.33.26-.37.48l-.69,4.95c-.06.46-.34.8-.75.97-.68.07-1.38.1-2.1.1s-1.44-.04-2.17-.1c-.51-.16-.99-.51-1.34-.97l-3.72-4.95c-.17-.22-.41-.4-.66-.48-.23-.08-.47-.17-.7-.26-.25-.1-.51-.11-.71-.02l-4.46,1.95c-.41.18-.93.15-1.43-.05-.68-.44-1.34-.91-1.98-1.4l-.09-.07c-.64-.49-1.27-1.01-1.88-1.55-.34-.44-.52-.95-.49-1.42l.4-5.06c.02-.23-.07-.48-.24-.71-.15-.21-.3-.41-.45-.62-.16-.23-.39-.41-.64-.51l-5.63-2.2c-.52-.2-.98-.59-1.28-1.04-.28-.7-.54-1.41-.76-2.13s-.4-1.43-.55-2.13c.02-.46.25-.84.65-1.04l4.28-2.2c.19-.1.31-.29.33-.51.02-.21.04-.42.07-.62.03-.22-.04-.48-.2-.71l-3.49-5.06c-.32-.47-.45-.98-.38-1.42.28-.54.59-1.06.93-1.55l.05-.07c.34-.49.72-.96,1.12-1.4.37-.21.88-.23,1.4-.05l5.65,1.95c.26.09.51.08.7-.02.18-.09.36-.18.54-.26.2-.09.33-.26.37-.48l.69-4.95c.06-.46.34-.8.75-.97.68-.07,1.38-.1,2.1-.1s1.44.04,2.17.1c.51.16.99.51,1.34.97l3.72,4.95c.17.22.41.4.66.48.23.08.47.17.7.26.25.1.51.11.71.02l4.46-1.95c.41-.18.93-.15,1.43.05,1.38.91,2.71,1.92,3.95,3.02.34.44.52.95.49,1.42l-.4,5.06c-.02.23.07.48.24.71.15.21.3.41.45.62.16.23.39.41.64.51l5.63,2.2c.52.2.98.59,1.28,1.04.28.7.54,1.41.76,2.13h0Zm-25.1-11.43c-6.31,0-9.86,5.12-7.93,11.43s8.61,11.43,14.92,11.43,9.86-5.12,7.93-11.43c-1.93-6.31-8.61-11.43-14.92-11.43Z"/>
      </g>
    </g>
  </g>
</svg>