<?xml version="1.0" encoding="UTF-8"?>
<svg id="Layer_2" data-name="Layer 2" xmlns="http://www.w3.org/2000/svg" xmlns:xlink="http://www.w3.org/1999/xlink" viewBox="0 0 292.45 263.88">
  <defs>
    <style>
      .cls-1, .cls-2 {
        fill: #fff;
      }

      .cls-3, .cls-4 {
        fill: #3b82f6;
      }

      .cls-5, .cls-6, .cls-4 {
        stroke-miterlimit: 10;
      }

      .cls-5, .cls-6, .cls-7 {
        fill: none;
      }

      .cls-5, .cls-4 {
        stroke: #fff;
      }

      .cls-2 {
        stroke: #000;
        stroke-linecap: round;
        stroke-linejoin: round;
      }

      .cls-6 {
        stroke: #231f20;
        stroke-dasharray: 0 0 0 12 2 2;
      }

      .cls-6, .cls-8 {
        stroke-width: 2px;
      }

      .cls-8 {
        fill: url(#linear-gradient);
        fill-opacity: .6;
        isolation: isolate;
        opacity: .6;
        stroke: url(#linear-gradient-2);
      }

      .cls-4 {
        stroke-width: 3px;
      }

      .cls-9 {
        clip-path: url(#clippath);
      }
    </style>
    <linearGradient id="linear-gradient" x1="28.74" y1="31.25" x2="191.28" y2="193.79" gradientUnits="userSpaceOnUse">
      <stop offset="0" stop-color="#dde1ff"/>
      <stop offset=".44" stop-color="#5468ff"/>
      <stop offset="1" stop-color="#fff"/>
    </linearGradient>
    <linearGradient id="linear-gradient-2" x1="0" y1="112.52" x2="220.09" y2="112.52" gradientUnits="userSpaceOnUse">
      <stop offset="0" stop-color="#fff"/>
      <stop offset="1" stop-color="#fff" stop-opacity=".13"/>
    </linearGradient>
    <clipPath id="clippath">
      <path class="cls-7" d="m128.41,224.04h-36.8c-2.04,0-3.86-.65-5.44-1.95s-2.56-2.97-2.93-5.02l-4.46-28.16c-3.53-1.3-7.25-3.07-11.15-5.3-3.9-2.23-7.34-4.55-10.32-6.97l-25.93,11.99c-2.04.93-4.09,1.07-6.13.42s-3.62-2-4.74-4.04L2.12,152.39c-1.12-1.86-1.39-3.81-.84-5.85.56-2.04,1.67-3.72,3.35-5.02l23.98-17.56c-.37-1.67-.6-3.58-.7-5.72-.09-2.14-.14-4.04-.14-5.72s.05-3.58.14-5.72c.09-2.14.33-4.04.7-5.72l-23.98-17.56c-1.67-1.3-2.79-2.97-3.35-5.02-.56-2.04-.28-4,.84-5.85l18.4-32.62c1.12-2.04,2.7-3.39,4.74-4.04,2.04-.65,4.09-.51,6.13.42l25.93,11.99c2.97-2.42,6.41-4.74,10.32-6.97,3.9-2.23,7.62-3.9,11.15-5.02l4.46-28.44c.37-2.04,1.35-3.72,2.93-5.02s3.39-1.95,5.44-1.95h36.8c2.04,0,3.86.65,5.44,1.95s2.56,2.97,2.93,5.02l4.46,28.16c3.53,1.3,7.3,3.02,11.29,5.16s7.39,4.51,10.18,7.11l25.93-11.99c2.04-.93,4.09-1.07,6.13-.42s3.62,2,4.74,4.04l18.4,32.34c1.12,1.86,1.44,3.86.98,5.99s-1.63,3.86-3.48,5.16l-23.98,17.01c.37,1.86.6,3.86.7,5.99.09,2.14.14,4.14.14,5.99s-.05,3.81-.14,5.85c-.09,2.04-.33,4-.7,5.85l23.98,17.29c1.67,1.3,2.79,2.97,3.35,5.02.56,2.04.28,4-.84,5.85l-18.4,32.62c-1.12,2.04-2.7,3.39-4.74,4.04s-4.09.51-6.13-.42l-25.93-11.99c-2.97,2.42-6.37,4.79-10.18,7.11s-7.57,4.04-11.29,5.16l-4.46,28.16c-.37,2.04-1.35,3.72-2.93,5.02s-3.39,1.95-5.44,1.95Z"/>
    </clipPath>
  </defs>
  <g id="Layer_1-2" data-name="Layer 1">
    <g>
      <path class="cls-8" d="m128.41,224.04h-36.8c-2.04,0-3.86-.65-5.44-1.95s-2.56-2.97-2.93-5.02l-4.46-28.16c-3.53-1.3-7.25-3.07-11.15-5.3-3.9-2.23-7.34-4.55-10.32-6.97l-25.93,11.99c-2.04.93-4.09,1.07-6.13.42s-3.62-2-4.74-4.04L2.12,152.39c-1.12-1.86-1.39-3.81-.84-5.85.56-2.04,1.67-3.72,3.35-5.02l23.98-17.56c-.37-1.67-.6-3.58-.7-5.72-.09-2.14-.14-4.04-.14-5.72s.05-3.58.14-5.72c.09-2.14.33-4.04.7-5.72l-23.98-17.56c-1.67-1.3-2.79-2.97-3.35-5.02-.56-2.04-.28-4,.84-5.85l18.4-32.62c1.12-2.04,2.7-3.39,4.74-4.04,2.04-.65,4.09-.51,6.13.42l25.93,11.99c2.97-2.42,6.41-4.74,10.32-6.97,3.9-2.23,7.62-3.9,11.15-5.02l4.46-28.44c.37-2.04,1.35-3.72,2.93-5.02s3.39-1.95,5.44-1.95h36.8c2.04,0,3.86.65,5.44,1.95s2.56,2.97,2.93,5.02l4.46,28.16c3.53,1.3,7.3,3.02,11.29,5.16s7.39,4.51,10.18,7.11l25.93-11.99c2.04-.93,4.09-1.07,6.13-.42s3.62,2,4.74,4.04l18.4,32.34c1.12,1.86,1.44,3.86.98,5.99s-1.63,3.86-3.48,5.16l-23.98,17.01c.37,1.86.6,3.86.7,5.99.09,2.14.14,4.14.14,5.99s-.05,3.81-.14,5.85c-.09,2.04-.33,4-.7,5.85l23.98,17.29c1.67,1.3,2.79,2.97,3.35,5.02.56,2.04.28,4-.84,5.85l-18.4,32.62c-1.12,2.04-2.7,3.39-4.74,4.04s-4.09.51-6.13-.42l-25.93-11.99c-2.97,2.42-6.37,4.79-10.18,7.11s-7.57,4.04-11.29,5.16l-4.46,28.16c-.37,2.04-1.35,3.72-2.93,5.02s-3.39,1.95-5.44,1.95Z"/>
      <g class="cls-9">
        <g>
          <circle class="cls-5" cx="165.35" cy="149.47" r="113.91"/>
          <circle class="cls-5" cx="165.35" cy="149.47" r="95.15"/>
          <circle class="cls-5" cx="165.35" cy="149.47" r="76.39"/>
          <circle class="cls-5" cx="165.35" cy="149.47" r="57.63"/>
          <circle class="cls-5" cx="165.35" cy="149.47" r="38.87"/>
          <circle class="cls-1" cx="165.35" cy="149.47" r="20.11"/>
          <circle class="cls-1" cx="273.69" cy="106.26" r="13.2"/>
          <circle class="cls-1" cx="273.69" cy="106.26" r="13.2"/>
          <circle class="cls-1" cx="228.54" cy="79.86" r="13.2"/>
          <circle class="cls-1" cx="191.74" cy="37.43" r="13.2"/>
          <circle class="cls-1" cx="279.25" cy="180.7" r="13.2"/>
          <circle class="cls-1" cx="105.05" cy="193.9" r="13.2"/>
          <circle class="cls-1" cx="113.27" cy="47.57" r="13.2"/>
          <circle class="cls-1" cx="241.74" cy="149.47" r="13.2"/>
          <circle class="cls-1" cx="241.74" cy="201.54" r="13.2"/>
          <circle class="cls-1" cx="228.54" cy="244.62" r="13.2"/>
          <circle class="cls-1" cx="70.2" cy="162.67" r="13.2"/>
          <circle class="cls-1" cx="57" cy="110.6" r="13.2"/>
          <circle class="cls-1" cx="88.96" cy="93.06" r="13.2"/>
          <circle class="cls-1" cx="107.71" cy="138.55" r="13.2"/>
          <circle class="cls-1" cx="100.08" cy="241.23" r="13.2"/>
          <circle class="cls-1" cx="178.54" cy="244.62" r="13.2"/>
          <circle class="cls-1" cx="183.38" cy="182.78" r="13.2"/>
          <circle class="cls-1" cx="159.06" cy="207.1" r="13.2"/>
          <circle class="cls-1" cx="209.78" cy="116.16" r="13.2"/>
          <circle class="cls-1" cx="172.26" cy="73.08" r="13.2"/>
          <circle class="cls-1" cx="145.23" cy="116.16" r="13.2"/>
        </g>
      </g>
    </g>
    <path class="cls-1" d="m218.25,116.81h-5.67v-48.12c0-6.25-5.09-11.34-11.34-11.34h-43.76v-5.67h43.76c9.38,0,17.01,7.63,17.01,17.01v48.12Z"/>
    <path class="cls-6" d="m157.48,54.52h43.76c7.83,0,14.17,6.35,14.17,14.17v19.25s0,28.87,0,28.87v-17.64"/>
    <path class="cls-1" d="m138.82,157.84c-9.38,0-17.01-7.63-17.01-17.01v-30.48h5.67v30.48c0,6.25,5.09,11.34,11.34,11.34h43.76s0,5.67,0,5.67h-43.76Z"/>
    <path class="cls-6" d="m182.58,155.01h-43.76c-7.83,0-14.17-6.35-14.17-14.17v-19.25s0-11.22,0-11.22h0"/>
    <g>
      <path class="cls-4" d="m157.48,49.05c0-19.5-16.48-35.15-36.27-33.78-16.53,1.14-29.63,13.8-31.27,30.29-1.67,16.71,8.83,31.24,23.69,35.83-.02.03-.03.06-.04.09-.01,0-.03,0-.04,0-2.37,0-4.29,1.92-4.29,4.29,0,1.11.42,2.11,1.11,2.87.59.65.59,1.68,0,2.33-.69.76-1.11,1.76-1.11,2.87,0,1,.34,1.92.92,2.65s.59,1.81,0,2.56-.92,1.65-.92,2.65c0,2.37,1.92,4.29,4.29,4.29.07,0,.13-.02.2-.02l1.33.1.43,1.25c.6,1.76,2.26,2.95,4.12,2.95h7.99c1.86,0,3.52-1.19,4.12-2.95h0s.98.07.98.07c.15.01.8-.02,1-.02,2.37,0,4.29-1.92,4.29-4.29,0-.88-.27-1.7-.72-2.38-.62-.92-.62-2.18,0-3.11.45-.68.72-1.5.72-2.38,0-1.02-.36-1.95-.95-2.68-.64-.79-.64-1.91,0-2.7.6-.73.95-1.66.95-2.68,0-2.36-1.9-4.26-4.25-4.29l-.04-1.49c14.29-3.89,23.77-17.1,23.77-32.32Z"/>
      <path class="cls-2" d="m157.48,49.05c0-19.5-16.48-35.15-36.27-33.78-16.53,1.14-29.63,13.8-31.27,30.29-1.67,16.71,8.83,31.24,23.69,35.83-.02.03-.03.06-.04.09-.01,0-.03,0-.04,0-2.37,0-4.29,1.92-4.29,4.29,0,1.11.42,2.11,1.11,2.87.59.65.59,1.68,0,2.33-.69.76-1.11,1.76-1.11,2.87,0,1,.34,1.92.92,2.65s.59,1.81,0,2.56-.92,1.65-.92,2.65c0,2.37,1.92,4.29,4.29,4.29.07,0,.13-.02.2-.02l1.33.1.43,1.25c.6,1.76,2.26,2.95,4.12,2.95h7.99c1.86,0,3.52-1.19,4.12-2.95h0s.98.07.98.07c.15.01.8-.02,1-.02,2.37,0,4.29-1.92,4.29-4.29,0-.88-.27-1.7-.72-2.38-.62-.92-.62-2.18,0-3.11.45-.68.72-1.5.72-2.38,0-1.02-.36-1.95-.95-2.68-.64-.79-.64-1.91,0-2.7.6-.73.95-1.66.95-2.68,0-2.36-1.9-4.26-4.25-4.29l-.04-1.49c14.29-3.89,23.77-17.1,23.77-32.32Z"/>
      <path class="cls-3" d="m132.22,72.45c-.3-5.88-.39-11.78-.1-17.67.14-2.89.37-5.78.74-8.65.28-2.17,1.42-4.45,3.91-4.59s3.94,1.52,4.09,3.82c.13,2.06-1.2,3.45-2.99,4.24-1.44.64-2.99.84-4.55.91-2.31.1-4.76.16-7.02-.33-1.99-.44-3.96-1.66-5.01-3.43s-1.02-4.9,1.21-5.92c2.09-.96,4.47.17,4.94,2.42.5,2.42-.96,4.56-2.94,5.82s-4.03,1.4-6.21,1.47c-1.88.06-3.88.12-5.74-.24-1.63-.31-3.45-.93-4.52-2.27-1.19-1.48-1.03-4.02.26-5.4,1.9-2.04,5.14-1.04,6.34,1.2.64,1.19.67,2.61.81,3.93.18,1.63.32,3.27.43,4.91.44,6.59.36,13.2.02,19.79-.02.36.32.67.68.67,5,0,10,0,15,0,.87,0,.87-1.35,0-1.35-5,0-10,0-15,0l.68.67c.39-7.68.44-15.41-.28-23.07-.26-2.72-.21-5.8-2.36-7.8-1.72-1.61-4.5-1.87-6.49-.55-1.87,1.24-2.6,3.9-2.06,6.02s2.31,3.3,4.17,4c2.04.77,4.2.85,6.36.86,2.7.02,5.61-.03,8.04-1.35,2.14-1.16,3.98-3.18,4.24-5.68.24-2.35-.88-4.8-3.25-5.51-2.11-.64-4.58.12-5.68,2.1-1.18,2.12-.75,4.77.68,6.65,1.57,2.05,3.96,3.21,6.48,3.55s5.39.4,7.99.06c2-.26,4.15-.93,5.62-2.37,1.6-1.56,1.9-3.92,1.14-5.97-.91-2.46-3.57-3.68-6.09-3.06-2.97.74-3.96,3.57-4.28,6.26-1.04,8.57-1.02,17.25-.58,25.86.04.86,1.39.87,1.35,0Z"/>
    </g>
    <g>
      <rect class="cls-4" x="173.75" y="113.43" width="83.33" height="83.33" rx="12" ry="12"/>
      <g>
        <path id="path4548" class="cls-1" d="m209.22,179.02c-1.13-1.06-.96-2.88.42-4.67,1.02-1.32,5.3-5.67,8.39-8.51l1.25-1.15-1.99-4.26c-2.23-4.78-2.22-4.87.72-5.2l1.62-.18,1.81,2.73c1,1.5,1.95,2.73,2.13,2.73s1.96-1.43,3.96-3.18c3.48-3.04,3.7-3.17,4.88-3.01.71.1,1.34.04,1.49-.14.35-.42,1.36.2,1.36.84,0,.26-.5.92-1.11,1.48-2.5,2.25-7.84,7.56-7.84,7.81,0,.14,1.08,2,2.39,4.13l2.22,3.59c.1.16.08.36-.05.5l-.53.41c-.4.44-.67.79-.72,1.22.09.27-.31.39-.67.56-.92.43-1.6-.09-4.4-3.39-1.28-1.51-2.46-2.74-2.62-2.75-.35,0-4.18,4.19-7.15,7.81-2.62,3.2-4.92,3.26-5.59,2.63h0Z"/>
        <path id="path4550" class="cls-1" d="m206.11,154.14s-.03-.04-.05-.07c-5.84-8.72-10.08-10.25-9.93-10.35,2.22-1.43,6.39-.03,8.96,2.26.03.03.06.06.09.09.62.53.76.72,1.5,1.54.13,0,2.98-4.73,3-4.76,5.74-9.05,11.73-12.87,15.22-12.86,1.66,0,1.91.58,1.91.58-5.64,2.94-10.41,8.19-15.34,17.86-1.37,2.77-3.69,7.24-3.86,7.54-.25.46-.29-.23-1.51-1.83Z"/>
        <path class="cls-1" d="m187.02,154.61c1.56-.38,2.76-.93,3.61-1.64.84-.71,1.43-1.55,1.74-2.54.31-.98.47-2.07.47-3.27v-9.22c0-1.8.21-3.28.63-4.44.42-1.16,1.15-2.02,2.17-2.57,1.02-.55,2.42-.83,4.21-.83v-4.52c-2.26,0-4.16.25-5.7.74-1.54.49-2.77,1.25-3.69,2.26s-1.59,2.3-1.99,3.85c-.41,1.55-.61,3.39-.61,5.51v7.38c0,2.52-.51,4.32-1.53,5.4-1.02,1.08-2.82,1.61-5.38,1.61v5.53c2.57,0,4.36.54,5.38,1.61,1.02,1.08,1.53,2.87,1.53,5.4v7.38c0,2.12.2,3.96.61,5.51.41,1.55,1.07,2.84,1.99,3.85.92,1.01,2.15,1.77,3.69,2.26,1.54.49,3.44.74,5.7.74v-4.52c-1.78,0-3.19-.28-4.21-.84-1.02-.56-1.75-1.42-2.17-2.57s-.63-2.63-.63-4.43v-9.22c0-1.2-.16-2.29-.47-3.27-.32-.98-.9-1.83-1.74-2.54-.85-.71-2.05-1.25-3.61-1.64-.2-.05-.42-.08-.63-.13v-.71c.21-.04.44-.08.63-.13Z"/>
        <path class="cls-1" d="m243.82,154.61c-1.56-.38-2.76-.93-3.61-1.64-.84-.71-1.43-1.55-1.74-2.54-.31-.98-.47-2.07-.47-3.27v-9.22c0-1.8-.21-3.28-.63-4.44-.42-1.16-1.15-2.02-2.17-2.57-1.02-.55-2.42-.83-4.21-.83v-4.52c2.26,0,4.16.25,5.7.74,1.54.49,2.77,1.25,3.69,2.26s1.59,2.3,1.99,3.85c.41,1.55.61,3.39.61,5.51v7.38c0,2.52.51,4.32,1.53,5.4,1.02,1.08,2.82,1.61,5.38,1.61v2.67s0,.18,0,.18v2.67c-2.57,0-4.36.54-5.38,1.61-1.02,1.08-1.53,2.87-1.53,5.4v7.38c0,2.12-.2,3.96-.61,5.51-.41,1.55-1.07,2.84-1.99,3.85-.92,1.01-2.15,1.77-3.69,2.26-1.54.49-3.44.74-5.7.74v-4.52c1.78,0,3.19-.28,4.21-.84,1.02-.56,1.75-1.42,2.17-2.57.42-1.15.63-2.63.63-4.43v-9.22c0-1.2.16-2.29.47-3.27.32-.98.9-1.83,1.74-2.54.85-.71,2.05-1.25,3.61-1.64.2-.05.42-.08.63-.13v-.71c-.21-.04-.44-.08-.63-.13Z"/>
      </g>
    </g>
  </g>
</svg>