<?xml version="1.0" encoding="UTF-8"?>
<svg id="Layer_2" data-name="Layer 2" xmlns="http://www.w3.org/2000/svg" xmlns:xlink="http://www.w3.org/1999/xlink" viewBox="0 0 473.38 297.05">
  <defs>
    <style>
      .cls-1, .cls-2, .cls-3, .cls-4, .cls-5, .cls-6 {
        fill: #fff;
      }

      .cls-7 {
        fill: #3b82f6;
      }

      .cls-8, .cls-2, .cls-9, .cls-10, .cls-4, .cls-5, .cls-11 {
        stroke-miterlimit: 10;
      }

      .cls-8, .cls-3, .cls-4, .cls-11, .cls-12 {
        stroke: #fff;
      }

      .cls-8, .cls-9, .cls-10, .cls-13 {
        fill: none;
      }

      .cls-2, .cls-10 {
        stroke: #231f20;
      }

      .cls-14 {
        isolation: isolate;
        opacity: .6;
      }

      .cls-9 {
        stroke: #3b82f6;
        stroke-linecap: round;
      }

      .cls-9, .cls-10, .cls-15 {
        stroke-width: 2px;
      }

      .cls-10 {
        stroke-dasharray: 0 0 0 12 2 2;
      }

      .cls-4, .cls-11 {
        stroke-width: 4px;
      }

      .cls-15 {
        fill: url(#linear-gradient);
        fill-rule: evenodd;
        stroke: url(#linear-gradient-2);
      }

      .cls-16 {
        clip-path: url(#clippath);
      }

      .cls-13 {
        clip-rule: evenodd;
      }

      .cls-5, .cls-6 {
        stroke: #000;
      }

      .cls-11 {
        fill: #184fa8;
      }
    </style>
    <linearGradient id="linear-gradient" x1="137.78" y1="-17.31" x2="397.1" y2="257.1" gradientUnits="userSpaceOnUse">
      <stop offset="0" stop-color="#dde1ff"/>
      <stop offset=".44" stop-color="#5468ff"/>
      <stop offset="1" stop-color="#fff"/>
    </linearGradient>
    <linearGradient id="linear-gradient-2" x1="101.54" y1="148.53" x2="428.09" y2="148.53" gradientUnits="userSpaceOnUse">
      <stop offset="0" stop-color="#fff"/>
      <stop offset="1" stop-color="#fff" stop-opacity=".13"/>
    </linearGradient>
    <clipPath id="clippath">
      <path class="cls-13" d="m239.28,222.29h-110.3c-5.01,0-10-1.23-14.25-3.88-7.71-4.81-12.19-13.14-12.19-21.93V27.33c0-14.54,11.79-26.33,26.33-26.33h271.89c14.54,0,26.33,11.79,26.33,26.33v168.51c0,5.01-1.23,10-3.88,14.25-4.81,7.71-13.14,12.19-21.93,12.19h-110.93c-.31,0-1.39,73.76,57.17,73.76s-211.08,0-165.4,0c61.27,0,57.48-73.76,57.17-73.76Z"/>
    </clipPath>
  </defs>
  <g id="Layer_1-2" data-name="Layer 1">
    <g class="cls-14">
      <path class="cls-15" d="m239.28,222.29h-110.3c-5.01,0-10-1.23-14.25-3.88-7.71-4.81-12.19-13.14-12.19-21.93V27.33c0-14.54,11.79-26.33,26.33-26.33h271.89c14.54,0,26.33,11.79,26.33,26.33v168.51c0,5.01-1.23,10-3.88,14.25-4.81,7.71-13.14,12.19-21.93,12.19h-110.93c-.31,0-1.39,73.76,57.17,73.76s-211.08,0-165.4,0c61.27,0,57.48-73.76,57.17-73.76Z"/>
    </g>
    <g class="cls-16">
      <g>
        <path class="cls-8" d="m336.58,112.43c1.85-5.36,2.78-10.93,2.78-16.63,0-27.57-21.7-50.04-48.52-50.46-7.6-25.84-31.07-44.03-57.87-44.03-19.62,0-37.24,9.83-48.32,25-11.08-15.17-28.7-25-48.32-25-26.8,0-50.26,18.19-57.87,44.03-26.82.42-48.52,22.89-48.52,50.46,0,5.7.93,11.27,2.78,16.63C12.71,126.36.5,149.68.5,174.65c0,11.01,2.33,21.71,6.94,31.79,2.43,5.33,5.43,10.32,8.91,14.82,13.69,17.72,34.19,28.12,56.24,28.53h.07l.73.06h.36c3.44,10.75,9.57,20.35,17.95,28.01,11.61,10.63,26.51,16.48,41.95,16.48,20.86,0,39.45-10.23,51-26.27,11.54,16.04,30.13,26.27,51,26.27,15.45,0,30.34-5.85,41.95-16.48,8.38-7.67,14.51-17.26,17.95-28.01h.36l.73-.06h.07c22.05-.41,42.55-10.81,56.24-28.53,3.48-4.5,6.48-9.49,8.91-14.82,4.6-10.08,6.94-20.77,6.94-31.79,0-24.98-12.21-48.29-32.22-62.23Z"/>
        <g>
          <path class="cls-1" d="m323.42,159.92c-4.23,0-7.98-2.73-9.34-6.79l-.79-2.37H56l-.79,2.37c-1.36,4.06-5.11,6.79-9.34,6.79-5.46,0-9.9-4.44-9.9-9.9s4.44-9.9,9.9-9.9c4.23,0,7.98,2.73,9.34,6.79l.79,2.37h257.29l.79-2.37c1.36-4.06,5.11-6.79,9.34-6.79,5.46,0,9.9,4.44,9.9,9.9s-4.44,9.9-9.9,9.9Z"/>
          <path class="cls-1" d="m96.58,135.64l-20.84-20.84-2.24,1.12c-1.44.72-2.93,1.09-4.4,1.09-5.46,0-9.9-4.44-9.9-9.9s4.44-9.9,9.9-9.9,9.9,4.44,9.9,9.9c0,1.48-.37,2.96-1.09,4.4l-1.12,2.24,20.41,20.4h174.9l20.41-20.4-1.12-2.24c-.72-1.44-1.09-2.92-1.09-4.4,0-5.46,4.44-9.9,9.9-9.9s9.9,4.44,9.9,9.9-4.44,9.9-9.9,9.9c-1.47,0-2.96-.37-4.4-1.09l-2.24-1.12-20.84,20.84H96.58Z"/>
          <path class="cls-1" d="m121.18,120.17l-23.65-23.65v-29.77l21.9-21.9-1.12-2.24c-.72-1.44-1.09-2.92-1.09-4.4,0-5.46,4.44-9.9,9.9-9.9s9.9,4.44,9.9,9.9-4.44,9.9-9.9,9.9c-1.47,0-2.96-.37-4.4-1.09l-2.24-1.12-21.46,21.46v28.54l22.78,22.77h125.7l22.78-22.77v-28.54l-21.46-21.46-2.24,1.12c-1.44.72-2.92,1.09-4.4,1.09-5.46,0-9.9-4.44-9.9-9.9s4.44-9.9,9.9-9.9,9.9,4.44,9.9,9.9c0,1.48-.37,2.96-1.09,4.4l-1.12,2.24,21.9,21.89v29.77l-23.65,23.65h-126.94Z"/>
          <path class="cls-1" d="m182.86,89.18l-13.46-13.45-2.24,1.12c-1.44.72-2.92,1.09-4.4,1.09-5.46,0-9.9-4.44-9.9-9.9s4.44-9.9,9.9-9.9,9.9,4.44,9.9,9.9c0,1.47-.37,2.96-1.09,4.4l-1.12,2.24,14.19,14.2,14.19-14.2-1.12-2.24c-.72-1.44-1.09-2.93-1.09-4.4,0-5.46,4.44-9.9,9.9-9.9s9.9,4.44,9.9,9.9-4.44,9.9-9.9,9.9c-1.48,0-2.96-.37-4.4-1.09l-2.24-1.12-13.46,13.45h-3.58Z"/>
          <path class="cls-1" d="m149.34,104.93l-13.46-13.45-2.24,1.12c-1.44.72-2.92,1.09-4.4,1.09-5.46,0-9.9-4.44-9.9-9.9s4.44-9.9,9.9-9.9,9.9,4.44,9.9,9.9c0,1.48-.37,2.96-1.09,4.4l-1.12,2.24,13.02,13.02h69.39l13.02-13.02-1.12-2.24c-.72-1.44-1.09-2.92-1.09-4.4,0-5.46,4.44-9.9,9.9-9.9s9.9,4.44,9.9,9.9-4.44,9.9-9.9,9.9c-1.48,0-2.96-.37-4.4-1.09l-2.24-1.12-13.46,13.45h-70.62Z"/>
          <path class="cls-1" d="m248.53,227.8c-5.46,0-9.9-4.44-9.9-9.9,0-1.48.37-2.96,1.09-4.4l1.12-2.24-13.02-13.02h-86.34l-13.02,13.02,1.12,2.24c.72,1.44,1.09,2.92,1.09,4.4,0,5.46-4.44,9.9-9.9,9.9s-9.9-4.44-9.9-9.9,4.44-9.9,9.9-9.9c1.47,0,2.96.37,4.4,1.09l2.24,1.12,13.45-13.45h87.57l13.45,13.45,2.24-1.12c1.45-.72,2.93-1.09,4.4-1.09,5.46,0,9.9,4.44,9.9,9.9s-4.44,9.9-9.9,9.9Z"/>
          <path class="cls-1" d="m352.94,196.48c-4.23,0-7.98-2.73-9.34-6.79l-.79-2.37h-38.7l-20.38-20.38H85.55l-20.38,20.38H26.48l-.79,2.37c-1.36,4.06-5.11,6.79-9.34,6.79-5.46,0-9.9-4.44-9.9-9.9s4.44-9.9,9.9-9.9c4.23,0,7.98,2.73,9.34,6.79l.79,2.37h38.08l20.38-20.38h199.43l20.38,20.38h38.08l.79-2.37c1.36-4.06,5.11-6.79,9.34-6.79,5.46,0,9.9,4.44,9.9,9.9s-4.44,9.9-9.9,9.9Z"/>
          <path class="cls-1" d="m255.59,267.41c-5.46,0-9.9-4.44-9.9-9.9s4.44-9.9,9.9-9.9c2.04,0,4.02.64,5.71,1.85l2.39,1.7,14.7-14.7v-30.56l-22.78-22.78H113.68l-22.78,22.78v30.56l14.7,14.7,2.39-1.7c1.7-1.21,3.67-1.85,5.71-1.85,5.46,0,9.9,4.44,9.9,9.9s-4.44,9.9-9.9,9.9-9.9-4.44-9.9-9.9c0-.88.16-1.81.5-2.92l.62-2-15.52-15.52v-31.79l23.65-23.65h143.17l23.65,23.65v31.79l-15.52,15.52.62,2c.34,1.11.5,2.03.5,2.92,0,5.46-4.44,9.9-9.9,9.9Z"/>
          <path class="cls-1" d="m209.34,242.88c-5.46,0-9.9-4.44-9.9-9.9,0-1.48.37-2.96,1.09-4.4l1.12-2.24-13.02-13.02h-7.96l-13.02,13.02,1.12,2.24c.72,1.44,1.09,2.92,1.09,4.4,0,5.46-4.44,9.9-9.9,9.9s-9.9-4.44-9.9-9.9,4.44-9.9,9.9-9.9c1.47,0,2.96.37,4.4,1.09l2.24,1.12,13.45-13.45h9.2l13.45,13.45,2.24-1.12c1.45-.72,2.93-1.09,4.4-1.09,5.46,0,9.9,4.44,9.9,9.9s-4.44,9.9-9.9,9.9Z"/>
        </g>
      </g>
    </g>
    <path class="cls-1" d="m185.31,199.98h-68.74v-5.67h68.74c6.25,0,11.34-5.09,11.34-11.34v-47.59c0-9.38,7.63-17.01,17.01-17.01h89.26v5.67h-89.26c-6.25,0-11.34,5.09-11.34,11.34v47.59c0,9.38-7.63,17.01-17.01,17.01Z"/>
    <path class="cls-10" d="m302.92,121.21h-89.26c-7.83,0-14.17,6.35-14.17,14.17v19.25s0,11.22,0,11.22v17.11c0,7.83-6.35,14.17-14.17,14.17h-68.74"/>
    <g>
      <path class="cls-11" d="m266.74,186.1v1.92c0,5.29,3.12,9.58,6.97,9.58h190.71c3.85,0,6.97-4.29,6.97-9.58v-1.92h-204.64Z"/>
      <path class="cls-11" d="m436.08,180.94h-162.39c-3.78,0-7.06-2.59-7.94-6.27l-21.94-92.34c-1.22-5.12,2.67-10.04,7.94-10.04h163.49c3.81,0,7.12,2.64,7.96,6.36l20.84,92.34c1.15,5.1-2.73,9.95-7.96,9.95Z"/>
      <path class="cls-2" d="m436.29,180.94h-162.68c-3.71,0-6.94-2.55-7.8-6.16l-22.01-92.63c-1.2-5.04,2.62-9.87,7.8-9.87h163.78c3.75,0,6.99,2.6,7.82,6.25l20.91,92.63c1.13,5.01-2.68,9.78-7.82,9.78Zm-28.27-101.58h-146.35c-5.2,0-9.03,4.88-7.78,9.93l17.99,72.91c.88,3.58,4.09,6.09,7.78,6.09h145.3c5.16,0,8.97-4.8,7.81-9.83l-16.93-72.91c-.84-3.63-4.08-6.2-7.81-6.2Z"/>
      <path class="cls-2" d="m266.74,186.1v1.92c0,5.29,3.12,9.58,6.97,9.58h190.71c3.85,0,6.97-4.29,6.97-9.58v-1.92h-204.64Z"/>
      <g>
        <path class="cls-1" d="m306.27,123.27c1.66-.44,2.85-1.07,3.58-1.89.72-.81,1.1-1.79,1.11-2.92.02-1.13-.19-2.39-.61-3.77l-3.25-10.62c-.63-2.07-.91-3.78-.83-5.11.08-1.34.61-2.32,1.59-2.96.98-.64,2.5-.96,4.55-.96l-1.59-5.21c-2.6,0-4.7.28-6.3.85-1.6.57-2.75,1.43-3.45,2.6-.71,1.17-1.02,2.65-.94,4.43.08,1.79.49,3.9,1.24,6.35l2.6,8.5c.89,2.9.93,4.98.13,6.21-.8,1.24-2.68,1.86-5.63,1.86l.94,3.08.06.21.94,3.08c2.96,0,5.21.62,6.77,1.86,1.56,1.24,2.78,3.31,3.67,6.21l2.6,8.5c.75,2.44,1.63,4.56,2.64,6.35,1.02,1.79,2.23,3.27,3.65,4.43s3.1,2.04,5.04,2.6c1.94.57,4.22.85,6.82.85l-1.59-5.2c-2.05,0-3.77-.32-5.14-.97-1.38-.65-2.51-1.63-3.4-2.96-.89-1.33-1.66-3.03-2.29-5.1l-3.25-10.62c-.42-1.38-.99-2.64-1.7-3.77-.71-1.13-1.68-2.11-2.9-2.92-1.22-.81-2.8-1.44-4.73-1.89-.24-.06-.52-.1-.78-.15l-.25-.82c.23-.05.48-.09.69-.15Z"/>
        <path class="cls-1" d="m381.83,123.27c-1.93-.44-3.51-1.07-4.73-1.89-1.22-.81-2.19-1.79-2.9-2.92-.71-1.13-1.27-2.39-1.7-3.77l-3.25-10.62c-.63-2.07-1.4-3.78-2.29-5.11-.9-1.34-2.03-2.32-3.4-2.96-1.37-.64-3.08-.96-5.14-.96l-1.59-5.21c2.6,0,4.88.28,6.82.85,1.94.57,3.62,1.43,5.04,2.6s2.64,2.65,3.65,4.43c1.02,1.79,1.9,3.9,2.64,6.35l2.6,8.5c.89,2.9,2.11,4.98,3.67,6.21,1.56,1.24,3.81,1.86,6.77,1.86l.94,3.08.06.21.94,3.08c-2.96,0-4.83.62-5.63,1.86-.8,1.24-.75,3.31.13,6.21l2.6,8.5c.75,2.44,1.16,4.56,1.24,6.35.08,1.79-.24,3.27-.94,4.43s-1.86,2.04-3.45,2.6c-1.6.57-3.7.85-6.3.85l-1.59-5.2c2.05,0,3.57-.32,4.55-.97.98-.65,1.51-1.63,1.59-2.96s-.2-3.03-.83-5.1l-3.25-10.62c-.42-1.38-.62-2.64-.61-3.77.02-1.13.39-2.11,1.11-2.92.73-.81,1.92-1.44,3.58-1.89.21-.06.46-.1.69-.15l-.25-.82c-.26-.05-.53-.09-.78-.15Z"/>
        <ellipse class="cls-1" cx="331.36" cy="137.19" rx="5.69" ry="7.72" transform="translate(11.4 299.2) rotate(-49.35)"/>
        <ellipse class="cls-1" cx="348.31" cy="137.19" rx="5.69" ry="7.72" transform="translate(17.31 312.06) rotate(-49.35)"/>
        <ellipse class="cls-1" cx="365.25" cy="137.19" rx="5.69" ry="7.72" transform="translate(23.21 324.91) rotate(-49.35)"/>
      </g>
    </g>
    <circle class="cls-11" cx="423.68" cy="72.28" r="36.85"/>
    <circle class="cls-2" cx="423.68" cy="72.28" r="36.85"/>
    <g>
      <circle class="cls-6" cx="428.99" cy="62.27" r="2.29"/>
      <circle class="cls-6" cx="434.25" cy="66.63" r="3.71"/>
      <circle class="cls-6" cx="445.3" cy="73.02" r="3.71"/>
      <circle class="cls-6" cx="438.64" cy="71.6" r="2.47"/>
      <circle class="cls-6" cx="433.01" cy="85.05" r="2.47"/>
      <circle class="cls-6" cx="439.22" cy="62.27" r="2.57"/>
      <circle class="cls-6" cx="439.35" cy="78.03" r="4.08"/>
      <circle class="cls-6" cx="435.04" cy="81.5" r="1.56"/>
      <circle class="cls-6" cx="450.24" cy="76.77" r="1.56"/>
      <circle class="cls-6" cx="450.24" cy="69.13" r="1.56"/>
      <circle class="cls-6" cx="433.68" cy="73.02" r="2.5"/>
      <circle class="cls-6" cx="423.73" cy="59.7" r="3.26"/>
      <circle class="cls-6" cx="446.41" cy="66.71" r="2.79"/>
      <circle class="cls-6" cx="427.04" cy="84.82" r="3.5"/>
      <circle class="cls-6" cx="445.97" cy="79.44" r="2.71"/>
      <circle class="cls-6" cx="451.72" cy="73.02" r="2.71"/>
      <circle class="cls-6" cx="395.63" cy="73.02" r="2.71"/>
      <circle class="cls-6" cx="434.25" cy="59.7" r="3.07"/>
      <circle class="cls-6" cx="441.11" cy="67.04" r="2.51"/>
      <circle class="cls-6" cx="437.81" cy="84.26" r="2.33"/>
      <circle class="cls-6" cx="428.99" cy="57.61" r="2.33"/>
      <circle class="cls-6" cx="415.98" cy="77.78" r="2.33"/>
      <circle class="cls-6" cx="418.22" cy="62.31" r="2.29"/>
      <circle class="cls-6" cx="412.96" cy="66.67" r="3.71"/>
      <circle class="cls-6" cx="401.91" cy="73.06" r="3.71"/>
      <circle class="cls-6" cx="425.37" cy="79.94" r="1.71"/>
      <circle class="cls-6" cx="408.57" cy="71.64" r="2.47"/>
      <circle class="cls-6" cx="414.2" cy="85.09" r="2.47"/>
      <circle class="cls-6" cx="407.99" cy="62.31" r="2.57"/>
      <circle class="cls-6" cx="407.86" cy="78.07" r="4.08"/>
      <circle class="cls-6" cx="421.31" cy="79.94" r="1.56"/>
      <circle class="cls-6" cx="403.95" cy="63.21" r="1.56"/>
      <circle class="cls-6" cx="397.71" cy="69.54" r="1.56"/>
      <circle class="cls-6" cx="404.97" cy="82.92" r="1.56"/>
      <circle class="cls-6" cx="397.71" cy="76.77" r="1.56"/>
      <circle class="cls-6" cx="413.53" cy="73.06" r="2.5"/>
      <circle class="cls-6" cx="415.69" cy="79.13" r="3.76"/>
      <circle class="cls-6" cx="431.46" cy="78.95" r="3.58"/>
      <circle class="cls-6" cx="400.65" cy="66.6" r="2.94"/>
      <circle class="cls-6" cx="419.93" cy="84.62" r="3.26"/>
      <circle class="cls-6" cx="401.26" cy="79.46" r="2.69"/>
      <circle class="cls-6" cx="412.96" cy="59.74" r="3.07"/>
      <circle class="cls-6" cx="406.1" cy="67.08" r="2.51"/>
      <circle class="cls-6" cx="409.4" cy="84.3" r="2.33"/>
      <circle class="cls-6" cx="418.22" cy="57.65" r="2.33"/>
      <circle class="cls-12" cx="423.54" cy="70.75" r="7.79"/>
      <path class="cls-3" d="m426.98,77.74c1.29-.64,2.37-1.62,3.14-2.82l-6.58-4.17,3.44,6.99Z"/>
    </g>
    <g>
      <g>
        <rect class="cls-11" x="54.2" y="90.04" width="80.53" height="102.63" rx="8.5" ry="8.5"/>
        <rect class="cls-2" x="54.2" y="90.04" width="80.53" height="102.63" rx="8.5" ry="8.5"/>
      </g>
      <line class="cls-9" x1="63.18" y1="117.8" x2="125.75" y2="117.8"/>
      <line class="cls-9" x1="63.18" y1="131.67" x2="125.75" y2="131.67"/>
      <line class="cls-9" x1="63.18" y1="124.73" x2="125.75" y2="124.73"/>
      <line class="cls-9" x1="63.18" y1="138.6" x2="125.75" y2="138.6"/>
      <line class="cls-9" x1="63.18" y1="145.53" x2="125.75" y2="145.53"/>
      <line class="cls-9" x1="63.18" y1="159.4" x2="125.75" y2="159.4"/>
      <line class="cls-9" x1="63.18" y1="152.47" x2="125.75" y2="152.47"/>
      <line class="cls-9" x1="63.18" y1="166.34" x2="125.75" y2="166.34"/>
      <line class="cls-9" x1="63.18" y1="173.27" x2="125.75" y2="173.27"/>
      <line class="cls-9" x1="63.18" y1="180.21" x2="125.75" y2="180.21"/>
      <rect class="cls-7" x="61.71" y="101.06" width="66.84" height="8.6" rx="4.3" ry="4.3"/>
    </g>
    <g>
      <path class="cls-4" d="m170.98,215.39v-41.86l-36.25-20.93-36.25,20.93v41.86l36.25,20.96,36.25-20.96Z"/>
      <path class="cls-5" d="m170.98,215.39v-41.86l-36.25-20.93-36.25,20.93v41.86l36.25,20.96,36.25-20.96Zm-33.32,12.62v-31.66l27.59-15.71v31.44l-27.59,15.93Zm25.14-52.58l-28.1,15.53-28.03-15.53,28.06-16.2,28.07,16.2Zm-58.58,5.21l28.08,15.71v31.73l-28.08-16v-31.44Z"/>
    </g>
  </g>
</svg>