<?xml version="1.0" encoding="UTF-8"?>
<svg id="Layer_2" data-name="Layer 2" xmlns="http://www.w3.org/2000/svg" xmlns:xlink="http://www.w3.org/1999/xlink" viewBox="0 0 288.2 223.88">
  <defs>
    <style>
      .cls-1, .cls-2, .cls-3 {
        fill: #fff;
      }

      .cls-4 {
        fill: #3b82f6;
      }

      .cls-5, .cls-2, .cls-6, .cls-7, .cls-8, .cls-3, .cls-9 {
        stroke-miterlimit: 10;
      }

      .cls-5, .cls-6, .cls-7 {
        fill: none;
      }

      .cls-5, .cls-8, .cls-9 {
        stroke: #fff;
      }

      .cls-2, .cls-7 {
        stroke: #231f20;
      }

      .cls-6 {
        stroke: #3b82f6;
        stroke-linecap: round;
      }

      .cls-6, .cls-7, .cls-8, .cls-10 {
        stroke-width: 2px;
      }

      .cls-7 {
        stroke-dasharray: 0 0 0 12 2 2;
      }

      .cls-3 {
        stroke: #000;
      }

      .cls-9 {
        fill: #184fa8;
        stroke-width: 4px;
      }

      .cls-10 {
        fill: url(#linear-gradient);
        opacity: .6;
        stroke: url(#linear-gradient-2);
      }
    </style>
    <linearGradient id="linear-gradient" x1="164.44" y1="208.3" x2="55.47" y2="19.56" gradientUnits="userSpaceOnUse">
      <stop offset="0" stop-color="#dde1ff"/>
      <stop offset=".44" stop-color="#5468ff"/>
      <stop offset="1" stop-color="#fff"/>
    </linearGradient>
    <linearGradient id="linear-gradient-2" x1="0" y1="113.93" x2="219.9" y2="113.93" gradientUnits="userSpaceOnUse">
      <stop offset="0" stop-color="#fff"/>
      <stop offset="1" stop-color="#fff" stop-opacity=".13"/>
    </linearGradient>
  </defs>
  <g id="Layer_1-2" data-name="Layer 1">
    <circle class="cls-10" cx="109.95" cy="113.93" r="108.95"/>
    <g>
      <circle class="cls-1" cx="150.9" cy="17.18" r="17.18"/>
      <circle class="cls-1" cx="150.9" cy="198.25" r="17.18"/>
      <line class="cls-5" x1="150.9" y1="201.61" x2="150.9" y2="17.18"/>
      <circle class="cls-1" cx="214.92" cy="43.7" r="17.18"/>
      <circle class="cls-1" cx="150.9" cy="107.72" r="17.18"/>
      <circle class="cls-1" cx="86.89" cy="171.74" r="17.18"/>
      <line class="cls-5" x1="84.52" y1="174.11" x2="214.92" y2="43.7"/>
      <circle class="cls-1" cx="86.89" cy="43.7" r="17.18"/>
      <circle class="cls-1" cx="214.92" cy="171.74" r="17.18"/>
      <line class="cls-5" x1="217.29" y1="174.11" x2="86.89" y2="43.7"/>
      <circle class="cls-1" cx="241.44" cy="107.72" r="17.18"/>
      <path class="cls-1" d="m43.19,107.72c0-9.49,7.69-17.18,17.18-17.18s17.18,7.69,17.18,17.18-7.69,17.18-17.18,17.18c-9.49,0-17.18-7.69-17.18-17.18Z"/>
      <line class="cls-5" x1="57.02" y1="107.72" x2="241.44" y2="107.72"/>
    </g>
    <path class="cls-1" d="m74.51,165.99h-13.66v-4.33h13.66c4.78,0,8.66-3.89,8.66-8.67v-36.37c0-7.17,5.83-13,13-13h68.22v4.33h-68.22c-4.78,0-8.66,3.89-8.66,8.67v36.37c0,7.17-5.83,13-13,13Z"/>
    <path class="cls-7" d="m164.39,105.8h-68.22c-5.98,0-10.83,4.85-10.83,10.83v14.71s0,8.58,0,8.58v13.08"/>
    <g>
      <path class="cls-9" d="m129.81,156.04v1.46c0,4.04,2.38,7.32,5.32,7.32h145.75c2.94,0,5.32-3.28,5.32-7.32v-1.46h-156.39Z"/>
      <path class="cls-9" d="m259.22,152.09h-124.1c-2.89,0-5.4-1.98-6.06-4.79l-16.77-70.57c-.93-3.92,2.04-7.67,6.06-7.67h124.94c2.91,0,5.44,2.02,6.08,4.86l15.93,70.57c.88,3.9-2.08,7.61-6.08,7.61Z"/>
      <path class="cls-2" d="m259.39,152.09h-124.33c-2.84,0-5.3-1.95-5.96-4.71l-16.82-70.79c-.91-3.85,2-7.54,5.96-7.54h125.17c2.86,0,5.34,1.98,5.97,4.78l15.98,70.79c.86,3.83-2.05,7.47-5.97,7.47Zm-21.6-77.63h-111.85c-3.98,0-6.9,3.73-5.95,7.59l13.75,55.72c.67,2.74,3.13,4.66,5.95,4.66h111.04c3.94,0,6.86-3.67,5.97-7.51l-12.94-55.72c-.64-2.78-3.12-4.74-5.97-4.74Z"/>
      <path class="cls-2" d="m129.81,156.04v1.46c0,4.04,2.38,7.32,5.32,7.32h145.75c2.94,0,5.32-3.28,5.32-7.32v-1.46h-156.39Z"/>
      <g>
        <path class="cls-1" d="m160.02,108.02c1.27-.34,2.18-.82,2.74-1.44.55-.62.84-1.37.85-2.23.01-.87-.14-1.83-.47-2.88l-2.48-8.12c-.48-1.58-.7-2.89-.64-3.91.06-1.02.47-1.78,1.22-2.26.75-.49,1.91-.73,3.48-.73l-1.22-3.98c-1.99,0-3.59.22-4.81.65-1.22.43-2.1,1.1-2.64,1.99s-.78,2.02-.72,3.39c.06,1.37.37,2.98.94,4.85l1.99,6.49c.68,2.22.71,3.8.1,4.75-.61.95-2.05,1.42-4.3,1.42l.72,2.35.05.16.72,2.35c2.26,0,3.98.47,5.17,1.42,1.19.95,2.12,2.53,2.8,4.75l1.99,6.49c.57,1.87,1.24,3.48,2.02,4.85.78,1.37,1.71,2.5,2.79,3.39s2.37,1.56,3.86,1.99c1.49.43,3.22.65,5.21.65l-1.22-3.98c-1.57,0-2.88-.25-3.93-.74-1.05-.49-1.92-1.25-2.6-2.26-.68-1.01-1.27-2.31-1.75-3.9l-2.48-8.12c-.32-1.06-.76-2.02-1.3-2.88-.54-.87-1.28-1.61-2.21-2.23-.93-.62-2.14-1.1-3.62-1.44-.19-.04-.39-.07-.59-.11l-.19-.63c.17-.04.36-.07.52-.11Z"/>
        <path class="cls-1" d="m217.76,108.02c-1.48-.34-2.68-.82-3.62-1.44-.93-.62-1.67-1.37-2.21-2.23-.54-.87-.97-1.83-1.3-2.88l-2.48-8.12c-.48-1.58-1.07-2.89-1.75-3.91-.68-1.02-1.55-1.78-2.6-2.26-1.05-.49-2.36-.73-3.93-.73l-1.22-3.98c1.99,0,3.73.22,5.21.65,1.49.43,2.77,1.1,3.86,1.99s2.02,2.02,2.79,3.39c.78,1.37,1.45,2.98,2.02,4.85l1.99,6.49c.68,2.22,1.61,3.8,2.8,4.75,1.19.95,2.91,1.42,5.17,1.42l.72,2.35.05.16.72,2.35c-2.26,0-3.69.47-4.3,1.42-.61.95-.58,2.53.1,4.75l1.99,6.49c.57,1.87.89,3.48.94,4.85.06,1.37-.18,2.5-.72,3.39s-1.42,1.56-2.64,1.99c-1.22.43-2.83.65-4.81.65l-1.22-3.98c1.57,0,2.73-.25,3.48-.74.75-.49,1.15-1.25,1.22-2.26s-.15-2.31-.63-3.9l-2.48-8.12c-.32-1.06-.48-2.02-.47-2.88.01-.87.3-1.61.85-2.23.55-.62,1.47-1.1,2.74-1.44.16-.04.35-.07.52-.11l-.19-.63c-.2-.04-.41-.07-.59-.11Z"/>
        <ellipse class="cls-1" cx="179.2" cy="118.66" rx="4.35" ry="5.9" transform="translate(-27.57 177.3) rotate(-49.35)"/>
        <ellipse class="cls-1" cx="192.15" cy="118.66" rx="4.35" ry="5.9" transform="translate(-23.06 187.13) rotate(-49.35)"/>
        <ellipse class="cls-1" cx="205.1" cy="118.66" rx="4.35" ry="5.9" transform="translate(-18.55 196.95) rotate(-49.35)"/>
      </g>
    </g>
    <g>
      <g>
        <rect class="cls-9" x="58.42" y="138.85" width="61.54" height="78.43" rx="8.5" ry="8.5"/>
        <rect class="cls-2" x="58.42" y="138.85" width="61.54" height="78.43" rx="8.5" ry="8.5"/>
      </g>
      <line class="cls-6" x1="65.28" y1="160.07" x2="113.1" y2="160.07"/>
      <line class="cls-6" x1="65.28" y1="170.67" x2="113.1" y2="170.67"/>
      <line class="cls-6" x1="65.28" y1="165.37" x2="113.1" y2="165.37"/>
      <line class="cls-6" x1="65.28" y1="175.96" x2="113.1" y2="175.96"/>
      <line class="cls-6" x1="65.28" y1="181.26" x2="113.1" y2="181.26"/>
      <line class="cls-6" x1="65.28" y1="191.86" x2="113.1" y2="191.86"/>
      <line class="cls-6" x1="65.28" y1="186.56" x2="113.1" y2="186.56"/>
      <line class="cls-6" x1="65.28" y1="197.16" x2="113.1" y2="197.16"/>
      <line class="cls-6" x1="65.28" y1="202.46" x2="113.1" y2="202.46"/>
      <line class="cls-6" x1="65.28" y1="207.76" x2="113.1" y2="207.76"/>
      <rect class="cls-4" x="64.16" y="147.28" width="51.08" height="6.58" rx="3.29" ry="3.29"/>
    </g>
    <g>
      <circle class="cls-9" cx="126.39" cy="157.04" r="28.16"/>
      <circle class="cls-2" cx="126.39" cy="157.04" r="28.16"/>
      <path class="cls-8" d="m130.99,160.85c3.99-1.77,6.79-5.77,6.79-10.41,0-6.28-5.11-11.38-11.38-11.38s-11.38,5.11-11.38,11.38c0,4.64,2.79,8.64,6.79,10.41-5.46.9-10.38,3.35-14.32,6.89,5.02,4.51,11.64,7.27,18.92,7.27s13.9-2.77,18.92-7.27c-3.94-3.54-8.87-5.99-14.32-6.89Z"/>
    </g>
    <g>
      <path class="cls-9" d="m257,31.53c-5.61-5.58-13.35-9.03-21.89-9.03s-16.28,3.45-21.89,9.03c-5.65,5.62-9.16,13.41-9.16,22.01s3.5,16.39,9.16,22.01c5.61,5.58,13.35,9.03,21.89,9.03s16.28-3.45,21.89-9.03c5.65-5.62,9.16-13.41,9.16-22.01s-3.5-16.39-9.16-22.01Z"/>
      <g>
        <path class="cls-3" d="m266.16,53.55c0-8.6-3.5-16.39-9.16-22.01-2.15,2.14-4.62,3.96-7.32,5.4,1.69,4.8,2.68,10.5,2.68,16.61s-.99,11.81-2.68,16.61c2.7,1.44,5.17,3.26,7.32,5.4,5.65-5.62,9.16-13.41,9.16-22.01Z"/>
        <path class="cls-3" d="m217.86,53.55c0-6.11.99-11.81,2.68-16.61-2.7-1.44-5.17-3.26-7.32-5.4-5.65,5.62-9.16,13.41-9.16,22.01s3.5,16.39,9.16,22.01c2.15-2.14,4.62-3.96,7.32-5.4-1.69-4.8-2.68-10.5-2.68-16.61Z"/>
        <path class="cls-3" d="m235.12,84.59c8.54,0,16.28-3.45,21.89-9.03-2.15-2.14-4.62-3.96-7.32-5.4-3.06,8.67-8.44,14.44-14.57,14.44Z"/>
        <path class="cls-3" d="m220.54,70.15c-2.7,1.44-5.17,3.26-7.32,5.4,5.61,5.58,13.35,9.03,21.89,9.03-6.13,0-11.51-5.76-14.57-14.44Z"/>
        <path class="cls-3" d="m235.12,22.5c-8.54,0-16.28,3.45-21.89,9.03,2.15,2.14,4.62,3.96,7.32,5.4,3.06-8.67,8.44-14.44,14.57-14.44Z"/>
        <path class="cls-3" d="m249.69,36.94c2.7-1.44,5.17-3.26,7.32-5.4-5.61-5.58-13.35-9.03-21.89-9.03,6.13,0,11.51,5.76,14.57,14.44Z"/>
        <path class="cls-3" d="m220.54,36.94c-1.69,4.8-2.68,10.5-2.68,16.61s.99,11.81,2.68,16.61c4.35-2.31,9.3-3.63,14.57-3.63s10.23,1.32,14.57,3.63c1.69-4.8,2.68-10.5,2.68-16.61s-.99-11.81-2.68-16.61c-4.35,2.31-9.3,3.63-14.57,3.63s-10.23-1.32-14.57-3.63Z"/>
        <path class="cls-3" d="m220.54,70.15c3.06,8.67,8.44,14.44,14.57,14.44s11.51-5.76,14.57-14.44c-4.35-2.31-9.3-3.63-14.57-3.63s-10.23,1.32-14.57,3.63Z"/>
        <path class="cls-3" d="m235.12,22.5c-6.13,0-11.51,5.76-14.57,14.44,4.35,2.31,9.3,3.63,14.57,3.63s10.23-1.32,14.57-3.63c-3.06-8.67-8.44-14.44-14.57-14.44Z"/>
      </g>
      <line class="cls-3" x1="235.12" y1="22.5" x2="235.11" y2="84.59"/>
      <line class="cls-3" x1="204.07" y1="53.55" x2="266.16" y2="53.55"/>
    </g>
  </g>
</svg>