<?xml version="1.0" encoding="UTF-8"?>
<svg id="Layer_2" data-name="Layer 2" xmlns="http://www.w3.org/2000/svg" xmlns:xlink="http://www.w3.org/1999/xlink" viewBox="0 0 454.6 291.24">
  <defs>
    <style>
      .cls-1, .cls-2 {
        fill: #fff;
      }

      .cls-3 {
        stroke-dasharray: 0 0 0 0 0 0 12.83 2.14 2.14 12.83 2.14 2.14;
      }

      .cls-3, .cls-4, .cls-5, .cls-6, .cls-7, .cls-8, .cls-2, .cls-9 {
        stroke-miterlimit: 10;
      }

      .cls-3, .cls-4, .cls-5, .cls-6, .cls-7, .cls-10 {
        fill: none;
      }

      .cls-3, .cls-5, .cls-6, .cls-7 {
        stroke: #231f20;
      }

      .cls-3, .cls-5, .cls-6, .cls-7, .cls-11 {
        stroke-width: 2px;
      }

      .cls-12, .cls-8 {
        fill: #3b82f6;
      }

      .cls-4, .cls-8, .cls-9 {
        stroke: #fff;
      }

      .cls-5 {
        stroke-dasharray: 0 0 0 0 2.14 12.83 2.14 2.14;
      }

      .cls-6 {
        stroke-dasharray: 0 0 0 12 2 2;
      }

      .cls-11 {
        fill: url(#linear-gradient);
        fill-opacity: .6;
        isolation: isolate;
        opacity: .6;
        stroke: url(#linear-gradient-2);
      }

      .cls-13 {
        fill: #d8e6fd;
      }

      .cls-14 {
        opacity: .75;
      }

      .cls-8 {
        stroke-width: 3px;
      }

      .cls-15 {
        clip-path: url(#clippath);
      }

      .cls-2 {
        stroke: #000;
      }

      .cls-16 {
        fill: #999;
      }

      .cls-9 {
        fill: #184fa8;
        stroke-width: 4px;
      }

      .cls-17 {
        opacity: .25;
      }
    </style>
    <linearGradient id="linear-gradient" x1="116.55" y1="41.4" x2="326.35" y2="251.19" gradientUnits="userSpaceOnUse">
      <stop offset="0" stop-color="#dde1ff"/>
      <stop offset=".44" stop-color="#5468ff"/>
      <stop offset="1" stop-color="#fff"/>
    </linearGradient>
    <linearGradient id="linear-gradient-2" x1="79.75" y1="146.29" x2="363.24" y2="146.29" gradientUnits="userSpaceOnUse">
      <stop offset="0" stop-color="#fff"/>
      <stop offset="1" stop-color="#fff" stop-opacity=".13"/>
    </linearGradient>
    <clipPath id="clippath">
      <path class="cls-10" d="m245.2,290.24h-47.5c-2.64,0-4.98-.84-7.02-2.52s-3.3-3.84-3.78-6.48l-5.76-36.35c-4.56-1.68-9.36-3.96-14.39-6.84-5.04-2.88-9.48-5.88-13.31-9l-33.47,15.47c-2.64,1.2-5.28,1.38-7.92.54s-4.68-2.58-6.12-5.22l-23.75-42.1c-1.44-2.4-1.8-4.92-1.08-7.56.72-2.64,2.16-4.8,4.32-6.48l30.95-22.67c-.48-2.16-.78-4.62-.9-7.38-.12-2.76-.18-5.22-.18-7.38s.06-4.62.18-7.38c.12-2.76.42-5.22.9-7.38l-30.95-22.67c-2.16-1.68-3.6-3.84-4.32-6.48-.72-2.64-.36-5.16,1.08-7.56l23.75-42.1c1.44-2.64,3.48-4.38,6.12-5.22,2.64-.84,5.28-.66,7.92.54l33.47,15.47c3.84-3.12,8.28-6.12,13.31-9,5.04-2.88,9.84-5.04,14.39-6.48l5.76-36.71c.48-2.64,1.74-4.8,3.78-6.48s4.38-2.52,7.02-2.52h47.5c2.64,0,4.98.84,7.02,2.52s3.3,3.84,3.78,6.48l5.76,36.35c4.56,1.68,9.42,3.9,14.57,6.66s9.54,5.82,13.13,9.18l33.47-15.47c2.64-1.2,5.28-1.38,7.92-.54,2.64.84,4.68,2.58,6.12,5.22l23.75,41.74c1.44,2.4,1.86,4.98,1.26,7.74s-2.1,4.98-4.5,6.66l-30.95,21.95c.48,2.4.78,4.98.9,7.74.12,2.76.18,5.34.18,7.74s-.06,4.92-.18,7.56c-.12,2.64-.42,5.16-.9,7.56l30.95,22.31c2.16,1.68,3.6,3.84,4.32,6.48.72,2.64.36,5.16-1.08,7.56l-23.75,42.1c-1.44,2.64-3.48,4.38-6.12,5.22s-5.28.66-7.92-.54l-33.47-15.47c-3.84,3.12-8.22,6.18-13.13,9.18s-9.78,5.22-14.57,6.66l-5.76,36.35c-.48,2.64-1.74,4.8-3.78,6.48s-4.38,2.52-7.02,2.52Z"/>
    </clipPath>
  </defs>
  <g id="Layer_1-2" data-name="Layer 1">
    <path class="cls-11" d="m245.2,290.24h-47.5c-2.64,0-4.98-.84-7.02-2.52s-3.3-3.84-3.78-6.48l-5.76-36.35c-4.56-1.68-9.36-3.96-14.39-6.84-5.04-2.88-9.48-5.88-13.31-9l-33.47,15.47c-2.64,1.2-5.28,1.38-7.92.54s-4.68-2.58-6.12-5.22l-23.75-42.1c-1.44-2.4-1.8-4.92-1.08-7.56.72-2.64,2.16-4.8,4.32-6.48l30.95-22.67c-.48-2.16-.78-4.62-.9-7.38-.12-2.76-.18-5.22-.18-7.38s.06-4.62.18-7.38c.12-2.76.42-5.22.9-7.38l-30.95-22.67c-2.16-1.68-3.6-3.84-4.32-6.48-.72-2.64-.36-5.16,1.08-7.56l23.75-42.1c1.44-2.64,3.48-4.38,6.12-5.22,2.64-.84,5.28-.66,7.92.54l33.47,15.47c3.84-3.12,8.28-6.12,13.31-9,5.04-2.88,9.84-5.04,14.39-6.48l5.76-36.71c.48-2.64,1.74-4.8,3.78-6.48s4.38-2.52,7.02-2.52h47.5c2.64,0,4.98.84,7.02,2.52s3.3,3.84,3.78,6.48l5.76,36.35c4.56,1.68,9.42,3.9,14.57,6.66s9.54,5.82,13.13,9.18l33.47-15.47c2.64-1.2,5.28-1.38,7.92-.54,2.64.84,4.68,2.58,6.12,5.22l23.75,41.74c1.44,2.4,1.86,4.98,1.26,7.74s-2.1,4.98-4.5,6.66l-30.95,21.95c.48,2.4.78,4.98.9,7.74.12,2.76.18,5.34.18,7.74s-.06,4.92-.18,7.56c-.12,2.64-.42,5.16-.9,7.56l30.95,22.31c2.16,1.68,3.6,3.84,4.32,6.48.72,2.64.36,5.16-1.08,7.56l-23.75,42.1c-1.44,2.64-3.48,4.38-6.12,5.22s-5.28.66-7.92-.54l-33.47-15.47c-3.84,3.12-8.22,6.18-13.13,9.18s-9.78,5.22-14.57,6.66l-5.76,36.35c-.48,2.64-1.74,4.8-3.78,6.48s-4.38,2.52-7.02,2.52Z"/>
    <g class="cls-15">
      <g>
        <path class="cls-4" d="m25.08,148.56c6.31-1.55,11.18-3.76,14.6-6.62,3.42-2.86,5.77-6.28,7.04-10.26,1.27-3.98,1.91-8.39,1.91-13.24v-37.31c0-7.28.86-13.26,2.57-17.96,1.71-4.69,4.63-8.16,8.77-10.4,4.13-2.24,9.81-3.36,17.02-3.36v-18.28c-9.14,0-16.82,1-23.04,2.99-6.22,1.99-11.19,5.04-14.92,9.14-3.73,4.1-6.42,9.3-8.07,15.58-1.65,6.28-2.47,13.71-2.47,22.29v29.85c0,10.2-2.07,17.48-6.2,21.83-4.14,4.35-11.4,6.53-21.78,6.53v22.39c10.38,0,17.64,2.18,21.78,6.53,4.13,4.35,6.2,11.63,6.2,21.83v29.85c0,8.58.82,16.01,2.47,22.29,1.65,6.28,4.34,11.47,8.07,15.58,3.73,4.1,8.71,7.15,14.92,9.14,6.22,1.99,13.9,2.98,23.04,2.98v-18.28c-7.21,0-12.89-1.13-17.02-3.4-4.14-2.27-7.06-5.74-8.77-10.4-1.71-4.66-2.57-10.63-2.57-17.91v-37.31c0-4.85-.64-9.27-1.91-13.25-1.28-3.98-3.62-7.4-7.04-10.26-3.42-2.86-8.29-5.07-14.6-6.62-.8-.2-1.71-.34-2.57-.51v-2.89c.86-.17,1.77-.32,2.57-.51Z"/>
        <path class="cls-4" d="m254.88,148.56c-6.31-1.55-11.18-3.76-14.6-6.62-3.42-2.86-5.77-6.28-7.04-10.26-1.27-3.98-1.91-8.39-1.91-13.24v-37.31c0-7.28-.86-13.26-2.57-17.96-1.71-4.69-4.63-8.16-8.77-10.4-4.13-2.24-9.81-3.36-17.02-3.36v-18.28c9.14,0,16.82,1,23.04,2.99,6.22,1.99,11.19,5.04,14.92,9.14,3.73,4.1,6.42,9.3,8.07,15.58,1.65,6.28,2.47,13.71,2.47,22.29v29.85c0,10.2,2.07,17.48,6.2,21.83,4.14,4.35,11.4,6.53,21.78,6.53v10.82s0,.75,0,.75v10.82c-10.38,0-17.64,2.18-21.78,6.53-4.13,4.35-6.2,11.63-6.2,21.83v29.85c0,8.58-.82,16.01-2.47,22.29-1.65,6.28-4.34,11.47-8.07,15.58-3.73,4.1-8.71,7.15-14.92,9.14-6.22,1.99-13.9,2.98-23.04,2.98v-18.28c7.21,0,12.89-1.13,17.02-3.4,4.14-2.27,7.06-5.74,8.77-10.4,1.71-4.66,2.57-10.63,2.57-17.91v-37.31c0-4.85.64-9.27,1.91-13.25,1.28-3.98,3.62-7.4,7.04-10.26,3.42-2.86,8.29-5.07,14.6-6.62.8-.2,1.71-.34,2.57-.51v-2.89c-.86-.17-1.77-.32-2.57-.51Z"/>
        <rect class="cls-4" x="78.93" y="84.82" width="124.04" height="22.3" rx="11.15" ry="11.15"/>
        <rect class="cls-4" x="78.93" y="121.77" width="124.04" height="22.3" rx="11.15" ry="11.15"/>
        <rect class="cls-4" x="78.93" y="158.73" width="124.04" height="22.3" rx="11.15" ry="11.15"/>
        <rect class="cls-4" x="78.93" y="195.68" width="124.04" height="22.3" rx="11.15" ry="11.15"/>
      </g>
    </g>
    <g>
      <rect class="cls-9" x="389.55" y="52.29" width="63.04" height="63.04" rx="5.61" ry="5.61"/>
      <rect class="cls-2" x="389.55" y="52.29" width="63.04" height="63.04" rx="5.61" ry="5.61"/>
      <g>
        <path class="cls-12" d="m436.64,63.92h-31.12c-2.78,0-5.06,2.28-5.06,5.06v29.67c0,2.78,2.28,5.06,5.06,5.06h31.12c2.78,0,5.06-2.28,5.06-5.06v-29.67c0-2.78-2.28-5.06-5.06-5.06Zm-3.79,22.17l-17.89,10.77c-.4.2-.83.3-1.26.3-.51,0-1.02-.14-1.47-.41-.83-.5-1.38-1.39-1.38-2.34v-21.17c0-.96.55-1.85,1.38-2.35.83-.5,1.86-.55,2.73-.11l17.89,10.39c.97.85,1.54,1.42,1.54,2.46s-.68,1.65-1.54,2.46Z"/>
        <path class="cls-13" d="m432.84,86.09l-17.89,10.77c-.4.2-.83.3-1.26.3-.51,0-1.02-.14-1.47-.41-.83-.5-1.38-1.39-1.38-2.34v-21.17c0-.96.55-1.85,1.38-2.35.83-.5,1.86-.55,2.73-.11l17.89,10.39c.97.85,1.54,1.42,1.54,2.46s-.68,1.65-1.54,2.46Z"/>
        <path class="cls-4" d="m432.84,86.09l-17.89,10.77c-.4.2-.83.3-1.26.3-.51,0-1.02-.14-1.47-.41-.83-.5-1.38-1.39-1.38-2.34v-21.17c0-.96.55-1.85,1.38-2.35.83-.5,1.86-.55,2.73-.11l17.89,10.39c.97.85,1.54,1.42,1.54,2.46s-.68,1.65-1.54,2.46Z"/>
      </g>
    </g>
    <g>
      <rect class="cls-9" x="389.55" y="180.9" width="63.04" height="63.04" rx="5.61" ry="5.61"/>
      <rect class="cls-2" x="389.55" y="180.9" width="63.04" height="63.04" rx="5.61" ry="5.61"/>
      <circle cx="431.63" cy="197.14" r="7.8"/>
      <path class="cls-16" d="m394.95,225.76c.13.48.57.79,1.04.79.1,0,.2-.01.29-.04l19.61-12.29,9.18,11.83c.18.28.47.46.8.5.33.04.65-.08.89-.31l15.85-15.85,1.82,1.82c.42.42,1.11.42,1.53,0,.42-.42.42-1.11,0-1.53l-2.59-2.59c-.42-.42-1.11-.42-1.53,0l-15.66,15.66-9.37-11.55c-.26-.4-.75-.59-1.21-.46l-19.9,12.69c-.58.16-.91.76-.75,1.34Z"/>
      <g>
        <path class="cls-1" d="m445.87,226.36c-.13.48-.57.48-1.04.48-.1,0-.2.03-.29,0h-49.68v-15.56s2.59-2.59,2.59-2.59c.42-.42,1.11-.42,1.53,0l15.66,15.66,9.37-11.55c.26-.4.75-.59,1.21-.46l19.9,12.69c.58.16.91.76.75,1.34Z"/>
        <path d="m445.87,226.36c-.13.48-.57.79-1.04.79-.1,0-.2-.01-.29-.04l-19.61-12.29-9.18,11.83c-.18.28-.47.46-.8.5-.33.04-.89-.31-.89-.31l-15.85-15.85-1.82,1.82c-.42.42-1.11.42-1.53,0-.42-.42-.42-1.11,0-1.53l2.59-2.59c.42-.42,1.11-.42,1.53,0l15.66,15.66,9.37-11.55c.26-.4.75-.59,1.21-.46l19.9,12.69c.58.16.91.76.75,1.34Z"/>
      </g>
    </g>
    <g>
      <rect class="cls-9" x="274.92" y="52.29" width="63.04" height="63.04" rx="5.61" ry="5.61"/>
      <rect class="cls-2" x="274.92" y="52.29" width="63.04" height="63.04" rx="5.61" ry="5.61"/>
      <g>
        <g>
          <g class="cls-17">
            <path d="m306.45,83.81l25.27,5.37c-2.97,13.96-16.69,22.87-30.64,19.9-13.96-2.97-22.87-16.69-19.9-30.64,2.54-11.96,13.04-20.47,25.27-20.47v25.84Z"/>
          </g>
          <g class="cls-14">
            <path d="m306.45,83.81v-25.84c14.27,0,25.84,11.57,25.84,25.84,0,2.03-.14,3.39-.56,5.37l-25.27-5.37Z"/>
          </g>
        </g>
        <g>
          <path class="cls-4" d="m306.45,83.81l25.27,5.37c-2.97,13.96-16.69,22.87-30.64,19.9-13.96-2.97-22.87-16.69-19.9-30.64,2.54-11.96,13.04-20.47,25.27-20.47v25.84Z"/>
          <path class="cls-4" d="m306.45,83.81v-25.84c14.27,0,25.84,11.57,25.84,25.84,0,2.03-.14,3.39-.56,5.37l-25.27-5.37Z"/>
        </g>
      </g>
    </g>
    <g>
      <polygon class="cls-1" points="79.93 126.42 113.55 112.95 119.76 123.32 117.27 145.18 94.38 155.02 79.93 126.42"/>
      <path class="cls-9" d="m122.03,144.55v-34.73l-30.07-17.36-30.07,17.36v34.73l30.07,17.39,30.07-17.39Zm-27.65,10.47v-26.27l22.89-13.03v26.08l-22.89,13.22Z"/>
    </g>
    <g>
      <polygon class="cls-1" points="79.93 214.55 113.55 201.09 119.76 211.46 117.27 233.32 94.38 243.15 79.93 214.55"/>
      <path class="cls-9" d="m122.03,232.68v-34.73l-30.07-17.36-30.07,17.36v34.73l30.07,17.39,30.07-17.39Zm-27.65,10.47v-26.27l22.89-13.03v26.08l-22.89,13.22Z"/>
    </g>
    <path class="cls-9" d="m122.03,54.4V19.67L91.95,2.31l-30.07,17.36v34.73l30.07,17.39,30.07-17.39Zm-27.65,10.47v-26.27l22.89-13.03v26.08l-22.89,13.22Z"/>
    <rect class="cls-1" x="146.09" y="147.68" width="238.6" height="5.67"/>
    <g>
      <line class="cls-7" x1="384.69" y1="150.52" x2="378.69" y2="150.52"/>
      <line class="cls-5" x1="376.55" y1="150.52" x2="358.38" y2="150.52"/>
      <line class="cls-3" x1="357.31" y1="150.52" x2="153.16" y2="150.52"/>
      <line class="cls-7" x1="152.09" y1="150.52" x2="146.09" y2="150.52"/>
    </g>
    <path class="cls-1" d="m322.18,140.82h-89.26c-9.38,0-17.01-7.63-17.01-17.01v-47.59c0-6.25-5.09-11.34-11.34-11.34h-68.74v-5.67h68.74c9.38,0,17.01,7.63,17.01,17.01v47.59c0,6.25,5.09,11.34,11.34,11.34h89.26v5.67Z"/>
    <path class="cls-6" d="m322.18,137.98h-89.26c-7.83,0-14.17-6.35-14.17-14.17v-47.59c0-7.83-6.35-14.17-14.17-14.17h-68.74"/>
    <path class="cls-1" d="m204.57,241.7h-68.74v-5.67h68.74c6.25,0,11.34-5.09,11.34-11.34v-47.59c0-9.38,7.63-17.01,17.01-17.01h89.26v5.67h-89.26c-6.25,0-11.34,5.09-11.34,11.34v47.59c0,9.38-7.63,17.01-17.01,17.01Z"/>
    <path class="cls-6" d="m322.18,162.93h-89.26c-7.83,0-14.17,6.35-14.17,14.17v19.25s0,11.22,0,11.22v17.11c0,7.83-6.35,14.17-14.17,14.17h-68.74"/>
    <rect class="cls-8" x="322.18" y="108.3" width="83.33" height="83.33" rx="12" ry="12"/>
    <rect class="cls-2" x="102.83" y="125.65" width="49.75" height="49.75" rx="12" ry="12"/>
    <rect class="cls-2" x="102.83" y="37.17" width="49.75" height="49.75" rx="12" ry="12"/>
    <rect class="cls-2" x="102.83" y="213.99" width="49.75" height="49.75" rx="12" ry="12"/>
    <g>
      <path id="path4548" class="cls-1" d="m357.64,173.9c-1.13-1.06-.96-2.88.42-4.67,1.02-1.32,5.3-5.67,8.39-8.51l1.25-1.15-1.99-4.26c-2.23-4.78-2.22-4.87.72-5.2l1.62-.18,1.81,2.73c1,1.5,1.95,2.73,2.13,2.73s1.96-1.43,3.96-3.18c3.48-3.04,3.7-3.17,4.88-3.01.71.1,1.34.04,1.49-.14.35-.42,1.36.2,1.36.84,0,.26-.5.92-1.11,1.48-2.5,2.25-7.84,7.56-7.84,7.81,0,.14,1.08,2,2.39,4.13l2.22,3.59c.1.16.08.36-.05.5l-.53.41c-.4.44-.67.79-.72,1.22.09.27-.31.39-.67.56-.92.43-1.6-.09-4.4-3.39-1.28-1.51-2.46-2.74-2.62-2.75-.35,0-4.18,4.19-7.15,7.81-2.62,3.2-4.92,3.26-5.59,2.63h0Z"/>
      <path id="path4550" class="cls-1" d="m354.53,149.02s-.03-.04-.05-.07c-5.84-8.72-10.08-10.25-9.93-10.35,2.22-1.43,6.39-.03,8.96,2.26.03.03.06.06.09.09.62.53.76.72,1.5,1.54.13,0,2.98-4.73,3-4.76,5.74-9.05,11.73-12.87,15.22-12.86,1.66,0,1.91.58,1.91.58-5.64,2.94-10.41,8.19-15.34,17.86-1.37,2.77-3.69,7.24-3.86,7.54-.25.46-.29-.23-1.51-1.83Z"/>
      <path class="cls-1" d="m335.44,149.49c1.56-.38,2.76-.93,3.61-1.64.84-.71,1.43-1.55,1.74-2.54.31-.98.47-2.07.47-3.27v-9.22c0-1.8.21-3.28.63-4.44.42-1.16,1.15-2.02,2.17-2.57,1.02-.55,2.42-.83,4.21-.83v-4.52c-2.26,0-4.16.25-5.7.74-1.54.49-2.77,1.25-3.69,2.26s-1.59,2.3-1.99,3.85c-.41,1.55-.61,3.39-.61,5.51v7.38c0,2.52-.51,4.32-1.53,5.4-1.02,1.08-2.82,1.61-5.38,1.61v5.53c2.57,0,4.36.54,5.38,1.61,1.02,1.08,1.53,2.87,1.53,5.4v7.38c0,2.12.2,3.96.61,5.51.41,1.55,1.07,2.84,1.99,3.85.92,1.01,2.15,1.77,3.69,2.26,1.54.49,3.44.74,5.7.74v-4.52c-1.78,0-3.19-.28-4.21-.84-1.02-.56-1.75-1.42-2.17-2.57s-.63-2.63-.63-4.43v-9.22c0-1.2-.16-2.29-.47-3.27-.32-.98-.9-1.83-1.74-2.54-.85-.71-2.05-1.25-3.61-1.64-.2-.05-.42-.08-.63-.13v-.71c.21-.04.44-.08.63-.13Z"/>
      <path class="cls-1" d="m392.24,149.49c-1.56-.38-2.76-.93-3.61-1.64-.84-.71-1.43-1.55-1.74-2.54-.31-.98-.47-2.07-.47-3.27v-9.22c0-1.8-.21-3.28-.63-4.44-.42-1.16-1.15-2.02-2.17-2.57-1.02-.55-2.42-.83-4.21-.83v-4.52c2.26,0,4.16.25,5.7.74,1.54.49,2.77,1.25,3.69,2.26s1.59,2.3,1.99,3.85c.41,1.55.61,3.39.61,5.51v7.38c0,2.52.51,4.32,1.53,5.4,1.02,1.08,2.82,1.61,5.38,1.61v2.67s0,.18,0,.18v2.67c-2.57,0-4.36.54-5.38,1.61-1.02,1.08-1.53,2.87-1.53,5.4v7.38c0,2.12-.2,3.96-.61,5.51-.41,1.55-1.07,2.84-1.99,3.85-.92,1.01-2.15,1.77-3.69,2.26-1.54.49-3.44.74-5.7.74v-4.52c1.78,0,3.19-.28,4.21-.84,1.02-.56,1.75-1.42,2.17-2.57.42-1.15.63-2.63.63-4.43v-9.22c0-1.2.16-2.29.47-3.27.32-.98.9-1.83,1.74-2.54.85-.71,2.05-1.25,3.61-1.64.2-.05.42-.08.63-.13v-.71c-.21-.04-.44-.08-.63-.13Z"/>
    </g>
    <path d="m127.73,47.21c-8.19,0-14.18,2.08-14.18,4.64v3.71c0,2.56,5.99,4.64,14.18,4.64s14.14-2.08,14.14-4.64v-3.71c0-2.56-5.94-4.64-14.14-4.64m-.05,14.84c-6.64,0-12.25-1.36-14.14-3.25v5.1c0,2.56,5.99,4.64,14.18,4.64s14.14-2.08,14.14-4.64v-5.1c-1.89,1.88-7.54,3.25-14.18,3.25m0,8.35c-6.64,0-12.25-1.36-14.14-3.25v5.1c0,2.56,5.99,4.64,14.18,4.64s14.14-2.08,14.14-4.64v-5.1c-1.89,1.88-7.54,3.25-14.18,3.25"/>
    <g>
      <path d="m113.21,150.27c.8-.2,1.41-.47,1.84-.84.43-.36.73-.79.89-1.29.16-.5.24-1.06.24-1.67v-4.71c0-.92.11-1.67.32-2.27.22-.59.58-1.03,1.11-1.31.52-.28,1.24-.42,2.15-.42v-2.31c-1.15,0-2.12.13-2.91.38-.78.25-1.41.64-1.88,1.15s-.81,1.17-1.02,1.97c-.21.79-.31,1.73-.31,2.81v3.77c0,1.29-.26,2.21-.78,2.75-.52.55-1.44.82-2.75.82v2.83c1.31,0,2.23.27,2.75.82.52.55.78,1.47.78,2.75v3.77c0,1.08.1,2.02.31,2.81.21.79.55,1.45,1.02,1.97s1.1.9,1.88,1.15c.78.25,1.75.38,2.91.38v-2.31c-.91,0-1.63-.14-2.15-.43-.52-.29-.89-.72-1.11-1.31s-.32-1.34-.32-2.26v-4.71c0-.61-.08-1.17-.24-1.67-.16-.5-.46-.93-.89-1.29-.43-.36-1.05-.64-1.84-.84-.1-.02-.22-.04-.32-.06v-.36c.11-.02.22-.04.32-.06Z"/>
      <path d="m142.21,150.27c-.8-.2-1.41-.47-1.84-.84-.43-.36-.73-.79-.89-1.29-.16-.5-.24-1.06-.24-1.67v-4.71c0-.92-.11-1.67-.32-2.27-.22-.59-.58-1.03-1.11-1.31-.52-.28-1.24-.42-2.15-.42v-2.31c1.15,0,2.12.13,2.91.38.78.25,1.41.64,1.88,1.15s.81,1.17,1.02,1.97c.21.79.31,1.73.31,2.81v3.77c0,1.29.26,2.21.78,2.75.52.55,1.44.82,2.75.82v1.37s0,.09,0,.09v1.37c-1.31,0-2.23.27-2.75.82-.52.55-.78,1.47-.78,2.75v3.77c0,1.08-.1,2.02-.31,2.81-.21.79-.55,1.45-1.02,1.97s-1.1.9-1.88,1.15c-.78.25-1.75.38-2.91.38v-2.31c.91,0,1.63-.14,2.15-.43.52-.29.89-.72,1.11-1.31s.32-1.34.32-2.26v-4.71c0-.61.08-1.17.24-1.67.16-.5.46-.93.89-1.29.43-.36,1.05-.64,1.84-.84.1-.02.22-.04.32-.06v-.36c-.11-.02-.22-.04-.32-.06Z"/>
      <rect x="120" y="142.23" width="15.65" height="2.81" rx="1.41" ry="1.41"/>
      <rect x="120" y="146.89" width="15.65" height="2.81" rx="1.41" ry="1.41"/>
      <rect x="120" y="151.55" width="15.65" height="2.81" rx="1.41" ry="1.41"/>
      <rect x="120" y="156.22" width="15.65" height="2.81" rx="1.41" ry="1.41"/>
    </g>
    <g>
      <path d="m112.85,238.63c.71-.17,1.25-.42,1.63-.74.38-.32.65-.7.79-1.15.14-.45.21-.94.21-1.48v-4.18c0-.81.1-1.48.29-2.01.19-.53.52-.91.98-1.16.46-.25,1.1-.38,1.91-.38v-2.05c-1.02,0-1.88.11-2.58.33-.7.22-1.25.56-1.67,1.02s-.72,1.04-.9,1.74c-.18.7-.28,1.53-.28,2.5v3.34c0,1.14-.23,1.96-.69,2.44-.46.49-1.28.73-2.44.73v2.51c1.16,0,1.97.24,2.44.73.46.49.69,1.3.69,2.44v3.34c0,.96.09,1.79.28,2.5.18.7.49,1.28.9,1.74s.97.8,1.67,1.02c.7.22,1.56.33,2.58.33v-2.05c-.81,0-1.44-.13-1.91-.38-.46-.25-.79-.64-.98-1.16s-.29-1.19-.29-2v-4.18c0-.54-.07-1.04-.21-1.48-.14-.45-.41-.83-.79-1.15-.38-.32-.93-.57-1.63-.74-.09-.02-.19-.04-.29-.06v-.32c.1-.02.2-.04.29-.06Z"/>
      <path d="m142.56,238.63c-.71-.17-1.25-.42-1.63-.74-.38-.32-.65-.7-.79-1.15-.14-.45-.21-.94-.21-1.48v-4.18c0-.81-.1-1.48-.29-2.01-.19-.53-.52-.91-.98-1.16-.46-.25-1.1-.38-1.91-.38v-2.05c1.02,0,1.88.11,2.58.33.7.22,1.25.56,1.67,1.02s.72,1.04.9,1.74c.18.7.28,1.53.28,2.5v3.34c0,1.14.23,1.96.69,2.44.46.49,1.28.73,2.44.73v1.21s0,.08,0,.08v1.21c-1.16,0-1.97.24-2.44.73-.46.49-.69,1.3-.69,2.44v3.34c0,.96-.09,1.79-.28,2.5-.18.7-.49,1.28-.9,1.74s-.97.8-1.67,1.02c-.7.22-1.56.33-2.58.33v-2.05c.81,0,1.44-.13,1.91-.38.46-.25.79-.64.98-1.16s.29-1.19.29-2v-4.18c0-.54.07-1.04.21-1.48.14-.45.41-.83.79-1.15.38-.32.93-.57,1.63-.74.09-.02.19-.04.29-.06v-.32c-.1-.02-.2-.04-.29-.06Z"/>
      <circle cx="121.04" cy="244.1" r="2.61"/>
      <circle cx="127.71" cy="244.1" r="2.61"/>
      <circle cx="134.37" cy="244.1" r="2.61"/>
    </g>
  </g>
</svg>