<?xml version="1.0" encoding="UTF-8"?>
<svg id="Layer_2" data-name="Layer 2" xmlns="http://www.w3.org/2000/svg" xmlns:xlink="http://www.w3.org/1999/xlink" viewBox="0 0 537.5 329.58">
  <defs>
    <style>
      .cls-1, .cls-2, .cls-3, .cls-4, .cls-5, .cls-6, .cls-7, .cls-8, .cls-9 {
        stroke-miterlimit: 10;
      }

      .cls-1, .cls-3, .cls-5, .cls-10, .cls-8 {
        fill: none;
      }

      .cls-1, .cls-4 {
        stroke: #231f20;
      }

      .cls-11, .cls-4, .cls-7 {
        fill: #fff;
      }

      .cls-2 {
        fill: #eff5fe;
      }

      .cls-2, .cls-7 {
        stroke: #000;
      }

      .cls-12 {
        fill: #3b82f6;
      }

      .cls-3, .cls-6, .cls-8, .cls-9 {
        stroke: #fff;
      }

      .cls-5 {
        stroke: #3b82f6;
        stroke-linecap: round;
      }

      .cls-5, .cls-6, .cls-13 {
        stroke-width: 2px;
      }

      .cls-14, .cls-9 {
        fill: #184fa8;
      }

      .cls-7, .cls-8, .cls-9 {
        stroke-width: 4px;
      }

      .cls-15 {
        clip-path: url(#clippath);
      }

      .cls-13 {
        fill: url(#linear-gradient);
        opacity: .6;
        stroke: url(#linear-gradient-2);
      }
    </style>
    <linearGradient id="linear-gradient" x1="356.41" y1="306.66" x2="192.59" y2="22.92" gradientUnits="userSpaceOnUse">
      <stop offset="0" stop-color="#dde1ff"/>
      <stop offset=".44" stop-color="#5468ff"/>
      <stop offset="1" stop-color="#fff"/>
    </linearGradient>
    <linearGradient id="linear-gradient-2" x1="109.71" y1="164.79" x2="439.29" y2="164.79" gradientUnits="userSpaceOnUse">
      <stop offset="0" stop-color="#fff"/>
      <stop offset="1" stop-color="#fff" stop-opacity=".13"/>
    </linearGradient>
    <clipPath id="clippath">
      <circle class="cls-10" cx="274.5" cy="164.79" r="163.79"/>
    </clipPath>
  </defs>
  <g id="Layer_1-2" data-name="Layer 1">
    <g>
      <circle class="cls-13" cx="274.5" cy="164.79" r="163.79"/>
      <g class="cls-15">
        <g>
          <circle class="cls-3" cx="373.44" cy="172.1" r="147.03"/>
          <circle class="cls-3" cx="373.44" cy="172.1" r="122.81"/>
          <circle class="cls-3" cx="373.44" cy="172.1" r="98.6"/>
          <circle class="cls-3" cx="373.44" cy="172.1" r="74.39"/>
          <circle class="cls-3" cx="373.44" cy="172.1" r="50.17"/>
          <circle class="cls-11" cx="373.44" cy="172.1" r="25.96"/>
          <circle class="cls-11" cx="513.29" cy="116.33" r="17.04"/>
          <circle class="cls-11" cx="513.29" cy="116.33" r="17.04"/>
          <circle class="cls-11" cx="455.01" cy="82.26" r="17.04"/>
          <circle class="cls-11" cx="407.51" cy="27.49" r="17.04"/>
          <circle class="cls-11" cx="520.47" cy="212.42" r="17.04"/>
          <circle class="cls-11" cx="295.62" cy="229.45" r="17.04"/>
          <circle class="cls-11" cx="306.23" cy="40.57" r="17.04"/>
          <circle class="cls-11" cx="472.04" cy="172.1" r="17.04"/>
          <circle class="cls-11" cx="472.04" cy="239.31" r="17.04"/>
          <circle class="cls-11" cx="455.01" cy="294.91" r="17.04"/>
          <circle class="cls-11" cx="250.63" cy="189.14" r="17.04"/>
          <circle class="cls-11" cx="233.59" cy="121.92" r="17.04"/>
          <circle class="cls-11" cx="274.84" cy="99.29" r="17.04"/>
          <circle class="cls-11" cx="299.05" cy="158.01" r="17.04"/>
          <circle class="cls-11" cx="289.2" cy="290.54" r="17.04"/>
          <circle class="cls-11" cx="390.48" cy="294.91" r="17.04"/>
          <circle class="cls-11" cx="396.72" cy="215.1" r="17.04"/>
          <circle class="cls-11" cx="365.33" cy="246.49" r="17.04"/>
          <circle class="cls-11" cx="430.79" cy="129.1" r="17.04"/>
          <circle class="cls-11" cx="382.37" cy="73.5" r="17.04"/>
          <circle class="cls-11" cx="347.48" cy="129.1" r="17.04"/>
        </g>
      </g>
      <g>
        <path class="cls-9" d="m260.66,187.93c4.3-4.3,17.9-28.08,9.54-36.84-2.62-2.75-4.21-2.01-4.21-2.01,0,0-.29-5.24-4.02-7.9-2.02-1.44-3.93-.65-3.93-.65,0,0,.32-4.57-4.48-7.95-1.91-1.34-4.86-.12-4.86-.12,0,0,.26-3.59-2.55-6.64-4.9-5.32-8.92-.96-9.72.04-.1.12-.16.2-.16.2,3.85,5.8,8.9,11.29-2.96,29.41-2.39,3.65-5.66,2.76-8.38.89-2.85-1.96-5.1-5-5.1-5,0,0-6.99,10.75-5.38,17.82,1.61,7.07,2.53,5.9,2.01,7.32-2.17,6.04-9.08,22.85-32.56,44.4-29.03,26.64-35.16,29.13-35.16,29.13l16.72,18.92s15.84-6.93,36.81-25.34c15.85-13.92,33.98-34.77,43.06-44.65,2.11-2.29,11.02-6.73,15.33-11.04Z"/>
        <path class="cls-9" d="m184.5,271.14c-8.76,8.37-32.53-5.24-36.84-9.54s-8.74-13.22-11.04-15.33c-9.88-9.07-30.73-27.21-44.65-43.06-18.42-20.96-26.54-36.13-26.54-36.13l18.92-16.72s3.68,5.45,30.32,34.48c21.55,23.48,38.36,30.39,44.4,32.56,1.43.51.25-.4,7.32-2.01,7.07-1.61,17.82,5.38,17.82,5.38,0,0-11.6,8.57-4.12,13.48,18.12,11.87,23.61,6.81,29.41,2.96,0,0,6.21,4.39.24,9.88-3.05,2.81-6.64,2.55-6.64,2.55,0,0,1.23,2.95-.12,4.86-3.38,4.8-7.95,4.48-7.95,4.48,0,0,.78,1.91-.65,3.93-2.66,3.73-7.9,4.02-7.9,4.02,0,0,.73,1.59-2.01,4.21Z"/>
        <path class="cls-9" d="m64.87,185.92c-8.37-8.76,5.24-32.53,9.54-36.84,4.3-4.3,13.22-8.74,15.33-11.04,9.07-9.88,27.21-30.73,43.06-44.65,20.96-18.42,39.52-25.62,39.52-25.62l16.72,18.92s-8.84,2.76-37.87,29.4c-23.48,21.55-30.39,38.36-32.56,44.4-.51,1.43.4.25,2.01,7.32,1.61,7.07-5.38,17.82-5.38,17.82,0,0-8.57-11.6-13.48-4.12-11.87,18.12-6.81,23.61-2.96,29.41,0,0-4.39,6.21-9.88.24-2.81-3.05-2.55-6.64-2.55-6.64,0,0-2.95,1.23-4.86-.12-4.8-3.38-4.48-7.95-4.48-7.95,0,0-1.91.78-3.93-.65-3.73-2.66-4.02-7.9-4.02-7.9,0,0-1.59.73-4.21-2.01Z"/>
        <path class="cls-9" d="m233.31,155.47c11.87-18.12,6.81-23.61,2.96-29.41,0,0,.06-.08.16-.2-13.28-13.89-29.69-28.22-38.12-35.96-2.29-2.11-6.73-11.02-11.04-15.33s-28.08-17.9-36.84-9.54c-2.75,2.62-2.01,4.21-2.01,4.21,0,0-5.24.29-7.9,4.02-1.44,2.02-.65,3.93-.65,3.93,0,0-4.57-.32-7.95,4.48-1.34,1.91-.12,4.86-.12,4.86,0,0-3.59-.26-6.64,2.55-5.96,5.49.82,10.57.82,10.57,5.8-3.85,10.71-9.59,28.83,2.28,7.49,4.91-4.19,14.67-4.19,14.67,0,0,10.82,5.79,17.89,4.18,7.07-1.61,5.9-2.53,7.32-2.01,6.04,2.17,22.85,9.08,44.4,32.56,1.71,1.86,3.26,3.53,4.68,5.03,2.72,1.87,5.98,2.77,8.38-.89Z"/>
      </g>
      <g>
        <path class="cls-2" d="m260.66,187.93c4.3-4.3,17.9-28.08,9.54-36.84-2.62-2.75-4.21-2.01-4.21-2.01,0,0-.29-5.24-4.02-7.9-2.02-1.44-3.93-.65-3.93-.65,0,0,.32-4.57-4.48-7.95-1.91-1.34-4.86-.12-4.86-.12,0,0,.26-3.59-2.55-6.64-4.9-5.32-8.92-.96-9.72.04-.1.12-.16.2-.16.2,3.85,5.8,8.9,11.29-2.96,29.41-2.39,3.65-5.66,2.76-8.38.89-2.85-1.96-5.1-5-5.1-5,0,0-6.99,10.75-5.38,17.82,1.61,7.07,2.53,5.9,2.01,7.32-2.17,6.04-9.08,22.85-32.56,44.4-29.03,26.64-35.16,29.13-35.16,29.13l16.72,18.92s15.84-6.93,36.81-25.34c15.85-13.92,33.98-34.77,43.06-44.65,2.11-2.29,11.02-6.73,15.33-11.04Z"/>
        <path class="cls-2" d="m184.5,271.14c-8.76,8.37-32.53-5.24-36.84-9.54s-8.74-13.22-11.04-15.33c-9.88-9.07-30.73-27.21-44.65-43.06-18.42-20.96-26.54-36.13-26.54-36.13l18.92-16.72s3.68,5.45,30.32,34.48c21.55,23.48,38.36,30.39,44.4,32.56,1.43.51.25-.4,7.32-2.01,7.07-1.61,17.82,5.38,17.82,5.38,0,0-11.6,8.57-4.12,13.48,18.12,11.87,23.61,6.81,29.41,2.96,0,0,6.21,4.39.24,9.88-3.05,2.81-6.64,2.55-6.64,2.55,0,0,1.23,2.95-.12,4.86-3.38,4.8-7.95,4.48-7.95,4.48,0,0,.78,1.91-.65,3.93-2.66,3.73-7.9,4.02-7.9,4.02,0,0,.73,1.59-2.01,4.21Z"/>
        <path class="cls-2" d="m64.87,185.92c-8.37-8.76,5.24-32.53,9.54-36.84,4.3-4.3,13.22-8.74,15.33-11.04,9.07-9.88,27.21-30.73,43.06-44.65,20.96-18.42,39.52-25.62,39.52-25.62l16.72,18.92s-8.84,2.76-37.87,29.4c-23.48,21.55-30.39,38.36-32.56,44.4-.51,1.43.4.25,2.01,7.32,1.61,7.07-5.38,17.82-5.38,17.82,0,0-8.57-11.6-13.48-4.12-11.87,18.12-6.81,23.61-2.96,29.41,0,0-4.39,6.21-9.88.24-2.81-3.05-2.55-6.64-2.55-6.64,0,0-2.95,1.23-4.86-.12-4.8-3.38-4.48-7.95-4.48-7.95,0,0-1.91.78-3.93-.65-3.73-2.66-4.02-7.9-4.02-7.9,0,0-1.59.73-4.21-2.01Z"/>
        <path class="cls-2" d="m233.31,155.47c11.87-18.12,6.81-23.61,2.96-29.41,0,0,.06-.08.16-.2-13.28-13.89-29.69-28.22-38.12-35.96-2.29-2.11-6.73-11.02-11.04-15.33s-28.08-17.9-36.84-9.54c-2.75,2.62-2.01,4.21-2.01,4.21,0,0-5.24.29-7.9,4.02-1.44,2.02-.65,3.93-.65,3.93,0,0-4.57-.32-7.95,4.48-1.34,1.91-.12,4.86-.12,4.86,0,0-3.59-.26-6.64,2.55-5.96,5.49.82,10.57.82,10.57,5.8-3.85,10.71-9.59,28.83,2.28,7.49,4.91-4.19,14.67-4.19,14.67,0,0,10.82,5.79,17.89,4.18,7.07-1.61,5.9-2.53,7.32-2.01,6.04,2.17,22.85,9.08,44.4,32.56,1.71,1.86,3.26,3.53,4.68,5.03,2.72,1.87,5.98,2.77,8.38-.89Z"/>
      </g>
      <g>
        <circle class="cls-9" cx="113.12" cy="246.28" r="36.85"/>
        <circle class="cls-4" cx="113.12" cy="246.28" r="36.85"/>
        <path class="cls-6" d="m119.14,251.28c5.23-2.32,8.88-7.55,8.88-13.62,0-8.21-6.68-14.9-14.9-14.9s-14.9,6.68-14.9,14.9c0,6.07,3.66,11.31,8.88,13.62-7.14,1.17-13.58,4.39-18.74,9.02,6.57,5.9,15.23,9.52,24.76,9.52s18.18-3.62,24.75-9.52c-5.16-4.63-11.6-7.84-18.74-9.02Z"/>
      </g>
      <g>
        <g>
          <path class="cls-14" d="m122.41,50.41v88.21c0,4.21-3.41,7.62-7.62,7.62h-34.17c-1.1,0-1.82.88-1.6,1.96l6.23,30.53c.22,1.08-.29,1.38-1.13.67l-37.88-31.88c-.84-.71-2.43-1.29-3.53-1.29H9.62c-4.21,0-7.62-3.41-7.62-7.62V50.41c0-4.21,3.41-7.62,7.62-7.62h105.17c4.21,0,7.62,3.41,7.62,7.62Z"/>
          <path class="cls-8" d="m122.41,50.41v88.21c0,4.21-3.41,7.62-7.62,7.62h-34.17c-1.1,0-1.82.88-1.6,1.96l6.23,30.53c.22,1.08-.29,1.38-1.13.67l-37.88-31.88c-.84-.71-2.43-1.29-3.53-1.29H9.62c-4.21,0-7.62-3.41-7.62-7.62V50.41c0-4.21,3.41-7.62,7.62-7.62h105.17c4.21,0,7.62,3.41,7.62,7.62Z"/>
        </g>
        <g>
          <path class="cls-11" d="m122.41,50.41v88.21c0,4.21-3.41,7.62-7.62,7.62h-34.17c-1.1,0-1.82.88-1.6,1.96l6.23,30.53c.22,1.08-.29,1.38-1.13.67l-37.88-31.88c-.84-.71-2.43-1.29-3.53-1.29H9.62c-4.21,0-7.62-3.41-7.62-7.62V50.41c0-4.21,3.41-7.62,7.62-7.62h105.17c4.21,0,7.62,3.41,7.62,7.62Z"/>
          <path class="cls-1" d="m122.41,50.41v88.21c0,4.21-3.41,7.62-7.62,7.62h-34.17c-1.1,0-1.82.88-1.6,1.96l6.23,30.53c.22,1.08-.29,1.38-1.13.67l-37.88-31.88c-.84-.71-2.43-1.29-3.53-1.29H9.62c-4.21,0-7.62-3.41-7.62-7.62V50.41c0-4.21,3.41-7.62,7.62-7.62h105.17c4.21,0,7.62,3.41,7.62,7.62Z"/>
        </g>
        <rect class="cls-12" x="15.1" y="58" width="8.6" height="8.6" rx="4.3" ry="4.3"/>
        <rect class="cls-12" x="28.16" y="58" width="39.11" height="8.6" rx="4.3" ry="4.3"/>
        <rect class="cls-12" x="44.9" y="122.55" width="14.48" height="8.6" rx="4.3" ry="4.3"/>
        <rect class="cls-12" x="15.1" y="70.59" width="20.63" height="8.6" rx="4.3" ry="4.3"/>
        <rect class="cls-12" x="38.44" y="70.59" width="26.93" height="8.6" rx="4.3" ry="4.3"/>
        <rect class="cls-12" x="67.83" y="70.59" width="19.81" height="8.6" rx="4.3" ry="4.3"/>
        <rect class="cls-12" x="90.1" y="70.59" width="19.81" height="8.6" rx="4.3" ry="4.3"/>
        <rect class="cls-12" x="15.1" y="109.16" width="50.27" height="8.6" rx="4.3" ry="4.3"/>
        <rect class="cls-12" x="14.5" y="122.35" width="26.93" height="8.6" rx="4.3" ry="4.3"/>
        <rect class="cls-12" x="67.83" y="109.16" width="19.81" height="8.6" rx="4.3" ry="4.3"/>
        <rect class="cls-12" x="90.1" y="109.16" width="19.81" height="8.6" rx="4.3" ry="4.3"/>
        <rect class="cls-12" x="15.1" y="83.18" width="29.87" height="8.6" rx="4.3" ry="4.3"/>
        <rect class="cls-12" x="48.63" y="83.18" width="34.58" height="8.6" rx="4.3" ry="4.3"/>
        <rect class="cls-12" x="86.72" y="83.18" width="23.19" height="8.6" rx="4.3" ry="4.3"/>
        <rect class="cls-12" x="15.1" y="95.77" width="19.04" height="8.6" rx="4.3" ry="4.3"/>
        <rect class="cls-12" x="37" y="95.77" width="30.28" height="8.6" rx="4.3" ry="4.3"/>
        <rect class="cls-12" x="70.15" y="95.77" width="21.2" height="8.6" rx="4.3" ry="4.3"/>
        <rect class="cls-12" x="94.69" y="95.77" width="15.22" height="8.6" rx="4.3" ry="4.3"/>
      </g>
      <g>
        <circle class="cls-9" cx="230.4" cy="91.53" r="36.85"/>
        <circle class="cls-4" cx="230.4" cy="91.53" r="36.85"/>
        <g>
          <line class="cls-7" x1="221.31" y1="115.09" x2="221.31" y2="76.08"/>
          <path class="cls-7" d="m221.31,96.38c9.09,0,26.85,2.81,26.33-17.84"/>
          <circle class="cls-7" cx="221.31" cy="74.31" r="4.23"/>
          <circle class="cls-7" cx="247.63" cy="78.54" r="4.23"/>
          <circle class="cls-7" cx="221.31" cy="115.7" r="4.23"/>
        </g>
      </g>
      <g>
        <g>
          <rect class="cls-9" x="315.57" y="104.69" width="80.53" height="102.63" rx="8.5" ry="8.5"/>
          <rect class="cls-4" x="315.57" y="104.69" width="80.53" height="102.63" rx="8.5" ry="8.5"/>
        </g>
        <line class="cls-5" x1="324.55" y1="132.45" x2="387.12" y2="132.45"/>
        <line class="cls-5" x1="324.55" y1="146.32" x2="387.12" y2="146.32"/>
        <line class="cls-5" x1="324.55" y1="139.38" x2="387.12" y2="139.38"/>
        <line class="cls-5" x1="324.55" y1="153.25" x2="387.12" y2="153.25"/>
        <line class="cls-5" x1="324.55" y1="160.19" x2="387.12" y2="160.19"/>
        <line class="cls-5" x1="324.55" y1="174.06" x2="387.12" y2="174.06"/>
        <line class="cls-5" x1="324.55" y1="167.12" x2="387.12" y2="167.12"/>
        <line class="cls-5" x1="324.55" y1="180.99" x2="387.12" y2="180.99"/>
        <line class="cls-5" x1="324.55" y1="187.92" x2="387.12" y2="187.92"/>
        <line class="cls-5" x1="324.55" y1="194.86" x2="387.12" y2="194.86"/>
        <rect class="cls-12" x="323.08" y="115.71" width="66.84" height="8.6" rx="4.3" ry="4.3"/>
      </g>
      <g>
        <path class="cls-9" d="m218.93,268.2v1.48c0,4.1,2.42,7.42,5.4,7.42h147.75c2.98,0,5.4-3.32,5.4-7.42v-1.48h-158.54Z"/>
        <path class="cls-9" d="m350.12,264.2h-125.81c-2.93,0-5.47-2.01-6.15-4.86l-17-71.54c-.94-3.97,2.07-7.78,6.15-7.78h126.66c2.95,0,5.51,2.05,6.16,4.93l16.15,71.54c.89,3.95-2.11,7.71-6.16,7.71Z"/>
        <path class="cls-4" d="m350.29,264.2h-126.03c-2.88,0-5.38-1.98-6.04-4.77l-17.05-71.76c-.93-3.9,2.03-7.64,6.04-7.64h126.89c2.9,0,5.42,2.01,6.06,4.84l16.2,71.76c.88,3.88-2.08,7.58-6.06,7.58Zm-21.9-78.7h-113.38c-4.03,0-6.99,3.78-6.03,7.7l13.94,56.48c.68,2.77,3.17,4.72,6.03,4.72h112.56c4,0,6.95-3.72,6.05-7.61l-13.12-56.48c-.65-2.81-3.16-4.8-6.05-4.8Z"/>
        <path class="cls-4" d="m218.93,268.2v1.48c0,4.1,2.42,7.42,5.4,7.42h147.75c2.98,0,5.4-3.32,5.4-7.42v-1.48h-158.54Z"/>
        <g>
          <path class="cls-11" d="m249.56,219.52c1.29-.34,2.21-.83,2.77-1.46.56-.63.85-1.38.86-2.26.01-.88-.14-1.85-.47-2.92l-2.52-8.23c-.49-1.6-.71-2.92-.65-3.96.06-1.04.47-1.8,1.23-2.29.76-.49,1.94-.74,3.53-.74l-1.23-4.03c-2.02,0-3.64.22-4.88.66-1.24.44-2.13,1.11-2.68,2.02s-.79,2.05-.73,3.44c.06,1.39.38,3.02.96,4.92l2.01,6.58c.69,2.25.72,3.85.1,4.81-.62.96-2.07,1.44-4.36,1.44l.73,2.39.05.16.73,2.39c2.29,0,4.04.48,5.24,1.44,1.21.96,2.15,2.56,2.84,4.81l2.01,6.58c.58,1.89,1.26,3.53,2.05,4.92.79,1.39,1.73,2.53,2.83,3.44s2.4,1.58,3.91,2.02c1.51.44,3.27.66,5.28.66l-1.23-4.03c-1.59,0-2.92-.25-3.98-.75-1.07-.5-1.94-1.27-2.64-2.29-.69-1.03-1.28-2.35-1.77-3.95l-2.52-8.23c-.33-1.07-.77-2.04-1.31-2.92-.55-.88-1.3-1.63-2.24-2.26-.95-.63-2.17-1.12-3.67-1.46-.19-.04-.4-.08-.6-.11l-.19-.64c.18-.04.37-.07.53-.11Z"/>
          <path class="cls-11" d="m308.09,219.52c-1.5-.34-2.72-.83-3.67-1.46-.95-.63-1.7-1.38-2.24-2.26-.55-.88-.99-1.85-1.31-2.92l-2.52-8.23c-.49-1.6-1.08-2.92-1.78-3.96-.69-1.04-1.57-1.8-2.64-2.29-1.06-.49-2.39-.74-3.98-.74l-1.23-4.03c2.02,0,3.78.22,5.28.66,1.51.44,2.81,1.11,3.91,2.02s2.04,2.05,2.83,3.44c.79,1.39,1.47,3.02,2.05,4.92l2.01,6.58c.69,2.25,1.63,3.85,2.84,4.81,1.21.96,2.95,1.44,5.24,1.44l.73,2.39.05.16.73,2.39c-2.29,0-3.74.48-4.36,1.44-.62.96-.58,2.56.1,4.81l2.01,6.58c.58,1.89.9,3.53.96,4.92.06,1.39-.18,2.53-.73,3.44s-1.44,1.58-2.68,2.02c-1.24.44-2.86.66-4.88.66l-1.23-4.03c1.59,0,2.77-.25,3.52-.75.76-.5,1.17-1.27,1.23-2.29s-.15-2.35-.64-3.95l-2.52-8.23c-.33-1.07-.48-2.04-.47-2.92.01-.88.3-1.63.86-2.26.56-.63,1.49-1.12,2.77-1.46.16-.04.35-.08.53-.11l-.19-.64c-.2-.04-.41-.07-.6-.11Z"/>
          <ellipse class="cls-11" cx="269" cy="230.3" rx="4.41" ry="5.98" transform="translate(-80.97 284.34) rotate(-49.35)"/>
          <ellipse class="cls-11" cx="282.12" cy="230.3" rx="4.41" ry="5.98" transform="translate(-76.4 294.3) rotate(-49.35)"/>
          <ellipse class="cls-11" cx="295.25" cy="230.3" rx="4.41" ry="5.98" transform="translate(-71.82 304.25) rotate(-49.35)"/>
        </g>
      </g>
    </g>
  </g>
</svg>