<?xml version="1.0" encoding="UTF-8"?>
<svg id="Layer_2" data-name="Layer 2" xmlns="http://www.w3.org/2000/svg" xmlns:xlink="http://www.w3.org/1999/xlink" viewBox="0 0 850.9 427.06">
  <defs>
    <style>
      .cls-1, .cls-2, .cls-3, .cls-4, .cls-5, .cls-6 {
        fill: #fff;
      }

      .cls-7 {
        stroke-dasharray: 0 0 1.88 1.88;
      }

      .cls-7, .cls-8, .cls-9, .cls-10, .cls-11, .cls-12, .cls-13, .cls-2, .cls-14, .cls-15, .cls-16, .cls-17, .cls-18, .cls-4, .cls-19, .cls-20, .cls-6, .cls-21, .cls-22 {
        stroke-miterlimit: 10;
      }

      .cls-7, .cls-8, .cls-10, .cls-11, .cls-12, .cls-13, .cls-14, .cls-23, .cls-15, .cls-16, .cls-17, .cls-18, .cls-19, .cls-24, .cls-25, .cls-26, .cls-27, .cls-22 {
        fill: none;
      }

      .cls-7, .cls-11, .cls-14, .cls-15 {
        stroke-linecap: round;
      }

      .cls-7, .cls-11, .cls-14, .cls-6 {
        stroke: #000;
      }

      .cls-8 {
        stroke-dasharray: 0 0 0 0 2.06 12.36 2.06 2.06;
      }

      .cls-8, .cls-9, .cls-13, .cls-2, .cls-16, .cls-17, .cls-18, .cls-19, .cls-22 {
        stroke: #231f20;
      }

      .cls-8, .cls-13, .cls-15, .cls-16, .cls-17, .cls-18, .cls-28, .cls-19, .cls-22 {
        stroke-width: 2px;
      }

      .cls-9 {
        fill: #68b900;
      }

      .cls-29, .cls-20 {
        fill: #3b82f6;
      }

      .cls-10, .cls-4, .cls-20, .cls-21 {
        stroke: #fff;
      }

      .cls-12, .cls-15 {
        stroke: #3b82f6;
      }

      .cls-13 {
        stroke-dasharray: 0 0 0 0 0 0 12.36 2.06 2.06 12.36 2.06 2.06;
      }

      .cls-14 {
        stroke-dasharray: 0 0 0 0 1.88 1.88 1.88 1.88;
      }

      .cls-23 {
        isolation: isolate;
        opacity: .6;
      }

      .cls-3 {
        opacity: .5;
      }

      .cls-16 {
        stroke-dasharray: 0 0 0 0 0 0 11.45 1.91 1.91 11.45 1.91 1.91;
      }

      .cls-17 {
        stroke-dasharray: 0 0 0 0 2.13 12.79 2.13 2.13;
      }

      .cls-4, .cls-21 {
        stroke-width: 4px;
      }

      .cls-28 {
        fill: url(#linear-gradient);
        fill-rule: evenodd;
        stroke: url(#linear-gradient-2);
      }

      .cls-19 {
        stroke-dasharray: 0 0 0 0 0 0 12.79 2.13 2.13 12.79 2.13 2.13;
      }

      .cls-20 {
        stroke-width: 3px;
      }

      .cls-5, .cls-27 {
        opacity: .25;
      }

      .cls-24 {
        clip-rule: evenodd;
      }

      .cls-25 {
        opacity: .75;
      }

      .cls-26 {
        clip-path: url(#clippath);
      }

      .cls-21 {
        fill: #184fa8;
      }

      .cls-22 {
        stroke-dasharray: 0 0 0 0 1.91 11.45 1.91 1.91;
      }

      .cls-30 {
        fill: #dfdfdf;
      }
    </style>
    <linearGradient id="linear-gradient" x1="193.5" y1="-25.38" x2="567.08" y2="369.95" gradientUnits="userSpaceOnUse">
      <stop offset="0" stop-color="#dde1ff"/>
      <stop offset=".44" stop-color="#5468ff"/>
      <stop offset="1" stop-color="#fff"/>
    </linearGradient>
    <linearGradient id="linear-gradient-2" x1="141.73" y1="213.53" x2="611.3" y2="213.53" gradientUnits="userSpaceOnUse">
      <stop offset="0" stop-color="#fff"/>
      <stop offset="1" stop-color="#fff" stop-opacity=".13"/>
    </linearGradient>
    <clipPath id="clippath">
      <path class="cls-24" d="m339.73,319.79h-158.9c-7.22,0-14.41-1.77-20.53-5.59-11.1-6.93-17.57-18.93-17.57-31.6V38.94c0-20.95,16.99-37.94,37.94-37.94h391.69c20.95,0,37.94,16.99,37.94,37.94v242.76c0,7.22-1.77,14.41-5.59,20.53-6.93,11.1-18.93,17.57-31.6,17.57h-159.81c-.45,0-2,106.26,82.36,106.26s-304.09,0-238.28,0c88.26,0,82.81-106.26,82.36-106.26Z"/>
    </clipPath>
  </defs>
  <g id="Layer_1-2" data-name="Layer 1">
    <g>
      <g class="cls-23">
        <path class="cls-28" d="m339.73,319.79h-158.9c-7.22,0-14.41-1.77-20.53-5.59-11.1-6.93-17.57-18.93-17.57-31.6V38.94c0-20.95,16.99-37.94,37.94-37.94h391.69c20.95,0,37.94,16.99,37.94,37.94v242.76c0,7.22-1.77,14.41-5.59,20.53-6.93,11.1-18.93,17.57-31.6,17.57h-159.81c-.45,0-2,106.26,82.36,106.26s-304.09,0-238.28,0c88.26,0,82.81-106.26,82.36-106.26Z"/>
      </g>
      <g class="cls-26">
        <g>
          <circle class="cls-1" cx="292.35" cy="23.35" r="32.15"/>
          <circle class="cls-1" cx="292.35" cy="362.16" r="32.15"/>
          <line class="cls-10" x1="292.35" y1="368.43" x2="292.35" y2="23.35"/>
          <circle class="cls-1" cx="412.14" cy="72.97" r="32.15"/>
          <circle class="cls-1" cx="292.35" cy="192.75" r="32.15"/>
          <circle class="cls-1" cx="172.57" cy="312.54" r="32.15"/>
          <line class="cls-10" x1="168.13" y1="316.98" x2="412.14" y2="72.97"/>
          <circle class="cls-1" cx="172.57" cy="72.97" r="32.15"/>
          <circle class="cls-1" cx="412.14" cy="312.54" r="32.15"/>
          <line class="cls-10" x1="416.57" y1="316.98" x2="172.57" y2="72.97"/>
          <circle class="cls-1" cx="461.75" cy="192.75" r="32.15"/>
          <path class="cls-1" d="m90.8,192.75c0-17.76,14.39-32.15,32.15-32.15s32.15,14.39,32.15,32.15-14.39,32.15-32.15,32.15c-17.76,0-32.15-14.39-32.15-32.15Z"/>
          <line class="cls-10" x1="116.68" y1="192.75" x2="461.75" y2="192.75"/>
        </g>
      </g>
    </g>
    <g>
      <path class="cls-5" d="m577.69,182.19c-.5-.5-.75-1.1-.75-1.79s.22-1.27.67-1.71l12.26-12.26h-41.38c-.72,0-1.32-.24-1.79-.71s-.71-1.07-.71-1.79.24-1.32.71-1.79,1.07-.71,1.79-.71h41.38l-12.35-12.35c-.5-.5-.74-1.08-.71-1.75s.29-1.25.79-1.75c.5-.44,1.1-.67,1.79-.67s1.27.22,1.71.67l16.6,16.6c.28.28.47.56.58.83s.17.58.17.92-.06.64-.17.92-.31.56-.58.83l-16.52,16.52c-.5.5-1.08.75-1.75.75s-1.25-.25-1.75-.75Z"/>
      <path class="cls-3" d="m555.26,182.19c-.5-.5-.75-1.1-.75-1.79s.22-1.27.67-1.71l12.26-12.26h-41.38c-.72,0-1.32-.24-1.79-.71s-.71-1.07-.71-1.79.24-1.32.71-1.79,1.07-.71,1.79-.71h41.38l-12.35-12.35c-.5-.5-.74-1.08-.71-1.75s.29-1.25.79-1.75c.5-.44,1.1-.67,1.79-.67s1.27.22,1.71.67l16.6,16.6c.28.28.47.56.58.83s.17.58.17.92-.06.64-.17.92-.31.56-.58.83l-16.52,16.52c-.5.5-1.08.75-1.75.75s-1.25-.25-1.75-.75Z"/>
      <path class="cls-1" d="m532.83,182.19c-.5-.5-.75-1.1-.75-1.79s.22-1.27.67-1.71l12.26-12.26h-41.38c-.72,0-1.32-.24-1.79-.71s-.71-1.07-.71-1.79.24-1.32.71-1.79,1.07-.71,1.79-.71h41.38l-12.35-12.35c-.5-.5-.74-1.08-.71-1.75s.29-1.25.79-1.75c.5-.44,1.1-.67,1.79-.67s1.27.22,1.71.67l16.6,16.6c.28.28.47.56.58.83s.17.58.17.92-.06.64-.17.92-.31.56-.58.83l-16.52,16.52c-.5.5-1.08.75-1.75.75s-1.25-.25-1.75-.75Z"/>
    </g>
    <rect class="cls-1" x="86.94" y="83.2" width="312.53" height="5.75"/>
    <g>
      <line class="cls-18" x1="416.12" y1="86.08" x2="410.12" y2="86.08"/>
      <line class="cls-8" x1="408.06" y1="86.08" x2="390.55" y2="86.08"/>
      <line class="cls-13" x1="389.52" y1="86.08" x2="93.97" y2="86.08"/>
      <line class="cls-18" x1="92.94" y1="86.08" x2="86.94" y2="86.08"/>
    </g>
    <rect class="cls-1" x="493.15" y="236.99" width="226.65" height="5.75"/>
    <g>
      <line class="cls-18" x1="707.44" y1="239.87" x2="701.44" y2="239.87"/>
      <line class="cls-22" x1="699.54" y1="239.87" x2="683.31" y2="239.87"/>
      <line class="cls-16" x1="682.36" y1="239.87" x2="500.1" y2="239.87"/>
      <line class="cls-18" x1="499.15" y1="239.87" x2="493.15" y2="239.87"/>
    </g>
    <g>
      <rect class="cls-20" x="192.05" y="33.64" width="83.33" height="104.65" rx="12" ry="12"/>
      <g>
        <path id="path4548" class="cls-1" d="m227.52,109.89c-1.13-1.06-.96-2.88.42-4.67,1.02-1.32,5.3-5.67,8.39-8.51l1.25-1.15-1.99-4.26c-2.23-4.78-2.22-4.87.72-5.2l1.62-.18,1.81,2.73c1,1.5,1.95,2.73,2.13,2.73s1.96-1.43,3.96-3.18c3.48-3.04,3.7-3.17,4.88-3.01.71.1,1.34.04,1.49-.14.35-.42,1.36.2,1.36.84,0,.26-.5.92-1.11,1.48-2.5,2.25-7.84,7.56-7.84,7.81,0,.14,1.08,2,2.39,4.13l2.22,3.59c.1.16.08.36-.05.5l-.53.41c-.4.44-.67.79-.72,1.22.09.27-.31.39-.67.56-.92.43-1.6-.09-4.4-3.39-1.28-1.51-2.46-2.74-2.62-2.75-.35,0-4.18,4.19-7.15,7.81-2.62,3.2-4.92,3.26-5.59,2.63h0Z"/>
        <path id="path4550" class="cls-1" d="m224.4,85.01s-.03-.04-.05-.07c-5.84-8.72-10.08-10.25-9.93-10.35,2.22-1.43,6.39-.03,8.96,2.26.03.03.06.06.09.09.62.53.76.72,1.5,1.54.13,0,2.98-4.73,3-4.76,5.74-9.05,11.73-12.87,15.22-12.86,1.66,0,1.91.58,1.91.58-5.64,2.94-10.41,8.19-15.34,17.86-1.37,2.77-3.69,7.24-3.86,7.54-.25.46-.29-.23-1.51-1.83Z"/>
        <path class="cls-1" d="m205.32,85.48c1.56-.38,2.76-.93,3.61-1.64.84-.71,1.43-1.55,1.74-2.54.31-.98.47-2.07.47-3.27v-9.22c0-1.8.21-3.28.63-4.44.42-1.16,1.15-2.02,2.17-2.57,1.02-.55,2.42-.83,4.21-.83v-4.52c-2.26,0-4.16.25-5.7.74-1.54.49-2.77,1.25-3.69,2.26s-1.59,2.3-1.99,3.85c-.41,1.55-.61,3.39-.61,5.51v7.38c0,2.52-.51,4.32-1.53,5.4-1.02,1.08-2.82,1.61-5.38,1.61v5.53c2.57,0,4.36.54,5.38,1.61,1.02,1.08,1.53,2.87,1.53,5.4v7.38c0,2.12.2,3.96.61,5.51.41,1.55,1.07,2.84,1.99,3.85.92,1.01,2.15,1.77,3.69,2.26,1.54.49,3.44.74,5.7.74v-4.52c-1.78,0-3.19-.28-4.21-.84-1.02-.56-1.75-1.42-2.17-2.57s-.63-2.63-.63-4.43v-9.22c0-1.2-.16-2.29-.47-3.27-.32-.98-.9-1.83-1.74-2.54-.85-.71-2.05-1.25-3.61-1.64-.2-.05-.42-.08-.63-.13v-.71c.21-.04.44-.08.63-.13Z"/>
        <path class="cls-1" d="m262.12,85.48c-1.56-.38-2.76-.93-3.61-1.64-.84-.71-1.43-1.55-1.74-2.54-.31-.98-.47-2.07-.47-3.27v-9.22c0-1.8-.21-3.28-.63-4.44-.42-1.16-1.15-2.02-2.17-2.57-1.02-.55-2.42-.83-4.21-.83v-4.52c2.26,0,4.16.25,5.7.74,1.54.49,2.77,1.25,3.69,2.26s1.59,2.3,1.99,3.85c.41,1.55.61,3.39.61,5.51v7.38c0,2.52.51,4.32,1.53,5.4,1.02,1.08,2.82,1.61,5.38,1.61v2.67s0,.18,0,.18v2.67c-2.57,0-4.36.54-5.38,1.61-1.02,1.08-1.53,2.87-1.53,5.4v7.38c0,2.12-.2,3.96-.61,5.51-.41,1.55-1.07,2.84-1.99,3.85-.92,1.01-2.15,1.77-3.69,2.26-1.54.49-3.44.74-5.7.74v-4.52c1.78,0,3.19-.28,4.21-.84,1.02-.56,1.75-1.42,2.17-2.57.42-1.15.63-2.63.63-4.43v-9.22c0-1.2.16-2.29.47-3.27.32-.98.9-1.83,1.74-2.54.85-.71,2.05-1.25,3.61-1.64.2-.05.42-.08.63-.13v-.71c-.21-.04-.44-.08-.63-.13Z"/>
      </g>
    </g>
    <g>
      <path class="cls-4" d="m86.92,110.58v-49.03l-42.46-24.51L2,61.55v49.03l42.46,24.55,42.46-24.55Z"/>
      <path class="cls-6" d="m86.92,110.58v-49.03l-42.46-24.51L2,61.55v49.03l42.46,24.55,42.46-24.55Zm-39.04,14.78v-37.09l32.32-18.4v36.83l-32.32,18.66Zm29.45-61.59l-32.91,18.2L11.59,63.77l32.88-18.98,32.88,18.98Zm-68.62,6.1l32.9,18.4v37.17l-32.9-18.74v-36.83Z"/>
    </g>
    <g>
      <path class="cls-4" d="m325.06,314.5v-37.64l-32.59-18.82-32.59,18.82v37.64l32.59,18.84,32.59-18.84Z"/>
      <path class="cls-6" d="m325.06,314.5v-37.64l-32.59-18.82-32.59,18.82v37.64l32.59,18.84,32.59-18.84Zm-29.96,11.35v-28.47l24.81-14.12v28.27l-24.81,14.32Zm22.61-47.28l-25.26,13.97-25.21-13.97,25.24-14.57,25.24,14.57Zm-52.67,4.68l25.25,14.12v28.53l-25.25-14.38v-28.27Z"/>
    </g>
    <path class="cls-1" d="m271.83,303.12l-.09,3.45,1.16.03c-.2.16-.36.34-.47.56-.03,0-.06,0-.1,0-.3,0-.6.08-.86.23l-1.64.95c-.3.17-.53.43-.67.72-.03,0-.06,0-.1,0-.3,0-.61.08-.86.23l-1.64.95c-.3.17-.53.43-.67.72-.03,0-.06,0-.1,0-.31,0-.61.08-.86.23l-1.64.95c-.3.17-.53.43-.67.72-.03,0-.07,0-.1,0-.3,0-.6.08-.86.23l-1.64.95c-.3.17-.53.43-.67.72-.03,0-.07,0-.1,0-.31,0-.61.08-.86.23l-1.64.95c-.3.17-.53.43-.67.72-.03,0-.07,0-.1,0-.3,0-.6.08-.86.23l-1.64.95c-.3.17-.53.43-.67.72-.03,0-.06,0-.1,0-.31,0-.61.08-.86.23l-1.64.95c-.3.17-.53.43-.67.72-.03,0-.06,0-.1,0-.3,0-.61.08-.86.23l-1.64.95c-.3.17-.53.43-.67.72-.03,0-.06,0-.1,0-.3,0-.6.08-.86.23l-1.64.95c-.3.17-.53.43-.67.72-.03,0-.07,0-.1,0-.31,0-.61.08-.86.23l-1.64.95c-.3.17-.53.43-.67.72-.03,0-.07,0-.1,0-.3,0-.6.08-.86.23l-1.64.95c-.3.17-.53.43-.67.72-.03,0-.06,0-.1,0-.31,0-.61.08-.86.23l-1.64.95c-.3.17-.53.43-.67.72-.03,0-.06,0-.1,0-.31,0-.61.08-.86.23l-1.64.95c-.3.18-.53.43-.68.73-.03,0-.06-.01-.1-.01-.3,0-.6.08-.86.23l-1.64.95c-.31.18-.54.43-.68.73-.03,0-.06-.01-.09-.01-.3,0-.61.08-.86.23l-.78.45c-.82.48-1.1,1.53-.63,2.35.31.53.88.86,1.49.86.3,0,.6-.08.86-.23l.78-.45c.3-.18.53-.43.68-.73.03,0,.06.01.09.01.3,0,.6-.08.87-.23l1.64-.95c.31-.18.54-.43.68-.73.03,0,.06.01.09.01.3,0,.6-.08.86-.23l1.64-.95c.3-.17.53-.43.67-.72.03,0,.06,0,.1,0,.3,0,.6-.08.86-.23l1.64-.95c.3-.17.53-.43.67-.72.03,0,.06,0,.1,0,.3,0,.6-.08.86-.23l1.64-.95c.3-.17.53-.43.67-.72.03,0,.06,0,.1,0,.3,0,.6-.08.86-.23l1.64-.95c.3-.17.53-.43.67-.72.03,0,.07,0,.1,0,.3,0,.6-.08.86-.23l1.64-.95c.3-.17.53-.43.67-.72.03,0,.06,0,.1,0,.3,0,.6-.08.86-.23l1.64-.95c.3-.17.53-.43.67-.72.03,0,.06,0,.1,0,.3,0,.6-.08.86-.23l1.64-.95c.3-.17.53-.43.67-.72.03,0,.06,0,.1,0,.3,0,.6-.08.86-.23l1.64-.95c.3-.17.53-.43.67-.72.03,0,.06,0,.1,0,.3,0,.6-.08.86-.23l1.64-.95c.3-.17.53-.43.68-.72.03,0,.06,0,.1,0,.3,0,.6-.08.86-.23l1.64-.95c.3-.17.53-.43.67-.72.03,0,.06,0,.1,0,.3,0,.6-.08.86-.23l1.64-.95c.3-.17.53-.43.67-.72.03,0,.06,0,.1,0,.3,0,.6-.08.86-.23l1.64-.95c.3-.17.53-.43.67-.72.03,0,.06,0,.1,0,.3,0,.6-.08.86-.23l1.64-.95c.3-.17.53-.43.67-.72.03,0,.06,0,.1,0,.3,0,.6-.08.86-.23l1.03-.6-.22,2.18,3.43.34.8-8-8.04-.22Z"/>
    <g>
      <path d="m226.21,335.09l-.78.45c-.21.12-.29.4-.16.61.08.14.23.22.39.22.08,0,.15-.02.23-.06l.78-.45c.21-.12.29-.4.16-.61-.13-.22-.4-.29-.61-.16Z"/>
      <path d="m229.49,333.19l-1.64.95c-.22.12-.29.4-.16.61.08.14.23.22.39.22.08,0,.15-.02.23-.06l1.64-.95c.22-.12.29-.4.16-.61-.13-.22-.4-.29-.61-.16Z"/>
      <path d="m245.88,323.69l-1.64.95c-.21.12-.29.4-.16.61.08.14.23.22.39.22.08,0,.15-.02.23-.06l1.64-.95c.21-.12.29-.4.16-.61-.13-.22-.4-.29-.61-.16Z"/>
      <path d="m242.6,325.59l-1.64.95c-.21.12-.29.4-.16.61.08.14.23.22.39.22.08,0,.15-.02.23-.06l1.64-.95c.21-.12.29-.4.16-.61-.13-.22-.4-.29-.61-.16Z"/>
      <path d="m252.43,319.89l-1.64.95c-.21.12-.29.4-.16.61.08.14.23.22.39.22.08,0,.15-.02.23-.06l1.64-.95c.21-.12.29-.4.16-.61-.13-.22-.4-.29-.61-.16Z"/>
      <path d="m249.15,321.79l-1.64.95c-.21.12-.29.4-.16.61.08.14.23.22.39.22.08,0,.15-.02.23-.06l1.64-.95c.21-.12.29-.4.16-.61-.13-.22-.4-.29-.61-.16Z"/>
      <path d="m236.05,329.39l-1.64.95c-.21.12-.29.4-.16.61.08.14.23.22.39.22.08,0,.15-.02.23-.06l1.64-.95c.21-.12.29-.4.16-.61-.13-.22-.4-.29-.61-.16Z"/>
      <path d="m232.77,331.29l-1.64.95c-.21.12-.29.4-.16.61.08.14.23.22.39.22.08,0,.15-.02.23-.06l1.64-.95c.21-.12.29-.4.16-.61-.13-.22-.4-.29-.61-.16Z"/>
      <path d="m239.32,327.49l-1.64.95c-.21.12-.29.4-.16.61.08.14.23.22.39.22.08,0,.15-.02.23-.06l1.64-.95c.21-.12.29-.4.16-.61-.13-.22-.4-.29-.61-.16Z"/>
      <path d="m268.82,310.39l-1.64.95c-.21.12-.29.4-.16.61.08.14.23.22.39.22.08,0,.15-.02.23-.06l1.64-.95c.21-.12.29-.4.16-.61-.13-.22-.4-.29-.61-.16Z"/>
      <path d="m272.1,308.49l-1.64.95c-.21.12-.29.4-.16.61.08.14.23.22.39.22.08,0,.15-.02.23-.06l1.64-.95c.21-.12.29-.4.16-.61-.13-.22-.4-.29-.61-.16Z"/>
      <path d="m255.71,317.99l-1.64.95c-.21.12-.29.4-.16.61.08.14.23.22.39.22.08,0,.15-.02.23-.06l1.64-.95c.21-.12.29-.4.16-.61-.13-.22-.4-.29-.61-.16Z"/>
      <path d="m275.37,306.59l-1.64.95c-.21.12-.29.4-.16.61.08.14.23.22.39.22.08,0,.15-.02.23-.06l1.64-.95c.21-.12.29-.4.16-.61-.13-.22-.4-.29-.61-.16Z"/>
      <path d="m258.99,316.09l-1.64.95c-.21.12-.29.4-.16.61.08.14.23.22.39.22.08,0,.15-.02.23-.06l1.64-.95c.21-.12.29-.4.16-.61-.13-.22-.4-.29-.61-.16Z"/>
      <path d="m265.54,312.29l-1.64.95c-.21.12-.29.4-.16.61.08.14.23.22.39.22.08,0,.15-.02.23-.06l1.64-.95c.21-.12.29-.4.16-.61-.13-.22-.4-.29-.61-.16Z"/>
      <path d="m262.26,314.19l-1.64.95c-.21.12-.29.4-.16.61.08.14.23.22.39.22.08,0,.15-.02.23-.06l1.64-.95c.21-.12.29-.4.16-.61-.13-.22-.4-.29-.61-.16Z"/>
      <path d="m273.07,304.43l-.03.9,3.95.11-.16.16c-.17.18-.17.46,0,.64.09.09.2.13.32.13.08,0,.17-.03.24-.08l-.36,3.58.9.09.54-5.37-5.4-.15Z"/>
    </g>
    <g>
      <path class="cls-4" d="m253.65,357.2v-37.64l-32.59-18.82-32.59,18.82v37.64l32.59,18.84,32.59-18.84Z"/>
      <path class="cls-6" d="m253.65,357.2v-37.64l-32.59-18.82-32.59,18.82v37.64l32.59,18.84,32.59-18.84Zm-29.96,11.35v-28.47l24.81-14.12v28.27l-24.81,14.32Zm22.61-47.28l-25.26,13.97-25.21-13.97,25.24-14.57,25.24,14.57Zm-52.67,4.68l25.25,14.12v28.53l-25.25-14.38v-28.27Z"/>
    </g>
    <g>
      <line class="cls-11" x1="359.28" y1="335.93" x2="358.41" y2="335.43"/>
      <line class="cls-7" x1="356.78" y1="334.48" x2="354.34" y2="333.07"/>
      <line class="cls-14" x1="353.52" y1="332.59" x2="308.7" y2="306.6"/>
      <line class="cls-11" x1="307.94" y1="306.06" x2="307.24" y2="305.35"/>
      <polygon points="312.47 304.29 312.52 305.29 307.6 305.52 308.19 310.42 307.2 310.54 306.48 304.57 312.47 304.29"/>
    </g>
    <path class="cls-1" d="m313.43,303.12l.09,3.45-1.16.03c.2.16.36.34.47.56.03,0,.06,0,.1,0,.3,0,.6.08.86.23l1.64.95c.3.17.53.43.67.72.03,0,.06,0,.1,0,.3,0,.61.08.86.23l1.64.95c.3.17.53.43.67.72.03,0,.06,0,.1,0,.31,0,.61.08.86.23l1.64.95c.3.17.53.43.67.72.03,0,.07,0,.1,0,.3,0,.6.08.86.23l1.64.95c.3.17.53.43.67.72.03,0,.07,0,.1,0,.31,0,.61.08.86.23l1.64.95c.3.17.53.43.67.72.03,0,.07,0,.1,0,.3,0,.6.08.86.23l1.64.95c.3.17.53.43.67.72.03,0,.06,0,.1,0,.31,0,.61.08.86.23l1.64.95c.3.17.53.43.67.72.03,0,.06,0,.1,0,.3,0,.61.08.86.23l1.64.95c.3.17.53.43.67.72.03,0,.06,0,.1,0,.3,0,.6.08.86.23l1.64.95c.3.17.53.43.67.72.03,0,.07,0,.1,0,.31,0,.61.08.86.23l1.64.95c.3.17.53.43.67.72.03,0,.07,0,.1,0,.3,0,.6.08.86.23l1.64.95c.3.17.53.43.67.72.03,0,.06,0,.1,0,.31,0,.61.08.86.23l1.64.95c.3.17.53.43.67.72.03,0,.06,0,.1,0,.31,0,.61.08.86.23l1.64.95c.3.18.53.43.68.73.03,0,.06-.01.1-.01.3,0,.6.08.86.23l1.64.95c.31.18.54.43.68.73.03,0,.06-.01.09-.01.3,0,.61.08.86.23l.78.45c.82.48,1.1,1.53.63,2.35-.31.53-.88.86-1.49.86-.3,0-.6-.08-.86-.23l-.78-.45c-.3-.18-.53-.43-.68-.73-.03,0-.06.01-.09.01-.3,0-.6-.08-.87-.23l-1.64-.95c-.31-.18-.54-.43-.68-.73-.03,0-.06.01-.09.01-.3,0-.6-.08-.86-.23l-1.64-.95c-.3-.17-.53-.43-.67-.72-.03,0-.06,0-.1,0-.3,0-.6-.08-.86-.23l-1.64-.95c-.3-.17-.53-.43-.67-.72-.03,0-.06,0-.1,0-.3,0-.6-.08-.86-.23l-1.64-.95c-.3-.17-.53-.43-.67-.72-.03,0-.06,0-.1,0-.3,0-.6-.08-.86-.23l-1.64-.95c-.3-.17-.53-.43-.67-.72-.03,0-.07,0-.1,0-.3,0-.6-.08-.86-.23l-1.64-.95c-.3-.17-.53-.43-.67-.72-.03,0-.06,0-.1,0-.3,0-.6-.08-.86-.23l-1.64-.95c-.3-.17-.53-.43-.67-.72-.03,0-.06,0-.1,0-.3,0-.6-.08-.86-.23l-1.64-.95c-.3-.17-.53-.43-.67-.72-.03,0-.06,0-.1,0-.3,0-.6-.08-.86-.23l-1.64-.95c-.3-.17-.53-.43-.67-.72-.03,0-.06,0-.1,0-.3,0-.6-.08-.86-.23l-1.64-.95c-.3-.17-.53-.43-.68-.72-.03,0-.06,0-.1,0-.3,0-.6-.08-.86-.23l-1.64-.95c-.3-.17-.53-.43-.67-.72-.03,0-.06,0-.1,0-.3,0-.6-.08-.86-.23l-1.64-.95c-.3-.17-.53-.43-.67-.72-.03,0-.06,0-.1,0-.3,0-.6-.08-.86-.23l-1.64-.95c-.3-.17-.53-.43-.67-.72-.03,0-.06,0-.1,0-.3,0-.6-.08-.86-.23l-1.64-.95c-.3-.17-.53-.43-.67-.72-.03,0-.06,0-.1,0-.3,0-.6-.08-.86-.23l-1.03-.6.22,2.18-3.43.34-.8-8,8.04-.22Z"/>
    <g>
      <path d="m359.04,335.09l.78.45c.21.12.29.4.16.61-.08.14-.23.22-.39.22-.08,0-.15-.02-.23-.06l-.78-.45c-.21-.12-.29-.4-.16-.61.13-.22.4-.29.61-.16Z"/>
      <path d="m355.77,333.19l1.64.95c.22.12.29.4.16.61-.08.14-.23.22-.39.22-.08,0-.15-.02-.23-.06l-1.64-.95c-.22-.12-.29-.4-.16-.61.13-.22.4-.29.61-.16Z"/>
      <path d="m339.38,323.69l1.64.95c.21.12.29.4.16.61-.08.14-.23.22-.39.22-.08,0-.15-.02-.23-.06l-1.64-.95c-.21-.12-.29-.4-.16-.61.13-.22.4-.29.61-.16Z"/>
      <path d="m342.66,325.59l1.64.95c.21.12.29.4.16.61-.08.14-.23.22-.39.22-.08,0-.15-.02-.23-.06l-1.64-.95c-.21-.12-.29-.4-.16-.61.13-.22.4-.29.61-.16Z"/>
      <path d="m332.82,319.89l1.64.95c.21.12.29.4.16.61-.08.14-.23.22-.39.22-.08,0-.15-.02-.23-.06l-1.64-.95c-.21-.12-.29-.4-.16-.61.13-.22.4-.29.61-.16Z"/>
      <path d="m336.1,321.79l1.64.95c.21.12.29.4.16.61-.08.14-.23.22-.39.22-.08,0-.15-.02-.23-.06l-1.64-.95c-.21-.12-.29-.4-.16-.61.13-.22.4-.29.61-.16Z"/>
      <path d="m349.21,329.39l1.64.95c.21.12.29.4.16.61-.08.14-.23.22-.39.22-.08,0-.15-.02-.23-.06l-1.64-.95c-.21-.12-.29-.4-.16-.61.13-.22.4-.29.61-.16Z"/>
      <path d="m352.49,331.29l1.64.95c.21.12.29.4.16.61-.08.14-.23.22-.39.22-.08,0-.15-.02-.23-.06l-1.64-.95c-.21-.12-.29-.4-.16-.61.13-.22.4-.29.61-.16Z"/>
      <path d="m345.93,327.49l1.64.95c.21.12.29.4.16.61-.08.14-.23.22-.39.22-.08,0-.15-.02-.23-.06l-1.64-.95c-.21-.12-.29-.4-.16-.61.13-.22.4-.29.61-.16Z"/>
      <path d="m316.44,310.39l1.64.95c.21.12.29.4.16.61-.08.14-.23.22-.39.22-.08,0-.15-.02-.23-.06l-1.64-.95c-.21-.12-.29-.4-.16-.61.13-.22.4-.29.61-.16Z"/>
      <path d="m313.16,308.49l1.64.95c.21.12.29.4.16.61-.08.14-.23.22-.39.22-.08,0-.15-.02-.23-.06l-1.64-.95c-.21-.12-.29-.4-.16-.61.13-.22.4-.29.61-.16Z"/>
      <path d="m329.55,317.99l1.64.95c.21.12.29.4.16.61-.08.14-.23.22-.39.22-.08,0-.15-.02-.23-.06l-1.64-.95c-.21-.12-.29-.4-.16-.61.13-.22.4-.29.61-.16Z"/>
      <path d="m309.88,306.59l1.64.95c.21.12.29.4.16.61-.08.14-.23.22-.39.22-.08,0-.15-.02-.23-.06l-1.64-.95c-.21-.12-.29-.4-.16-.61.13-.22.4-.29.61-.16Z"/>
      <path d="m326.27,316.09l1.64.95c.21.12.29.4.16.61-.08.14-.23.22-.39.22-.08,0-.15-.02-.23-.06l-1.64-.95c-.21-.12-.29-.4-.16-.61.13-.22.4-.29.61-.16Z"/>
      <path d="m319.71,312.29l1.64.95c.21.12.29.4.16.61-.08.14-.23.22-.39.22-.08,0-.15-.02-.23-.06l-1.64-.95c-.21-.12-.29-.4-.16-.61.13-.22.4-.29.61-.16Z"/>
      <path d="m322.99,314.19l1.64.95c.21.12.29.4.16.61-.08.14-.23.22-.39.22-.08,0-.15-.02-.23-.06l-1.64-.95c-.21-.12-.29-.4-.16-.61.13-.22.4-.29.61-.16Z"/>
      <path d="m312.19,304.43l.03.9-3.95.11.16.16c.17.18.17.46,0,.64-.09.09-.2.13-.32.13-.08,0-.17-.03-.24-.08l.36,3.58-.9.09-.54-5.37,5.4-.15Z"/>
    </g>
    <g>
      <path class="cls-4" d="m356.92,376.05l32.59-18.84v-37.64s-32.59-18.82-32.59-18.82l-32.59,18.82v37.64s32.59,18.84,32.59,18.84Z"/>
      <path class="cls-6" d="m356.92,376.05l32.59-18.84v-37.64s-32.59-18.82-32.59-18.82l-32.59,18.82v37.64s32.59,18.84,32.59,18.84Zm-27.44-21.82v-28.27s24.81,14.12,24.81,14.12v28.47s-24.81-14.32-24.81-14.32Zm27.44-47.52l25.24,14.57-25.21,13.97-25.26-13.97,25.24-14.57Zm27.44,47.52l-25.25,14.38v-28.53s25.25-14.12,25.25-14.12v28.27Z"/>
    </g>
    <g>
      <rect class="cls-1" x="458.01" y="110.34" width="5.67" height="101.53"/>
      <g>
        <line class="cls-18" x1="460.85" y1="211.86" x2="460.85" y2="205.86"/>
        <line class="cls-17" x1="460.85" y1="203.73" x2="460.85" y2="185.61"/>
        <line class="cls-19" x1="460.85" y1="184.55" x2="460.85" y2="117.4"/>
        <line class="cls-18" x1="460.85" y1="116.34" x2="460.85" y2="110.34"/>
      </g>
    </g>
    <g>
      <g>
        <rect class="cls-21" x="728.11" y="145.57" width="80.53" height="102.63" rx="8.5" ry="8.5"/>
        <rect class="cls-2" x="728.11" y="145.57" width="80.53" height="102.63" rx="8.5" ry="8.5"/>
      </g>
      <line class="cls-15" x1="780.77" y1="173.33" x2="799.66" y2="173.33"/>
      <line class="cls-15" x1="780.77" y1="187.2" x2="799.66" y2="187.2"/>
      <line class="cls-15" x1="780.77" y1="180.27" x2="799.66" y2="180.27"/>
      <line class="cls-15" x1="780.77" y1="194.13" x2="799.66" y2="194.13"/>
      <line class="cls-15" x1="780.77" y1="201.07" x2="799.66" y2="201.07"/>
      <line class="cls-15" x1="737.09" y1="214.94" x2="799.66" y2="214.94"/>
      <line class="cls-15" x1="780.77" y1="208" x2="799.66" y2="208"/>
      <line class="cls-15" x1="737.09" y1="221.87" x2="799.66" y2="221.87"/>
      <line class="cls-15" x1="737.09" y1="228.81" x2="799.66" y2="228.81"/>
      <line class="cls-15" x1="737.09" y1="235.74" x2="799.66" y2="235.74"/>
      <rect class="cls-29" x="736.64" y="172.29" width="36.31" height="36.31" rx="5.61" ry="5.61"/>
      <g>
        <g>
          <g class="cls-27">
            <path class="cls-30" d="m754.79,190.44l14.55,3.09c-1.71,8.04-9.61,13.17-17.65,11.46-8.04-1.71-13.17-9.61-11.46-17.65,1.46-6.89,7.51-11.79,14.55-11.79v14.88Z"/>
          </g>
          <g class="cls-25">
            <path class="cls-1" d="m754.79,190.44v-14.88c8.22,0,14.88,6.66,14.88,14.88,0,1.17-.08,1.95-.33,3.09l-14.55-3.09Z"/>
          </g>
        </g>
        <g>
          <path class="cls-10" d="m754.79,190.44l14.55,3.09c-1.71,8.04-9.61,13.17-17.65,11.46s-13.17-9.61-11.46-17.65c1.46-6.89,7.51-11.79,14.55-11.79v14.88Z"/>
          <path class="cls-10" d="m754.79,190.44v-14.88c8.22,0,14.88,6.66,14.88,14.88,0,1.17-.08,1.95-.33,3.09l-14.55-3.09Z"/>
        </g>
      </g>
      <rect class="cls-29" x="735.42" y="156.07" width="66.84" height="8.6" rx="4.3" ry="4.3"/>
    </g>
    <g>
      <g>
        <rect class="cls-21" x="768.37" y="187.48" width="80.53" height="102.63" rx="8.5" ry="8.5"/>
        <rect class="cls-2" x="768.37" y="187.48" width="80.53" height="102.63" rx="8.5" ry="8.5"/>
      </g>
      <line class="cls-15" x1="821.03" y1="215.23" x2="839.92" y2="215.23"/>
      <line class="cls-15" x1="821.03" y1="229.1" x2="839.92" y2="229.1"/>
      <line class="cls-15" x1="821.03" y1="222.17" x2="839.92" y2="222.17"/>
      <line class="cls-15" x1="821.03" y1="236.04" x2="839.92" y2="236.04"/>
      <line class="cls-15" x1="821.03" y1="242.97" x2="839.92" y2="242.97"/>
      <line class="cls-15" x1="777.36" y1="256.84" x2="839.92" y2="256.84"/>
      <line class="cls-15" x1="821.03" y1="249.91" x2="839.92" y2="249.91"/>
      <line class="cls-15" x1="777.36" y1="263.78" x2="839.92" y2="263.78"/>
      <line class="cls-15" x1="777.36" y1="270.71" x2="839.92" y2="270.71"/>
      <line class="cls-15" x1="777.36" y1="277.65" x2="839.92" y2="277.65"/>
      <rect class="cls-29" x="776.9" y="214.19" width="36.31" height="36.31" rx="5.61" ry="5.61"/>
      <g>
        <g>
          <g class="cls-27">
            <path class="cls-30" d="m795.06,232.34l14.55,3.09c-1.71,8.04-9.61,13.17-17.65,11.46-8.04-1.71-13.17-9.61-11.46-17.65,1.46-6.89,7.51-11.79,14.55-11.79v14.88Z"/>
          </g>
          <g class="cls-25">
            <path class="cls-1" d="m795.06,232.34v-14.88c8.22,0,14.88,6.66,14.88,14.88,0,1.17-.08,1.95-.33,3.09l-14.55-3.09Z"/>
          </g>
        </g>
        <g>
          <path class="cls-10" d="m795.06,232.34l14.55,3.09c-1.71,8.04-9.61,13.17-17.65,11.46s-13.17-9.61-11.46-17.65c1.46-6.89,7.51-11.79,14.55-11.79v14.88Z"/>
          <path class="cls-10" d="m795.06,232.34v-14.88c8.22,0,14.88,6.66,14.88,14.88,0,1.17-.08,1.95-.33,3.09l-14.55-3.09Z"/>
        </g>
      </g>
      <rect class="cls-29" x="775.68" y="197.98" width="66.84" height="8.6" rx="4.3" ry="4.3"/>
    </g>
    <g>
      <path class="cls-29" d="m707.43,288.98h-16.21c-.9,0-1.7-.29-2.39-.86s-1.13-1.31-1.29-2.21l-1.96-12.4c-1.56-.57-3.19-1.35-4.91-2.33s-3.23-2.01-4.54-3.07l-11.42,5.28c-.9.41-1.8.47-2.7.18s-1.6-.88-2.09-1.78l-8.1-14.37c-.49-.82-.61-1.68-.37-2.58s.74-1.64,1.47-2.21l10.56-7.74c-.16-.74-.27-1.58-.31-2.52s-.06-1.78-.06-2.52.02-1.58.06-2.52.14-1.78.31-2.52l-10.56-7.74c-.74-.57-1.23-1.31-1.47-2.21s-.12-1.76.37-2.58l8.1-14.37c.49-.9,1.19-1.49,2.09-1.78s1.8-.23,2.7.18l11.42,5.28c1.31-1.06,2.82-2.09,4.54-3.07s3.36-1.72,4.91-2.21l1.96-12.52c.16-.9.59-1.64,1.29-2.21s1.49-.86,2.39-.86h16.21c.9,0,1.7.29,2.39.86s1.13,1.31,1.29,2.21l1.96,12.4c1.56.57,3.21,1.33,4.97,2.27,1.76.94,3.25,1.99,4.48,3.13l11.42-5.28c.9-.41,1.8-.47,2.7-.18s1.6.88,2.09,1.78l8.1,14.24c.49.82.63,1.7.43,2.64s-.72,1.7-1.53,2.27l-10.56,7.49c.16.82.27,1.7.31,2.64.04.94.06,1.82.06,2.64s-.02,1.68-.06,2.58c-.04.9-.14,1.76-.31,2.58l10.56,7.61c.74.57,1.23,1.31,1.47,2.21s.12,1.76-.37,2.58l-8.1,14.37c-.49.9-1.19,1.49-2.09,1.78s-1.8.23-2.7-.18l-11.42-5.28c-1.31,1.06-2.8,2.11-4.48,3.13-1.68,1.02-3.34,1.78-4.97,2.27l-1.96,12.4c-.16.9-.59,1.64-1.29,2.21s-1.49.86-2.39.86Z"/>
      <circle class="cls-21" cx="699.34" cy="239.87" r="22.03"/>
      <circle class="cls-9" cx="699.34" cy="239.87" r="22.03"/>
      <path id="path4550-2" data-name="path4550" class="cls-1" d="m694.21,250.46s-.03-.04-.05-.06c-5.58-8.33-9.63-9.8-9.48-9.89,2.12-1.37,6.1-.02,8.56,2.16.03.03.06.06.09.09.59.5.72.68,1.43,1.47.13,0,2.85-4.52,2.87-4.55,5.48-8.64,11.21-12.29,14.54-12.29,1.59,0,1.82.55,1.82.55-5.39,2.81-9.95,7.83-14.66,17.06-1.31,2.65-3.52,6.91-3.68,7.2-.24.44-.28-.22-1.44-1.75Z"/>
    </g>
    <g>
      <g>
        <rect class="cls-21" x="374.08" y="188.55" width="173.53" height="102.63" rx="8.5" ry="8.5"/>
        <rect class="cls-2" x="374.08" y="188.55" width="173.53" height="102.63" rx="8.5" ry="8.5"/>
      </g>
      <rect class="cls-29" x="384.01" y="197.93" width="101.49" height="8.6" rx="4.3" ry="4.3"/>
      <path class="cls-12" d="m529.24,222.31h-59.22c-2.21,0-4-1.79-4-4s1.79-4,4-4h59.22c2.21,0,4,1.79,4,4s-1.79,4-4,4Z"/>
      <path class="cls-12" d="m529.24,235.07h-59.22c-2.21,0-4-1.79-4-4s1.79-4,4-4h59.22c2.21,0,4,1.79,4,4s-1.79,4-4,4Z"/>
      <path class="cls-12" d="m529.24,247.83h-59.22c-2.21,0-4-1.79-4-4s1.79-4,4-4h59.22c2.21,0,4,1.79,4,4s-1.79,4-4,4Z"/>
      <path class="cls-12" d="m529.24,260.59h-59.22c-2.21,0-4-1.79-4-4s1.79-4,4-4h59.22c2.21,0,4,1.79,4,4s-1.79,4-4,4Z"/>
      <path class="cls-12" d="m529.24,273.35h-59.22c-2.21,0-4-1.79-4-4s1.79-4,4-4h59.22c2.21,0,4,1.79,4,4s-1.79,4-4,4Z"/>
      <g>
        <g>
          <path class="cls-21" d="m386.73,243.33c1.61-.4,2.86-.96,3.73-1.69.87-.73,1.47-1.6,1.8-2.62.33-1.02.49-2.15.49-3.39v-9.54c0-1.86.22-3.39.66-4.59.44-1.2,1.18-2.09,2.24-2.66,1.06-.57,2.51-.86,4.35-.86v-4.67c-2.34,0-4.3.25-5.89.76-1.59.51-2.86,1.29-3.81,2.34-.95,1.05-1.64,2.38-2.06,3.98-.42,1.61-.63,3.51-.63,5.7v7.63c0,2.61-.53,4.47-1.59,5.58-1.06,1.11-2.91,1.67-5.57,1.67v5.72c2.65,0,4.51.56,5.57,1.67,1.06,1.11,1.59,2.97,1.59,5.58v7.63c0,2.19.21,4.09.63,5.7.42,1.61,1.11,2.93,2.06,3.98.95,1.05,2.23,1.83,3.81,2.34,1.59.51,3.55.76,5.89.76v-4.67c-1.84,0-3.29-.29-4.35-.87-1.06-.58-1.8-1.47-2.24-2.66-.44-1.19-.66-2.72-.66-4.58v-9.54c0-1.24-.16-2.37-.49-3.39-.33-1.02-.93-1.89-1.8-2.62-.87-.73-2.12-1.3-3.73-1.69-.2-.05-.44-.09-.66-.13v-.74c.22-.04.45-.08.66-.13Z"/>
          <path class="cls-21" d="m454.57,243.33c-1.61-.4-2.86-.96-3.73-1.69-.87-.73-1.47-1.6-1.8-2.62-.33-1.02-.49-2.15-.49-3.39v-9.54c0-1.86-.22-3.39-.66-4.59-.44-1.2-1.18-2.09-2.24-2.66-1.06-.57-2.51-.86-4.35-.86v-4.67c2.34,0,4.3.25,5.89.76,1.59.51,2.86,1.29,3.81,2.34s1.64,2.38,2.06,3.98c.42,1.61.63,3.51.63,5.7v7.63c0,2.61.53,4.47,1.59,5.58,1.06,1.11,2.91,1.67,5.57,1.67v2.77s0,.19,0,.19v2.77c-2.65,0-4.51.56-5.57,1.67-1.06,1.11-1.59,2.97-1.59,5.58v7.63c0,2.19-.21,4.09-.63,5.7-.42,1.61-1.11,2.93-2.06,3.98s-2.23,1.83-3.81,2.34c-1.59.51-3.55.76-5.89.76v-4.67c1.84,0,3.29-.29,4.35-.87,1.06-.58,1.8-1.47,2.24-2.66s.66-2.72.66-4.58v-9.54c0-1.24.16-2.37.49-3.39.33-1.02.93-1.89,1.8-2.62.87-.73,2.12-1.3,3.73-1.69.2-.05.44-.09.66-.13v-.74c-.22-.04-.45-.08-.66-.13Z"/>
          <circle class="cls-21" cx="405.43" cy="255.83" r="5.95"/>
          <circle class="cls-21" cx="420.65" cy="255.83" r="5.95"/>
          <circle class="cls-21" cx="435.86" cy="255.83" r="5.95"/>
        </g>
        <g>
          <path class="cls-29" d="m386.73,243.33c1.61-.4,2.86-.96,3.73-1.69.87-.73,1.47-1.6,1.8-2.62.33-1.02.49-2.15.49-3.39v-9.54c0-1.86.22-3.39.66-4.59.44-1.2,1.18-2.09,2.24-2.66,1.06-.57,2.51-.86,4.35-.86v-4.67c-2.34,0-4.3.25-5.89.76-1.59.51-2.86,1.29-3.81,2.34-.95,1.05-1.64,2.38-2.06,3.98-.42,1.61-.63,3.51-.63,5.7v7.63c0,2.61-.53,4.47-1.59,5.58-1.06,1.11-2.91,1.67-5.57,1.67v5.72c2.65,0,4.51.56,5.57,1.67,1.06,1.11,1.59,2.97,1.59,5.58v7.63c0,2.19.21,4.09.63,5.7.42,1.61,1.11,2.93,2.06,3.98.95,1.05,2.23,1.83,3.81,2.34,1.59.51,3.55.76,5.89.76v-4.67c-1.84,0-3.29-.29-4.35-.87-1.06-.58-1.8-1.47-2.24-2.66-.44-1.19-.66-2.72-.66-4.58v-9.54c0-1.24-.16-2.37-.49-3.39-.33-1.02-.93-1.89-1.8-2.62-.87-.73-2.12-1.3-3.73-1.69-.2-.05-.44-.09-.66-.13v-.74c.22-.04.45-.08.66-.13Z"/>
          <path class="cls-29" d="m454.57,243.33c-1.61-.4-2.86-.96-3.73-1.69-.87-.73-1.47-1.6-1.8-2.62-.33-1.02-.49-2.15-.49-3.39v-9.54c0-1.86-.22-3.39-.66-4.59-.44-1.2-1.18-2.09-2.24-2.66-1.06-.57-2.51-.86-4.35-.86v-4.67c2.34,0,4.3.25,5.89.76,1.59.51,2.86,1.29,3.81,2.34s1.64,2.38,2.06,3.98c.42,1.61.63,3.51.63,5.7v7.63c0,2.61.53,4.47,1.59,5.58,1.06,1.11,2.91,1.67,5.57,1.67v2.77s0,.19,0,.19v2.77c-2.65,0-4.51.56-5.57,1.67-1.06,1.11-1.59,2.97-1.59,5.58v7.63c0,2.19-.21,4.09-.63,5.7-.42,1.61-1.11,2.93-2.06,3.98s-2.23,1.83-3.81,2.34c-1.59.51-3.55.76-5.89.76v-4.67c1.84,0,3.29-.29,4.35-.87,1.06-.58,1.8-1.47,2.24-2.66s.66-2.72.66-4.58v-9.54c0-1.24.16-2.37.49-3.39.33-1.02.93-1.89,1.8-2.62.87-.73,2.12-1.3,3.73-1.69.2-.05.44-.09.66-.13v-.74c-.22-.04-.45-.08-.66-.13Z"/>
          <circle class="cls-29" cx="405.43" cy="255.83" r="5.95"/>
          <circle class="cls-29" cx="420.65" cy="255.83" r="5.95"/>
          <circle class="cls-29" cx="435.86" cy="255.83" r="5.95"/>
        </g>
      </g>
    </g>
    <g>
      <g>
        <rect class="cls-21" x="374.08" y="36.65" width="173.53" height="102.63" rx="8.5" ry="8.5"/>
        <rect class="cls-2" x="374.08" y="36.65" width="173.53" height="102.63" rx="8.5" ry="8.5"/>
      </g>
      <rect class="cls-29" x="384.01" y="46.03" width="101.49" height="8.6" rx="4.3" ry="4.3"/>
      <path class="cls-12" d="m529.24,70.41h-59.22c-2.21,0-4-1.79-4-4s1.79-4,4-4h59.22c2.21,0,4,1.79,4,4s-1.79,4-4,4Z"/>
      <g>
        <g>
          <path class="cls-21" d="m386.73,91.43c1.61-.4,2.86-.96,3.73-1.69.87-.73,1.47-1.6,1.8-2.62.33-1.02.49-2.15.49-3.39v-9.54c0-1.86.22-3.39.66-4.59.44-1.2,1.18-2.09,2.24-2.66,1.06-.57,2.51-.86,4.35-.86v-4.67c-2.34,0-4.3.25-5.89.76-1.59.51-2.86,1.29-3.81,2.34-.95,1.05-1.64,2.38-2.06,3.98-.42,1.61-.63,3.51-.63,5.7v7.63c0,2.61-.53,4.47-1.59,5.58-1.06,1.11-2.91,1.67-5.57,1.67v5.72c2.65,0,4.51.56,5.57,1.67,1.06,1.11,1.59,2.97,1.59,5.58v7.63c0,2.19.21,4.09.63,5.7.42,1.61,1.11,2.93,2.06,3.98.95,1.05,2.23,1.83,3.81,2.34,1.59.51,3.55.76,5.89.76v-4.67c-1.84,0-3.29-.29-4.35-.87-1.06-.58-1.8-1.47-2.24-2.66-.44-1.19-.66-2.72-.66-4.58v-9.54c0-1.24-.16-2.37-.49-3.39-.33-1.02-.93-1.89-1.8-2.62-.87-.73-2.12-1.3-3.73-1.69-.2-.05-.44-.09-.66-.13v-.74c.22-.04.45-.08.66-.13Z"/>
          <path class="cls-21" d="m454.57,91.43c-1.61-.4-2.86-.96-3.73-1.69-.87-.73-1.47-1.6-1.8-2.62-.33-1.02-.49-2.15-.49-3.39v-9.54c0-1.86-.22-3.39-.66-4.59-.44-1.2-1.18-2.09-2.24-2.66-1.06-.57-2.51-.86-4.35-.86v-4.67c2.34,0,4.3.25,5.89.76,1.59.51,2.86,1.29,3.81,2.34s1.64,2.38,2.06,3.98c.42,1.61.63,3.51.63,5.7v7.63c0,2.61.53,4.47,1.59,5.58,1.06,1.11,2.91,1.67,5.57,1.67v2.77s0,.19,0,.19v2.77c-2.65,0-4.51.56-5.57,1.67-1.06,1.11-1.59,2.97-1.59,5.58v7.63c0,2.19-.21,4.09-.63,5.7-.42,1.61-1.11,2.93-2.06,3.98s-2.23,1.83-3.81,2.34c-1.59.51-3.55.76-5.89.76v-4.67c1.84,0,3.29-.29,4.35-.87,1.06-.58,1.8-1.47,2.24-2.66s.66-2.72.66-4.58v-9.54c0-1.24.16-2.37.49-3.39.33-1.02.93-1.89,1.8-2.62.87-.73,2.12-1.3,3.73-1.69.2-.05.44-.09.66-.13v-.74c-.22-.04-.45-.08-.66-.13Z"/>
          <circle class="cls-21" cx="405.43" cy="103.93" r="5.95"/>
          <circle class="cls-21" cx="420.65" cy="103.93" r="5.95"/>
          <circle class="cls-21" cx="435.86" cy="103.93" r="5.95"/>
        </g>
        <g>
          <path class="cls-29" d="m386.73,91.43c1.61-.4,2.86-.96,3.73-1.69.87-.73,1.47-1.6,1.8-2.62.33-1.02.49-2.15.49-3.39v-9.54c0-1.86.22-3.39.66-4.59.44-1.2,1.18-2.09,2.24-2.66,1.06-.57,2.51-.86,4.35-.86v-4.67c-2.34,0-4.3.25-5.89.76-1.59.51-2.86,1.29-3.81,2.34-.95,1.05-1.64,2.38-2.06,3.98-.42,1.61-.63,3.51-.63,5.7v7.63c0,2.61-.53,4.47-1.59,5.58-1.06,1.11-2.91,1.67-5.57,1.67v5.72c2.65,0,4.51.56,5.57,1.67,1.06,1.11,1.59,2.97,1.59,5.58v7.63c0,2.19.21,4.09.63,5.7.42,1.61,1.11,2.93,2.06,3.98.95,1.05,2.23,1.83,3.81,2.34,1.59.51,3.55.76,5.89.76v-4.67c-1.84,0-3.29-.29-4.35-.87-1.06-.58-1.8-1.47-2.24-2.66-.44-1.19-.66-2.72-.66-4.58v-9.54c0-1.24-.16-2.37-.49-3.39-.33-1.02-.93-1.89-1.8-2.62-.87-.73-2.12-1.3-3.73-1.69-.2-.05-.44-.09-.66-.13v-.74c.22-.04.45-.08.66-.13Z"/>
          <path class="cls-29" d="m454.57,91.43c-1.61-.4-2.86-.96-3.73-1.69-.87-.73-1.47-1.6-1.8-2.62-.33-1.02-.49-2.15-.49-3.39v-9.54c0-1.86-.22-3.39-.66-4.59-.44-1.2-1.18-2.09-2.24-2.66-1.06-.57-2.51-.86-4.35-.86v-4.67c2.34,0,4.3.25,5.89.76,1.59.51,2.86,1.29,3.81,2.34s1.64,2.38,2.06,3.98c.42,1.61.63,3.51.63,5.7v7.63c0,2.61.53,4.47,1.59,5.58,1.06,1.11,2.91,1.67,5.57,1.67v2.77s0,.19,0,.19v2.77c-2.65,0-4.51.56-5.57,1.67-1.06,1.11-1.59,2.97-1.59,5.58v7.63c0,2.19-.21,4.09-.63,5.7-.42,1.61-1.11,2.93-2.06,3.98s-2.23,1.83-3.81,2.34c-1.59.51-3.55.76-5.89.76v-4.67c1.84,0,3.29-.29,4.35-.87,1.06-.58,1.8-1.47,2.24-2.66s.66-2.72.66-4.58v-9.54c0-1.24.16-2.37.49-3.39.33-1.02.93-1.89,1.8-2.62.87-.73,2.12-1.3,3.73-1.69.2-.05.44-.09.66-.13v-.74c-.22-.04-.45-.08-.66-.13Z"/>
          <circle class="cls-29" cx="405.43" cy="103.93" r="5.95"/>
          <circle class="cls-29" cx="420.65" cy="103.93" r="5.95"/>
          <circle class="cls-29" cx="435.86" cy="103.93" r="5.95"/>
        </g>
      </g>
    </g>
  </g>
</svg>