<?xml version="1.0" encoding="UTF-8"?>
<svg id="Layer_2" data-name="Layer 2" xmlns="http://www.w3.org/2000/svg" xmlns:xlink="http://www.w3.org/1999/xlink" viewBox="0 0 549.69 297.64">
  <defs>
    <style>
      .cls-1, .cls-2, .cls-3, .cls-4, .cls-5, .cls-6, .cls-7, .cls-8, .cls-9, .cls-10 {
        stroke-miterlimit: 10;
      }

      .cls-1, .cls-2, .cls-3, .cls-4, .cls-11, .cls-8, .cls-9 {
        fill: none;
      }

      .cls-1, .cls-5 {
        stroke: #231f20;
      }

      .cls-2 {
        stroke-dasharray: 0 0 2.11 2.11;
      }

      .cls-2, .cls-4, .cls-7, .cls-8 {
        stroke: #000;
      }

      .cls-2, .cls-4, .cls-8 {
        stroke-linecap: round;
      }

      .cls-12, .cls-5, .cls-6, .cls-7 {
        fill: #fff;
      }

      .cls-13 {
        fill: #3b82f6;
      }

      .cls-3, .cls-6, .cls-9, .cls-10 {
        stroke: #fff;
      }

      .cls-14 {
        fill: url(#linear-gradient-7);
        stroke: url(#linear-gradient-8);
      }

      .cls-14, .cls-15, .cls-16 {
        fill-opacity: .6;
        fill-rule: evenodd;
        isolation: isolate;
      }

      .cls-14, .cls-15, .cls-16, .cls-17 {
        stroke-width: 2px;
      }

      .cls-18, .cls-10 {
        fill: #184fa8;
      }

      .cls-15 {
        fill: url(#linear-gradient-5);
        opacity: .15;
        stroke: url(#linear-gradient-6);
      }

      .cls-6, .cls-9, .cls-10 {
        stroke-width: 4px;
      }

      .cls-16 {
        fill: url(#linear-gradient-3);
        opacity: .5;
        stroke: url(#linear-gradient-4);
      }

      .cls-19 {
        clip-path: url(#clippath);
      }

      .cls-8 {
        stroke-dasharray: 0 0 0 0 2.11 2.11 2.11 2.11;
      }

      .cls-17 {
        fill: url(#linear-gradient);
        opacity: .6;
        stroke: url(#linear-gradient-2);
      }
    </style>
    <linearGradient id="linear-gradient" x1="301.08" y1="282.64" x2="-12.95" y2="19.13" gradientUnits="userSpaceOnUse">
      <stop offset="0" stop-color="#dde1ff"/>
      <stop offset=".35" stop-color="#5468ff"/>
      <stop offset="1" stop-color="#fff"/>
    </linearGradient>
    <linearGradient id="linear-gradient-2" x1="0" y1="148.38" x2="415.09" y2="148.38" gradientUnits="userSpaceOnUse">
      <stop offset="0" stop-color="#fff"/>
      <stop offset="1" stop-color="#fff" stop-opacity=".13"/>
    </linearGradient>
    <clipPath id="clippath">
      <polygon class="cls-11" points="279.9 1 2.26 1 136.09 148.38 2.26 295.76 279.9 295.76 413.74 148.38 279.9 1"/>
    </clipPath>
    <linearGradient id="linear-gradient-3" x1="407.85" y1="105.78" x2="447.46" y2="63.86" gradientTransform="translate(-35.74) skewX(17)" gradientUnits="userSpaceOnUse">
      <stop offset="0" stop-color="#fff"/>
      <stop offset="1" stop-color="#fff"/>
    </linearGradient>
    <linearGradient id="linear-gradient-4" x1="443.24" y1="109.41" x2="416.4" y2="39.19" gradientTransform="translate(-35.74) skewX(17)" xlink:href="#linear-gradient-2"/>
    <linearGradient id="linear-gradient-5" x1="440.45" y1="105.78" x2="480.06" y2="63.86" xlink:href="#linear-gradient-3"/>
    <linearGradient id="linear-gradient-6" x1="475.84" y1="109.41" x2="448.99" y2="39.19" gradientTransform="translate(-35.74) skewX(17)" xlink:href="#linear-gradient-2"/>
    <linearGradient id="linear-gradient-7" x1="374.12" y1="105.78" x2="413.73" y2="63.86" xlink:href="#linear-gradient-3"/>
    <linearGradient id="linear-gradient-8" x1="409.5" y1="109.41" x2="382.66" y2="39.19" gradientTransform="translate(-35.74) skewX(17)" xlink:href="#linear-gradient-2"/>
  </defs>
  <g id="Layer_1-2" data-name="Layer 1">
    <polygon class="cls-17" points="279.9 1 2.26 1 136.09 148.38 2.26 295.76 279.9 295.76 413.74 148.38 279.9 1"/>
    <g class="cls-19">
      <g>
        <g>
          <path class="cls-3" d="m439.14,150.21c0-40.72-16.57-77.57-43.33-104.18-10.18,10.13-21.85,18.76-34.64,25.57,8.02,22.74,12.68,49.68,12.68,78.61s-4.66,55.87-12.68,78.61c12.79,6.81,24.45,15.44,34.64,25.57,26.76-26.61,43.33-63.46,43.33-104.18Z"/>
          <path class="cls-3" d="m210.57,150.21c0-28.92,4.66-55.87,12.68-78.61-12.79-6.81-24.45-15.44-34.64-25.57-26.76,26.61-43.33,63.46-43.33,104.18s16.57,77.57,43.33,104.18c10.18-10.13,21.85-18.76,34.64-25.57-8.02-22.74-12.68-49.68-12.68-78.61Z"/>
          <path class="cls-3" d="m292.21,297.14c40.43,0,77.03-16.33,103.6-42.75-10.18-10.13-21.85-18.76-34.64-25.57-14.48,41.05-39.94,68.32-68.96,68.32Z"/>
          <path class="cls-3" d="m223.25,228.82c-12.79,6.81-24.45,15.44-34.64,25.57,26.57,26.42,63.17,42.75,103.6,42.75-29.02,0-54.48-27.27-68.96-68.32Z"/>
          <path class="cls-3" d="m292.21,3.29c-40.43,0-77.03,16.33-103.6,42.75,10.18,10.13,21.85,18.76,34.64,25.57C237.73,30.56,263.19,3.29,292.21,3.29Z"/>
          <path class="cls-3" d="m361.17,71.61c12.79-6.81,24.45-15.44,34.64-25.57-26.57-26.42-63.17-42.75-103.6-42.75,29.02,0,54.48,27.27,68.96,68.32Z"/>
          <path class="cls-3" d="m223.25,71.61c-8.02,22.74-12.68,49.68-12.68,78.61s4.66,55.87,12.68,78.61c20.57-10.95,44.03-17.18,68.96-17.18s48.39,6.23,68.96,17.18c8.02-22.74,12.68-49.68,12.68-78.61s-4.66-55.87-12.68-78.61c-20.57,10.95-44.03,17.18-68.96,17.18s-48.39-6.23-68.96-17.18Z"/>
          <path class="cls-3" d="m223.25,228.82c14.48,41.05,39.94,68.32,68.96,68.32s54.48-27.27,68.96-68.32c-20.57-10.95-44.03-17.18-68.96-17.18s-48.39,6.23-68.96,17.18Z"/>
          <path class="cls-3" d="m292.21,3.29c-29.02,0-54.48,27.27-68.96,68.32,20.57,10.95,44.03,17.18,68.96,17.18s48.39-6.23,68.96-17.18C346.69,30.56,321.23,3.29,292.21,3.29Z"/>
        </g>
        <line class="cls-3" x1="292.21" y1="3.29" x2="292.21" y2="297.14"/>
        <line class="cls-3" x1="145.28" y1="150.21" x2="439.14" y2="150.21"/>
      </g>
    </g>
    <g>
      <g>
        <path class="cls-18" d="m185.37,23.92v88.21c0,4.21-3.41,7.62-7.62,7.62h-34.17c-1.1,0-1.82.88-1.6,1.96l6.23,30.53c.22,1.08-.29,1.38-1.13.67l-37.88-31.88c-.84-.71-2.43-1.29-3.53-1.29h-33.08c-4.21,0-7.62-3.41-7.62-7.62V23.92c0-4.21,3.41-7.62,7.62-7.62h105.17c4.21,0,7.62,3.41,7.62,7.62Z"/>
        <path class="cls-9" d="m185.37,23.92v88.21c0,4.21-3.41,7.62-7.62,7.62h-34.17c-1.1,0-1.82.88-1.6,1.96l6.23,30.53c.22,1.08-.29,1.38-1.13.67l-37.88-31.88c-.84-.71-2.43-1.29-3.53-1.29h-33.08c-4.21,0-7.62-3.41-7.62-7.62V23.92c0-4.21,3.41-7.62,7.62-7.62h105.17c4.21,0,7.62,3.41,7.62,7.62Z"/>
      </g>
      <g>
        <path class="cls-12" d="m185.37,23.92v88.21c0,4.21-3.41,7.62-7.62,7.62h-34.17c-1.1,0-1.82.88-1.6,1.96l6.23,30.53c.22,1.08-.29,1.38-1.13.67l-37.88-31.88c-.84-.71-2.43-1.29-3.53-1.29h-33.08c-4.21,0-7.62-3.41-7.62-7.62V23.92c0-4.21,3.41-7.62,7.62-7.62h105.17c4.21,0,7.62,3.41,7.62,7.62Z"/>
        <path class="cls-1" d="m185.37,23.92v88.21c0,4.21-3.41,7.62-7.62,7.62h-34.17c-1.1,0-1.82.88-1.6,1.96l6.23,30.53c.22,1.08-.29,1.38-1.13.67l-37.88-31.88c-.84-.71-2.43-1.29-3.53-1.29h-33.08c-4.21,0-7.62-3.41-7.62-7.62V23.92c0-4.21,3.41-7.62,7.62-7.62h105.17c4.21,0,7.62,3.41,7.62,7.62Z"/>
      </g>
      <rect class="cls-13" x="78.05" y="31.5" width="8.6" height="8.6" rx="4.3" ry="4.3"/>
      <rect class="cls-13" x="91.12" y="31.5" width="39.11" height="8.6" rx="4.3" ry="4.3"/>
      <rect class="cls-13" x="107.86" y="96.05" width="14.48" height="8.6" rx="4.3" ry="4.3"/>
      <rect class="cls-13" x="78.05" y="44.09" width="20.63" height="8.6" rx="4.3" ry="4.3"/>
      <rect class="cls-13" x="101.39" y="44.09" width="26.93" height="8.6" rx="4.3" ry="4.3"/>
      <rect class="cls-13" x="130.79" y="44.09" width="19.81" height="8.6" rx="4.3" ry="4.3"/>
      <rect class="cls-13" x="153.06" y="44.09" width="19.81" height="8.6" rx="4.3" ry="4.3"/>
      <rect class="cls-13" x="78.05" y="82.66" width="50.27" height="8.6" rx="4.3" ry="4.3"/>
      <rect class="cls-13" x="77.46" y="95.85" width="26.93" height="8.6" rx="4.3" ry="4.3"/>
      <rect class="cls-13" x="130.79" y="82.66" width="19.81" height="8.6" rx="4.3" ry="4.3"/>
      <rect class="cls-13" x="153.06" y="82.66" width="19.81" height="8.6" rx="4.3" ry="4.3"/>
      <rect class="cls-13" x="78.05" y="56.68" width="29.87" height="8.6" rx="4.3" ry="4.3"/>
      <rect class="cls-13" x="111.59" y="56.68" width="34.58" height="8.6" rx="4.3" ry="4.3"/>
      <rect class="cls-13" x="149.68" y="56.68" width="23.19" height="8.6" rx="4.3" ry="4.3"/>
      <rect class="cls-13" x="78.05" y="69.27" width="19.04" height="8.6" rx="4.3" ry="4.3"/>
      <rect class="cls-13" x="99.96" y="69.27" width="30.28" height="8.6" rx="4.3" ry="4.3"/>
      <rect class="cls-13" x="133.1" y="69.27" width="21.2" height="8.6" rx="4.3" ry="4.3"/>
      <rect class="cls-13" x="157.64" y="69.27" width="15.22" height="8.6" rx="4.3" ry="4.3"/>
    </g>
    <g>
      <g>
        <path class="cls-6" d="m328.04,185.59v-41.86l-36.25-20.93-36.25,20.93v41.86l36.25,20.96,36.25-20.96Z"/>
        <path class="cls-7" d="m328.04,185.59v-41.86l-36.25-20.93-36.25,20.93v41.86l36.25,20.96,36.25-20.96Zm-33.32,12.62v-31.66l27.59-15.71v31.44l-27.59,15.93Zm25.14-52.58l-28.1,15.53-28.03-15.53,28.06-16.2,28.07,16.2Zm-58.58,5.21l28.08,15.71v31.73l-28.08-16v-31.44Z"/>
      </g>
      <path class="cls-12" d="m268.84,172.94l-.1,3.83,1.29.04c-.22.18-.4.38-.52.62-.04,0-.07,0-.11,0-.34,0-.67.09-.96.26l-1.82,1.06c-.33.19-.59.48-.75.8-.04,0-.07,0-.11,0-.34,0-.67.09-.96.26l-1.83,1.06c-.33.19-.59.48-.75.8-.04,0-.07,0-.11,0-.34,0-.67.09-.96.26l-1.82,1.06c-.33.19-.59.48-.75.8-.04,0-.07,0-.11,0-.34,0-.67.09-.96.26l-1.82,1.06c-.33.19-.59.48-.75.8-.04,0-.07,0-.11,0-.34,0-.67.09-.96.26l-1.82,1.06c-.33.19-.59.48-.75.8-.04,0-.07,0-.11,0-.34,0-.67.09-.96.26l-1.82,1.06c-.33.19-.59.48-.75.8-.04,0-.07,0-.11,0-.34,0-.67.09-.96.26l-1.83,1.06c-.33.19-.59.48-.75.8-.04,0-.07,0-.11,0-.34,0-.67.09-.96.26l-1.82,1.06c-.33.19-.59.48-.75.8-.04,0-.07,0-.11,0-.34,0-.67.09-.96.26l-1.82,1.06c-.33.19-.59.48-.75.8-.04,0-.07,0-.11,0-.34,0-.67.09-.96.26l-1.82,1.06c-.33.19-.59.48-.75.8-.04,0-.07,0-.11,0-.34,0-.67.09-.96.26l-1.82,1.06c-.33.19-.59.48-.75.8-.04,0-.07,0-.11,0-.34,0-.67.09-.96.26l-1.83,1.06c-.33.19-.59.48-.75.8-.04,0-.07,0-.11,0-.34,0-.67.09-.96.26l-1.82,1.06c-.34.2-.59.48-.75.81-.04,0-.07-.01-.11-.01-.34,0-.67.09-.96.26l-1.82,1.06c-.34.2-.6.48-.76.81-.04,0-.07-.01-.1-.01-.34,0-.67.09-.96.26l-.87.5c-.91.53-1.22,1.71-.7,2.62.34.59.98.96,1.66.96.34,0,.67-.09.96-.26l.87-.5c.34-.2.59-.48.75-.81.04,0,.07.01.1.01.34,0,.67-.09.96-.26l1.82-1.06c.34-.2.6-.48.76-.81.04,0,.07.01.1.01.34,0,.67-.09.96-.26l1.82-1.06c.33-.19.59-.48.75-.8.04,0,.07,0,.11,0,.34,0,.67-.09.96-.26l1.83-1.06c.33-.19.59-.48.75-.8.04,0,.07,0,.11,0,.34,0,.67-.09.96-.26l1.82-1.06c.33-.19.59-.48.75-.8.04,0,.07,0,.11,0,.34,0,.67-.09.96-.26l1.82-1.06c.33-.19.59-.48.75-.8.04,0,.07,0,.11,0,.34,0,.67-.09.96-.26l1.82-1.06c.33-.19.59-.48.75-.8.04,0,.07,0,.11,0,.34,0,.67-.09.96-.26l1.82-1.06c.33-.19.59-.48.75-.8.04,0,.07,0,.11,0,.34,0,.67-.09.96-.26l1.83-1.06c.33-.19.59-.48.75-.8.04,0,.07,0,.11,0,.34,0,.67-.09.96-.26l1.82-1.06c.33-.19.59-.48.75-.8.04,0,.07,0,.11,0,.34,0,.67-.09.96-.26l1.82-1.06c.33-.19.59-.48.75-.8.04,0,.07,0,.11,0,.34,0,.67-.09.96-.26l1.82-1.06c.33-.19.59-.48.75-.8.04,0,.07,0,.11,0,.34,0,.67-.09.96-.26l1.82-1.06c.33-.19.59-.48.75-.8.04,0,.07,0,.11,0,.34,0,.67-.09.96-.26l1.83-1.06c.33-.19.59-.48.75-.8.04,0,.07,0,.11,0,.34,0,.67-.09.96-.26l1.82-1.06c.33-.19.59-.48.75-.8.04,0,.07,0,.11,0,.34,0,.67-.09.96-.26l1.14-.66-.24,2.42,3.82.38.89-8.9-8.94-.25Z"/>
      <g>
        <path d="m218.11,208.5l-.87.5c-.24.14-.32.44-.18.68.09.16.26.25.43.25.09,0,.17-.02.25-.07l.87-.5c.24-.14.32-.44.18-.68-.14-.24-.45-.32-.68-.18Z"/>
        <path d="m221.75,206.38l-1.82,1.06c-.24.14-.32.44-.18.68.09.16.26.25.43.25.09,0,.17-.02.25-.07l1.82-1.06c.24-.14.32-.44.18-.68-.14-.24-.45-.32-.68-.18Z"/>
        <path d="m239.98,195.82l-1.82,1.06c-.24.14-.32.44-.18.68.09.16.26.25.43.25.09,0,.17-.02.25-.07l1.82-1.06c.24-.14.32-.44.18-.68-.14-.24-.45-.32-.68-.18Z"/>
        <path d="m236.33,197.93l-1.82,1.06c-.24.14-.32.44-.18.68.09.16.26.25.43.25.09,0,.17-.02.25-.07l1.82-1.06c.24-.14.32-.44.18-.68-.14-.24-.45-.32-.68-.18Z"/>
        <path d="m247.27,191.59l-1.82,1.06c-.24.14-.32.44-.18.68.09.16.26.25.43.25.09,0,.17-.02.25-.07l1.82-1.06c.24-.14.32-.44.18-.68-.14-.24-.45-.32-.68-.18Z"/>
        <path d="m243.62,193.7l-1.82,1.06c-.24.14-.32.44-.18.68.09.16.26.25.43.25.09,0,.17-.02.25-.07l1.82-1.06c.24-.14.32-.44.18-.68-.14-.24-.45-.32-.68-.18Z"/>
        <path d="m229.04,202.16l-1.82,1.06c-.24.14-.32.44-.18.68.09.16.26.25.43.25.09,0,.17-.02.25-.07l1.82-1.06c.24-.14.32-.44.18-.68-.14-.24-.45-.32-.68-.18Z"/>
        <path d="m225.4,204.27l-1.82,1.06c-.24.14-.32.44-.18.68.09.16.26.25.43.25.09,0,.17-.02.25-.07l1.82-1.06c.24-.14.32-.44.18-.68-.14-.24-.45-.32-.68-.18Z"/>
        <path d="m232.69,200.04l-1.82,1.06c-.24.14-.32.44-.18.68.09.16.26.25.43.25.09,0,.17-.02.25-.07l1.82-1.06c.24-.14.32-.44.18-.68-.14-.24-.45-.32-.68-.18Z"/>
        <path d="m265.49,181.02l-1.82,1.06c-.24.14-.32.44-.18.68.09.16.26.25.43.25.09,0,.17-.02.25-.07l1.82-1.06c.24-.14.32-.44.18-.68-.14-.24-.45-.32-.68-.18Z"/>
        <path d="m269.14,178.91l-1.82,1.06c-.24.14-.32.44-.18.68.09.16.26.25.43.25.09,0,.17-.02.25-.07l1.82-1.06c.24-.14.32-.44.18-.68-.14-.24-.45-.32-.68-.18Z"/>
        <path d="m250.91,189.48l-1.82,1.06c-.24.14-.32.44-.18.68.09.16.26.25.43.25.09,0,.17-.02.25-.07l1.82-1.06c.24-.14.32-.44.18-.68-.14-.24-.45-.32-.68-.18Z"/>
        <path d="m272.78,176.79l-1.82,1.06c-.24.14-.32.44-.18.68.09.16.26.25.43.25.09,0,.17-.02.25-.07l1.82-1.06c.24-.14.32-.44.18-.68-.14-.24-.45-.32-.68-.18Z"/>
        <path d="m254.56,187.36l-1.82,1.06c-.24.14-.32.44-.18.68.09.16.26.25.43.25.09,0,.17-.02.25-.07l1.82-1.06c.24-.14.32-.44.18-.68-.14-.24-.45-.32-.68-.18Z"/>
        <path d="m261.85,183.13l-1.82,1.06c-.24.14-.32.44-.18.68.09.16.26.25.43.25.09,0,.17-.02.25-.07l1.82-1.06c.24-.14.32-.44.18-.68-.14-.24-.45-.32-.68-.18Z"/>
        <path d="m258.2,185.25l-1.82,1.06c-.24.14-.32.44-.18.68.09.16.26.25.43.25.09,0,.17-.02.25-.07l1.82-1.06c.24-.14.32-.44.18-.68-.14-.24-.45-.32-.68-.18Z"/>
        <path d="m270.21,174.39l-.03,1,4.39.12-.18.18c-.19.2-.19.51,0,.71.1.1.22.14.35.14.09,0,.19-.04.27-.09l-.4,3.98,1,.1.6-5.97-6-.17Z"/>
      </g>
      <g>
        <path class="cls-6" d="m248.62,233.09v-41.86l-36.25-20.93-36.25,20.93v41.86l36.25,20.96,36.25-20.96Z"/>
        <path class="cls-7" d="m248.62,233.09v-41.86l-36.25-20.93-36.25,20.93v41.86l36.25,20.96,36.25-20.96Zm-33.32,12.62v-31.66l27.59-15.71v31.44l-27.59,15.93Zm25.14-52.58l-28.1,15.53-28.03-15.53,28.06-16.2,28.07,16.2Zm-58.58,5.21l28.08,15.71v31.73l-28.08-16v-31.44Z"/>
      </g>
      <g>
        <line class="cls-4" x1="366.09" y1="209.43" x2="365.23" y2="208.93"/>
        <line class="cls-2" x1="363.41" y1="207.87" x2="360.67" y2="206.29"/>
        <line class="cls-8" x1="359.76" y1="205.76" x2="309.64" y2="176.7"/>
        <line class="cls-4" x1="308.83" y1="176.04" x2="308.13" y2="175.33"/>
        <polygon points="313.37 174.39 313.4 175.39 308.47 175.53 308.97 180.43 307.97 180.53 307.37 174.56 313.37 174.39"/>
      </g>
      <path class="cls-12" d="m315.1,172.94l.1,3.83-1.29.04c.22.18.4.38.52.62.04,0,.07,0,.11,0,.34,0,.67.09.96.26l1.82,1.06c.33.19.59.48.75.8.04,0,.07,0,.11,0,.34,0,.67.09.96.26l1.83,1.06c.33.19.59.48.75.8.04,0,.07,0,.11,0,.34,0,.67.09.96.26l1.82,1.06c.33.19.59.48.75.8.04,0,.07,0,.11,0,.34,0,.67.09.96.26l1.82,1.06c.33.19.59.48.75.8.04,0,.07,0,.11,0,.34,0,.67.09.96.26l1.82,1.06c.33.19.59.48.75.8.04,0,.07,0,.11,0,.34,0,.67.09.96.26l1.82,1.06c.33.19.59.48.75.8.04,0,.07,0,.11,0,.34,0,.67.09.96.26l1.83,1.06c.33.19.59.48.75.8.04,0,.07,0,.11,0,.34,0,.67.09.96.26l1.82,1.06c.33.19.59.48.75.8.04,0,.07,0,.11,0,.34,0,.67.09.96.26l1.82,1.06c.33.19.59.48.75.8.04,0,.07,0,.11,0,.34,0,.67.09.96.26l1.82,1.06c.33.19.59.48.75.8.04,0,.07,0,.11,0,.34,0,.67.09.96.26l1.82,1.06c.33.19.59.48.75.8.04,0,.07,0,.11,0,.34,0,.67.09.96.26l1.83,1.06c.33.19.59.48.75.8.04,0,.07,0,.11,0,.34,0,.67.09.96.26l1.82,1.06c.34.2.59.48.75.81.04,0,.07-.01.11-.01.34,0,.67.09.96.26l1.82,1.06c.34.2.6.48.76.81.04,0,.07-.01.1-.01.34,0,.67.09.96.26l.87.5c.91.53,1.22,1.71.7,2.62-.34.59-.98.96-1.66.96-.34,0-.67-.09-.96-.26l-.87-.5c-.34-.2-.59-.48-.75-.81-.04,0-.07.01-.1.01-.34,0-.67-.09-.96-.26l-1.82-1.06c-.34-.2-.6-.48-.76-.81-.04,0-.07.01-.1.01-.34,0-.67-.09-.96-.26l-1.82-1.06c-.33-.19-.59-.48-.75-.8-.04,0-.07,0-.11,0-.34,0-.67-.09-.96-.26l-1.83-1.06c-.33-.19-.59-.48-.75-.8-.04,0-.07,0-.11,0-.34,0-.67-.09-.96-.26l-1.82-1.06c-.33-.19-.59-.48-.75-.8-.04,0-.07,0-.11,0-.34,0-.67-.09-.96-.26l-1.82-1.06c-.33-.19-.59-.48-.75-.8-.04,0-.07,0-.11,0-.34,0-.67-.09-.96-.26l-1.82-1.06c-.33-.19-.59-.48-.75-.8-.04,0-.07,0-.11,0-.34,0-.67-.09-.96-.26l-1.82-1.06c-.33-.19-.59-.48-.75-.8-.04,0-.07,0-.11,0-.34,0-.67-.09-.96-.26l-1.83-1.06c-.33-.19-.59-.48-.75-.8-.04,0-.07,0-.11,0-.34,0-.67-.09-.96-.26l-1.82-1.06c-.33-.19-.59-.48-.75-.8-.04,0-.07,0-.11,0-.34,0-.67-.09-.96-.26l-1.82-1.06c-.33-.19-.59-.48-.75-.8-.04,0-.07,0-.11,0-.34,0-.67-.09-.96-.26l-1.82-1.06c-.33-.19-.59-.48-.75-.8-.04,0-.07,0-.11,0-.34,0-.67-.09-.96-.26l-1.82-1.06c-.33-.19-.59-.48-.75-.8-.04,0-.07,0-.11,0-.34,0-.67-.09-.96-.26l-1.83-1.06c-.33-.19-.59-.48-.75-.8-.04,0-.07,0-.11,0-.34,0-.67-.09-.96-.26l-1.82-1.06c-.33-.19-.59-.48-.75-.8-.04,0-.07,0-.11,0-.34,0-.67-.09-.96-.26l-1.14-.66.24,2.42-3.82.38-.89-8.9,8.94-.25Z"/>
      <g>
        <path d="m365.83,208.5l.87.5c.24.14.32.44.18.68-.09.16-.26.25-.43.25-.09,0-.17-.02-.25-.07l-.87-.5c-.24-.14-.32-.44-.18-.68.14-.24.45-.32.68-.18Z"/>
        <path d="m362.19,206.38l1.82,1.06c.24.14.32.44.18.68-.09.16-.26.25-.43.25-.09,0-.17-.02-.25-.07l-1.82-1.06c-.24-.14-.32-.44-.18-.68.14-.24.45-.32.68-.18Z"/>
        <path d="m343.96,195.82l1.82,1.06c.24.14.32.44.18.68-.09.16-.26.25-.43.25-.09,0-.17-.02-.25-.07l-1.82-1.06c-.24-.14-.32-.44-.18-.68.14-.24.45-.32.68-.18Z"/>
        <path d="m347.61,197.93l1.82,1.06c.24.14.32.44.18.68-.09.16-.26.25-.43.25-.09,0-.17-.02-.25-.07l-1.82-1.06c-.24-.14-.32-.44-.18-.68.14-.24.45-.32.68-.18Z"/>
        <path d="m336.67,191.59l1.82,1.06c.24.14.32.44.18.68-.09.16-.26.25-.43.25-.09,0-.17-.02-.25-.07l-1.82-1.06c-.24-.14-.32-.44-.18-.68.14-.24.45-.32.68-.18Z"/>
        <path d="m340.32,193.7l1.82,1.06c.24.14.32.44.18.68-.09.16-.26.25-.43.25-.09,0-.17-.02-.25-.07l-1.82-1.06c-.24-.14-.32-.44-.18-.68.14-.24.45-.32.68-.18Z"/>
        <path d="m354.9,202.16l1.82,1.06c.24.14.32.44.18.68-.09.16-.26.25-.43.25-.09,0-.17-.02-.25-.07l-1.82-1.06c-.24-.14-.32-.44-.18-.68.14-.24.45-.32.68-.18Z"/>
        <path d="m358.54,204.27l1.82,1.06c.24.14.32.44.18.68-.09.16-.26.25-.43.25-.09,0-.17-.02-.25-.07l-1.82-1.06c-.24-.14-.32-.44-.18-.68.14-.24.45-.32.68-.18Z"/>
        <path d="m351.25,200.04l1.82,1.06c.24.14.32.44.18.68-.09.16-.26.25-.43.25-.09,0-.17-.02-.25-.07l-1.82-1.06c-.24-.14-.32-.44-.18-.68.14-.24.45-.32.68-.18Z"/>
        <path d="m318.45,181.02l1.82,1.06c.24.14.32.44.18.68-.09.16-.26.25-.43.25-.09,0-.17-.02-.25-.07l-1.82-1.06c-.24-.14-.32-.44-.18-.68.14-.24.45-.32.68-.18Z"/>
        <path d="m314.8,178.91l1.82,1.06c.24.14.32.44.18.68-.09.16-.26.25-.43.25-.09,0-.17-.02-.25-.07l-1.82-1.06c-.24-.14-.32-.44-.18-.68.14-.24.45-.32.68-.18Z"/>
        <path d="m333.03,189.48l1.82,1.06c.24.14.32.44.18.68-.09.16-.26.25-.43.25-.09,0-.17-.02-.25-.07l-1.82-1.06c-.24-.14-.32-.44-.18-.68.14-.24.45-.32.68-.18Z"/>
        <path d="m311.16,176.79l1.82,1.06c.24.14.32.44.18.68-.09.16-.26.25-.43.25-.09,0-.17-.02-.25-.07l-1.82-1.06c-.24-.14-.32-.44-.18-.68.14-.24.45-.32.68-.18Z"/>
        <path d="m329.38,187.36l1.82,1.06c.24.14.32.44.18.68-.09.16-.26.25-.43.25-.09,0-.17-.02-.25-.07l-1.82-1.06c-.24-.14-.32-.44-.18-.68.14-.24.45-.32.68-.18Z"/>
        <path d="m322.09,183.13l1.82,1.06c.24.14.32.44.18.68-.09.16-.26.25-.43.25-.09,0-.17-.02-.25-.07l-1.82-1.06c-.24-.14-.32-.44-.18-.68.14-.24.45-.32.68-.18Z"/>
        <path d="m325.74,185.25l1.82,1.06c.24.14.32.44.18.68-.09.16-.26.25-.43.25-.09,0-.17-.02-.25-.07l-1.82-1.06c-.24-.14-.32-.44-.18-.68.14-.24.45-.32.68-.18Z"/>
        <path d="m313.72,174.39l.03,1-4.39.12.18.18c.19.2.19.51,0,.71-.1.1-.22.14-.35.14-.09,0-.19-.04-.27-.09l.4,3.98-1,.1-.6-5.97,6-.17Z"/>
      </g>
      <g>
        <path class="cls-6" d="m371.22,254.04l36.25-20.96v-41.86s-36.25-20.93-36.25-20.93l-36.25,20.93v41.86s36.25,20.96,36.25,20.96Z"/>
        <path class="cls-7" d="m371.22,254.04l36.25-20.96v-41.86s-36.25-20.93-36.25-20.93l-36.25,20.93v41.86s36.25,20.96,36.25,20.96Zm-30.51-24.27v-31.44s27.59,15.71,27.59,15.71v31.66s-27.59-15.93-27.59-15.93Zm30.51-52.85l28.06,16.2-28.03,15.53-28.1-15.53,28.07-16.2Zm30.51,52.85l-28.08,16v-31.73s28.08-15.71,28.08-15.71v31.44Z"/>
      </g>
    </g>
    <g>
      <path class="cls-10" d="m86.35,249.59c1.39-.34,2.47-.83,3.22-1.46.75-.63,1.27-1.38,1.55-2.26.28-.88.42-1.85.42-2.92v-8.23c0-1.6.19-2.92.57-3.96.38-1.04,1.02-1.8,1.93-2.29.91-.49,2.16-.74,3.75-.74v-4.03c-2.02,0-3.71.22-5.08.66-1.37.44-2.47,1.11-3.29,2.02-.82.91-1.42,2.05-1.78,3.44-.36,1.39-.55,3.02-.55,4.92v6.58c0,2.25-.46,3.85-1.37,4.81-.91.96-2.51,1.44-4.8,1.44v4.94c2.29,0,3.89.48,4.8,1.44.91.96,1.37,2.56,1.37,4.81v6.58c0,1.89.18,3.53.55,4.92.36,1.39.96,2.53,1.78,3.44s1.92,1.58,3.29,2.02c1.37.44,3.07.66,5.08.66v-4.03c-1.59,0-2.84-.25-3.75-.75-.91-.5-1.56-1.27-1.93-2.29-.38-1.03-.57-2.35-.57-3.95v-8.23c0-1.07-.14-2.04-.42-2.92-.28-.88-.8-1.63-1.55-2.26-.75-.63-1.83-1.12-3.22-1.46-.18-.04-.38-.08-.57-.11v-.64c.19-.04.39-.07.57-.11Z"/>
      <path class="cls-10" d="m144.89,249.59c-1.39-.34-2.47-.83-3.22-1.46-.75-.63-1.27-1.38-1.55-2.26-.28-.88-.42-1.85-.42-2.92v-8.23c0-1.6-.19-2.92-.57-3.96-.38-1.04-1.02-1.8-1.93-2.29-.91-.49-2.16-.74-3.75-.74v-4.03c2.02,0,3.71.22,5.08.66,1.37.44,2.47,1.11,3.29,2.02s1.42,2.05,1.78,3.44c.36,1.39.55,3.02.55,4.92v6.58c0,2.25.46,3.85,1.37,4.81.91.96,2.51,1.44,4.8,1.44v2.39s0,.16,0,.16v2.39c-2.29,0-3.89.48-4.8,1.44-.91.96-1.37,2.56-1.37,4.81v6.58c0,1.89-.18,3.53-.55,4.92-.36,1.39-.96,2.53-1.78,3.44s-1.92,1.58-3.29,2.02c-1.37.44-3.07.66-5.08.66v-4.03c1.59,0,2.84-.25,3.75-.75.91-.5,1.56-1.27,1.93-2.29s.57-2.35.57-3.95v-8.23c0-1.07.14-2.04.42-2.92.28-.88.8-1.63,1.55-2.26.75-.63,1.83-1.12,3.22-1.46.18-.04.38-.08.57-.11v-.64c-.19-.04-.39-.07-.57-.11Z"/>
      <circle class="cls-10" cx="102.49" cy="260.38" r="5.14"/>
      <circle class="cls-10" cx="115.62" cy="260.38" r="5.14"/>
      <circle class="cls-10" cx="128.75" cy="260.38" r="5.14"/>
    </g>
    <g>
      <path class="cls-7" d="m86.35,249.59c1.39-.34,2.47-.83,3.22-1.46.75-.63,1.27-1.38,1.55-2.26.28-.88.42-1.85.42-2.92v-8.23c0-1.6.19-2.92.57-3.96.38-1.04,1.02-1.8,1.93-2.29.91-.49,2.16-.74,3.75-.74v-4.03c-2.02,0-3.71.22-5.08.66-1.37.44-2.47,1.11-3.29,2.02-.82.91-1.42,2.05-1.78,3.44-.36,1.39-.55,3.02-.55,4.92v6.58c0,2.25-.46,3.85-1.37,4.81-.91.96-2.51,1.44-4.8,1.44v4.94c2.29,0,3.89.48,4.8,1.44.91.96,1.37,2.56,1.37,4.81v6.58c0,1.89.18,3.53.55,4.92.36,1.39.96,2.53,1.78,3.44s1.92,1.58,3.29,2.02c1.37.44,3.07.66,5.08.66v-4.03c-1.59,0-2.84-.25-3.75-.75-.91-.5-1.56-1.27-1.93-2.29-.38-1.03-.57-2.35-.57-3.95v-8.23c0-1.07-.14-2.04-.42-2.92-.28-.88-.8-1.63-1.55-2.26-.75-.63-1.83-1.12-3.22-1.46-.18-.04-.38-.08-.57-.11v-.64c.19-.04.39-.07.57-.11Z"/>
      <path class="cls-7" d="m144.89,249.59c-1.39-.34-2.47-.83-3.22-1.46-.75-.63-1.27-1.38-1.55-2.26-.28-.88-.42-1.85-.42-2.92v-8.23c0-1.6-.19-2.92-.57-3.96-.38-1.04-1.02-1.8-1.93-2.29-.91-.49-2.16-.74-3.75-.74v-4.03c2.02,0,3.71.22,5.08.66,1.37.44,2.47,1.11,3.29,2.02s1.42,2.05,1.78,3.44c.36,1.39.55,3.02.55,4.92v6.58c0,2.25.46,3.85,1.37,4.81.91.96,2.51,1.44,4.8,1.44v2.39s0,.16,0,.16v2.39c-2.29,0-3.89.48-4.8,1.44-.91.96-1.37,2.56-1.37,4.81v6.58c0,1.89-.18,3.53-.55,4.92-.36,1.39-.96,2.53-1.78,3.44s-1.92,1.58-3.29,2.02c-1.37.44-3.07.66-5.08.66v-4.03c1.59,0,2.84-.25,3.75-.75.91-.5,1.56-1.27,1.93-2.29s.57-2.35.57-3.95v-8.23c0-1.07.14-2.04.42-2.92.28-.88.8-1.63,1.55-2.26.75-.63,1.83-1.12,3.22-1.46.18-.04.38-.08.57-.11v-.64c-.19-.04-.39-.07-.57-.11Z"/>
      <circle class="cls-7" cx="102.49" cy="260.38" r="5.14"/>
      <circle class="cls-7" cx="115.62" cy="260.38" r="5.14"/>
      <circle class="cls-7" cx="128.75" cy="260.38" r="5.14"/>
    </g>
    <g>
      <path class="cls-10" d="m343.05,142.44v1.92c0,5.29,3.12,9.58,6.97,9.58h190.71c3.85,0,6.97-4.29,6.97-9.58v-1.92h-204.64Z"/>
      <path class="cls-10" d="m511.58,137.26h-162.39c-3.78,0-7.06-2.59-7.94-6.27l-21.94-92.34c-1.22-5.12,2.67-10.04,7.94-10.04h163.49c3.81,0,7.12,2.64,7.96,6.36l20.84,92.34c1.15,5.1-2.73,9.95-7.96,9.95Z"/>
      <path class="cls-5" d="m512.61,137.27h-162.68c-3.71,0-6.94-2.55-7.8-6.16l-22.01-92.63c-1.2-5.04,2.62-9.87,7.8-9.87h163.78c3.75,0,6.99,2.6,7.82,6.25l20.91,92.63c1.13,5.01-2.68,9.78-7.82,9.78Zm-28.27-101.58h-146.35c-5.2,0-9.03,4.88-7.78,9.93l17.99,72.91c.88,3.58,4.09,6.09,7.78,6.09h145.3c5.16,0,8.97-4.8,7.81-9.83l-16.93-72.91c-.84-3.63-4.08-6.2-7.81-6.2Z"/>
      <path class="cls-5" d="m343.05,142.44v1.92c0,5.29,3.12,9.58,6.97,9.58h190.71c3.85,0,6.97-4.29,6.97-9.58v-1.92h-204.64Z"/>
      <path class="cls-16" d="m452.12,80.16c.32,1.04.58,2.07.79,3.09-.03.66-.36,1.21-.94,1.51l-6.2,3.19c-.28.14-.45.41-.47.74-.03.3-.06.6-.1.9-.04.32.05.69.28,1.02l5.06,7.32c.47.68.66,1.42.55,2.05-.82,1.6-1.84,3.07-3.04,4.38-.54.3-1.27.34-2.03.08l-8.18-2.82c-.37-.13-.73-.11-1.01.03-.26.13-.52.25-.79.37-.29.13-.48.38-.53.7l-.99,7.17c-.09.66-.49,1.16-1.08,1.4-.99.1-2,.15-3.04.15s-2.09-.05-3.14-.15c-.73-.24-1.44-.73-1.94-1.4l-5.38-7.17c-.24-.32-.59-.57-.96-.7-.34-.12-.68-.24-1.01-.37-.37-.14-.74-.16-1.03-.03l-6.46,2.82c-.6.26-1.35.22-2.07-.08-.98-.64-1.93-1.32-2.87-2.03l-.13-.1c-.93-.72-1.84-1.47-2.72-2.25-.49-.63-.76-1.37-.7-2.05l.58-7.32c.03-.33-.1-.7-.34-1.02-.22-.3-.44-.6-.65-.9-.23-.33-.56-.6-.93-.74l-8.14-3.19c-.75-.3-1.42-.85-1.86-1.51-.41-1.02-.78-2.05-1.1-3.09-.32-1.04-.58-2.07-.79-3.09.03-.66.36-1.21.94-1.51l6.2-3.19c.28-.14.45-.41.47-.74.03-.3.06-.6.1-.9.04-.32-.05-.69-.28-1.02l-5.06-7.32c-.47-.68-.66-1.42-.55-2.05.4-.78.85-1.53,1.34-2.25l.07-.1c.5-.71,1.04-1.39,1.63-2.03.54-.3,1.27-.34,2.03-.08l8.18,2.82c.37.13.73.11,1.01-.03.26-.13.52-.25.79-.37.29-.13.48-.38.53-.7l.99-7.17c.09-.66.49-1.16,1.08-1.4.99-.1,2-.15,3.04-.15s2.09.05,3.14.15c.73.24,1.44.73,1.94,1.4l5.38,7.17c.24.32.59.57.96.7.34.12.68.24,1.01.37.37.14.74.16,1.03.03l6.46-2.82c.6-.26,1.35-.22,2.07.08,2,1.31,3.92,2.78,5.72,4.38.49.63.76,1.37.7,2.05l-.58,7.32c-.03.33.1.7.34,1.02.22.3.44.6.65.9.23.33.56.6.93.74l8.14,3.19c.76.3,1.42.85,1.86,1.51.41,1.02.78,2.05,1.1,3.09h0Zm-36.34-16.54c-9.14,0-14.28,7.41-11.48,16.54,2.79,9.14,12.46,16.54,21.6,16.54s14.28-7.41,11.48-16.54-12.46-16.54-21.6-16.54Z"/>
      <path class="cls-15" d="m484.71,80.16c.32,1.04.58,2.07.79,3.09-.03.66-.36,1.21-.94,1.51l-6.2,3.19c-.28.14-.45.41-.47.74-.03.3-.06.6-.1.9-.04.32.05.69.28,1.02l5.06,7.32c.47.68.66,1.42.55,2.05-.82,1.6-1.84,3.07-3.04,4.38-.54.3-1.27.34-2.03.08l-8.18-2.82c-.37-.13-.73-.11-1.01.03-.26.13-.52.25-.79.37-.29.13-.48.38-.53.7l-.99,7.17c-.09.66-.49,1.16-1.08,1.4-.99.1-2,.15-3.04.15s-2.09-.05-3.14-.15c-.73-.24-1.44-.73-1.94-1.4l-5.38-7.17c-.24-.32-.59-.57-.96-.7-.34-.12-.68-.24-1.01-.37-.37-.14-.74-.16-1.03-.03l-6.46,2.82c-.6.26-1.35.22-2.07-.08-.98-.64-1.93-1.32-2.87-2.03l-.13-.1c-.93-.72-1.84-1.47-2.72-2.25-.49-.63-.76-1.37-.7-2.05l.58-7.32c.03-.33-.1-.7-.34-1.02-.22-.3-.44-.6-.65-.9-.23-.33-.56-.6-.93-.74l-8.14-3.19c-.75-.3-1.42-.85-1.86-1.51-.41-1.02-.78-2.05-1.1-3.09-.32-1.04-.58-2.07-.79-3.09.03-.66.36-1.21.94-1.51l6.2-3.19c.28-.14.45-.41.47-.74.03-.3.06-.6.1-.9.04-.32-.05-.69-.28-1.02l-5.06-7.32c-.47-.68-.66-1.42-.55-2.05.4-.78.85-1.53,1.34-2.25l.07-.1c.5-.71,1.04-1.39,1.63-2.03.54-.3,1.27-.34,2.03-.08l8.18,2.82c.37.13.73.11,1.01-.03.26-.13.52-.25.79-.37.29-.13.48-.38.53-.7l.99-7.17c.09-.66.49-1.16,1.08-1.4.99-.1,2-.15,3.04-.15s2.09.05,3.14.15c.73.24,1.44.73,1.94,1.4l5.38,7.17c.24.32.59.57.96.7.34.12.68.24,1.01.37.37.14.74.16,1.03.03l6.46-2.82c.6-.26,1.35-.22,2.07.08,2,1.31,3.92,2.78,5.72,4.38.49.63.76,1.37.7,2.05l-.58,7.32c-.03.33.1.7.34,1.02.22.3.44.6.65.9.23.33.56.6.93.74l8.14,3.19c.76.3,1.42.85,1.86,1.51.41,1.02.78,2.05,1.1,3.09h0Zm-36.34-16.54c-9.14,0-14.28,7.41-11.48,16.54,2.79,9.14,12.46,16.54,21.6,16.54s14.28-7.41,11.48-16.54c-2.79-9.14-12.46-16.54-21.6-16.54Z"/>
      <path class="cls-14" d="m418.38,80.16c.32,1.04.58,2.07.79,3.09-.03.66-.36,1.21-.94,1.51l-6.2,3.19c-.28.14-.45.41-.47.74-.03.3-.06.6-.1.9-.04.32.05.69.28,1.02l5.06,7.32c.47.68.66,1.42.55,2.05-.82,1.6-1.84,3.07-3.04,4.38-.54.3-1.27.34-2.03.08l-8.18-2.82c-.37-.13-.73-.11-1.01.03-.26.13-.52.25-.79.37-.29.13-.48.38-.53.7l-.99,7.17c-.09.66-.49,1.16-1.08,1.4-.99.1-2,.15-3.04.15s-2.09-.05-3.14-.15c-.73-.24-1.44-.73-1.94-1.4l-5.38-7.17c-.24-.32-.59-.57-.96-.7-.34-.12-.68-.24-1.01-.37-.37-.14-.74-.16-1.03-.03l-6.46,2.82c-.6.26-1.35.22-2.07-.08-.98-.64-1.93-1.32-2.87-2.03l-.13-.1c-.93-.72-1.84-1.47-2.72-2.25-.49-.63-.76-1.37-.7-2.05l.58-7.32c.03-.33-.1-.7-.34-1.02-.22-.3-.44-.6-.65-.9-.23-.33-.56-.6-.93-.74l-8.14-3.19c-.75-.3-1.42-.85-1.86-1.51-.41-1.02-.78-2.05-1.1-3.09-.32-1.04-.58-2.07-.79-3.09.03-.66.36-1.21.94-1.51l6.2-3.19c.28-.14.45-.41.47-.74.03-.3.06-.6.1-.9.04-.32-.05-.69-.28-1.02l-5.06-7.32c-.47-.68-.66-1.42-.55-2.05.4-.78.85-1.53,1.34-2.25l.07-.1c.5-.71,1.04-1.39,1.63-2.03.54-.3,1.27-.34,2.03-.08l8.18,2.82c.37.13.73.11,1.01-.03.26-.13.52-.25.79-.37.29-.13.48-.38.53-.7l.99-7.17c.09-.66.49-1.16,1.08-1.4.99-.1,2-.15,3.04-.15s2.09.05,3.14.15c.73.24,1.44.73,1.94,1.4l5.38,7.17c.24.32.59.57.96.7.34.12.68.24,1.01.37.37.14.74.16,1.03.03l6.46-2.82c.6-.26,1.35-.22,2.07.08,2,1.31,3.92,2.78,5.72,4.38.49.63.76,1.37.7,2.05l-.58,7.32c-.03.33.1.7.34,1.02.22.3.44.6.65.9.23.33.56.6.93.74l8.14,3.19c.76.3,1.42.85,1.86,1.51.41,1.02.78,2.05,1.1,3.09h0Zm-36.34-16.54c-9.14,0-14.28,7.41-11.48,16.54s12.46,16.54,21.6,16.54,14.28-7.41,11.48-16.54c-2.79-9.14-12.46-16.54-21.6-16.54Z"/>
    </g>
  </g>
</svg>