<?xml version="1.0" encoding="UTF-8"?>
<svg id="Layer_2" data-name="Layer 2" xmlns="http://www.w3.org/2000/svg" viewBox="0 0 786.03 374.32">
  <defs>
    <style>
      .cls-1 {
        fill: none;
        stroke: #999;
        stroke-miterlimit: 10;
      }

      .cls-2 {
        letter-spacing: 0em;
      }

      .cls-3 {
        fill: #e0e0e0;
      }

      .cls-4 {
        letter-spacing: -.06em;
      }

      .cls-5, .cls-6 {
        fill: #1c1e21;
      }

      .cls-7 {
        letter-spacing: -.04em;
      }

      .cls-6 {
        font-family: Inter-Regular, Inter;
        font-size: 12px;
      }

      .cls-8 {
        fill: #999;
      }
    </style>
  </defs>
  <g id="Guides">
    <path class="cls-3" d="m381.37,177.9c4.1-1.01,7.25-2.44,9.48-4.3,2.22-1.86,3.74-4.08,4.57-6.66.83-2.58,1.24-5.45,1.24-8.6v-24.22c0-4.72.56-8.61,1.67-11.66,1.11-3.05,3.01-5.3,5.69-6.75,2.68-1.45,6.37-2.18,11.05-2.18v-11.87c-5.93,0-10.92.65-14.96,1.94-4.04,1.29-7.26,3.27-9.69,5.93s-4.17,6.03-5.24,10.11c-1.07,4.08-1.6,8.9-1.6,14.47v19.38c0,6.62-1.34,11.34-4.03,14.17-2.68,2.83-7.4,4.24-14.14,4.24v14.53c6.74,0,11.45,1.41,14.14,4.24,2.68,2.83,4.03,7.55,4.03,14.17v19.37c0,5.57.53,10.39,1.6,14.47,1.07,4.08,2.81,7.45,5.24,10.11s5.65,4.64,9.69,5.93c4.04,1.29,9.02,1.94,14.96,1.94v-11.87c-4.68,0-8.37-.74-11.05-2.21-2.68-1.47-4.58-3.72-5.69-6.75-1.11-3.03-1.67-6.9-1.67-11.63v-24.22c0-3.15-.41-6.01-1.24-8.6-.83-2.58-2.35-4.8-4.57-6.66-2.22-1.86-5.38-3.29-9.48-4.3-.52-.13-1.11-.22-1.67-.33v-1.87c.56-.11,1.15-.21,1.67-.33Z"/>
    <path class="cls-3" d="m752.34,177.9c4.1-1.01,7.25-2.44,9.48-4.3,2.22-1.86,3.74-4.08,4.57-6.66.83-2.58,1.24-5.45,1.24-8.6v-24.22c0-4.72.56-8.61,1.67-11.66,1.11-3.05,3.01-5.3,5.69-6.75,2.68-1.45,6.37-2.18,11.05-2.18v-11.87c-5.93,0-10.92.65-14.96,1.94-4.04,1.29-7.26,3.27-9.69,5.93s-4.17,6.03-5.24,10.11c-1.07,4.08-1.6,8.9-1.6,14.47v19.38c0,6.62-1.34,11.34-4.03,14.17-2.68,2.83-7.4,4.24-14.14,4.24v14.53c6.74,0,11.45,1.41,14.14,4.24,2.68,2.83,4.03,7.55,4.03,14.17v19.37c0,5.57.53,10.39,1.6,14.47,1.07,4.08,2.81,7.45,5.24,10.11s5.65,4.64,9.69,5.93c4.04,1.29,9.02,1.94,14.96,1.94v-11.87c-4.68,0-8.37-.74-11.05-2.21-2.68-1.47-4.58-3.72-5.69-6.75-1.11-3.03-1.67-6.9-1.67-11.63v-24.22c0-3.15-.41-6.01-1.24-8.6-.83-2.58-2.35-4.8-4.57-6.66-2.22-1.86-5.38-3.29-9.48-4.3-.52-.13-1.11-.22-1.67-.33v-1.87c.56-.11,1.15-.21,1.67-.33Z"/>
    <path class="cls-3" d="m169.49,177.9c-4.1-1.01-7.25-2.44-9.48-4.3-2.22-1.86-3.74-4.08-4.57-6.66-.83-2.58-1.24-5.45-1.24-8.6v-24.22c0-4.72-.56-8.61-1.67-11.66-1.11-3.05-3.01-5.3-5.69-6.75-2.68-1.45-6.37-2.18-11.05-2.18v-11.87c5.93,0,10.92.65,14.96,1.94,4.04,1.29,7.26,3.27,9.69,5.93s4.17,6.03,5.24,10.11c1.07,4.08,1.6,8.9,1.6,14.47v19.38c0,6.62,1.34,11.34,4.03,14.17,2.68,2.83,7.4,4.24,14.14,4.24v7.02s0,.48,0,.48v7.02c-6.74,0-11.45,1.41-14.14,4.24-2.68,2.83-4.03,7.55-4.03,14.17v19.37c0,5.57-.53,10.39-1.6,14.47-1.07,4.08-2.81,7.45-5.24,10.11s-5.65,4.64-9.69,5.93c-4.04,1.29-9.02,1.94-14.96,1.94v-11.87c4.68,0,8.37-.74,11.05-2.21,2.68-1.47,4.58-3.72,5.69-6.75,1.11-3.03,1.67-6.9,1.67-11.63v-24.22c0-3.15.41-6.01,1.24-8.6.83-2.58,2.35-4.8,4.57-6.66,2.22-1.86,5.38-3.29,9.48-4.3.52-.13,1.11-.22,1.67-.33v-1.87c-.56-.11-1.15-.21-1.67-.33Z"/>
    <path class="cls-3" d="m277.1,85.72c1.01-4.1,2.44-7.25,4.3-9.48,1.86-2.22,4.08-3.74,6.66-4.57,2.58-.83,5.45-1.24,8.6-1.24h24.22c4.72,0,8.61-.56,11.66-1.67,3.05-1.11,5.3-3.01,6.75-5.69,1.45-2.68,2.18-6.37,2.18-11.05h11.87c0,5.93-.65,10.92-1.94,14.96-1.29,4.04-3.27,7.26-5.93,9.69s-6.03,4.17-10.11,5.24c-4.08,1.07-8.9,1.6-14.47,1.6h-19.38c-6.62,0-11.34,1.34-14.17,4.03-2.83,2.68-4.24,7.4-4.24,14.14h-7.02s-.48,0-.48,0h-7.02c0-6.74-1.41-11.45-4.24-14.14-2.83-2.68-7.55-4.03-14.17-4.03h-19.37c-5.57,0-10.39-.53-14.47-1.6-4.08-1.07-7.45-2.81-10.11-5.24s-4.64-5.65-5.93-9.69c-1.29-4.04-1.94-9.02-1.94-14.96h11.87c0,4.68.74,8.37,2.21,11.05,1.47,2.68,3.72,4.58,6.75,5.69,3.03,1.11,6.9,1.67,11.63,1.67h24.22c3.15,0,6.01.41,8.6,1.24,2.58.83,4.8,2.35,6.66,4.57,1.86,2.22,3.29,5.38,4.3,9.48.13.52.22,1.11.33,1.67h1.87c.11-.56.21-1.15.33-1.67Z"/>
    <path class="cls-3" d="m277.1,272.62c1.01,4.1,2.44,7.25,4.3,9.48,1.86,2.22,4.08,3.74,6.66,4.57,2.58.83,5.45,1.24,8.6,1.24h24.22c4.72,0,8.61.56,11.66,1.67,3.05,1.11,5.3,3.01,6.75,5.69,1.45,2.68,2.18,6.37,2.18,11.05h11.87c0-5.93-.65-10.92-1.94-14.96-1.29-4.04-3.27-7.26-5.93-9.69s-6.03-4.17-10.11-5.24c-4.08-1.07-8.9-1.6-14.47-1.6h-19.38c-6.62,0-11.34-1.34-14.17-4.03-2.83-2.68-4.24-7.4-4.24-14.14h-7.02s-.48,0-.48,0h-7.02c0,6.74-1.41,11.45-4.24,14.14-2.83,2.68-7.55,4.03-14.17,4.03h-19.37c-5.57,0-10.39.53-14.47,1.6-4.08,1.07-7.45,2.81-10.11,5.24s-4.64,5.65-5.93,9.69c-1.29,4.04-1.94,9.02-1.94,14.96h11.87c0-4.68.74-8.37,2.21-11.05,1.47-2.68,3.72-4.58,6.75-5.69,3.03-1.11,6.9-1.67,11.63-1.67h24.22c3.15,0,6.01-.41,8.6-1.24,2.58-.83,4.8-2.35,6.66-4.57,1.86-2.22,3.29-5.38,4.3-9.48.13-.52.22-1.11.33-1.67h1.87c.11.56.21,1.15.33,1.67Z"/>
  </g>
  <g id="Layer_1-2" data-name="Layer 1">
    <g>
      <path id="path4548" class="cls-5" d="m259.69,242c-2.96-2.78-2.53-7.57,1.1-12.27,2.69-3.48,13.93-14.88,22.04-22.36l3.28-3.02-5.22-11.19c-5.85-12.55-5.82-12.79,1.9-13.65l4.25-.47,4.75,7.18c2.61,3.95,5.13,7.18,5.58,7.18s5.14-3.76,10.41-8.35c9.15-7.98,9.72-8.33,12.82-7.91,1.87.26,3.53.1,3.92-.37.92-1.1,3.56.53,3.56,2.2,0,.69-1.32,2.43-2.92,3.87-6.57,5.9-20.58,19.86-20.58,20.5,0,.38,2.82,5.25,6.28,10.83l5.84,9.44c.26.42.21.96-.12,1.32l-1.39,1.07c-1.05,1.16-1.76,2.07-1.9,3.21.25.7-.8,1.04-1.75,1.48-2.41,1.12-4.19-.25-11.55-8.89-3.37-3.96-6.46-7.21-6.87-7.22-.91-.02-10.98,10.99-18.77,20.52-6.87,8.4-12.92,8.57-14.67,6.92h0Z"/>
      <path id="path4550" class="cls-5" d="m251.52,176.67c-.04-.06-.09-.12-.12-.17-15.34-22.9-26.46-26.93-26.06-27.18,5.83-3.75,16.77-.07,23.53,5.94.08.07.16.16.25.24,1.62,1.38,1.99,1.88,3.93,4.04.35,0,7.83-12.43,7.88-12.51,15.06-23.75,30.81-33.79,39.95-33.77,4.36,0,5.01,1.52,5.01,1.52-14.81,7.73-27.34,21.51-40.28,46.89-3.61,7.27-9.69,19-10.13,19.8-.66,1.2-.77-.59-3.95-4.8Z"/>
      <path class="cls-5" d="m201.4,177.9c4.1-1.01,7.25-2.44,9.48-4.3,2.22-1.86,3.74-4.08,4.57-6.66.83-2.58,1.24-5.45,1.24-8.6v-24.22c0-4.72.56-8.61,1.67-11.66,1.11-3.05,3.01-5.3,5.69-6.75,2.68-1.45,6.37-2.18,11.05-2.18v-11.87c-5.93,0-10.92.65-14.96,1.94-4.04,1.29-7.26,3.27-9.69,5.93-2.42,2.66-4.17,6.03-5.24,10.11-1.07,4.08-1.6,8.9-1.6,14.47v19.38c0,6.62-1.34,11.34-4.03,14.17-2.68,2.83-7.4,4.24-14.14,4.24v14.53c6.74,0,11.45,1.41,14.14,4.24,2.68,2.83,4.03,7.55,4.03,14.17v19.37c0,5.57.53,10.39,1.6,14.47,1.07,4.08,2.81,7.45,5.24,10.11s5.65,4.64,9.69,5.93c4.04,1.29,9.02,1.94,14.96,1.94v-11.87c-4.68,0-8.37-.74-11.05-2.21-2.68-1.47-4.58-3.72-5.69-6.75-1.11-3.03-1.67-6.9-1.67-11.63v-24.22c0-3.15-.41-6.01-1.24-8.6-.83-2.58-2.35-4.8-4.57-6.66-2.22-1.86-5.38-3.29-9.48-4.3-.52-.13-1.11-.22-1.67-.33v-1.87c.56-.11,1.15-.21,1.67-.33Z"/>
      <path class="cls-5" d="m350.55,177.9c-4.1-1.01-7.25-2.44-9.48-4.3-2.22-1.86-3.74-4.08-4.57-6.66-.83-2.58-1.24-5.45-1.24-8.6v-24.22c0-4.72-.56-8.61-1.67-11.66-1.11-3.05-3.01-5.3-5.69-6.75-2.68-1.45-6.37-2.18-11.05-2.18v-11.87c5.93,0,10.92.65,14.96,1.94,4.04,1.29,7.26,3.27,9.69,5.93,2.42,2.66,4.17,6.03,5.24,10.11,1.07,4.08,1.6,8.9,1.6,14.47v19.38c0,6.62,1.34,11.34,4.03,14.17,2.68,2.83,7.4,4.24,14.14,4.24v7.02s0,.48,0,.48v7.02c-6.74,0-11.45,1.41-14.14,4.24-2.68,2.83-4.03,7.55-4.03,14.17v19.37c0,5.57-.53,10.39-1.6,14.47-1.07,4.08-2.81,7.45-5.24,10.11-2.42,2.66-5.65,4.64-9.69,5.93-4.04,1.29-9.02,1.94-14.96,1.94v-11.87c4.68,0,8.37-.74,11.05-2.21,2.68-1.47,4.58-3.72,5.69-6.75,1.11-3.03,1.67-6.9,1.67-11.63v-24.22c0-3.15.41-6.01,1.24-8.6.83-2.58,2.35-4.8,4.57-6.66,2.22-1.86,5.38-3.29,9.48-4.3.52-.13,1.11-.22,1.67-.33v-1.87c-.56-.11-1.15-.21-1.67-.33Z"/>
    </g>
    <g>
      <g>
        <path class="cls-5" d="m442.5,107.9h11.06v43.26c-.02,3.97-.86,7.38-2.52,10.23-1.66,2.85-3.98,5.05-6.96,6.58-2.97,1.53-6.43,2.3-10.38,2.3-3.61,0-6.85-.65-9.72-1.94-2.87-1.29-5.15-3.21-6.84-5.75-1.68-2.54-2.52-5.71-2.52-9.49h11.09c.02,1.66.39,3.1,1.1,4.3.71,1.2,1.7,2.12,2.96,2.76s2.71.96,4.36.96c1.78,0,3.29-.38,4.54-1.13s2.19-1.87,2.84-3.35.99-3.3,1.01-5.47v-43.26Z"/>
        <path class="cls-5" d="m499.1,124.82c-.28-2.62-1.46-4.67-3.53-6.13-2.07-1.46-4.76-2.19-8.07-2.19-2.32,0-4.32.35-5.98,1.05-1.66.7-2.93,1.65-3.81,2.85-.88,1.2-1.33,2.57-1.35,4.12,0,1.28.3,2.39.89,3.34.59.94,1.4,1.74,2.42,2.39,1.02.65,2.15,1.2,3.39,1.64,1.24.44,2.49.81,3.76,1.11l5.77,1.44c2.32.54,4.56,1.27,6.72,2.19,2.15.92,4.09,2.08,5.8,3.48,1.71,1.4,3.07,3.1,4.07,5.08,1,1.98,1.5,4.31,1.5,6.97,0,3.6-.92,6.77-2.76,9.51-1.84,2.73-4.5,4.87-7.98,6.4-3.48,1.53-7.68,2.3-12.6,2.3s-8.94-.74-12.45-2.22c-3.52-1.48-6.26-3.64-8.23-6.49s-3.04-6.31-3.2-10.39h10.97c.16,2.14.82,3.93,1.98,5.35,1.16,1.42,2.68,2.48,4.55,3.19,1.87.7,3.97,1.05,6.29,1.05s4.55-.37,6.38-1.1,3.27-1.75,4.31-3.06c1.04-1.31,1.57-2.85,1.59-4.61-.02-1.6-.49-2.93-1.41-3.98-.92-1.05-2.21-1.93-3.86-2.64-1.65-.71-3.58-1.35-5.78-1.91l-7-1.8c-5.07-1.3-9.07-3.28-12-5.93-2.93-2.65-4.4-6.18-4.4-10.59,0-3.62.99-6.8,2.96-9.52,1.97-2.72,4.66-4.84,8.07-6.35s7.26-2.27,11.57-2.27,8.2.76,11.49,2.27c3.29,1.51,5.88,3.61,7.77,6.28s2.85,5.74,2.91,9.21h-10.73Z"/>
        <path class="cls-5" d="m575.56,138.67c0,6.63-1.24,12.3-3.71,17.02-2.47,4.72-5.84,8.33-10.09,10.83-4.26,2.5-9.08,3.76-14.47,3.76s-10.21-1.26-14.47-3.77c-4.26-2.51-7.62-6.13-10.09-10.85-2.47-4.72-3.71-10.38-3.71-16.99s1.24-12.3,3.71-17.02c2.47-4.72,5.84-8.33,10.09-10.83,4.26-2.5,9.08-3.76,14.47-3.76s10.21,1.25,14.47,3.76c4.26,2.5,7.62,6.11,10.09,10.83,2.47,4.72,3.71,10.39,3.71,17.02Zm-11.21,0c0-4.67-.73-8.61-2.18-11.82-1.45-3.22-3.46-5.65-6.02-7.3-2.56-1.65-5.52-2.48-8.86-2.48s-6.3.83-8.86,2.48c-2.56,1.65-4.57,4.09-6.02,7.3-1.45,3.21-2.18,7.15-2.18,11.82s.73,8.61,2.18,11.82c1.45,3.21,3.46,5.65,6.02,7.3,2.56,1.65,5.52,2.48,8.86,2.48s6.3-.83,8.86-2.48c2.56-1.65,4.57-4.09,6.02-7.3,1.45-3.21,2.18-7.16,2.18-11.82Z"/>
        <path class="cls-5" d="m636.7,107.9v61.53h-9.91l-28.99-41.91h-.51v41.91h-11.15v-61.53h9.97l28.96,41.94h.54v-41.94h11.09Z"/>
      </g>
      <g>
        <path class="cls-5" d="m450.28,205.73c-.28-2.62-1.46-4.67-3.53-6.13-2.07-1.46-4.76-2.19-8.07-2.19-2.32,0-4.32.35-5.98,1.05-1.66.7-2.93,1.65-3.81,2.85-.88,1.2-1.33,2.57-1.35,4.12,0,1.28.3,2.39.89,3.34.59.94,1.4,1.74,2.42,2.39,1.02.65,2.15,1.2,3.39,1.64s2.49.81,3.76,1.11l5.77,1.44c2.32.54,4.56,1.27,6.72,2.19,2.15.92,4.09,2.08,5.8,3.48,1.71,1.4,3.07,3.1,4.07,5.08,1,1.98,1.5,4.31,1.5,6.97,0,3.6-.92,6.77-2.76,9.51-1.84,2.73-4.5,4.87-7.98,6.4-3.48,1.53-7.68,2.3-12.6,2.3s-8.94-.74-12.45-2.22c-3.52-1.48-6.26-3.64-8.23-6.49-1.97-2.84-3.04-6.31-3.2-10.39h10.97c.16,2.14.82,3.93,1.98,5.35,1.16,1.42,2.68,2.48,4.55,3.19s3.97,1.05,6.29,1.05,4.55-.37,6.38-1.1,3.27-1.75,4.31-3.06c1.04-1.31,1.57-2.85,1.59-4.61-.02-1.6-.49-2.93-1.41-3.98-.92-1.05-2.21-1.93-3.86-2.64s-3.58-1.35-5.78-1.91l-7-1.8c-5.07-1.3-9.07-3.28-12-5.93-2.93-2.65-4.4-6.18-4.4-10.59,0-3.62.99-6.8,2.96-9.52,1.97-2.72,4.66-4.84,8.07-6.35s7.26-2.27,11.57-2.27,8.2.76,11.49,2.27c3.29,1.51,5.88,3.61,7.77,6.28s2.85,5.74,2.91,9.21h-10.73Z"/>
        <path class="cls-5" d="m491.41,251.25c-4.61,0-8.56-1.01-11.85-3.03-3.3-2.02-5.83-4.82-7.6-8.4-1.77-3.57-2.66-7.7-2.66-12.36s.9-8.83,2.7-12.42c1.8-3.59,4.35-6.4,7.65-8.41,3.29-2.01,7.2-3.02,11.7-3.02,3.75,0,7.06.69,9.96,2.06,2.89,1.37,5.2,3.3,6.92,5.8s2.7,5.4,2.95,8.73h-10.39c-.42-2.22-1.42-4.08-2.99-5.57-1.57-1.49-3.67-2.24-6.29-2.24-2.22,0-4.18.6-5.86,1.79-1.68,1.19-2.99,2.9-3.92,5.12-.93,2.22-1.4,4.89-1.4,7.99s.46,5.84,1.38,8.1c.92,2.25,2.22,3.99,3.89,5.2,1.67,1.21,3.64,1.82,5.9,1.82,1.6,0,3.04-.31,4.31-.92,1.27-.61,2.34-1.5,3.2-2.66.86-1.16,1.45-2.57,1.77-4.24h10.39c-.26,3.27-1.22,6.15-2.88,8.67-1.66,2.51-3.93,4.48-6.79,5.89-2.87,1.41-6.23,2.12-10.1,2.12Z"/>
        <path class="cls-5" d="m531,223.31v27.04h-10.87v-61.53h10.63v23.22h.54c1.08-2.6,2.76-4.66,5.03-6.17,2.27-1.51,5.17-2.27,8.7-2.27,3.2,0,6,.67,8.38,2.01,2.38,1.34,4.23,3.3,5.54,5.89s1.97,5.74,1.97,9.46v29.38h-10.88v-27.7c0-3.1-.8-5.52-2.39-7.26-1.59-1.73-3.82-2.6-6.68-2.6-1.92,0-3.64.42-5.15,1.25-1.51.83-2.69,2.03-3.54,3.59-.85,1.56-1.28,3.45-1.28,5.68Z"/>
        <path class="cls-5" d="m592.41,251.25c-4.63,0-8.62-.97-11.97-2.9-3.36-1.93-5.93-4.68-7.74-8.23-1.8-3.56-2.7-7.75-2.7-12.57s.91-8.92,2.72-12.51c1.81-3.59,4.35-6.4,7.62-8.41,3.26-2.01,7.1-3.02,11.51-3.02,2.84,0,5.53.46,8.07,1.37,2.53.91,4.78,2.32,6.73,4.22,1.95,1.9,3.49,4.32,4.61,7.26,1.12,2.93,1.68,6.42,1.68,10.47v3.34h-37.82v-7.33h27.4c-.02-2.08-.47-3.94-1.35-5.57s-2.11-2.92-3.68-3.86c-1.57-.94-3.4-1.41-5.48-1.41-2.22,0-4.18.54-5.86,1.61-1.68,1.07-2.99,2.47-3.92,4.21-.93,1.73-1.41,3.63-1.43,5.69v6.4c0,2.68.49,4.98,1.47,6.9s2.35,3.37,4.12,4.39c1.76,1.01,3.83,1.52,6.19,1.52,1.58,0,3.01-.23,4.3-.68,1.28-.45,2.39-1.12,3.34-2,.94-.88,1.65-1.97,2.13-3.27l10.15,1.14c-.64,2.68-1.86,5.02-3.65,7.01-1.79,1.99-4.08,3.54-6.86,4.63-2.78,1.09-5.97,1.64-9.55,1.64Z"/>
        <path class="cls-5" d="m622.13,250.35v-46.15h10.39v7.84h.54c.96-2.64,2.55-4.71,4.78-6.2,2.22-1.49,4.88-2.24,7.96-2.24s5.76.76,7.92,2.27c2.15,1.51,3.67,3.57,4.55,6.17h.48c1.02-2.56,2.75-4.61,5.18-6.14s5.32-2.3,8.67-2.3c4.25,0,7.71,1.34,10.39,4.03,2.68,2.68,4.03,6.6,4.03,11.75v30.97h-10.91v-29.29c0-2.86-.76-4.96-2.28-6.29-1.52-1.33-3.38-2-5.59-2-2.62,0-4.67.82-6.14,2.45-1.47,1.63-2.21,3.75-2.21,6.35v28.78h-10.67v-29.74c0-2.38-.72-4.29-2.15-5.71-1.43-1.42-3.3-2.13-5.6-2.13-1.56,0-2.98.4-4.27,1.19-1.28.79-2.3,1.9-3.06,3.34-.76,1.43-1.14,3.1-1.14,5v28.06h-10.87Z"/>
        <path class="cls-5" d="m711.35,251.28c-2.92,0-5.55-.53-7.89-1.58-2.33-1.05-4.18-2.61-5.53-4.67-1.35-2.06-2.03-4.61-2.03-7.63,0-2.6.48-4.76,1.44-6.46.96-1.7,2.27-3.06,3.94-4.09,1.66-1.02,3.54-1.8,5.63-2.33,2.09-.53,4.26-.92,6.5-1.16,2.7-.28,4.9-.54,6.58-.77,1.68-.23,2.91-.59,3.68-1.08.77-.49,1.16-1.26,1.16-2.3v-.18c0-2.26-.67-4.02-2.01-5.26-1.34-1.24-3.28-1.86-5.8-1.86-2.66,0-4.77.58-6.32,1.74s-2.6,2.53-3.14,4.12l-10.15-1.44c.8-2.8,2.12-5.15,3.97-7.05,1.84-1.89,4.1-3.31,6.76-4.27,2.66-.95,5.61-1.43,8.83-1.43,2.22,0,4.44.26,6.64.78,2.2.52,4.22,1.38,6.04,2.57,1.82,1.19,3.29,2.81,4.4,4.85,1.11,2.04,1.67,4.6,1.67,7.66v30.88h-10.46v-6.34h-.36c-.66,1.28-1.59,2.48-2.78,3.59-1.19,1.11-2.68,2-4.48,2.67-1.79.67-3.89,1.01-6.29,1.01Zm2.82-7.99c2.18,0,4.08-.44,5.68-1.31,1.6-.87,2.84-2.03,3.71-3.47.87-1.44,1.31-3.01,1.31-4.72v-5.44c-.34.28-.92.54-1.73.78-.81.24-1.72.45-2.72.63s-1.99.34-2.97.48c-.98.14-1.83.26-2.55.36-1.62.22-3.07.58-4.36,1.08-1.28.5-2.29,1.2-3.04,2.09-.74.89-1.11,2.04-1.11,3.44,0,2,.73,3.52,2.19,4.54,1.46,1.02,3.32,1.53,5.59,1.53Z"/>
      </g>
    </g>
    <g>
      <path class="cls-5" d="m1.06,123.54v-8.73h3.05c.61,0,1.11.1,1.5.31s.69.49.88.84.29.74.29,1.17c0,.38-.07.68-.2.93-.13.24-.31.44-.52.58-.21.14-.45.25-.7.32v.08c.27.02.54.11.81.28.27.17.5.42.68.73s.27.71.27,1.17-.1.83-.3,1.18c-.2.35-.51.63-.94.83-.43.21-.99.31-1.67.31H1.06Zm1.06-4.89h1.96c.32,0,.61-.06.86-.19.26-.12.46-.3.61-.53.15-.23.23-.49.23-.8,0-.38-.13-.71-.4-.98-.27-.27-.69-.4-1.27-.4h-2v2.9Zm0,3.95h2.1c.69,0,1.18-.13,1.47-.4s.44-.59.44-.98c0-.29-.08-.57-.23-.82-.15-.25-.37-.45-.64-.6-.28-.15-.61-.23-.99-.23h-2.15v3.03Z"/>
      <path class="cls-5" d="m8.73,123.54v-6.54h.97v.99h.07c.12-.32.33-.59.65-.79.31-.2.66-.3,1.06-.3.07,0,.17,0,.28,0,.11,0,.2,0,.25.01v1.02s-.11-.02-.23-.04-.25-.03-.38-.03c-.32,0-.6.07-.85.2-.25.13-.44.31-.59.54s-.22.5-.22.79v4.14h-1Z"/>
      <path class="cls-5" d="m15.12,123.69c-.42,0-.79-.08-1.13-.24-.34-.16-.61-.39-.81-.69-.2-.3-.3-.66-.3-1.09,0-.38.07-.68.22-.91s.35-.42.59-.55c.25-.13.52-.23.82-.3s.6-.12.91-.16c.4-.05.72-.09.97-.12.25-.03.43-.07.54-.14.12-.07.17-.18.17-.34v-.03c0-.42-.11-.75-.34-.98-.23-.23-.58-.35-1.04-.35s-.86.11-1.13.32-.46.43-.58.67l-.96-.34c.17-.4.4-.71.68-.93.29-.22.6-.38.94-.47.34-.09.67-.13,1-.13.21,0,.45.03.73.08.27.05.54.15.8.3.26.15.47.38.64.69.17.31.26.72.26,1.24v4.31h-1.01v-.89h-.05c-.07.14-.18.29-.34.46-.16.16-.37.3-.64.41-.26.11-.59.17-.97.17Zm.15-.9c.4,0,.73-.08,1.01-.23s.48-.36.62-.6.21-.51.21-.78v-.92c-.04.05-.14.1-.28.14-.14.04-.31.08-.49.11-.19.03-.37.06-.54.08s-.32.04-.42.05c-.26.03-.5.09-.73.16-.23.08-.41.19-.54.34-.14.15-.21.35-.21.61,0,.35.13.61.39.79.26.18.59.27.99.27Z"/>
      <path class="cls-5" d="m22.62,123.68c-.61,0-1.14-.14-1.58-.43s-.78-.69-1.02-1.2c-.24-.51-.36-1.09-.36-1.74s.12-1.25.37-1.76c.25-.51.59-.91,1.03-1.2.44-.29.96-.43,1.55-.43.46,0,.88.09,1.24.26.37.17.67.41.91.72.24.31.38.67.44,1.07h-1.01c-.08-.3-.25-.56-.51-.79s-.62-.35-1.06-.35c-.39,0-.73.1-1.03.3s-.52.49-.69.86c-.16.37-.25.8-.25,1.29s.08.95.24,1.32c.16.38.39.67.68.87.29.21.64.31,1.04.31.26,0,.5-.05.71-.14s.39-.22.54-.39c.15-.17.25-.38.32-.61h1.01c-.06.39-.2.73-.42,1.04-.22.31-.52.55-.88.73-.37.18-.79.27-1.27.27Z"/>
      <path class="cls-5" d="m26.66,123.54v-8.73h1v8.73h-1Zm.94-2.39l-.02-1.25h.21l2.86-2.91h1.24l-3.05,3.08h-.09l-1.16,1.07Zm3.22,2.39l-2.56-3.24.72-.7,3.12,3.94h-1.28Z"/>
      <path class="cls-5" d="m35.66,123.68c-.63,0-1.17-.14-1.63-.42-.46-.28-.81-.67-1.05-1.18-.25-.5-.37-1.09-.37-1.76s.12-1.26.37-1.77c.25-.51.59-.91,1.03-1.2.44-.29.96-.43,1.55-.43.34,0,.68.06,1.01.17.33.11.63.3.91.55.27.25.49.59.65,1.01s.24.93.24,1.54v.43h-5.05v-.87h4.02c0-.37-.07-.7-.22-.99-.15-.29-.35-.52-.62-.69s-.58-.25-.95-.25c-.4,0-.75.1-1.04.3-.29.2-.51.45-.67.77-.16.32-.23.65-.23,1.01v.58c0,.5.09.91.26,1.26.17.34.41.6.72.78.31.18.66.27,1.07.27.26,0,.5-.04.72-.11s.4-.19.56-.34.28-.34.36-.57l.97.27c-.1.33-.27.62-.52.87-.24.25-.54.44-.89.58s-.75.21-1.2.21Z"/>
      <path class="cls-5" d="m42.75,117v.85h-3.39v-.85h3.39Zm-2.4-1.57h1.01v6.24c0,.28.04.5.13.64s.19.23.32.28c.13.05.27.07.42.07.11,0,.2,0,.27-.02.07-.01.13-.02.17-.03l.21.9c-.07.03-.16.05-.29.08s-.28.04-.46.04c-.28,0-.56-.06-.83-.18-.27-.12-.5-.31-.67-.56s-.27-.57-.27-.95v-6.51Z"/>
      <path class="cls-5" d="m48.78,118.46l-.9.26c-.06-.15-.14-.3-.25-.44s-.26-.26-.45-.36-.43-.14-.72-.14c-.4,0-.73.09-1,.27s-.4.42-.4.7c0,.25.09.45.27.59s.47.27.85.36l.97.24c.58.14,1.02.36,1.31.65.29.29.43.67.43,1.12,0,.38-.11.71-.32,1-.21.3-.51.53-.9.7-.38.17-.83.26-1.34.26-.67,0-1.22-.14-1.66-.43s-.71-.71-.83-1.27l.95-.24c.09.35.26.62.52.79.25.18.59.26,1,.26.47,0,.84-.1,1.12-.3.28-.2.42-.44.42-.72,0-.23-.08-.42-.24-.57-.16-.15-.4-.27-.73-.35l-1.09-.25c-.6-.14-1.04-.36-1.32-.66-.28-.3-.42-.68-.42-1.13,0-.37.1-.7.31-.98s.49-.51.86-.67.77-.24,1.23-.24c.65,0,1.16.14,1.53.43.37.28.63.66.79,1.12Z"/>
      <path class="cls-5" d="m58.43,118.46l-.9.26c-.06-.15-.14-.3-.25-.44s-.26-.26-.45-.36-.43-.14-.72-.14c-.4,0-.73.09-1,.27s-.4.42-.4.7c0,.25.09.45.27.59s.47.27.85.36l.97.24c.58.14,1.02.36,1.31.65.29.29.43.67.43,1.12,0,.38-.11.71-.32,1-.21.3-.51.53-.9.7-.38.17-.83.26-1.34.26-.67,0-1.22-.14-1.66-.43s-.71-.71-.83-1.27l.95-.24c.09.35.26.62.52.79.25.18.59.26,1,.26.47,0,.84-.1,1.12-.3.28-.2.42-.44.42-.72,0-.23-.08-.42-.24-.57-.16-.15-.4-.27-.73-.35l-1.09-.25c-.6-.14-1.04-.36-1.32-.66-.28-.3-.42-.68-.42-1.13,0-.37.1-.7.31-.98s.49-.51.86-.67.77-.24,1.23-.24c.65,0,1.16.14,1.53.43.37.28.63.66.79,1.12Z"/>
      <path class="cls-5" d="m61.55,123.54l-1.99-6.54h1.06l1.42,5.01h.07l1.4-5.01h1.07l1.38,4.99h.07l1.42-4.99h1.06l-1.99,6.54h-.99l-1.43-5.03h-.1l-1.43,5.03h-.99Z"/>
      <path class="cls-5" d="m70.33,115.9c-.2,0-.36-.07-.5-.2-.14-.13-.21-.29-.21-.48s.07-.35.21-.48c.14-.13.31-.2.5-.2s.36.07.5.2c.14.13.21.29.21.48s-.07.35-.21.48c-.14.13-.31.2-.5.2Zm-.51,7.64v-6.54h1v6.54h-1Z"/>
      <path class="cls-5" d="m75.51,117v.85h-3.39v-.85h3.39Zm-2.4-1.57h1.01v6.24c0,.28.04.5.13.64s.19.23.32.28c.13.05.27.07.42.07.11,0,.2,0,.27-.02.07-.01.13-.02.17-.03l.21.9c-.07.03-.16.05-.29.08s-.28.04-.46.04c-.28,0-.56-.06-.83-.18-.27-.12-.5-.31-.67-.56s-.27-.57-.27-.95v-6.51Z"/>
      <path class="cls-5" d="m79.62,123.68c-.61,0-1.14-.14-1.58-.43s-.78-.69-1.02-1.2c-.24-.51-.36-1.09-.36-1.74s.12-1.25.37-1.76c.25-.51.59-.91,1.03-1.2.44-.29.96-.43,1.55-.43.46,0,.88.09,1.24.26.37.17.67.41.91.72.24.31.38.67.44,1.07h-1.01c-.08-.3-.25-.56-.51-.79s-.62-.35-1.06-.35c-.39,0-.73.1-1.03.3s-.52.49-.69.86c-.16.37-.25.8-.25,1.29s.08.95.24,1.32c.16.38.39.67.68.87.29.21.64.31,1.04.31.26,0,.5-.05.71-.14s.39-.22.54-.39c.15-.17.25-.38.32-.61h1.01c-.06.39-.2.73-.42,1.04-.22.31-.52.55-.88.73-.37.18-.79.27-1.27.27Z"/>
      <path class="cls-5" d="m84.66,119.6v3.94h-1v-8.73h1v3.2h.09c.15-.34.38-.61.69-.81.31-.2.72-.3,1.23-.3.45,0,.84.09,1.17.27s.6.45.78.81c.19.36.28.83.28,1.39v4.16h-1.01v-4.09c0-.52-.13-.92-.4-1.21s-.64-.43-1.11-.43c-.33,0-.62.07-.88.21-.26.14-.46.34-.61.61-.15.27-.22.59-.22.97Z"/>
      <path class="cls-5" d="m93.49,123.68c-.63,0-1.17-.14-1.63-.42-.46-.28-.81-.67-1.05-1.18-.25-.5-.37-1.09-.37-1.76s.12-1.26.37-1.77c.25-.51.59-.91,1.03-1.2.44-.29.96-.43,1.55-.43.34,0,.68.06,1.01.17.33.11.63.3.91.55.27.25.49.59.65,1.01s.24.93.24,1.54v.43h-5.05v-.87h4.02c0-.37-.07-.7-.22-.99-.15-.29-.35-.52-.62-.69s-.58-.25-.95-.25c-.4,0-.75.1-1.04.3-.29.2-.51.45-.67.77-.16.32-.23.65-.23,1.01v.58c0,.5.09.91.26,1.26.17.34.41.6.72.78.31.18.66.27,1.07.27.26,0,.5-.04.72-.11s.4-.19.56-.34.28-.34.36-.57l.97.27c-.1.33-.27.62-.52.87-.24.25-.54.44-.89.58s-.75.21-1.2.21Z"/>
      <path class="cls-5" d="m100.21,123.68c-.54,0-1.03-.14-1.44-.42-.42-.28-.74-.67-.98-1.18-.24-.51-.35-1.11-.35-1.8s.12-1.28.35-1.79c.24-.51.56-.9.98-1.17.42-.28.91-.41,1.46-.41.43,0,.76.07,1.01.21.25.14.44.3.57.48s.24.32.31.44h.09v-3.22h1v8.73h-.97v-1.01h-.12c-.07.12-.18.27-.32.45-.14.18-.33.34-.58.48s-.59.21-1.01.21Zm.14-.9c.4,0,.74-.11,1.02-.32.28-.21.49-.51.64-.88.14-.38.22-.81.22-1.31s-.07-.92-.21-1.29c-.14-.37-.35-.65-.63-.86s-.62-.31-1.03-.31-.78.11-1.06.33c-.28.22-.49.51-.63.88-.14.37-.21.79-.21,1.25s.07.89.22,1.27c.14.38.36.68.64.9.28.22.63.33,1.05.33Z"/>
      <path class="cls-5" d="m3.77,131.4v.85H.38v-.85h3.39Zm-2.4-1.57h1.01v6.24c0,.28.04.5.13.64s.19.23.32.28c.13.05.27.07.42.07.11,0,.2,0,.27-.02.07-.01.13-.02.17-.03l.21.9c-.07.03-.16.05-.29.08-.12.03-.28.04-.46.04-.28,0-.56-.06-.83-.18-.27-.12-.5-.31-.67-.56s-.27-.57-.27-.95v-6.51Z"/>
      <path class="cls-5" d="m7.88,138.08c-.59,0-1.11-.14-1.55-.42s-.79-.67-1.04-1.18c-.25-.51-.37-1.1-.37-1.77s.12-1.28.37-1.79c.25-.51.6-.9,1.04-1.18s.96-.42,1.55-.42,1.11.14,1.55.42.79.68,1.04,1.18c.25.51.37,1.1.37,1.79s-.12,1.27-.37,1.77c-.25.51-.6.9-1.04,1.18s-.96.42-1.55.42Zm0-.9c.45,0,.82-.12,1.11-.34.29-.23.5-.53.64-.91.14-.38.21-.78.21-1.22s-.07-.84-.21-1.22c-.14-.38-.35-.68-.64-.92-.29-.23-.66-.35-1.11-.35s-.82.12-1.11.35c-.29.23-.5.54-.64.92-.14.38-.21.79-.21,1.22s.07.84.21,1.22c.14.38.35.68.64.91.29.23.66.34,1.11.34Z"/>
      <path class="cls-5" d="m16.94,129.21v8.73h-1.06v-8.73h1.06Z"/>
      <path class="cls-5" d="m19.93,134v3.94h-1v-6.55h.97v1.02h.09c.15-.33.39-.6.7-.8s.72-.3,1.21-.3c.44,0,.83.09,1.16.27s.59.45.78.82.28.83.28,1.38v4.16h-1.01v-4.09c0-.51-.13-.92-.4-1.2-.27-.29-.63-.43-1.1-.43-.32,0-.61.07-.86.21-.25.14-.45.34-.59.61-.14.27-.22.59-.22.97Z"/>
      <path class="cls-5" d="m28.79,131.4v.85h-3.39v-.85h3.39Zm-2.4-1.57h1.01v6.24c0,.28.04.5.13.64s.19.23.32.28c.13.05.27.07.42.07.11,0,.2,0,.27-.02.07-.01.13-.02.17-.03l.21.9c-.07.03-.16.05-.29.08-.12.03-.28.04-.46.04-.28,0-.56-.06-.83-.18-.27-.12-.5-.31-.67-.56s-.27-.57-.27-.95v-6.51Z"/>
      <path class="cls-5" d="m32.98,138.08c-.63,0-1.17-.14-1.63-.42-.46-.28-.81-.67-1.05-1.18-.25-.5-.37-1.09-.37-1.76s.12-1.26.37-1.78c.25-.51.59-.91,1.03-1.2.44-.29.96-.43,1.55-.43.34,0,.68.06,1.01.17.33.11.63.3.91.55.27.25.49.59.65,1.01.16.42.24.93.24,1.54v.43h-5.05v-.87h4.02c0-.37-.07-.7-.22-.99s-.35-.52-.62-.69c-.27-.17-.58-.25-.95-.25-.4,0-.75.1-1.04.3-.29.2-.51.45-.67.77s-.23.65-.23,1.01v.58c0,.49.09.91.26,1.25.17.34.41.6.72.78.31.18.66.27,1.07.27.26,0,.5-.04.72-.11s.4-.19.56-.34c.16-.15.28-.34.36-.57l.97.27c-.1.33-.27.62-.52.87-.24.25-.54.44-.89.58s-.75.21-1.2.21Z"/>
      <path class="cls-5" d="m37.23,137.94v-6.55h.97v.99h.07c.12-.32.33-.59.65-.79.31-.2.66-.3,1.06-.3.07,0,.17,0,.28,0,.11,0,.2,0,.25.01v1.02s-.11-.02-.23-.04-.25-.03-.38-.03c-.32,0-.6.07-.85.2-.25.13-.44.31-.59.55s-.22.5-.22.79v4.14h-1Z"/>
      <path class="cls-5" d="m47.98,131.4v.85h-3.53v-.85h3.53Zm-2.47,6.55v-7.45c0-.38.09-.69.26-.94.18-.25.4-.44.69-.56s.58-.19.89-.19c.25,0,.45.02.61.06.16.04.27.08.35.11l-.29.87c-.05-.02-.12-.04-.21-.06-.09-.03-.21-.04-.35-.04-.33,0-.57.08-.72.25-.15.17-.22.41-.22.74v7.21h-1.01Z"/>
      <path class="cls-5" d="m51.78,138.08c-.59,0-1.11-.14-1.55-.42s-.79-.67-1.04-1.18c-.25-.51-.37-1.1-.37-1.77s.12-1.28.37-1.79c.25-.51.6-.9,1.04-1.18s.96-.42,1.55-.42,1.11.14,1.55.42.79.68,1.04,1.18c.25.51.37,1.1.37,1.79s-.12,1.27-.37,1.77c-.25.51-.6.9-1.04,1.18s-.96.42-1.55.42Zm0-.9c.45,0,.82-.12,1.11-.34.29-.23.5-.53.64-.91.14-.38.21-.78.21-1.22s-.07-.84-.21-1.22c-.14-.38-.35-.68-.64-.92-.29-.23-.66-.35-1.11-.35s-.82.12-1.11.35c-.29.23-.5.54-.64.92-.14.38-.21.79-.21,1.22s.07.84.21,1.22c.14.38.35.68.64.91.29.23.66.34,1.11.34Z"/>
      <path class="cls-5" d="m57.29,134v3.94h-1v-6.55h.97v1.02h.09c.15-.33.39-.6.7-.8s.72-.3,1.21-.3c.44,0,.83.09,1.16.27s.59.45.78.82.28.83.28,1.38v4.16h-1.01v-4.09c0-.51-.13-.92-.4-1.2-.27-.29-.63-.43-1.1-.43-.32,0-.61.07-.86.21-.25.14-.45.34-.59.61-.14.27-.22.59-.22.97Z"/>
      <path class="cls-5" d="m66.15,131.4v.85h-3.39v-.85h3.39Zm-2.4-1.57h1.01v6.24c0,.28.04.5.13.64s.19.23.32.28c.13.05.27.07.42.07.11,0,.2,0,.27-.02.07-.01.13-.02.17-.03l.21.9c-.07.03-.16.05-.29.08-.12.03-.28.04-.46.04-.28,0-.56-.06-.83-.18-.27-.12-.5-.31-.67-.56s-.27-.57-.27-.95v-6.51Z"/>
      <path class="cls-5" d="m72.97,138.09c-.42,0-.79-.08-1.13-.24-.34-.16-.61-.39-.81-.69-.2-.3-.3-.66-.3-1.09,0-.38.07-.68.22-.91s.35-.42.59-.55.52-.23.82-.3c.3-.07.6-.12.91-.16.4-.05.72-.09.97-.12.25-.03.43-.07.54-.14.12-.07.17-.18.17-.34v-.03c0-.42-.11-.75-.34-.98-.23-.23-.58-.35-1.04-.35s-.86.1-1.13.31c-.27.21-.46.44-.58.67l-.96-.34c.17-.4.4-.71.68-.93.29-.22.6-.38.94-.47.34-.09.67-.13,1-.13.21,0,.45.02.73.07.27.05.54.15.8.3.26.15.47.39.64.7.17.31.26.72.26,1.24v4.31h-1.01v-.89h-.05c-.07.14-.18.29-.34.46s-.37.3-.64.41c-.26.11-.59.17-.97.17Zm.15-.9c.4,0,.73-.08,1.01-.23s.48-.36.62-.61.21-.51.21-.78v-.92c-.04.05-.14.1-.28.14s-.31.08-.49.11c-.19.03-.37.06-.54.08-.17.02-.32.04-.42.05-.26.03-.5.09-.73.16-.23.08-.41.19-.54.34-.14.15-.21.35-.21.61,0,.35.13.61.39.79.26.18.59.27.99.27Z"/>
      <path class="cls-5" d="m78.82,134v3.94h-1v-6.55h.97v1.02h.09c.15-.33.39-.6.7-.8s.72-.3,1.21-.3c.44,0,.83.09,1.16.27s.59.45.78.82.28.83.28,1.38v4.16h-1.01v-4.09c0-.51-.13-.92-.4-1.2-.27-.29-.63-.43-1.1-.43-.32,0-.61.07-.86.21-.25.14-.45.34-.59.61-.14.27-.22.59-.22.97Z"/>
      <path class="cls-5" d="m87.31,138.08c-.54,0-1.03-.14-1.44-.42-.42-.28-.74-.67-.98-1.18-.24-.51-.35-1.11-.35-1.8s.12-1.28.35-1.79c.24-.51.56-.9.98-1.17.42-.28.91-.41,1.46-.41.43,0,.76.07,1.01.21.25.14.44.3.57.48s.24.32.31.44h.09v-3.22h1v8.73h-.97v-1.01h-.12c-.07.12-.18.27-.32.45-.14.18-.33.34-.58.48s-.59.21-1.01.21Zm.14-.9c.4,0,.74-.11,1.02-.32.28-.21.49-.51.64-.88.14-.38.22-.81.22-1.31s-.07-.92-.21-1.28c-.14-.37-.35-.66-.63-.86-.28-.21-.62-.31-1.03-.31s-.78.11-1.06.33c-.28.22-.49.51-.63.88s-.21.79-.21,1.25.07.89.22,1.27c.14.38.36.68.64.9.28.22.63.33,1.05.33Z"/>
      <path class="cls-5" d="m.92,152.34v-6.54h.97v.99h.07c.12-.32.33-.59.65-.79.31-.2.66-.3,1.06-.3.07,0,.17,0,.28,0,.11,0,.2,0,.25.01v1.02s-.11-.02-.23-.04-.25-.03-.38-.03c-.32,0-.6.07-.85.2-.25.13-.44.31-.59.54s-.22.5-.22.79v4.14H.92Z"/>
      <path class="cls-5" d="m7.93,152.48c-.63,0-1.17-.14-1.63-.42-.46-.28-.81-.67-1.05-1.18-.25-.5-.37-1.09-.37-1.76s.12-1.26.37-1.77c.25-.51.59-.91,1.03-1.2.44-.29.96-.43,1.55-.43.34,0,.68.06,1.01.17.33.11.63.3.91.55.27.25.49.59.65,1.01s.24.93.24,1.54v.43h-5.05v-.87h4.02c0-.37-.07-.7-.22-.99-.15-.29-.35-.52-.62-.69s-.58-.25-.95-.25c-.4,0-.75.1-1.04.3-.29.2-.51.45-.67.77-.16.32-.23.65-.23,1.01v.58c0,.5.09.91.26,1.26.17.34.41.6.72.78.31.18.66.27,1.07.27.26,0,.5-.04.72-.11s.4-.19.56-.34.28-.34.36-.57l.97.27c-.1.33-.27.62-.52.87-.24.25-.54.44-.89.58s-.75.21-1.2.21Z"/>
      <path class="cls-5" d="m16.81,147.26l-.9.26c-.06-.15-.14-.3-.25-.44s-.26-.26-.45-.36-.43-.14-.72-.14c-.4,0-.73.09-1,.27s-.4.42-.4.7c0,.25.09.45.27.59s.47.27.85.36l.97.24c.58.14,1.02.36,1.31.65.29.29.43.67.43,1.12,0,.38-.11.71-.32,1-.21.3-.51.53-.9.7-.38.17-.83.26-1.34.26-.67,0-1.22-.14-1.66-.43s-.71-.71-.83-1.27l.95-.24c.09.35.26.62.52.79.25.18.59.26,1,.26.47,0,.84-.1,1.12-.3.28-.2.42-.44.42-.72,0-.23-.08-.42-.24-.57-.16-.15-.4-.27-.73-.35l-1.09-.25c-.6-.14-1.04-.36-1.32-.66-.28-.3-.42-.68-.42-1.13,0-.37.1-.7.31-.98s.49-.51.86-.67.77-.24,1.23-.24c.65,0,1.16.14,1.53.43.37.28.63.66.79,1.12Z"/>
      <path class="cls-5" d="m18.95,144.7c-.2,0-.36-.07-.5-.2-.14-.13-.21-.29-.21-.48s.07-.35.21-.48c.14-.13.31-.2.5-.2s.36.07.5.2c.14.13.21.29.21.48s-.07.35-.21.48c-.14.13-.31.2-.5.2Zm-.51,7.64v-6.54h1v6.54h-1Z"/>
      <path class="cls-5" d="m21.1,152.34v-.77l3.72-4.77v-.07h-3.6v-.94h4.89v.8l-3.61,4.74v.07h3.73v.94h-5.13Z"/>
      <path class="cls-5" d="m30.34,152.48c-.63,0-1.17-.14-1.63-.42-.46-.28-.81-.67-1.05-1.18-.25-.5-.37-1.09-.37-1.76s.12-1.26.37-1.77c.25-.51.59-.91,1.03-1.2.44-.29.96-.43,1.55-.43.34,0,.68.06,1.01.17.33.11.63.3.91.55.27.25.49.59.65,1.01s.24.93.24,1.54v.43h-5.05v-.87h4.02c0-.37-.07-.7-.22-.99-.15-.29-.35-.52-.62-.69s-.58-.25-.95-.25c-.4,0-.75.1-1.04.3-.29.2-.51.45-.67.77-.16.32-.23.65-.23,1.01v.58c0,.5.09.91.26,1.26.17.34.41.6.72.78.31.18.66.27,1.07.27.26,0,.5-.04.72-.11s.4-.19.56-.34.28-.34.36-.57l.97.27c-.1.33-.27.62-.52.87-.24.25-.54.44-.89.58s-.75.21-1.2.21Z"/>
      <path class="cls-5" d="m37.06,152.48c-.54,0-1.03-.14-1.44-.42-.42-.28-.74-.67-.98-1.18-.24-.51-.35-1.11-.35-1.8s.12-1.28.35-1.79c.24-.51.56-.9.98-1.17.42-.28.91-.41,1.46-.41.43,0,.76.07,1.01.21.25.14.44.3.57.48s.24.32.31.44h.09v-3.22h1v8.73h-.97v-1.01h-.12c-.07.12-.18.27-.32.45-.14.18-.33.34-.58.48s-.59.21-1.01.21Zm.14-.9c.4,0,.74-.11,1.02-.32.28-.21.49-.51.64-.88.14-.38.22-.81.22-1.31s-.07-.92-.21-1.29c-.14-.37-.35-.65-.63-.86s-.62-.31-1.03-.31-.78.11-1.06.33c-.28.22-.49.51-.63.88-.14.37-.21.79-.21,1.25s.07.89.22,1.27c.14.38.36.68.64.9.28.22.63.33,1.05.33Z"/>
      <path class="cls-5" d="m45.12,143.2l-2.81,10.45h-.92l2.81-10.45h.92Z"/>
      <path class="cls-5" d="m50.95,147.26l-.9.26c-.06-.15-.14-.3-.25-.44s-.26-.26-.45-.36-.43-.14-.72-.14c-.4,0-.73.09-1,.27s-.4.42-.4.7c0,.25.09.45.27.59s.47.27.85.36l.97.24c.58.14,1.02.36,1.31.65.29.29.43.67.43,1.12,0,.38-.11.71-.32,1-.21.3-.51.53-.9.7-.38.17-.83.26-1.34.26-.67,0-1.22-.14-1.66-.43s-.71-.71-.83-1.27l.95-.24c.09.35.26.62.52.79.25.18.59.26,1,.26.47,0,.84-.1,1.12-.3.28-.2.42-.44.42-.72,0-.23-.08-.42-.24-.57-.16-.15-.4-.27-.73-.35l-1.09-.25c-.6-.14-1.04-.36-1.32-.66-.28-.3-.42-.68-.42-1.13,0-.37.1-.7.31-.98s.49-.51.86-.67.77-.24,1.23-.24c.65,0,1.16.14,1.53.43.37.28.63.66.79,1.12Z"/>
      <path class="cls-5" d="m52.58,154.8v-9h.97v1.04h.12c.07-.11.18-.26.31-.44s.32-.34.57-.48c.25-.14.59-.21,1.01-.21.55,0,1.04.14,1.46.41.42.28.75.67.98,1.17.24.51.35,1.1.35,1.79s-.12,1.29-.35,1.8c-.24.51-.56.9-.98,1.18-.42.28-.9.42-1.44.42-.42,0-.76-.07-1.01-.21s-.45-.3-.58-.48c-.14-.18-.24-.33-.32-.45h-.09v3.46h-1Zm.99-5.73c0,.49.07.93.22,1.31.15.38.36.67.64.88.28.21.62.32,1.02.32s.77-.11,1.05-.33c.28-.22.5-.52.64-.9.14-.38.22-.8.22-1.27s-.07-.88-.21-1.25c-.14-.37-.35-.67-.63-.88-.28-.22-.64-.33-1.06-.33s-.75.1-1.03.31-.49.49-.63.86c-.14.37-.21.8-.21,1.29Z"/>
      <path class="cls-5" d="m61.82,152.49c-.42,0-.79-.08-1.13-.24-.34-.16-.61-.39-.81-.69-.2-.3-.3-.66-.3-1.09,0-.38.07-.68.22-.91s.35-.42.59-.55c.25-.13.52-.23.82-.3s.6-.12.91-.16c.4-.05.72-.09.97-.12.25-.03.43-.07.54-.14.12-.07.17-.18.17-.34v-.03c0-.42-.11-.75-.34-.98-.23-.23-.58-.35-1.04-.35s-.86.11-1.13.32-.46.43-.58.67l-.96-.34c.17-.4.4-.71.68-.93.29-.22.6-.38.94-.47.34-.09.67-.13,1-.13.21,0,.45.03.73.08.27.05.54.15.8.3.26.15.47.38.64.69.17.31.26.72.26,1.24v4.31h-1.01v-.89h-.05c-.07.14-.18.29-.34.46-.16.16-.37.3-.64.41-.26.11-.59.17-.97.17Zm.15-.9c.4,0,.73-.08,1.01-.23s.48-.36.62-.6.21-.51.21-.78v-.92c-.04.05-.14.1-.28.14-.14.04-.31.08-.49.11-.19.03-.37.06-.54.08s-.32.04-.42.05c-.26.03-.5.09-.73.16-.23.08-.41.19-.54.34-.14.15-.21.35-.21.61,0,.35.13.61.39.79.26.18.59.27.99.27Z"/>
      <path class="cls-5" d="m69.32,152.48c-.61,0-1.14-.14-1.58-.43s-.78-.69-1.02-1.2c-.24-.51-.36-1.09-.36-1.74s.12-1.25.37-1.76c.25-.51.59-.91,1.03-1.2.44-.29.96-.43,1.55-.43.46,0,.88.09,1.24.26.37.17.67.41.91.72.24.31.38.67.44,1.07h-1.01c-.08-.3-.25-.56-.51-.79s-.62-.35-1.06-.35c-.39,0-.73.1-1.03.3s-.52.49-.69.86c-.16.37-.25.8-.25,1.29s.08.95.24,1.32c.16.38.39.67.68.87.29.21.64.31,1.04.31.26,0,.5-.05.71-.14s.39-.22.54-.39c.15-.17.25-.38.32-.61h1.01c-.06.39-.2.73-.42,1.04-.22.31-.52.55-.88.73-.37.18-.79.27-1.27.27Z"/>
      <path class="cls-5" d="m76.11,152.48c-.63,0-1.17-.14-1.63-.42-.46-.28-.81-.67-1.05-1.18-.25-.5-.37-1.09-.37-1.76s.12-1.26.37-1.77c.25-.51.59-.91,1.03-1.2.44-.29.96-.43,1.55-.43.34,0,.68.06,1.01.17.33.11.63.3.91.55.27.25.49.59.65,1.01s.24.93.24,1.54v.43h-5.05v-.87h4.02c0-.37-.07-.7-.22-.99-.15-.29-.35-.52-.62-.69s-.58-.25-.95-.25c-.4,0-.75.1-1.04.3-.29.2-.51.45-.67.77-.16.32-.23.65-.23,1.01v.58c0,.5.09.91.26,1.26.17.34.41.6.72.78.31.18.66.27,1.07.27.26,0,.5-.04.72-.11s.4-.19.56-.34.28-.34.36-.57l.97.27c-.1.33-.27.62-.52.87-.24.25-.54.44-.89.58s-.75.21-1.2.21Z"/>
      <path class="cls-5" d="m82.82,152.48c-.54,0-1.03-.14-1.44-.42-.42-.28-.74-.67-.98-1.18-.24-.51-.35-1.11-.35-1.8s.12-1.28.35-1.79c.24-.51.56-.9.98-1.17.42-.28.91-.41,1.46-.41.43,0,.76.07,1.01.21.25.14.44.3.57.48s.24.32.31.44h.09v-3.22h1v8.73h-.97v-1.01h-.12c-.07.12-.18.27-.32.45-.14.18-.33.34-.58.48s-.59.21-1.01.21Zm.14-.9c.4,0,.74-.11,1.02-.32.28-.21.49-.51.64-.88.14-.38.22-.81.22-1.31s-.07-.92-.21-1.29c-.14-.37-.35-.65-.63-.86s-.62-.31-1.03-.31-.78.11-1.06.33c-.28.22-.49.51-.63.88-.14.37-.21.79-.21,1.25s.07.89.22,1.27c.14.38.36.68.64.9.28.22.63.33,1.05.33Z"/>
      <path class="cls-5" d="m.92,169.2v-9h.97v1.04h.12c.07-.11.18-.26.31-.44s.32-.34.57-.48c.25-.14.59-.21,1.01-.21.55,0,1.04.14,1.46.41.42.28.75.67.98,1.17.24.51.35,1.1.35,1.79s-.12,1.29-.35,1.8c-.24.51-.56.9-.98,1.18-.42.28-.9.42-1.44.42-.42,0-.76-.07-1.01-.21s-.45-.3-.58-.48c-.14-.18-.24-.33-.32-.45h-.09v3.46H.92Zm.99-5.73c0,.49.07.93.22,1.31.15.38.36.67.64.88.28.21.62.32,1.02.32s.77-.11,1.05-.33c.28-.22.5-.52.64-.9.14-.38.22-.8.22-1.27s-.07-.88-.21-1.25c-.14-.37-.35-.67-.63-.88-.28-.22-.64-.33-1.06-.33s-.75.1-1.03.31-.49.49-.63.86c-.14.37-.21.8-.21,1.29Z"/>
      <path class="cls-5" d="m8.23,166.74v-6.54h.97v.99h.07c.12-.32.33-.59.65-.79.31-.2.66-.3,1.06-.3.07,0,.17,0,.28,0,.11,0,.2,0,.25.01v1.02s-.11-.02-.23-.04-.25-.03-.38-.03c-.32,0-.6.07-.85.2-.25.13-.44.31-.59.54s-.22.5-.22.79v4.14h-1Z"/>
      <path class="cls-5" d="m15.15,166.88c-.59,0-1.11-.14-1.55-.42s-.79-.67-1.04-1.18c-.25-.51-.37-1.1-.37-1.77s.12-1.28.37-1.79c.25-.51.6-.9,1.04-1.19s.96-.42,1.55-.42,1.11.14,1.55.42.79.68,1.04,1.19c.25.51.37,1.1.37,1.79s-.12,1.27-.37,1.77c-.25.51-.6.9-1.04,1.18s-.96.42-1.55.42Zm0-.9c.45,0,.82-.12,1.11-.35.29-.23.5-.53.64-.91.14-.38.21-.78.21-1.22s-.07-.85-.21-1.22c-.14-.38-.35-.68-.64-.92-.29-.23-.66-.35-1.11-.35s-.82.12-1.11.35c-.29.23-.5.54-.64.92-.14.38-.21.79-.21,1.22s.07.84.21,1.22c.14.38.35.68.64.91.29.23.66.35,1.11.35Z"/>
      <path class="cls-5" d="m19.65,169.2v-9h.97v1.04h.12c.07-.11.18-.26.31-.44s.32-.34.57-.48c.25-.14.59-.21,1.01-.21.55,0,1.04.14,1.46.41.42.28.75.67.98,1.17.24.51.35,1.1.35,1.79s-.12,1.29-.35,1.8c-.24.51-.56.9-.98,1.18-.42.28-.9.42-1.44.42-.42,0-.76-.07-1.01-.21s-.45-.3-.58-.48c-.14-.18-.24-.33-.32-.45h-.09v3.46h-1Zm.99-5.73c0,.49.07.93.22,1.31.15.38.36.67.64.88.28.21.62.32,1.02.32s.77-.11,1.05-.33c.28-.22.5-.52.64-.9.14-.38.22-.8.22-1.27s-.07-.88-.21-1.25c-.14-.37-.35-.67-.63-.88-.28-.22-.64-.33-1.06-.33s-.75.1-1.03.31-.49.49-.63.86c-.14.37-.21.8-.21,1.29Z"/>
      <path class="cls-5" d="m29.62,166.88c-.59,0-1.11-.14-1.55-.42s-.79-.67-1.04-1.18c-.25-.51-.37-1.1-.37-1.77s.12-1.28.37-1.79c.25-.51.6-.9,1.04-1.19s.96-.42,1.55-.42,1.11.14,1.55.42.79.68,1.04,1.19c.25.51.37,1.1.37,1.79s-.12,1.27-.37,1.77c-.25.51-.6.9-1.04,1.18s-.96.42-1.55.42Zm0-.9c.45,0,.82-.12,1.11-.35.29-.23.5-.53.64-.91.14-.38.21-.78.21-1.22s-.07-.85-.21-1.22c-.14-.38-.35-.68-.64-.92-.29-.23-.66-.35-1.11-.35s-.82.12-1.11.35c-.29.23-.5.54-.64.92-.14.38-.21.79-.21,1.22s.07.84.21,1.22c.14.38.35.68.64.91.29.23.66.35,1.11.35Z"/>
      <path class="cls-5" d="m34.12,166.74v-6.54h.97v.99h.07c.12-.32.33-.59.65-.79.31-.2.66-.3,1.06-.3.07,0,.17,0,.28,0,.11,0,.2,0,.25.01v1.02s-.11-.02-.23-.04-.25-.03-.38-.03c-.32,0-.6.07-.85.2-.25.13-.44.31-.59.54s-.22.5-.22.79v4.14h-1Z"/>
      <path class="cls-5" d="m41.85,160.2v.85h-3.39v-.85h3.39Zm-2.4-1.57h1.01v6.24c0,.28.04.5.13.64s.19.23.32.28c.13.05.27.07.42.07.11,0,.2,0,.27-.02.07-.01.13-.02.17-.03l.21.9c-.07.03-.16.05-.29.08s-.28.04-.46.04c-.28,0-.56-.06-.83-.18-.27-.12-.5-.31-.67-.56s-.27-.57-.27-.95v-6.51Z"/>
      <path class="cls-5" d="m43.87,159.1c-.2,0-.36-.07-.5-.2-.14-.13-.21-.29-.21-.48s.07-.35.21-.48c.14-.13.31-.2.5-.2s.36.07.5.2c.14.13.21.29.21.48s-.07.35-.21.48c-.14.13-.31.2-.5.2Zm-.51,7.64v-6.54h1v6.54h-1Z"/>
      <path class="cls-5" d="m48.87,166.88c-.59,0-1.11-.14-1.55-.42s-.79-.67-1.04-1.18c-.25-.51-.37-1.1-.37-1.77s.12-1.28.37-1.79c.25-.51.6-.9,1.04-1.19s.96-.42,1.55-.42,1.11.14,1.55.42.79.68,1.04,1.19c.25.51.37,1.1.37,1.79s-.12,1.27-.37,1.77c-.25.51-.6.9-1.04,1.18s-.96.42-1.55.42Zm0-.9c.45,0,.82-.12,1.11-.35.29-.23.5-.53.64-.91.14-.38.21-.78.21-1.22s-.07-.85-.21-1.22c-.14-.38-.35-.68-.64-.92-.29-.23-.66-.35-1.11-.35s-.82.12-1.11.35c-.29.23-.5.54-.64.92-.14.38-.21.79-.21,1.22s.07.84.21,1.22c.14.38.35.68.64.91.29.23.66.35,1.11.35Z"/>
      <path class="cls-5" d="m54.37,162.8v3.94h-1v-6.54h.97v1.02h.09c.15-.33.39-.6.7-.8s.72-.3,1.21-.3c.44,0,.83.09,1.16.27.33.18.59.45.78.82.18.37.28.83.28,1.38v4.16h-1.01v-4.09c0-.51-.13-.92-.4-1.2-.27-.29-.63-.43-1.1-.43-.32,0-.61.07-.86.21-.25.14-.45.34-.59.61-.14.27-.22.59-.22.97Z"/>
      <path class="cls-5" d="m62.32,166.89c-.42,0-.79-.08-1.13-.24-.34-.16-.61-.39-.81-.69-.2-.3-.3-.66-.3-1.09,0-.38.07-.68.22-.91s.35-.42.59-.55c.25-.13.52-.23.82-.3s.6-.12.91-.16c.4-.05.72-.09.97-.12.25-.03.43-.07.54-.14.12-.07.17-.18.17-.34v-.03c0-.42-.11-.75-.34-.98-.23-.23-.58-.35-1.04-.35s-.86.11-1.13.32-.46.43-.58.67l-.96-.34c.17-.4.4-.71.68-.93.29-.22.6-.38.94-.47.34-.09.67-.13,1-.13.21,0,.45.03.73.08.27.05.54.15.8.3.26.15.47.38.64.69.17.31.26.72.26,1.24v4.31h-1.01v-.89h-.05c-.07.14-.18.29-.34.46-.16.16-.37.3-.64.41-.26.11-.59.17-.97.17Zm.15-.9c.4,0,.73-.08,1.01-.23s.48-.36.62-.6.21-.51.21-.78v-.92c-.04.05-.14.1-.28.14-.14.04-.31.08-.49.11-.19.03-.37.06-.54.08s-.32.04-.42.05c-.26.03-.5.09-.73.16-.23.08-.41.19-.54.34-.14.15-.21.35-.21.61,0,.35.13.61.39.79.26.18.59.27.99.27Z"/>
      <path class="cls-5" d="m68.16,158.01v8.73h-1v-8.73h1Z"/>
      <path class="cls-5" d="m71.01,158.01v8.73h-1v-8.73h1Z"/>
      <path class="cls-5" d="m73.5,169.2c-.17,0-.32-.01-.46-.04-.13-.03-.23-.05-.28-.08l.26-.89c.24.06.46.08.65.07.19-.02.35-.1.5-.25.15-.15.28-.39.4-.72l.19-.51-2.42-6.58h1.09l1.81,5.22h.07l1.81-5.22h1.09l-2.78,7.5c-.12.34-.28.62-.46.84-.19.22-.4.39-.64.5-.24.11-.52.16-.82.16Z"/>
    </g>
    <g>
      <path class="cls-5" d="m103.4,2.57v-.94h6.55v.94h-2.74v7.79h-1.06V2.57h-2.75Z"/>
      <path class="cls-5" d="m111.96,2.73c-.2,0-.36-.07-.5-.2-.14-.13-.21-.29-.21-.48s.07-.35.21-.48c.14-.13.31-.2.5-.2s.36.07.5.2c.14.13.21.29.21.48s-.07.35-.21.48c-.14.13-.31.2-.5.2Zm-.51,7.64V3.82h1v6.55h-1Z"/>
      <path class="cls-5" d="m116.95,10.5c-.61,0-1.14-.14-1.58-.43-.44-.29-.78-.69-1.02-1.2-.24-.51-.36-1.09-.36-1.74s.12-1.25.37-1.76c.25-.51.59-.91,1.03-1.2.44-.29.96-.43,1.55-.43.46,0,.88.09,1.24.26s.67.41.91.72c.24.31.38.67.44,1.07h-1.01c-.08-.3-.25-.56-.51-.79s-.62-.35-1.06-.35c-.39,0-.73.1-1.03.3s-.52.49-.69.86c-.16.37-.25.8-.25,1.29s.08.95.24,1.32c.16.38.39.67.68.87s.64.31,1.04.31c.26,0,.5-.05.71-.14s.39-.22.54-.39c.15-.17.25-.38.32-.61h1.01c-.06.39-.2.73-.42,1.04-.22.31-.52.55-.88.73s-.79.27-1.27.27Z"/>
      <path class="cls-5" d="m120.99,10.36V1.64h1v8.73h-1Zm.94-2.39l-.02-1.24h.21l2.86-2.91h1.24l-3.05,3.08h-.09l-1.16,1.07Zm3.22,2.39l-2.56-3.24.72-.7,3.12,3.94h-1.28Z"/>
      <path class="cls-5" d="m132.82,10.52c-.42,0-.79-.08-1.13-.24-.34-.16-.61-.39-.81-.69-.2-.3-.3-.66-.3-1.09,0-.38.07-.68.22-.91s.35-.42.59-.55c.25-.13.52-.23.82-.3.3-.07.6-.12.91-.16.4-.05.72-.09.97-.12.25-.03.43-.07.54-.14.12-.07.17-.18.17-.34v-.03c0-.42-.11-.75-.34-.98s-.58-.35-1.04-.35-.86.1-1.13.31c-.27.21-.46.44-.58.67l-.96-.34c.17-.4.4-.71.68-.93.29-.22.6-.38.94-.47.34-.09.67-.13,1-.13.21,0,.45.02.73.07.27.05.54.15.8.3.26.15.47.39.64.69.17.31.26.72.26,1.24v4.31h-1.01v-.89h-.05c-.07.14-.18.29-.34.46-.16.16-.37.3-.64.41-.26.11-.59.17-.97.17Zm.15-.9c.4,0,.73-.08,1.01-.23s.48-.36.62-.6.21-.51.21-.78v-.92c-.04.05-.14.1-.28.14-.14.04-.31.08-.49.11-.19.03-.37.06-.54.08-.17.02-.32.04-.42.05-.26.03-.5.09-.73.16-.23.08-.41.19-.54.34s-.21.35-.21.61c0,.35.13.61.39.79.26.18.59.27.99.27Z"/>
      <path class="cls-5" d="m138.67,6.43v3.94h-1V3.82h.97v1.02h.09c.15-.33.39-.6.7-.8s.72-.3,1.21-.3c.44,0,.83.09,1.16.27.33.18.59.45.78.82.18.37.28.83.28,1.38v4.16h-1.01v-4.09c0-.51-.13-.92-.4-1.2-.27-.29-.63-.43-1.1-.43-.32,0-.61.07-.86.21-.25.14-.45.34-.59.61s-.22.59-.22.97Z"/>
      <path class="cls-5" d="m147.16,10.5c-.54,0-1.03-.14-1.44-.42-.42-.28-.74-.67-.98-1.18-.24-.51-.35-1.11-.35-1.8s.12-1.28.35-1.79c.24-.51.56-.9.98-1.17.42-.28.91-.41,1.46-.41.43,0,.76.07,1.01.21.25.14.44.3.57.48s.24.32.31.44h.09V1.64h1v8.73h-.97v-1.01h-.12c-.07.12-.18.27-.32.45-.14.18-.33.34-.58.48s-.59.21-1.01.21Zm.14-.9c.4,0,.74-.11,1.02-.32s.49-.51.64-.88c.14-.38.22-.81.22-1.31s-.07-.92-.21-1.28c-.14-.37-.35-.65-.63-.86-.28-.21-.62-.31-1.03-.31s-.78.11-1.06.33c-.28.22-.49.51-.63.88-.14.37-.21.79-.21,1.25s.07.89.22,1.27c.14.38.36.68.64.9.28.22.63.33,1.05.33Z"/>
      <path class="cls-5" d="m158.17,10.5c-.61,0-1.14-.14-1.58-.43-.44-.29-.78-.69-1.02-1.2-.24-.51-.36-1.09-.36-1.74s.12-1.25.37-1.76c.25-.51.59-.91,1.03-1.2.44-.29.96-.43,1.55-.43.46,0,.88.09,1.24.26s.67.41.91.72c.24.31.38.67.44,1.07h-1.01c-.08-.3-.25-.56-.51-.79s-.62-.35-1.06-.35c-.39,0-.73.1-1.03.3s-.52.49-.69.86c-.16.37-.25.8-.25,1.29s.08.95.24,1.32c.16.38.39.67.68.87s.64.31,1.04.31c.26,0,.5-.05.71-.14s.39-.22.54-.39c.15-.17.25-.38.32-.61h1.01c-.06.39-.2.73-.42,1.04-.22.31-.52.55-.88.73s-.79.27-1.27.27Z"/>
      <path class="cls-5" d="m162.21,10.36V3.82h.97v.99h.07c.12-.32.33-.59.65-.79.31-.2.66-.3,1.06-.3.07,0,.17,0,.28,0,.11,0,.2,0,.25.01v1.02s-.11-.02-.23-.04-.25-.03-.38-.03c-.32,0-.6.07-.85.2-.25.13-.44.31-.59.55s-.22.5-.22.79v4.14h-1Z"/>
      <path class="cls-5" d="m169.13,10.5c-.59,0-1.11-.14-1.55-.42s-.79-.67-1.04-1.18c-.25-.51-.37-1.1-.37-1.77s.12-1.28.37-1.79c.25-.51.6-.9,1.04-1.19s.96-.42,1.55-.42,1.11.14,1.55.42.79.68,1.04,1.19c.25.51.37,1.1.37,1.79s-.12,1.27-.37,1.77c-.25.51-.6.9-1.04,1.18s-.96.42-1.55.42Zm0-.9c.45,0,.82-.12,1.11-.35s.5-.53.64-.91c.14-.38.21-.78.21-1.22s-.07-.85-.21-1.22c-.14-.38-.35-.68-.64-.92s-.66-.35-1.11-.35-.82.12-1.11.35-.5.54-.64.92c-.14.38-.21.79-.21,1.22s.07.84.21,1.22c.14.38.35.68.64.91s.66.35,1.11.35Z"/>
      <path class="cls-5" d="m178.26,5.28l-.9.26c-.06-.15-.14-.3-.25-.44-.11-.14-.26-.26-.45-.36s-.43-.14-.72-.14c-.4,0-.73.09-1,.27-.27.18-.4.42-.4.7,0,.25.09.45.27.59.18.14.47.27.85.36l.97.24c.58.14,1.02.36,1.31.65.29.29.43.67.43,1.12,0,.38-.11.71-.32,1.01-.21.3-.51.53-.9.7-.38.17-.83.26-1.34.26-.67,0-1.22-.14-1.66-.43-.44-.29-.71-.71-.83-1.27l.95-.24c.09.35.26.62.52.79.25.18.59.26,1,.26.47,0,.84-.1,1.12-.3.28-.2.42-.44.42-.72,0-.23-.08-.42-.24-.57s-.4-.27-.73-.35l-1.09-.26c-.6-.14-1.04-.36-1.32-.66-.28-.3-.42-.68-.42-1.13,0-.37.1-.7.31-.98s.49-.51.86-.67c.36-.16.77-.24,1.23-.24.65,0,1.16.14,1.53.43.37.28.63.66.79,1.12Z"/>
      <path class="cls-5" d="m184.54,5.28l-.9.26c-.06-.15-.14-.3-.25-.44-.11-.14-.26-.26-.45-.36s-.43-.14-.72-.14c-.4,0-.73.09-1,.27-.27.18-.4.42-.4.7,0,.25.09.45.27.59.18.14.47.27.85.36l.97.24c.58.14,1.02.36,1.31.65.29.29.43.67.43,1.12,0,.38-.11.71-.32,1.01-.21.3-.51.53-.9.7-.38.17-.83.26-1.34.26-.67,0-1.22-.14-1.66-.43-.44-.29-.71-.71-.83-1.27l.95-.24c.09.35.26.62.52.79.25.18.59.26,1,.26.47,0,.84-.1,1.12-.3.28-.2.42-.44.42-.72,0-.23-.08-.42-.24-.57s-.4-.27-.73-.35l-1.09-.26c-.6-.14-1.04-.36-1.32-.66-.28-.3-.42-.68-.42-1.13,0-.37.1-.7.31-.98s.49-.51.86-.67c.36-.16.77-.24,1.23-.24.65,0,1.16.14,1.53.43.37.28.63.66.79,1.12Z"/>
      <path class="cls-5" d="m189.68,10.36V1.64h1.01v3.22h.08c.07-.11.18-.26.31-.44.13-.18.32-.34.57-.48.25-.14.59-.21,1.01-.21.55,0,1.04.14,1.46.41.42.28.75.67.98,1.17.24.51.35,1.1.35,1.79s-.12,1.29-.35,1.8c-.24.51-.56.9-.98,1.18-.42.28-.9.42-1.44.42-.42,0-.76-.07-1.01-.21s-.45-.3-.58-.48c-.14-.18-.24-.33-.32-.45h-.12v1.01h-.97Zm.99-3.27c0,.49.07.93.22,1.31.14.38.36.67.63.88s.62.32,1.02.32.77-.11,1.05-.33c.28-.22.5-.52.64-.9s.21-.8.21-1.27-.07-.88-.21-1.25c-.14-.37-.35-.67-.63-.88-.28-.22-.64-.33-1.06-.33s-.75.1-1.03.31c-.28.21-.49.49-.63.86-.14.37-.21.8-.21,1.28Z"/>
      <path class="cls-5" d="m199.74,10.5c-.63,0-1.17-.14-1.63-.42s-.81-.67-1.05-1.18c-.25-.5-.37-1.09-.37-1.76s.12-1.26.37-1.77c.25-.51.59-.91,1.03-1.2.44-.29.96-.43,1.55-.43.34,0,.68.06,1.01.17.33.11.63.3.91.55.27.25.49.59.65,1.01.16.42.24.93.24,1.54v.43h-5.05v-.87h4.02c0-.37-.07-.7-.22-.99-.15-.29-.35-.52-.62-.69-.27-.17-.58-.25-.95-.25-.4,0-.75.1-1.04.3-.29.2-.51.45-.67.77-.16.32-.23.65-.23,1.01v.58c0,.49.09.91.26,1.26s.41.6.72.78c.31.18.66.27,1.07.27.26,0,.5-.04.72-.11s.4-.19.56-.34c.16-.15.28-.34.36-.57l.97.27c-.1.33-.27.62-.52.87s-.54.44-.89.58-.75.21-1.2.21Z"/>
      <path class="cls-5" d="m203.8,10.36v-.77l3.72-4.77v-.07h-3.6v-.94h4.89v.8l-3.61,4.74v.07h3.73v.94h-5.13Z"/>
      <path class="cls-5" d="m210.99,2.73c-.2,0-.36-.07-.5-.2-.14-.13-.21-.29-.21-.48s.07-.35.21-.48c.14-.13.31-.2.5-.2s.36.07.5.2c.14.13.21.29.21.48s-.07.35-.21.48c-.14.13-.31.2-.5.2Zm-.51,7.64V3.82h1v6.55h-1Z"/>
      <path class="cls-5" d="m216.07,10.5c-.63,0-1.17-.14-1.63-.42s-.81-.67-1.05-1.18c-.25-.5-.37-1.09-.37-1.76s.12-1.26.37-1.77c.25-.51.59-.91,1.03-1.2.44-.29.96-.43,1.55-.43.34,0,.68.06,1.01.17.33.11.63.3.91.55.27.25.49.59.65,1.01.16.42.24.93.24,1.54v.43h-5.05v-.87h4.02c0-.37-.07-.7-.22-.99-.15-.29-.35-.52-.62-.69-.27-.17-.58-.25-.95-.25-.4,0-.75.1-1.04.3-.29.2-.51.45-.67.77-.16.32-.23.65-.23,1.01v.58c0,.49.09.91.26,1.26s.41.6.72.78c.31.18.66.27,1.07.27.26,0,.5-.04.72-.11s.4-.19.56-.34c.16-.15.28-.34.36-.57l.97.27c-.1.33-.27.62-.52.87s-.54.44-.89.58-.75.21-1.2.21Z"/>
      <path class="cls-5" d="m220.32,10.36V3.82h.97v.99h.07c.12-.32.33-.59.65-.79.31-.2.66-.3,1.06-.3.07,0,.17,0,.28,0,.11,0,.2,0,.25.01v1.02s-.11-.02-.23-.04-.25-.03-.38-.03c-.32,0-.6.07-.85.2-.25.13-.44.31-.59.55s-.22.5-.22.79v4.14h-1Z"/>
      <path class="cls-5" d="m230.81,10.5c-.61,0-1.14-.14-1.58-.43-.44-.29-.78-.69-1.02-1.2-.24-.51-.36-1.09-.36-1.74s.12-1.25.37-1.76c.25-.51.59-.91,1.03-1.2.44-.29.96-.43,1.55-.43.46,0,.88.09,1.24.26s.67.41.91.72c.24.31.38.67.44,1.07h-1.01c-.08-.3-.25-.56-.51-.79s-.62-.35-1.06-.35c-.39,0-.73.1-1.03.3s-.52.49-.69.86c-.16.37-.25.8-.25,1.29s.08.95.24,1.32c.16.38.39.67.68.87s.64.31,1.04.31c.26,0,.5-.05.71-.14s.39-.22.54-.39c.15-.17.25-.38.32-.61h1.01c-.06.39-.2.73-.42,1.04-.22.31-.52.55-.88.73s-.79.27-1.27.27Z"/>
      <path class="cls-5" d="m238.98,7.69v-3.87h1v6.55h-1v-1.11h-.07c-.15.33-.39.61-.72.85-.32.23-.73.35-1.23.35-.41,0-.77-.09-1.09-.27-.32-.18-.57-.45-.75-.82-.18-.37-.27-.83-.27-1.38V3.82h1v4.09c0,.48.13.86.4,1.14s.61.43,1.03.43c.25,0,.5-.06.76-.19s.48-.32.66-.59.27-.6.27-1.01Z"/>
      <path class="cls-5" d="m241.83,10.36V3.82h.97v.99h.07c.12-.32.33-.59.65-.79.31-.2.66-.3,1.06-.3.07,0,.17,0,.28,0,.11,0,.2,0,.25.01v1.02s-.11-.02-.23-.04-.25-.03-.38-.03c-.32,0-.6.07-.85.2-.25.13-.44.31-.59.55s-.22.5-.22.79v4.14h-1Z"/>
      <path class="cls-5" d="m251.85,3.82l-2.42,6.55h-1.02l-2.42-6.55h1.09l1.81,5.22h.07l1.81-5.22h1.09Z"/>
      <path class="cls-5" d="m255.68,10.5c-.63,0-1.17-.14-1.63-.42s-.81-.67-1.05-1.18c-.25-.5-.37-1.09-.37-1.76s.12-1.26.37-1.77c.25-.51.59-.91,1.03-1.2.44-.29.96-.43,1.55-.43.34,0,.68.06,1.01.17.33.11.63.3.91.55.27.25.49.59.65,1.01.16.42.24.93.24,1.54v.43h-5.05v-.87h4.02c0-.37-.07-.7-.22-.99-.15-.29-.35-.52-.62-.69-.27-.17-.58-.25-.95-.25-.4,0-.75.1-1.04.3-.29.2-.51.45-.67.77-.16.32-.23.65-.23,1.01v.58c0,.49.09.91.26,1.26s.41.6.72.78c.31.18.66.27,1.07.27.26,0,.5-.04.72-.11s.4-.19.56-.34c.16-.15.28-.34.36-.57l.97.27c-.1.33-.27.62-.52.87s-.54.44-.89.58-.75.21-1.2.21Z"/>
      <path class="cls-5" d="m264.56,5.28l-.9.26c-.06-.15-.14-.3-.25-.44-.11-.14-.26-.26-.45-.36s-.43-.14-.72-.14c-.4,0-.73.09-1,.27-.27.18-.4.42-.4.7,0,.25.09.45.27.59.18.14.47.27.85.36l.97.24c.58.14,1.02.36,1.31.65.29.29.43.67.43,1.12,0,.38-.11.71-.32,1.01-.21.3-.51.53-.9.7-.38.17-.83.26-1.34.26-.67,0-1.22-.14-1.66-.43-.44-.29-.71-.71-.83-1.27l.95-.24c.09.35.26.62.52.79.25.18.59.26,1,.26.47,0,.84-.1,1.12-.3.28-.2.42-.44.42-.72,0-.23-.08-.42-.24-.57s-.4-.27-.73-.35l-1.09-.26c-.6-.14-1.04-.36-1.32-.66-.28-.3-.42-.68-.42-1.13,0-.37.1-.7.31-.98s.49-.51.86-.67c.36-.16.77-.24,1.23-.24.65,0,1.16.14,1.53.43.37.28.63.66.79,1.12Z"/>
      <path class="cls-5" d="m130.3,18.22v.85h-3.39v-.85h3.39Zm-2.4-1.57h1.01v6.24c0,.28.04.5.13.64s.19.23.32.28c.13.05.27.07.42.07.11,0,.2,0,.27-.02.07-.01.13-.02.17-.03l.21.9c-.07.03-.16.05-.29.08-.12.03-.28.04-.46.04-.28,0-.56-.06-.83-.18-.27-.12-.5-.31-.67-.56s-.27-.57-.27-.95v-6.51Z"/>
      <path class="cls-5" d="m133.3,24.76l-1.99-6.55h1.06l1.42,5.01h.07l1.4-5.01h1.07l1.38,4.99h.07l1.42-4.99h1.06l-1.99,6.55h-.99l-1.43-5.03h-.1l-1.43,5.03h-.99Z"/>
      <path class="cls-5" d="m144.09,24.9c-.63,0-1.17-.14-1.63-.42s-.81-.67-1.05-1.18c-.25-.5-.37-1.09-.37-1.76s.12-1.26.37-1.77c.25-.51.59-.91,1.03-1.2.44-.29.96-.43,1.55-.43.34,0,.68.06,1.01.17.33.11.63.3.91.55.27.25.49.59.65,1.01.16.42.24.93.24,1.54v.43h-5.05v-.87h4.02c0-.37-.07-.7-.22-.99-.15-.29-.35-.52-.62-.69-.27-.17-.58-.25-.95-.25-.4,0-.75.1-1.04.3-.29.2-.51.45-.67.77-.16.32-.23.65-.23,1.01v.58c0,.49.09.91.26,1.26s.41.6.72.78c.31.18.66.27,1.07.27.26,0,.5-.04.72-.11s.4-.19.56-.34c.16-.15.28-.34.36-.57l.97.27c-.1.33-.27.62-.52.87s-.54.44-.89.58-.75.21-1.2.21Z"/>
      <path class="cls-5" d="m150.26,24.92c-.42,0-.79-.08-1.13-.24-.34-.16-.61-.39-.81-.69-.2-.3-.3-.66-.3-1.09,0-.38.07-.68.22-.91s.35-.42.59-.55c.25-.13.52-.23.82-.3.3-.07.6-.12.91-.16.4-.05.72-.09.97-.12.25-.03.43-.07.54-.14.12-.07.17-.18.17-.34v-.03c0-.42-.11-.75-.34-.98s-.58-.35-1.04-.35-.86.1-1.13.31c-.27.21-.46.44-.58.67l-.96-.34c.17-.4.4-.71.68-.93.29-.22.6-.38.94-.47.34-.09.67-.13,1-.13.21,0,.45.02.73.07.27.05.54.15.8.3.26.15.47.39.64.69.17.31.26.72.26,1.24v4.31h-1.01v-.89h-.05c-.07.14-.18.29-.34.46-.16.16-.37.3-.64.41-.26.11-.59.17-.97.17Zm.15-.9c.4,0,.73-.08,1.01-.23s.48-.36.62-.6.21-.51.21-.78v-.92c-.04.05-.14.1-.28.14-.14.04-.31.08-.49.11-.19.03-.37.06-.54.08-.17.02-.32.04-.42.05-.26.03-.5.09-.73.16-.23.08-.41.19-.54.34s-.21.35-.21.61c0,.35.13.61.39.79.26.18.59.27.99.27Z"/>
      <path class="cls-5" d="m155.1,24.76v-8.73h1v8.73h-1Zm.94-2.39l-.02-1.24h.21l2.86-2.91h1.24l-3.05,3.08h-.09l-1.16,1.07Zm3.22,2.39l-2.56-3.24.72-.7,3.12,3.94h-1.28Z"/>
      <path class="cls-5" d="m164.1,24.9c-.63,0-1.17-.14-1.63-.42s-.81-.67-1.05-1.18c-.25-.5-.37-1.09-.37-1.76s.12-1.26.37-1.77c.25-.51.59-.91,1.03-1.2.44-.29.96-.43,1.55-.43.34,0,.68.06,1.01.17.33.11.63.3.91.55.27.25.49.59.65,1.01.16.42.24.93.24,1.54v.43h-5.05v-.87h4.02c0-.37-.07-.7-.22-.99-.15-.29-.35-.52-.62-.69-.27-.17-.58-.25-.95-.25-.4,0-.75.1-1.04.3-.29.2-.51.45-.67.77-.16.32-.23.65-.23,1.01v.58c0,.49.09.91.26,1.26s.41.6.72.78c.31.18.66.27,1.07.27.26,0,.5-.04.72-.11s.4-.19.56-.34c.16-.15.28-.34.36-.57l.97.27c-.1.33-.27.62-.52.87s-.54.44-.89.58-.75.21-1.2.21Z"/>
      <path class="cls-5" d="m170.81,24.9c-.54,0-1.03-.14-1.44-.42-.42-.28-.74-.67-.98-1.18-.24-.51-.35-1.11-.35-1.8s.12-1.28.35-1.79c.24-.51.56-.9.98-1.17.42-.28.91-.41,1.46-.41.43,0,.76.07,1.01.21.25.14.44.3.57.48s.24.32.31.44h.09v-3.22h1v8.73h-.97v-1.01h-.12c-.07.12-.18.27-.32.45-.14.18-.33.34-.58.48s-.59.21-1.01.21Zm.14-.9c.4,0,.74-.11,1.02-.32s.49-.51.64-.88c.14-.38.22-.81.22-1.31s-.07-.92-.21-1.28c-.14-.37-.35-.65-.63-.86-.28-.21-.62-.31-1.03-.31s-.78.11-1.06.33c-.28.22-.49.51-.63.88-.14.37-.21.79-.21,1.25s.07.89.22,1.27c.14.38.36.68.64.9.28.22.63.33,1.05.33Z"/>
      <path class="cls-5" d="m181.09,24.92c-.42,0-.79-.08-1.13-.24-.34-.16-.61-.39-.81-.69-.2-.3-.3-.66-.3-1.09,0-.38.07-.68.22-.91s.35-.42.59-.55c.25-.13.52-.23.82-.3.3-.07.6-.12.91-.16.4-.05.72-.09.97-.12.25-.03.43-.07.54-.14.12-.07.17-.18.17-.34v-.03c0-.42-.11-.75-.34-.98s-.58-.35-1.04-.35-.86.1-1.13.31c-.27.21-.46.44-.58.67l-.96-.34c.17-.4.4-.71.68-.93.29-.22.6-.38.94-.47.34-.09.67-.13,1-.13.21,0,.45.02.73.07.27.05.54.15.8.3.26.15.47.39.64.69.17.31.26.72.26,1.24v4.31h-1.01v-.89h-.05c-.07.14-.18.29-.34.46-.16.16-.37.3-.64.41-.26.11-.59.17-.97.17Zm.15-.9c.4,0,.73-.08,1.01-.23s.48-.36.62-.6.21-.51.21-.78v-.92c-.04.05-.14.1-.28.14-.14.04-.31.08-.49.11-.19.03-.37.06-.54.08-.17.02-.32.04-.42.05-.26.03-.5.09-.73.16-.23.08-.41.19-.54.34s-.21.35-.21.61c0,.35.13.61.39.79.26.18.59.27.99.27Z"/>
      <path class="cls-5" d="m186.94,20.83v3.94h-1v-6.55h.97v1.02h.09c.15-.33.39-.6.7-.8s.72-.3,1.21-.3c.44,0,.83.09,1.16.27.33.18.59.45.78.82.18.37.28.83.28,1.38v4.16h-1.01v-4.09c0-.51-.13-.92-.4-1.2-.27-.29-.63-.43-1.1-.43-.32,0-.61.07-.86.21-.25.14-.45.34-.59.61s-.22.59-.22.97Z"/>
      <path class="cls-5" d="m195.43,24.9c-.54,0-1.03-.14-1.44-.42-.42-.28-.74-.67-.98-1.18-.24-.51-.35-1.11-.35-1.8s.12-1.28.35-1.79c.24-.51.56-.9.98-1.17.42-.28.91-.41,1.46-.41.43,0,.76.07,1.01.21.25.14.44.3.57.48s.24.32.31.44h.09v-3.22h1v8.73h-.97v-1.01h-.12c-.07.12-.18.27-.32.45-.14.18-.33.34-.58.48s-.59.21-1.01.21Zm.14-.9c.4,0,.74-.11,1.02-.32s.49-.51.64-.88c.14-.38.22-.81.22-1.31s-.07-.92-.21-1.28c-.14-.37-.35-.65-.63-.86-.28-.21-.62-.31-1.03-.31s-.78.11-1.06.33c-.28.22-.49.51-.63.88-.14.37-.21.79-.21,1.25s.07.89.22,1.27c.14.38.36.68.64.9.28.22.63.33,1.05.33Z"/>
      <path class="cls-5" d="m206.44,24.9c-.61,0-1.14-.14-1.58-.43-.44-.29-.78-.69-1.02-1.2-.24-.51-.36-1.09-.36-1.74s.12-1.25.37-1.76c.25-.51.59-.91,1.03-1.2.44-.29.96-.43,1.55-.43.46,0,.88.09,1.24.26s.67.41.91.72c.24.31.38.67.44,1.07h-1.01c-.08-.3-.25-.56-.51-.79s-.62-.35-1.06-.35c-.39,0-.73.1-1.03.3s-.52.49-.69.86c-.16.37-.25.8-.25,1.29s.08.95.24,1.32c.16.38.39.67.68.87s.64.31,1.04.31c.26,0,.5-.05.71-.14s.39-.22.54-.39c.15-.17.25-.38.32-.61h1.01c-.06.39-.2.73-.42,1.04-.22.31-.52.55-.88.73s-.79.27-1.27.27Z"/>
      <path class="cls-5" d="m211.48,16.04v8.73h-1v-8.73h1Z"/>
      <path class="cls-5" d="m216.07,24.9c-.63,0-1.17-.14-1.63-.42s-.81-.67-1.05-1.18c-.25-.5-.37-1.09-.37-1.76s.12-1.26.37-1.77c.25-.51.59-.91,1.03-1.2.44-.29.96-.43,1.55-.43.34,0,.68.06,1.01.17.33.11.63.3.91.55.27.25.49.59.65,1.01.16.42.24.93.24,1.54v.43h-5.05v-.87h4.02c0-.37-.07-.7-.22-.99-.15-.29-.35-.52-.62-.69-.27-.17-.58-.25-.95-.25-.4,0-.75.1-1.04.3-.29.2-.51.45-.67.77-.16.32-.23.65-.23,1.01v.58c0,.49.09.91.26,1.26s.41.6.72.78c.31.18.66.27,1.07.27.26,0,.5-.04.72-.11s.4-.19.56-.34c.16-.15.28-.34.36-.57l.97.27c-.1.33-.27.62-.52.87s-.54.44-.89.58-.75.21-1.2.21Z"/>
      <path class="cls-5" d="m222.24,24.92c-.42,0-.79-.08-1.13-.24-.34-.16-.61-.39-.81-.69-.2-.3-.3-.66-.3-1.09,0-.38.07-.68.22-.91s.35-.42.59-.55c.25-.13.52-.23.82-.3.3-.07.6-.12.91-.16.4-.05.72-.09.97-.12.25-.03.43-.07.54-.14.12-.07.17-.18.17-.34v-.03c0-.42-.11-.75-.34-.98s-.58-.35-1.04-.35-.86.1-1.13.31c-.27.21-.46.44-.58.67l-.96-.34c.17-.4.4-.71.68-.93.29-.22.6-.38.94-.47.34-.09.67-.13,1-.13.21,0,.45.02.73.07.27.05.54.15.8.3.26.15.47.39.64.69.17.31.26.72.26,1.24v4.31h-1.01v-.89h-.05c-.07.14-.18.29-.34.46-.16.16-.37.3-.64.41-.26.11-.59.17-.97.17Zm.15-.9c.4,0,.73-.08,1.01-.23s.48-.36.62-.6.21-.51.21-.78v-.92c-.04.05-.14.1-.28.14-.14.04-.31.08-.49.11-.19.03-.37.06-.54.08-.17.02-.32.04-.42.05-.26.03-.5.09-.73.16-.23.08-.41.19-.54.34s-.21.35-.21.61c0,.35.13.61.39.79.26.18.59.27.99.27Z"/>
      <path class="cls-5" d="m228.09,20.83v3.94h-1v-6.55h.97v1.02h.09c.15-.33.39-.6.7-.8s.72-.3,1.21-.3c.44,0,.83.09,1.16.27.33.18.59.45.78.82.18.37.28.83.28,1.38v4.16h-1.01v-4.09c0-.51-.13-.92-.4-1.2-.27-.29-.63-.43-1.1-.43-.32,0-.61.07-.86.21-.25.14-.45.34-.59.61s-.22.59-.22.97Z"/>
      <path class="cls-5" d="m236.85,24.9c-.63,0-1.17-.14-1.63-.42s-.81-.67-1.05-1.18c-.25-.5-.37-1.09-.37-1.76s.12-1.26.37-1.77c.25-.51.59-.91,1.03-1.2.44-.29.96-.43,1.55-.43.34,0,.68.06,1.01.17.33.11.63.3.91.55.27.25.49.59.65,1.01.16.42.24.93.24,1.54v.43h-5.05v-.87h4.02c0-.37-.07-.7-.22-.99-.15-.29-.35-.52-.62-.69-.27-.17-.58-.25-.95-.25-.4,0-.75.1-1.04.3-.29.2-.51.45-.67.77-.16.32-.23.65-.23,1.01v.58c0,.49.09.91.26,1.26s.41.6.72.78c.31.18.66.27,1.07.27.26,0,.5-.04.72-.11s.4-.19.56-.34c.16-.15.28-.34.36-.57l.97.27c-.1.33-.27.62-.52.87s-.54.44-.89.58-.75.21-1.2.21Z"/>
      <path class="cls-5" d="m243.56,24.9c-.54,0-1.03-.14-1.44-.42-.42-.28-.74-.67-.98-1.18-.24-.51-.35-1.11-.35-1.8s.12-1.28.35-1.79c.24-.51.56-.9.98-1.17.42-.28.91-.41,1.46-.41.43,0,.76.07,1.01.21.25.14.44.3.57.48s.24.32.31.44h.09v-3.22h1v8.73h-.97v-1.01h-.12c-.07.12-.18.27-.32.45-.14.18-.33.34-.58.48s-.59.21-1.01.21Zm.14-.9c.4,0,.74-.11,1.02-.32s.49-.51.64-.88c.14-.38.22-.81.22-1.31s-.07-.92-.21-1.28c-.14-.37-.35-.65-.63-.86-.28-.21-.62-.31-1.03-.31s-.78.11-1.06.33c-.28.22-.49.51-.63.88-.14.37-.21.79-.21,1.25s.07.89.22,1.27c.14.38.36.68.64.9.28.22.63.33,1.05.33Z"/>
      <path class="cls-5" d="m256.04,22.09v-3.87h1v6.55h-1v-1.11h-.07c-.15.33-.39.61-.72.85-.32.23-.73.35-1.23.35-.41,0-.77-.09-1.09-.27-.32-.18-.57-.45-.75-.82-.18-.37-.27-.83-.27-1.38v-4.16h1v4.09c0,.48.13.86.4,1.14s.61.43,1.03.43c.25,0,.5-.06.76-.19s.48-.32.66-.59.27-.6.27-1.01Z"/>
      <path class="cls-5" d="m258.89,27.22v-9h.97v1.04h.12c.07-.11.18-.26.31-.44s.32-.34.57-.48c.25-.14.59-.21,1.01-.21.55,0,1.04.14,1.46.41.42.28.75.67.98,1.17.24.51.35,1.1.35,1.79s-.12,1.29-.35,1.8c-.24.51-.56.9-.98,1.18-.42.28-.9.42-1.44.42-.42,0-.76-.07-1.01-.21s-.45-.3-.58-.48c-.14-.18-.24-.33-.32-.45h-.09v3.46h-1Zm.99-5.73c0,.49.07.93.22,1.31.15.38.36.67.64.88.28.21.62.32,1.02.32s.77-.11,1.05-.33c.28-.22.5-.52.64-.9.14-.38.22-.8.22-1.27s-.07-.88-.21-1.25c-.14-.37-.35-.67-.63-.88-.28-.22-.64-.33-1.06-.33s-.75.1-1.03.31c-.28.21-.49.49-.63.86-.14.37-.21.8-.21,1.28Z"/>
    </g>
    <text class="cls-6" transform="translate(245.12 370.48)"><tspan x="0" y="0">Brandmark</tspan></text>
    <text class="cls-6" transform="translate(555.56 370.48)"><tspan x="0" y="0">Logotype</tspan></text>
    <g>
      <path class="cls-5" d="m402.7,4.36h-1.06c-.06-.3-.17-.57-.33-.8-.15-.23-.34-.42-.56-.58-.22-.16-.46-.28-.73-.36s-.54-.12-.83-.12c-.53,0-1.01.13-1.43.4-.43.27-.77.66-1.02,1.18-.25.52-.38,1.16-.38,1.91s.13,1.39.38,1.91c.25.52.59.91,1.02,1.18.43.27.91.4,1.43.4.29,0,.57-.04.83-.12s.51-.2.73-.36c.22-.16.41-.35.56-.58.16-.23.26-.5.33-.8h1.06c-.08.45-.22.85-.43,1.2-.21.35-.47.65-.78.9s-.66.43-1.05.56c-.39.13-.8.19-1.24.19-.74,0-1.41-.18-1.99-.55-.58-.36-1.04-.88-1.37-1.55-.33-.67-.5-1.47-.5-2.39s.17-1.72.5-2.39c.33-.67.79-1.19,1.37-1.55.58-.36,1.24-.55,1.99-.55.44,0,.85.06,1.24.19s.74.31,1.05.56c.31.25.57.54.78.89.21.35.36.75.43,1.2Z"/>
      <path class="cls-5" d="m405.27,1.64v8.73h-1V1.64h1Z"/>
      <path class="cls-5" d="m409.86,10.5c-.63,0-1.17-.14-1.63-.42s-.81-.67-1.05-1.18c-.25-.5-.37-1.09-.37-1.76s.12-1.26.37-1.77c.25-.51.59-.91,1.03-1.2.44-.29.96-.43,1.55-.43.34,0,.68.06,1.01.17.33.11.63.3.91.55.27.25.49.59.65,1.01.16.42.24.93.24,1.54v.43h-5.05v-.87h4.02c0-.37-.07-.7-.22-.99-.15-.29-.35-.52-.62-.69-.27-.17-.58-.25-.95-.25-.4,0-.75.1-1.04.3-.29.2-.51.45-.67.77-.16.32-.23.65-.23,1.01v.58c0,.49.09.91.26,1.26s.41.6.72.78c.31.18.66.27,1.07.27.26,0,.5-.04.72-.11s.4-.19.56-.34c.16-.15.28-.34.36-.57l.97.27c-.1.33-.27.62-.52.87s-.54.44-.89.58-.75.21-1.2.21Z"/>
      <path class="cls-5" d="m416.03,10.52c-.42,0-.79-.08-1.13-.24-.34-.16-.61-.39-.81-.69-.2-.3-.3-.66-.3-1.09,0-.38.07-.68.22-.91s.35-.42.59-.55c.25-.13.52-.23.82-.3.3-.07.6-.12.91-.16.4-.05.72-.09.97-.12.25-.03.43-.07.54-.14.12-.07.17-.18.17-.34v-.03c0-.42-.11-.75-.34-.98s-.58-.35-1.04-.35-.86.1-1.13.31c-.27.21-.46.44-.58.67l-.96-.34c.17-.4.4-.71.68-.93.29-.22.6-.38.94-.47.34-.09.67-.13,1-.13.21,0,.45.02.73.07.27.05.54.15.8.3.26.15.47.39.64.69.17.31.26.72.26,1.24v4.31h-1.01v-.89h-.05c-.07.14-.18.29-.34.46-.16.16-.37.3-.64.41-.26.11-.59.17-.97.17Zm.15-.9c.4,0,.73-.08,1.01-.23s.48-.36.62-.6.21-.51.21-.78v-.92c-.04.05-.14.1-.28.14-.14.04-.31.08-.49.11-.19.03-.37.06-.54.08-.17.02-.32.04-.42.05-.26.03-.5.09-.73.16-.23.08-.41.19-.54.34s-.21.35-.21.61c0,.35.13.61.39.79.26.18.59.27.99.27Z"/>
      <path class="cls-5" d="m420.87,10.36V3.82h.97v.99h.07c.12-.32.33-.59.65-.79.31-.2.66-.3,1.06-.3.07,0,.17,0,.28,0,.11,0,.2,0,.25.01v1.02s-.11-.02-.23-.04-.25-.03-.38-.03c-.32,0-.6.07-.85.2-.25.13-.44.31-.59.55s-.22.5-.22.79v4.14h-1Z"/>
      <path class="cls-5" d="m430.64,10.52c-.42,0-.79-.08-1.13-.24-.34-.16-.61-.39-.81-.69-.2-.3-.3-.66-.3-1.09,0-.38.07-.68.22-.91s.35-.42.59-.55c.25-.13.52-.23.82-.3.3-.07.6-.12.91-.16.4-.05.72-.09.97-.12.25-.03.43-.07.54-.14.12-.07.17-.18.17-.34v-.03c0-.42-.11-.75-.34-.98s-.58-.35-1.04-.35-.86.1-1.13.31c-.27.21-.46.44-.58.67l-.96-.34c.17-.4.4-.71.68-.93.29-.22.6-.38.94-.47.34-.09.67-.13,1-.13.21,0,.45.02.73.07.27.05.54.15.8.3.26.15.47.39.64.69.17.31.26.72.26,1.24v4.31h-1.01v-.89h-.05c-.07.14-.18.29-.34.46-.16.16-.37.3-.64.41-.26.11-.59.17-.97.17Zm.15-.9c.4,0,.73-.08,1.01-.23s.48-.36.62-.6.21-.51.21-.78v-.92c-.04.05-.14.1-.28.14-.14.04-.31.08-.49.11-.19.03-.37.06-.54.08-.17.02-.32.04-.42.05-.26.03-.5.09-.73.16-.23.08-.41.19-.54.34s-.21.35-.21.61c0,.35.13.61.39.79.26.18.59.27.99.27Z"/>
      <path class="cls-5" d="m435.48,10.36V3.82h.97v.99h.07c.12-.32.33-.59.65-.79.31-.2.66-.3,1.06-.3.07,0,.17,0,.28,0,.11,0,.2,0,.25.01v1.02s-.11-.02-.23-.04-.25-.03-.38-.03c-.32,0-.6.07-.85.2-.25.13-.44.31-.59.55s-.22.5-.22.79v4.14h-1Z"/>
      <path class="cls-5" d="m442.48,10.5c-.63,0-1.17-.14-1.63-.42s-.81-.67-1.05-1.18c-.25-.5-.37-1.09-.37-1.76s.12-1.26.37-1.77c.25-.51.59-.91,1.03-1.2.44-.29.96-.43,1.55-.43.34,0,.68.06,1.01.17.33.11.63.3.91.55.27.25.49.59.65,1.01.16.42.24.93.24,1.54v.43h-5.05v-.87h4.02c0-.37-.07-.7-.22-.99-.15-.29-.35-.52-.62-.69-.27-.17-.58-.25-.95-.25-.4,0-.75.1-1.04.3-.29.2-.51.45-.67.77-.16.32-.23.65-.23,1.01v.58c0,.49.09.91.26,1.26s.41.6.72.78c.31.18.66.27,1.07.27.26,0,.5-.04.72-.11s.4-.19.56-.34c.16-.15.28-.34.36-.57l.97.27c-.1.33-.27.62-.52.87s-.54.44-.89.58-.75.21-1.2.21Z"/>
      <path class="cls-5" d="m448.65,10.52c-.42,0-.79-.08-1.13-.24-.34-.16-.61-.39-.81-.69-.2-.3-.3-.66-.3-1.09,0-.38.07-.68.22-.91s.35-.42.59-.55c.25-.13.52-.23.82-.3.3-.07.6-.12.91-.16.4-.05.72-.09.97-.12.25-.03.43-.07.54-.14.12-.07.17-.18.17-.34v-.03c0-.42-.11-.75-.34-.98s-.58-.35-1.04-.35-.86.1-1.13.31c-.27.21-.46.44-.58.67l-.96-.34c.17-.4.4-.71.68-.93.29-.22.6-.38.94-.47.34-.09.67-.13,1-.13.21,0,.45.02.73.07.27.05.54.15.8.3.26.15.47.39.64.69.17.31.26.72.26,1.24v4.31h-1.01v-.89h-.05c-.07.14-.18.29-.34.46-.16.16-.37.3-.64.41-.26.11-.59.17-.97.17Zm.15-.9c.4,0,.73-.08,1.01-.23s.48-.36.62-.6.21-.51.21-.78v-.92c-.04.05-.14.1-.28.14-.14.04-.31.08-.49.11-.19.03-.37.06-.54.08-.17.02-.32.04-.42.05-.26.03-.5.09-.73.16-.23.08-.41.19-.54.34s-.21.35-.21.61c0,.35.13.61.39.79.26.18.59.27.99.27Z"/>
      <path class="cls-5" d="m458.8,10.52c-.42,0-.79-.08-1.13-.24-.34-.16-.61-.39-.81-.69-.2-.3-.3-.66-.3-1.09,0-.38.07-.68.22-.91s.35-.42.59-.55c.25-.13.52-.23.82-.3.3-.07.6-.12.91-.16.4-.05.72-.09.97-.12.25-.03.43-.07.54-.14.12-.07.17-.18.17-.34v-.03c0-.42-.11-.75-.34-.98s-.58-.35-1.04-.35-.86.1-1.13.31c-.27.21-.46.44-.58.67l-.96-.34c.17-.4.4-.71.68-.93.29-.22.6-.38.94-.47.34-.09.67-.13,1-.13.21,0,.45.02.73.07.27.05.54.15.8.3.26.15.47.39.64.69.17.31.26.72.26,1.24v4.31h-1.01v-.89h-.05c-.07.14-.18.29-.34.46-.16.16-.37.3-.64.41-.26.11-.59.17-.97.17Zm.15-.9c.4,0,.73-.08,1.01-.23s.48-.36.62-.6.21-.51.21-.78v-.92c-.04.05-.14.1-.28.14-.14.04-.31.08-.49.11-.19.03-.37.06-.54.08-.17.02-.32.04-.42.05-.26.03-.5.09-.73.16-.23.08-.41.19-.54.34s-.21.35-.21.61c0,.35.13.61.39.79.26.18.59.27.99.27Z"/>
      <path class="cls-5" d="m464.64,6.43v3.94h-1V3.82h.97v1.02h.09c.15-.33.39-.6.7-.8s.72-.3,1.21-.3c.44,0,.83.09,1.16.27.33.18.59.45.78.82.18.37.28.83.28,1.38v4.16h-1.01v-4.09c0-.51-.13-.92-.4-1.2-.27-.29-.63-.43-1.1-.43-.32,0-.61.07-.86.21-.25.14-.45.34-.59.61s-.22.59-.22.97Z"/>
      <path class="cls-5" d="m473.13,10.5c-.54,0-1.03-.14-1.44-.42-.42-.28-.74-.67-.98-1.18-.24-.51-.35-1.11-.35-1.8s.12-1.28.35-1.79c.24-.51.56-.9.98-1.17.42-.28.91-.41,1.46-.41.43,0,.76.07,1.01.21.25.14.44.3.57.48s.24.32.31.44h.09V1.64h1v8.73h-.97v-1.01h-.12c-.07.12-.18.27-.32.45-.14.18-.33.34-.58.48s-.59.21-1.01.21Zm.14-.9c.4,0,.74-.11,1.02-.32s.49-.51.64-.88c.14-.38.22-.81.22-1.31s-.07-.92-.21-1.28c-.14-.37-.35-.65-.63-.86-.28-.21-.62-.31-1.03-.31s-.78.11-1.06.33c-.28.22-.49.51-.63.88-.14.37-.21.79-.21,1.25s.07.89.22,1.27c.14.38.36.68.64.9.28.22.63.33,1.05.33Z"/>
      <path class="cls-5" d="m486.12,5.28l-.9.26c-.06-.15-.14-.3-.25-.44-.11-.14-.26-.26-.45-.36s-.43-.14-.72-.14c-.4,0-.73.09-1,.27-.27.18-.4.42-.4.7,0,.25.09.45.27.59.18.14.47.27.85.36l.97.24c.58.14,1.02.36,1.31.65.29.29.43.67.43,1.12,0,.38-.11.71-.32,1.01-.21.3-.51.53-.9.7-.38.17-.83.26-1.34.26-.67,0-1.22-.14-1.66-.43-.44-.29-.71-.71-.83-1.27l.95-.24c.09.35.26.62.52.79.25.18.59.26,1,.26.47,0,.84-.1,1.12-.3.28-.2.42-.44.42-.72,0-.23-.08-.42-.24-.57s-.4-.27-.73-.35l-1.09-.26c-.6-.14-1.04-.36-1.32-.66-.28-.3-.42-.68-.42-1.13,0-.37.1-.7.31-.98s.49-.51.86-.67c.36-.16.77-.24,1.23-.24.65,0,1.16.14,1.53.43.37.28.63.66.79,1.12Z"/>
      <path class="cls-5" d="m487.76,12.82V3.82h.97v1.04h.12c.07-.11.18-.26.31-.44s.32-.34.57-.48c.25-.14.59-.21,1.01-.21.55,0,1.04.14,1.46.41.42.28.75.67.98,1.17.24.51.35,1.1.35,1.79s-.12,1.29-.35,1.8c-.24.51-.56.9-.98,1.18-.42.28-.9.42-1.44.42-.42,0-.76-.07-1.01-.21s-.45-.3-.58-.48c-.14-.18-.24-.33-.32-.45h-.09v3.46h-1Zm.99-5.73c0,.49.07.93.22,1.31.15.38.36.67.64.88.28.21.62.32,1.02.32s.77-.11,1.05-.33c.28-.22.5-.52.64-.9.14-.38.22-.8.22-1.27s-.07-.88-.21-1.25c-.14-.37-.35-.67-.63-.88-.28-.22-.64-.33-1.06-.33s-.75.1-1.03.31c-.28.21-.49.49-.63.86-.14.37-.21.8-.21,1.28Z"/>
      <path class="cls-5" d="m497,10.52c-.42,0-.79-.08-1.13-.24-.34-.16-.61-.39-.81-.69-.2-.3-.3-.66-.3-1.09,0-.38.07-.68.22-.91s.35-.42.59-.55c.25-.13.52-.23.82-.3.3-.07.6-.12.91-.16.4-.05.72-.09.97-.12.25-.03.43-.07.54-.14.12-.07.17-.18.17-.34v-.03c0-.42-.11-.75-.34-.98s-.58-.35-1.04-.35-.86.1-1.13.31c-.27.21-.46.44-.58.67l-.96-.34c.17-.4.4-.71.68-.93.29-.22.6-.38.94-.47.34-.09.67-.13,1-.13.21,0,.45.02.73.07.27.05.54.15.8.3.26.15.47.39.64.69.17.31.26.72.26,1.24v4.31h-1.01v-.89h-.05c-.07.14-.18.29-.34.46-.16.16-.37.3-.64.41-.26.11-.59.17-.97.17Zm.15-.9c.4,0,.73-.08,1.01-.23s.48-.36.62-.6.21-.51.21-.78v-.92c-.04.05-.14.1-.28.14-.14.04-.31.08-.49.11-.19.03-.37.06-.54.08-.17.02-.32.04-.42.05-.26.03-.5.09-.73.16-.23.08-.41.19-.54.34s-.21.35-.21.61c0,.35.13.61.39.79.26.18.59.27.99.27Z"/>
      <path class="cls-5" d="m504.5,10.5c-.61,0-1.14-.14-1.58-.43-.44-.29-.78-.69-1.02-1.2-.24-.51-.36-1.09-.36-1.74s.12-1.25.37-1.76c.25-.51.59-.91,1.03-1.2.44-.29.96-.43,1.55-.43.46,0,.88.09,1.24.26s.67.41.91.72c.24.31.38.67.44,1.07h-1.01c-.08-.3-.25-.56-.51-.79s-.62-.35-1.06-.35c-.39,0-.73.1-1.03.3s-.52.49-.69.86c-.16.37-.25.8-.25,1.29s.08.95.24,1.32c.16.38.39.67.68.87s.64.31,1.04.31c.26,0,.5-.05.71-.14s.39-.22.54-.39c.15-.17.25-.38.32-.61h1.01c-.06.39-.2.73-.42,1.04-.22.31-.52.55-.88.73s-.79.27-1.27.27Z"/>
      <path class="cls-5" d="m511.28,10.5c-.63,0-1.17-.14-1.63-.42s-.81-.67-1.05-1.18c-.25-.5-.37-1.09-.37-1.76s.12-1.26.37-1.77c.25-.51.59-.91,1.03-1.2.44-.29.96-.43,1.55-.43.34,0,.68.06,1.01.17.33.11.63.3.91.55.27.25.49.59.65,1.01.16.42.24.93.24,1.54v.43h-5.05v-.87h4.02c0-.37-.07-.7-.22-.99-.15-.29-.35-.52-.62-.69-.27-.17-.58-.25-.95-.25-.4,0-.75.1-1.04.3-.29.2-.51.45-.67.77-.16.32-.23.65-.23,1.01v.58c0,.49.09.91.26,1.26s.41.6.72.78c.31.18.66.27,1.07.27.26,0,.5-.04.72-.11s.4-.19.56-.34c.16-.15.28-.34.36-.57l.97.27c-.1.33-.27.62-.52.87s-.54.44-.89.58-.75.21-1.2.21Z"/>
      <path class="cls-5" d="m519.03,10.36V1.64h1.01v3.22h.08c.07-.11.18-.26.31-.44.13-.18.32-.34.57-.48.25-.14.59-.21,1.01-.21.55,0,1.04.14,1.46.41.42.28.75.67.98,1.17.24.51.35,1.1.35,1.79s-.12,1.29-.35,1.8c-.24.51-.56.9-.98,1.18-.42.28-.9.42-1.44.42-.42,0-.76-.07-1.01-.21s-.45-.3-.58-.48c-.14-.18-.24-.33-.32-.45h-.12v1.01h-.97Zm.99-3.27c0,.49.07.93.22,1.31.14.38.36.67.63.88s.62.32,1.02.32.77-.11,1.05-.33c.28-.22.5-.52.64-.9s.21-.8.21-1.27-.07-.88-.21-1.25c-.14-.37-.35-.67-.63-.88-.28-.22-.64-.33-1.06-.33s-.75.1-1.03.31c-.28.21-.49.49-.63.86-.14.37-.21.8-.21,1.28Z"/>
      <path class="cls-5" d="m529.09,10.5c-.63,0-1.17-.14-1.63-.42s-.81-.67-1.05-1.18c-.25-.5-.37-1.09-.37-1.76s.12-1.26.37-1.77c.25-.51.59-.91,1.03-1.2.44-.29.96-.43,1.55-.43.34,0,.68.06,1.01.17.33.11.63.3.91.55.27.25.49.59.65,1.01.16.42.24.93.24,1.54v.43h-5.05v-.87h4.02c0-.37-.07-.7-.22-.99-.15-.29-.35-.52-.62-.69-.27-.17-.58-.25-.95-.25-.4,0-.75.1-1.04.3-.29.2-.51.45-.67.77-.16.32-.23.65-.23,1.01v.58c0,.49.09.91.26,1.26s.41.6.72.78c.31.18.66.27,1.07.27.26,0,.5-.04.72-.11s.4-.19.56-.34c.16-.15.28-.34.36-.57l.97.27c-.1.33-.27.62-.52.87s-.54.44-.89.58-.75.21-1.2.21Z"/>
      <path class="cls-5" d="m536.18,3.82v.85h-3.39v-.85h3.39Zm-2.4-1.57h1.01v6.24c0,.28.04.5.13.64s.19.23.32.28c.13.05.27.07.42.07.11,0,.2,0,.27-.02.07-.01.13-.02.17-.03l.21.9c-.07.03-.16.05-.29.08-.12.03-.28.04-.46.04-.28,0-.56-.06-.83-.18-.27-.12-.5-.31-.67-.56s-.27-.57-.27-.95V2.25Z"/>
      <path class="cls-5" d="m539.18,10.36l-1.99-6.55h1.06l1.42,5.01h.07l1.4-5.01h1.07l1.38,4.99h.07l1.42-4.99h1.06l-1.99,6.55h-.99l-1.43-5.03h-.1l-1.43,5.03h-.99Z"/>
      <path class="cls-5" d="m549.97,10.5c-.63,0-1.17-.14-1.63-.42s-.81-.67-1.05-1.18c-.25-.5-.37-1.09-.37-1.76s.12-1.26.37-1.77c.25-.51.59-.91,1.03-1.2.44-.29.96-.43,1.55-.43.34,0,.68.06,1.01.17.33.11.63.3.91.55.27.25.49.59.65,1.01.16.42.24.93.24,1.54v.43h-5.05v-.87h4.02c0-.37-.07-.7-.22-.99-.15-.29-.35-.52-.62-.69-.27-.17-.58-.25-.95-.25-.4,0-.75.1-1.04.3-.29.2-.51.45-.67.77-.16.32-.23.65-.23,1.01v.58c0,.49.09.91.26,1.26s.41.6.72.78c.31.18.66.27,1.07.27.26,0,.5-.04.72-.11s.4-.19.56-.34c.16-.15.28-.34.36-.57l.97.27c-.1.33-.27.62-.52.87s-.54.44-.89.58-.75.21-1.2.21Z"/>
      <path class="cls-5" d="m556.96,10.5c-.63,0-1.17-.14-1.63-.42s-.81-.67-1.05-1.18c-.25-.5-.37-1.09-.37-1.76s.12-1.26.37-1.77c.25-.51.59-.91,1.03-1.2.44-.29.96-.43,1.55-.43.34,0,.68.06,1.01.17.33.11.63.3.91.55.27.25.49.59.65,1.01.16.42.24.93.24,1.54v.43h-5.05v-.87h4.02c0-.37-.07-.7-.22-.99-.15-.29-.35-.52-.62-.69-.27-.17-.58-.25-.95-.25-.4,0-.75.1-1.04.3-.29.2-.51.45-.67.77-.16.32-.23.65-.23,1.01v.58c0,.49.09.91.26,1.26s.41.6.72.78c.31.18.66.27,1.07.27.26,0,.5-.04.72-.11s.4-.19.56-.34c.16-.15.28-.34.36-.57l.97.27c-.1.33-.27.62-.52.87s-.54.44-.89.58-.75.21-1.2.21Z"/>
      <path class="cls-5" d="m562.21,6.43v3.94h-1V3.82h.97v1.02h.09c.15-.33.39-.6.7-.8s.72-.3,1.21-.3c.44,0,.83.09,1.16.27.33.18.59.45.78.82.18.37.28.83.28,1.38v4.16h-1.01v-4.09c0-.51-.13-.92-.4-1.2-.27-.29-.63-.43-1.1-.43-.32,0-.61.07-.86.21-.25.14-.45.34-.59.61s-.22.59-.22.97Z"/>
      <path class="cls-5" d="m395.68,24.76v-8.73h1.01v3.22h.08c.07-.11.18-.26.31-.44.13-.18.32-.34.57-.48.25-.14.59-.21,1.01-.21.55,0,1.04.14,1.46.41.42.28.75.67.98,1.17.24.51.35,1.1.35,1.79s-.12,1.29-.35,1.8c-.24.51-.56.9-.98,1.18-.42.28-.9.42-1.44.42-.42,0-.76-.07-1.01-.21s-.45-.3-.58-.48c-.14-.18-.24-.33-.32-.45h-.12v1.01h-.97Zm.99-3.27c0,.49.07.93.22,1.31.14.38.36.67.63.88s.62.32,1.02.32.77-.11,1.05-.33c.28-.22.5-.52.64-.9s.21-.8.21-1.27-.07-.88-.21-1.25c-.14-.37-.35-.67-.63-.88-.28-.22-.64-.33-1.06-.33s-.75.1-1.03.31c-.28.21-.49.49-.63.86-.14.37-.21.8-.21,1.28Z"/>
      <path class="cls-5" d="m402.99,24.76v-6.55h.97v.99h.07c.12-.32.33-.59.65-.79.31-.2.66-.3,1.06-.3.07,0,.17,0,.28,0,.11,0,.2,0,.25.01v1.02s-.11-.02-.23-.04-.25-.03-.38-.03c-.32,0-.6.07-.85.2-.25.13-.44.31-.59.55s-.22.5-.22.79v4.14h-1Z"/>
      <path class="cls-5" d="m409.38,24.92c-.42,0-.79-.08-1.13-.24-.34-.16-.61-.39-.81-.69-.2-.3-.3-.66-.3-1.09,0-.38.07-.68.22-.91s.35-.42.59-.55c.25-.13.52-.23.82-.3.3-.07.6-.12.91-.16.4-.05.72-.09.97-.12.25-.03.43-.07.54-.14.12-.07.17-.18.17-.34v-.03c0-.42-.11-.75-.34-.98s-.58-.35-1.04-.35-.86.1-1.13.31c-.27.21-.46.44-.58.67l-.96-.34c.17-.4.4-.71.68-.93.29-.22.6-.38.94-.47.34-.09.67-.13,1-.13.21,0,.45.02.73.07.27.05.54.15.8.3.26.15.47.39.64.69.17.31.26.72.26,1.24v4.31h-1.01v-.89h-.05c-.07.14-.18.29-.34.46-.16.16-.37.3-.64.41-.26.11-.59.17-.97.17Zm.15-.9c.4,0,.73-.08,1.01-.23s.48-.36.62-.6.21-.51.21-.78v-.92c-.04.05-.14.1-.28.14-.14.04-.31.08-.49.11-.19.03-.37.06-.54.08-.17.02-.32.04-.42.05-.26.03-.5.09-.73.16-.23.08-.41.19-.54.34s-.21.35-.21.61c0,.35.13.61.39.79.26.18.59.27.99.27Z"/>
      <path class="cls-5" d="m415.23,20.83v3.94h-1v-6.55h.97v1.02h.09c.15-.33.39-.6.7-.8s.72-.3,1.21-.3c.44,0,.83.09,1.16.27.33.18.59.45.78.82.18.37.28.83.28,1.38v4.16h-1.01v-4.09c0-.51-.13-.92-.4-1.2-.27-.29-.63-.43-1.1-.43-.32,0-.61.07-.86.21-.25.14-.45.34-.59.61s-.22.59-.22.97Z"/>
      <path class="cls-5" d="m423.72,24.9c-.54,0-1.03-.14-1.44-.42-.42-.28-.74-.67-.98-1.18-.24-.51-.35-1.11-.35-1.8s.12-1.28.35-1.79c.24-.51.56-.9.98-1.17.42-.28.91-.41,1.46-.41.43,0,.76.07,1.01.21.25.14.44.3.57.48s.24.32.31.44h.09v-3.22h1v8.73h-.97v-1.01h-.12c-.07.12-.18.27-.32.45-.14.18-.33.34-.58.48s-.59.21-1.01.21Zm.14-.9c.4,0,.74-.11,1.02-.32s.49-.51.64-.88c.14-.38.22-.81.22-1.31s-.07-.92-.21-1.28c-.14-.37-.35-.65-.63-.86-.28-.21-.62-.31-1.03-.31s-.78.11-1.06.33c-.28.22-.49.51-.63.88-.14.37-.21.79-.21,1.25s.07.89.22,1.27c.14.38.36.68.64.9.28.22.63.33,1.05.33Z"/>
      <path class="cls-5" d="m428.7,24.76v-6.55h.97v1.02h.09c.14-.35.36-.62.66-.82.3-.19.67-.29,1.1-.29s.79.1,1.08.29c.29.19.51.47.67.82h.07c.17-.34.42-.61.75-.81.33-.2.74-.3,1.21-.3.59,0,1.06.18,1.44.55s.56.93.56,1.7v4.38h-1.01v-4.38c0-.48-.13-.83-.4-1.04-.26-.21-.58-.31-.93-.31-.46,0-.82.14-1.07.42-.25.28-.38.63-.38,1.05v4.26h-1.02v-4.48c0-.37-.12-.67-.36-.9-.24-.23-.55-.34-.93-.34-.26,0-.5.07-.73.21-.23.14-.41.33-.55.58s-.21.53-.21.85v4.09h-1Z"/>
      <path class="cls-5" d="m441.05,24.92c-.42,0-.79-.08-1.13-.24-.34-.16-.61-.39-.81-.69-.2-.3-.3-.66-.3-1.09,0-.38.07-.68.22-.91s.35-.42.59-.55c.25-.13.52-.23.82-.3.3-.07.6-.12.91-.16.4-.05.72-.09.97-.12.25-.03.43-.07.54-.14.12-.07.17-.18.17-.34v-.03c0-.42-.11-.75-.34-.98s-.58-.35-1.04-.35-.86.1-1.13.31c-.27.21-.46.44-.58.67l-.96-.34c.17-.4.4-.71.68-.93.29-.22.6-.38.94-.47.34-.09.67-.13,1-.13.21,0,.45.02.73.07.27.05.54.15.8.3.26.15.47.39.64.69.17.31.26.72.26,1.24v4.31h-1.01v-.89h-.05c-.07.14-.18.29-.34.46-.16.16-.37.3-.64.41-.26.11-.59.17-.97.17Zm.15-.9c.4,0,.73-.08,1.01-.23s.48-.36.62-.6.21-.51.21-.78v-.92c-.04.05-.14.1-.28.14-.14.04-.31.08-.49.11-.19.03-.37.06-.54.08-.17.02-.32.04-.42.05-.26.03-.5.09-.73.16-.23.08-.41.19-.54.34s-.21.35-.21.61c0,.35.13.61.39.79.26.18.59.27.99.27Z"/>
      <path class="cls-5" d="m445.89,24.76v-6.55h.97v.99h.07c.12-.32.33-.59.65-.79.31-.2.66-.3,1.06-.3.07,0,.17,0,.28,0,.11,0,.2,0,.25.01v1.02s-.11-.02-.23-.04-.25-.03-.38-.03c-.32,0-.6.07-.85.2-.25.13-.44.31-.59.55s-.22.5-.22.79v4.14h-1Z"/>
      <path class="cls-5" d="m450.36,24.76v-8.73h1v8.73h-1Zm.94-2.39l-.02-1.24h.21l2.86-2.91h1.24l-3.05,3.08h-.09l-1.16,1.07Zm3.22,2.39l-2.56-3.24.72-.7,3.12,3.94h-1.28Z"/>
      <path class="cls-5" d="m462.19,24.92c-.42,0-.79-.08-1.13-.24-.34-.16-.61-.39-.81-.69-.2-.3-.3-.66-.3-1.09,0-.38.07-.68.22-.91s.35-.42.59-.55c.25-.13.52-.23.82-.3.3-.07.6-.12.91-.16.4-.05.72-.09.97-.12.25-.03.43-.07.54-.14.12-.07.17-.18.17-.34v-.03c0-.42-.11-.75-.34-.98s-.58-.35-1.04-.35-.86.1-1.13.31c-.27.21-.46.44-.58.67l-.96-.34c.17-.4.4-.71.68-.93.29-.22.6-.38.94-.47.34-.09.67-.13,1-.13.21,0,.45.02.73.07.27.05.54.15.8.3.26.15.47.39.64.69.17.31.26.72.26,1.24v4.31h-1.01v-.89h-.05c-.07.14-.18.29-.34.46-.16.16-.37.3-.64.41-.26.11-.59.17-.97.17Zm.15-.9c.4,0,.73-.08,1.01-.23s.48-.36.62-.6.21-.51.21-.78v-.92c-.04.05-.14.1-.28.14-.14.04-.31.08-.49.11-.19.03-.37.06-.54.08-.17.02-.32.04-.42.05-.26.03-.5.09-.73.16-.23.08-.41.19-.54.34s-.21.35-.21.61c0,.35.13.61.39.79.26.18.59.27.99.27Z"/>
      <path class="cls-5" d="m468.03,20.83v3.94h-1v-6.55h.97v1.02h.09c.15-.33.39-.6.7-.8s.72-.3,1.21-.3c.44,0,.83.09,1.16.27.33.18.59.45.78.82.18.37.28.83.28,1.38v4.16h-1.01v-4.09c0-.51-.13-.92-.4-1.2-.27-.29-.63-.43-1.1-.43-.32,0-.61.07-.86.21-.25.14-.45.34-.59.61s-.22.59-.22.97Z"/>
      <path class="cls-5" d="m476.52,24.9c-.54,0-1.03-.14-1.44-.42-.42-.28-.74-.67-.98-1.18-.24-.51-.35-1.11-.35-1.8s.12-1.28.35-1.79c.24-.51.56-.9.98-1.17.42-.28.91-.41,1.46-.41.43,0,.76.07,1.01.21.25.14.44.3.57.48s.24.32.31.44h.09v-3.22h1v8.73h-.97v-1.01h-.12c-.07.12-.18.27-.32.45-.14.18-.33.34-.58.48s-.59.21-1.01.21Zm.14-.9c.4,0,.74-.11,1.02-.32s.49-.51.64-.88c.14-.38.22-.81.22-1.31s-.07-.92-.21-1.28c-.14-.37-.35-.65-.63-.86-.28-.21-.62-.31-1.03-.31s-.78.11-1.06.33c-.28.22-.49.51-.63.88-.14.37-.21.79-.21,1.25s.07.89.22,1.27c.14.38.36.68.64.9.28.22.63.33,1.05.33Z"/>
      <path class="cls-5" d="m485.88,16.04v8.73h-1v-8.73h1Z"/>
      <path class="cls-5" d="m490.38,24.9c-.59,0-1.11-.14-1.55-.42s-.79-.67-1.04-1.18c-.25-.51-.37-1.1-.37-1.77s.12-1.28.37-1.79c.25-.51.6-.9,1.04-1.19s.96-.42,1.55-.42,1.11.14,1.55.42.79.68,1.04,1.19c.25.51.37,1.1.37,1.79s-.12,1.27-.37,1.77c-.25.51-.6.9-1.04,1.18s-.96.42-1.55.42Zm0-.9c.45,0,.82-.12,1.11-.35s.5-.53.64-.91c.14-.38.21-.78.21-1.22s-.07-.85-.21-1.22c-.14-.38-.35-.68-.64-.92s-.66-.35-1.11-.35-.82.12-1.11.35-.5.54-.64.92c-.14.38-.21.79-.21,1.22s.07.84.21,1.22c.14.38.35.68.64.91s.66.35,1.11.35Z"/>
      <path class="cls-5" d="m497.52,27.35c-.49,0-.9-.06-1.25-.19-.35-.12-.64-.29-.87-.49-.23-.2-.42-.41-.55-.64l.8-.56c.09.12.21.26.34.41.14.15.33.29.57.4.24.12.56.17.96.17.53,0,.96-.13,1.31-.38.34-.26.52-.66.52-1.2v-1.33h-.09c-.07.12-.18.27-.31.44-.14.17-.33.33-.58.46-.25.13-.59.2-1.02.2-.53,0-1-.12-1.42-.38s-.75-.61-.99-1.09c-.24-.48-.36-1.06-.36-1.74s.12-1.26.35-1.75c.24-.5.56-.88.98-1.16.42-.27.91-.41,1.46-.41.43,0,.76.07,1.02.21.25.14.44.3.58.48s.24.32.31.44h.1v-1.04h.97v6.73c0,.56-.13,1.02-.38,1.37-.25.35-.6.61-1.02.78-.43.17-.9.25-1.43.25Zm-.03-3.6c.4,0,.74-.09,1.02-.28s.49-.45.64-.8c.14-.35.22-.76.22-1.24s-.07-.89-.21-1.25c-.14-.36-.35-.64-.63-.85s-.62-.31-1.03-.31-.78.11-1.06.32c-.28.22-.49.51-.63.87-.14.36-.21.77-.21,1.21s.07.86.22,1.2c.14.35.36.62.64.82.28.2.63.3,1.05.3Z"/>
      <path class="cls-5" d="m504.85,24.9c-.59,0-1.11-.14-1.55-.42s-.79-.67-1.04-1.18c-.25-.51-.37-1.1-.37-1.77s.12-1.28.37-1.79c.25-.51.6-.9,1.04-1.19s.96-.42,1.55-.42,1.11.14,1.55.42.79.68,1.04,1.19c.25.51.37,1.1.37,1.79s-.12,1.27-.37,1.77c-.25.51-.6.9-1.04,1.18s-.96.42-1.55.42Zm0-.9c.45,0,.82-.12,1.11-.35s.5-.53.64-.91c.14-.38.21-.78.21-1.22s-.07-.85-.21-1.22c-.14-.38-.35-.68-.64-.92s-.66-.35-1.11-.35-.82.12-1.11.35-.5.54-.64.92c-.14.38-.21.79-.21,1.22s.07.84.21,1.22c.14.38.35.68.64.91s.66.35,1.11.35Z"/>
      <path class="cls-5" d="m512.2,18.22v.85h-3.39v-.85h3.39Zm-2.4-1.57h1.01v6.24c0,.28.04.5.13.64s.19.23.32.28c.13.05.27.07.42.07.11,0,.2,0,.27-.02.07-.01.13-.02.17-.03l.21.9c-.07.03-.16.05-.29.08-.12.03-.28.04-.46.04-.28,0-.56-.06-.83-.18-.27-.12-.5-.31-.67-.56s-.27-.57-.27-.95v-6.51Z"/>
      <path class="cls-5" d="m514.36,27.22c-.17,0-.32-.01-.46-.04s-.23-.05-.28-.08l.26-.89c.24.06.46.09.65.07s.35-.1.5-.25c.15-.15.28-.39.4-.72l.19-.51-2.42-6.58h1.09l1.81,5.22h.07l1.81-5.22h1.09l-2.78,7.5c-.12.34-.28.62-.46.84-.19.22-.4.39-.64.5s-.52.16-.82.16Z"/>
      <path class="cls-5" d="m520.4,27.22v-9h.97v1.04h.12c.07-.11.18-.26.31-.44s.32-.34.57-.48c.25-.14.59-.21,1.01-.21.55,0,1.04.14,1.46.41.42.28.75.67.98,1.17.24.51.35,1.1.35,1.79s-.12,1.29-.35,1.8c-.24.51-.56.9-.98,1.18-.42.28-.9.42-1.44.42-.42,0-.76-.07-1.01-.21s-.45-.3-.58-.48c-.14-.18-.24-.33-.32-.45h-.09v3.46h-1Zm.99-5.73c0,.49.07.93.22,1.31.15.38.36.67.64.88.28.21.62.32,1.02.32s.77-.11,1.05-.33c.28-.22.5-.52.64-.9.14-.38.22-.8.22-1.27s-.07-.88-.21-1.25c-.14-.37-.35-.67-.63-.88-.28-.22-.64-.33-1.06-.33s-.75.1-1.03.31c-.28.21-.49.49-.63.86-.14.37-.21.8-.21,1.28Z"/>
      <path class="cls-5" d="m530.46,24.9c-.63,0-1.17-.14-1.63-.42s-.81-.67-1.05-1.18c-.25-.5-.37-1.09-.37-1.76s.12-1.26.37-1.77c.25-.51.59-.91,1.03-1.2.44-.29.96-.43,1.55-.43.34,0,.68.06,1.01.17.33.11.63.3.91.55.27.25.49.59.65,1.01.16.42.24.93.24,1.54v.43h-5.05v-.87h4.02c0-.37-.07-.7-.22-.99-.15-.29-.35-.52-.62-.69-.27-.17-.58-.25-.95-.25-.4,0-.75.1-1.04.3-.29.2-.51.45-.67.77-.16.32-.23.65-.23,1.01v.58c0,.49.09.91.26,1.26s.41.6.72.78c.31.18.66.27,1.07.27.26,0,.5-.04.72-.11s.4-.19.56-.34c.16-.15.28-.34.36-.57l.97.27c-.1.33-.27.62-.52.87s-.54.44-.89.58-.75.21-1.2.21Z"/>
      <path class="cls-5" d="m398.29,39.3c-.63,0-1.17-.14-1.63-.42s-.81-.67-1.05-1.18c-.25-.5-.37-1.09-.37-1.76s.12-1.26.37-1.77c.25-.51.59-.91,1.03-1.2.44-.29.96-.43,1.55-.43.34,0,.68.06,1.01.17.33.11.63.3.91.55.27.25.49.59.65,1.01.16.42.24.93.24,1.54v.43h-5.05v-.87h4.02c0-.37-.07-.7-.22-.99-.15-.29-.35-.52-.62-.69-.27-.17-.58-.25-.95-.25-.4,0-.75.1-1.04.3-.29.2-.51.45-.67.77-.16.32-.23.65-.23,1.01v.58c0,.49.09.91.26,1.26s.41.6.72.78c.31.18.66.27,1.07.27.26,0,.5-.04.72-.11s.4-.19.56-.34c.16-.15.28-.34.36-.57l.97.27c-.1.33-.27.62-.52.87s-.54.44-.89.58-.75.21-1.2.21Z"/>
      <path class="cls-5" d="m407,41.62v-3.46h-.09c-.07.12-.18.27-.32.45-.14.18-.33.34-.58.48s-.59.21-1.01.21c-.54,0-1.03-.14-1.44-.42-.42-.28-.74-.67-.98-1.18-.24-.51-.35-1.11-.35-1.8s.12-1.28.35-1.79c.24-.51.56-.9.98-1.17.42-.28.91-.41,1.46-.41.43,0,.76.07,1.01.21.25.14.44.3.57.48s.24.32.31.44h.12v-1.04h.97v9h-1Zm-1.86-3.22c.4,0,.74-.11,1.02-.32s.49-.51.64-.88c.14-.38.22-.81.22-1.31s-.07-.92-.21-1.28c-.14-.37-.35-.65-.63-.86-.28-.21-.62-.31-1.03-.31s-.78.11-1.06.33c-.28.22-.49.51-.63.88-.14.37-.21.79-.21,1.25s.07.89.22,1.27c.14.38.36.68.64.9.28.22.63.33,1.05.33Z"/>
      <path class="cls-5" d="m413.97,36.49v-3.87h1v6.55h-1v-1.11h-.07c-.15.33-.39.61-.72.85-.32.23-.73.35-1.23.35-.41,0-.77-.09-1.09-.27-.32-.18-.57-.45-.75-.82-.18-.37-.27-.83-.27-1.38v-4.16h1v4.09c0,.48.13.86.4,1.14s.61.43,1.03.43c.25,0,.5-.06.76-.19s.48-.32.66-.59.27-.6.27-1.01Z"/>
      <path class="cls-5" d="m418.74,39.32c-.42,0-.79-.08-1.13-.24-.34-.16-.61-.39-.81-.69-.2-.3-.3-.66-.3-1.09,0-.38.07-.68.22-.91s.35-.42.59-.55c.25-.13.52-.23.82-.3.3-.07.6-.12.91-.16.4-.05.72-.09.97-.12.25-.03.43-.07.54-.14.12-.07.17-.18.17-.34v-.03c0-.42-.11-.75-.34-.98s-.58-.35-1.04-.35-.86.1-1.13.31c-.27.21-.46.44-.58.67l-.96-.34c.17-.4.4-.71.68-.93.29-.22.6-.38.94-.47.34-.09.67-.13,1-.13.21,0,.45.02.73.07.27.05.54.15.8.3.26.15.47.39.64.69.17.31.26.72.26,1.24v4.31h-1.01v-.89h-.05c-.07.14-.18.29-.34.46-.16.16-.37.3-.64.41-.26.11-.59.17-.97.17Zm.15-.9c.4,0,.73-.08,1.01-.23s.48-.36.62-.6.21-.51.21-.78v-.92c-.04.05-.14.1-.28.14-.14.04-.31.08-.49.11-.19.03-.37.06-.54.08-.17.02-.32.04-.42.05-.26.03-.5.09-.73.16-.23.08-.41.19-.54.34s-.21.35-.21.61c0,.35.13.61.39.79.26.18.59.27.99.27Z"/>
      <path class="cls-5" d="m424.59,30.44v8.73h-1v-8.73h1Z"/>
      <path class="cls-5" d="m431.06,34.08l-.9.26c-.06-.15-.14-.3-.25-.44-.11-.14-.26-.26-.45-.36s-.43-.14-.72-.14c-.4,0-.73.09-1,.27-.27.18-.4.42-.4.7,0,.25.09.45.27.59.18.14.47.27.85.36l.97.24c.58.14,1.02.36,1.31.65.29.29.43.67.43,1.12,0,.38-.11.71-.32,1.01-.21.3-.51.53-.9.7-.38.17-.83.26-1.34.26-.67,0-1.22-.14-1.66-.43-.44-.29-.71-.71-.83-1.27l.95-.24c.09.35.26.62.52.79.25.18.59.26,1,.26.47,0,.84-.1,1.12-.3.28-.2.42-.44.42-.72,0-.23-.08-.42-.24-.57s-.4-.27-.73-.35l-1.09-.26c-.6-.14-1.04-.36-1.32-.66-.28-.3-.42-.68-.42-1.13,0-.37.1-.7.31-.98s.49-.51.86-.67c.36-.16.77-.24,1.23-.24.65,0,1.16.14,1.53.43.37.28.63.66.79,1.12Z"/>
      <path class="cls-5" d="m439.13,30.44v8.73h-1.06v-7.62h-.05l-2.13,1.41v-1.07l2.18-1.45h1.06Z"/>
      <path class="cls-5" d="m445.16,39.16v-8.73h1.01v3.22h.08c.07-.11.18-.26.31-.44.13-.18.32-.34.57-.48.25-.14.59-.21,1.01-.21.55,0,1.04.14,1.46.41.42.28.75.67.98,1.17.24.51.35,1.1.35,1.79s-.12,1.29-.35,1.8c-.24.51-.56.9-.98,1.18-.42.28-.9.42-1.44.42-.42,0-.76-.07-1.01-.21s-.45-.3-.58-.48c-.14-.18-.24-.33-.32-.45h-.12v1.01h-.97Zm.99-3.27c0,.49.07.93.22,1.31.14.38.36.67.63.88s.62.32,1.02.32.77-.11,1.05-.33c.28-.22.5-.52.64-.9s.21-.8.21-1.27-.07-.88-.21-1.25c-.14-.37-.35-.67-.63-.88-.28-.22-.64-.33-1.06-.33s-.75.1-1.03.31c-.28.21-.49.49-.63.86-.14.37-.21.8-.21,1.28Z"/>
      <path class="cls-5" d="m452.47,39.16v-6.55h.97v.99h.07c.12-.32.33-.59.65-.79.31-.2.66-.3,1.06-.3.07,0,.17,0,.28,0,.11,0,.2,0,.25.01v1.02s-.11-.02-.23-.04-.25-.03-.38-.03c-.32,0-.6.07-.85.2-.25.13-.44.31-.59.55s-.22.5-.22.79v4.14h-1Z"/>
      <path class="cls-5" d="m458.87,39.32c-.42,0-.79-.08-1.13-.24-.34-.16-.61-.39-.81-.69-.2-.3-.3-.66-.3-1.09,0-.38.07-.68.22-.91s.35-.42.59-.55c.25-.13.52-.23.82-.3.3-.07.6-.12.91-.16.4-.05.72-.09.97-.12.25-.03.43-.07.54-.14.12-.07.17-.18.17-.34v-.03c0-.42-.11-.75-.34-.98s-.58-.35-1.04-.35-.86.1-1.13.31c-.27.21-.46.44-.58.67l-.96-.34c.17-.4.4-.71.68-.93.29-.22.6-.38.94-.47.34-.09.67-.13,1-.13.21,0,.45.02.73.07.27.05.54.15.8.3.26.15.47.39.64.69.17.31.26.72.26,1.24v4.31h-1.01v-.89h-.05c-.07.14-.18.29-.34.46-.16.16-.37.3-.64.41-.26.11-.59.17-.97.17Zm.15-.9c.4,0,.73-.08,1.01-.23s.48-.36.62-.6.21-.51.21-.78v-.92c-.04.05-.14.1-.28.14-.14.04-.31.08-.49.11-.19.03-.37.06-.54.08-.17.02-.32.04-.42.05-.26.03-.5.09-.73.16-.23.08-.41.19-.54.34s-.21.35-.21.61c0,.35.13.61.39.79.26.18.59.27.99.27Z"/>
      <path class="cls-5" d="m466.36,39.3c-.61,0-1.14-.14-1.58-.43-.44-.29-.78-.69-1.02-1.2-.24-.51-.36-1.09-.36-1.74s.12-1.25.37-1.76c.25-.51.59-.91,1.03-1.2.44-.29.96-.43,1.55-.43.46,0,.88.09,1.24.26s.67.41.91.72c.24.31.38.67.44,1.07h-1.01c-.08-.3-.25-.56-.51-.79s-.62-.35-1.06-.35c-.39,0-.73.1-1.03.3s-.52.49-.69.86c-.16.37-.25.8-.25,1.29s.08.95.24,1.32c.16.38.39.67.68.87s.64.31,1.04.31c.26,0,.5-.05.71-.14s.39-.22.54-.39c.15-.17.25-.38.32-.61h1.01c-.06.39-.2.73-.42,1.04-.22.31-.52.55-.88.73s-.79.27-1.27.27Z"/>
      <path class="cls-5" d="m470.41,39.16v-8.73h1v8.73h-1Zm.94-2.39l-.02-1.24h.21l2.86-2.91h1.24l-3.05,3.08h-.09l-1.16,1.07Zm3.22,2.39l-2.56-3.24.72-.7,3.12,3.94h-1.28Z"/>
      <path class="cls-5" d="m479.4,39.3c-.63,0-1.17-.14-1.63-.42s-.81-.67-1.05-1.18c-.25-.5-.37-1.09-.37-1.76s.12-1.26.37-1.77c.25-.51.59-.91,1.03-1.2.44-.29.96-.43,1.55-.43.34,0,.68.06,1.01.17.33.11.63.3.91.55.27.25.49.59.65,1.01.16.42.24.93.24,1.54v.43h-5.05v-.87h4.02c0-.37-.07-.7-.22-.99-.15-.29-.35-.52-.62-.69-.27-.17-.58-.25-.95-.25-.4,0-.75.1-1.04.3-.29.2-.51.45-.67.77-.16.32-.23.65-.23,1.01v.58c0,.49.09.91.26,1.26s.41.6.72.78c.31.18.66.27,1.07.27.26,0,.5-.04.72-.11s.4-.19.56-.34c.16-.15.28-.34.36-.57l.97.27c-.1.33-.27.62-.52.87s-.54.44-.89.58-.75.21-1.2.21Z"/>
      <path class="cls-5" d="m486.5,32.62v.85h-3.39v-.85h3.39Zm-2.4-1.57h1.01v6.24c0,.28.04.5.13.64s.19.23.32.28c.13.05.27.07.42.07.11,0,.2,0,.27-.02.07-.01.13-.02.17-.03l.21.9c-.07.03-.16.05-.29.08-.12.03-.28.04-.46.04-.28,0-.56-.06-.83-.18-.27-.12-.5-.31-.67-.56s-.27-.57-.27-.95v-6.51Z"/>
    </g>
    <g>
      <line class="cls-1" x1="0" y1="179.17" x2="184.67" y2="179.17"/>
      <path class="cls-8" d="m184.48,182.93c2.08,0,3.76-1.68,3.76-3.76s-1.68-3.76-3.76-3.76-3.76,1.68-3.76,3.76,1.68,3.76,3.76,3.76Z"/>
    </g>
    <g>
      <line class="cls-1" x1="189.01" y1="341.83" x2="362.94" y2="341.83"/>
      <circle class="cls-8" cx="189.2" cy="341.83" r="3.76"/>
      <path class="cls-8" d="m362.75,345.59c2.08,0,3.76-1.68,3.76-3.76s-1.68-3.76-3.76-3.76-3.76,1.68-3.76,3.76,1.68,3.76,3.76,3.76Z"/>
    </g>
    <g>
      <line class="cls-1" x1="421.74" y1="341.83" x2="732.15" y2="341.83"/>
      <circle class="cls-8" cx="421.92" cy="341.83" r="3.76"/>
      <circle class="cls-8" cx="731.96" cy="341.83" r="3.76"/>
    </g>
    <g>
      <line class="cls-1" x1="270.74" y1="1.95" x2="270.74" y2="140.67"/>
      <path class="cls-8" d="m266.98,140.48c0,2.08,1.68,3.76,3.76,3.76s3.76-1.68,3.76-3.76-1.68-3.76-3.76-3.76-3.76,1.68-3.76,3.76Z"/>
    </g>
    <g>
      <line class="cls-1" x1="390.24" y1="1.95" x2="390.24" y2="140.67"/>
      <path class="cls-8" d="m386.48,140.48c0,2.08,1.68,3.76,3.76,3.76s3.76-1.68,3.76-3.76-1.68-3.76-3.76-3.76-3.76,1.68-3.76,3.76Z"/>
    </g>
    <text class="cls-6" transform="translate(635.7 10.36)"><tspan class="cls-7" x="0" y="0">F</tspan><tspan x="6.56" y="0">ont: In</tspan><tspan class="cls-2" x="41.98" y="0">t</tspan><tspan x="46.28" y="0">e</tspan><tspan class="cls-4" x="53.27" y="0">r</tspan><tspan x="56.98" y="0">, Medium.</tspan><tspan x="0" y="14.4">Colour: #1C1E21</tspan></text>
    <g>
      <line class="cls-1" x1="631.31" y1="1.95" x2="631.31" y2="107.39"/>
      <circle class="cls-8" cx="631.31" cy="107.2" r="3.76"/>
    </g>
  </g>
</svg>