<?xml version="1.0" encoding="UTF-8"?>
<svg id="Layer_2" data-name="Layer 2" xmlns="http://www.w3.org/2000/svg" viewBox="0 0 359.86 374.32">
  <defs>
    <style>
      .cls-1 {
        fill: none;
        stroke: #999;
        stroke-miterlimit: 10;
      }

      .cls-2 {
        fill: #e0e0e0;
      }

      .cls-3, .cls-4 {
        fill: #1c1e21;
      }

      .cls-4 {
        font-family: Inter-Regular, Inter;
        font-size: 12px;
      }

      .cls-5 {
        fill: #999;
      }
    </style>
  </defs>
  <g id="Layer_1-2" data-name="Layer 1">
    <path class="cls-2" d="m245.58,177.9c4.1-1.01,7.25-2.44,9.48-4.3,2.22-1.86,3.74-4.08,4.57-6.66.83-2.58,1.24-5.45,1.24-8.6v-24.22c0-4.72.56-8.61,1.67-11.66,1.11-3.05,3.01-5.3,5.69-6.75,2.68-1.45,6.37-2.18,11.05-2.18v-11.87c-5.93,0-10.92.65-14.96,1.94-4.04,1.29-7.26,3.27-9.69,5.93s-4.17,6.03-5.24,10.11c-1.07,4.08-1.6,8.9-1.6,14.47v19.38c0,6.62-1.34,11.34-4.03,14.17-2.68,2.83-7.4,4.24-14.14,4.24v14.53c6.74,0,11.45,1.41,14.14,4.24,2.68,2.83,4.03,7.55,4.03,14.17v19.37c0,5.57.53,10.39,1.6,14.47,1.07,4.08,2.81,7.45,5.24,10.11s5.65,4.64,9.69,5.93c4.04,1.29,9.02,1.94,14.96,1.94v-11.87c-4.68,0-8.37-.74-11.05-2.21-2.68-1.47-4.58-3.72-5.69-6.75-1.11-3.03-1.67-6.9-1.67-11.63v-24.22c0-3.15-.41-6.01-1.24-8.6-.83-2.58-2.35-4.8-4.57-6.66-2.22-1.86-5.38-3.29-9.48-4.3-.52-.13-1.11-.22-1.67-.33v-1.87c.56-.11,1.15-.21,1.67-.33Z"/>
    <path class="cls-2" d="m33.69,177.9c-4.1-1.01-7.25-2.44-9.48-4.3-2.22-1.86-3.74-4.08-4.57-6.66-.83-2.58-1.24-5.45-1.24-8.6v-24.22c0-4.72-.56-8.61-1.67-11.66-1.11-3.05-3.01-5.3-5.69-6.75C8.37,114.26,4.68,113.54,0,113.54v-11.87c5.93,0,10.92.65,14.96,1.94,4.04,1.29,7.26,3.27,9.69,5.93,2.42,2.66,4.17,6.03,5.24,10.11,1.07,4.08,1.6,8.9,1.6,14.47v19.38c0,6.62,1.34,11.34,4.03,14.17,2.68,2.83,7.4,4.24,14.14,4.24v7.02s0,.48,0,.48v7.02c-6.74,0-11.45,1.41-14.14,4.24-2.68,2.83-4.03,7.55-4.03,14.17v19.37c0,5.57-.53,10.39-1.6,14.47-1.07,4.08-2.81,7.45-5.24,10.11-2.42,2.66-5.65,4.64-9.69,5.93C10.92,256.02,5.93,256.67,0,256.67v-11.87c4.68,0,8.37-.74,11.05-2.21,2.68-1.47,4.58-3.72,5.69-6.75,1.11-3.03,1.67-6.9,1.67-11.63v-24.22c0-3.15.41-6.01,1.24-8.6.83-2.58,2.35-4.8,4.57-6.66,2.22-1.86,5.38-3.29,9.48-4.3.52-.13,1.11-.22,1.67-.33v-1.87c-.56-.11-1.15-.21-1.67-.33Z"/>
    <path class="cls-2" d="m141.3,85.72c1.01-4.1,2.44-7.25,4.3-9.48,1.86-2.22,4.08-3.74,6.66-4.57,2.58-.83,5.45-1.24,8.6-1.24h24.22c4.72,0,8.61-.56,11.66-1.67,3.05-1.11,5.3-3.01,6.75-5.69,1.45-2.68,2.18-6.37,2.18-11.05h11.87c0,5.93-.65,10.92-1.94,14.96-1.29,4.04-3.27,7.26-5.93,9.69s-6.03,4.17-10.11,5.24c-4.08,1.07-8.9,1.6-14.47,1.6h-19.38c-6.62,0-11.34,1.34-14.17,4.03-2.83,2.68-4.24,7.4-4.24,14.14h-7.02s-.48,0-.48,0h-7.02c0-6.74-1.41-11.45-4.24-14.14-2.83-2.68-7.55-4.03-14.17-4.03h-19.37c-5.57,0-10.39-.53-14.47-1.6-4.08-1.07-7.45-2.81-10.11-5.24s-4.64-5.65-5.93-9.69c-1.29-4.04-1.94-9.02-1.94-14.96h11.87c0,4.68.74,8.37,2.21,11.05,1.47,2.68,3.72,4.58,6.75,5.69,3.03,1.11,6.9,1.67,11.63,1.67h24.22c3.15,0,6.01.41,8.6,1.24,2.58.83,4.8,2.35,6.66,4.57,1.86,2.22,3.29,5.38,4.3,9.48.13.52.22,1.11.33,1.67h1.87c.11-.56.21-1.15.33-1.67Z"/>
    <path class="cls-2" d="m141.3,272.62c1.01,4.1,2.44,7.25,4.3,9.48,1.86,2.22,4.08,3.74,6.66,4.57,2.58.83,5.45,1.24,8.6,1.24h24.22c4.72,0,8.61.56,11.66,1.67,3.05,1.11,5.3,3.01,6.75,5.69,1.45,2.68,2.18,6.37,2.18,11.05h11.87c0-5.93-.65-10.92-1.94-14.96-1.29-4.04-3.27-7.26-5.93-9.69s-6.03-4.17-10.11-5.24c-4.08-1.07-8.9-1.6-14.47-1.6h-19.38c-6.62,0-11.34-1.34-14.17-4.03-2.83-2.68-4.24-7.4-4.24-14.14h-7.02s-.48,0-.48,0h-7.02c0,6.74-1.41,11.45-4.24,14.14-2.83,2.68-7.55,4.03-14.17,4.03h-19.37c-5.57,0-10.39.53-14.47,1.6-4.08,1.07-7.45,2.81-10.11,5.24s-4.64,5.65-5.93,9.69c-1.29,4.04-1.94,9.02-1.94,14.96h11.87c0-4.68.74-8.37,2.21-11.05,1.47-2.68,3.72-4.58,6.75-5.69,3.03-1.11,6.9-1.67,11.63-1.67h24.22c3.15,0,6.01-.41,8.6-1.24,2.58-.83,4.8-2.35,6.66-4.57,1.86-2.22,3.29-5.38,4.3-9.48.13-.52.22-1.11.33-1.67h1.87c.11.56.21,1.15.33,1.67Z"/>
    <g>
      <path id="path4548" class="cls-3" d="m123.9,242c-2.96-2.78-2.53-7.57,1.1-12.27,2.69-3.48,13.93-14.88,22.04-22.36l3.28-3.02-5.22-11.19c-5.85-12.55-5.82-12.79,1.9-13.65l4.25-.47,4.75,7.18c2.61,3.95,5.13,7.18,5.58,7.18s5.14-3.76,10.41-8.35c9.15-7.98,9.72-8.33,12.82-7.91,1.87.26,3.53.1,3.92-.37.92-1.1,3.56.53,3.56,2.2,0,.69-1.32,2.43-2.92,3.87-6.57,5.9-20.58,19.86-20.58,20.5,0,.38,2.82,5.25,6.28,10.83l5.84,9.44c.26.42.21.96-.12,1.32l-1.39,1.07c-1.05,1.16-1.76,2.07-1.9,3.21.25.7-.8,1.04-1.75,1.48-2.41,1.12-4.19-.25-11.55-8.89-3.37-3.96-6.46-7.21-6.87-7.22-.91-.02-10.98,10.99-18.77,20.52-6.87,8.4-12.92,8.57-14.67,6.92h0Z"/>
      <path id="path4550" class="cls-3" d="m115.72,176.67c-.04-.06-.09-.12-.12-.17-15.34-22.9-26.46-26.93-26.06-27.18,5.83-3.75,16.77-.07,23.53,5.94.08.07.16.16.25.24,1.62,1.38,1.99,1.88,3.93,4.04.35,0,7.83-12.43,7.88-12.51,15.06-23.75,30.81-33.79,39.95-33.77,4.36,0,5.01,1.52,5.01,1.52-14.81,7.73-27.34,21.51-40.28,46.89-3.61,7.27-9.69,19-10.13,19.8-.66,1.2-.77-.59-3.95-4.8Z"/>
      <path class="cls-3" d="m65.6,177.9c4.1-1.01,7.25-2.44,9.48-4.3,2.22-1.86,3.74-4.08,4.57-6.66.83-2.58,1.24-5.45,1.24-8.6v-24.22c0-4.72.56-8.61,1.67-11.66,1.11-3.05,3.01-5.3,5.69-6.75,2.68-1.45,6.37-2.18,11.05-2.18v-11.87c-5.93,0-10.92.65-14.96,1.94-4.04,1.29-7.26,3.27-9.69,5.93-2.42,2.66-4.17,6.03-5.24,10.11-1.07,4.08-1.6,8.9-1.6,14.47v19.38c0,6.62-1.34,11.34-4.03,14.17-2.68,2.83-7.4,4.24-14.14,4.24v14.53c6.74,0,11.45,1.41,14.14,4.24,2.68,2.83,4.03,7.55,4.03,14.17v19.37c0,5.57.53,10.39,1.6,14.47,1.07,4.08,2.81,7.45,5.24,10.11s5.65,4.64,9.69,5.93c4.04,1.29,9.02,1.94,14.96,1.94v-11.87c-4.68,0-8.37-.74-11.05-2.21-2.68-1.47-4.58-3.72-5.69-6.75-1.11-3.03-1.67-6.9-1.67-11.63v-24.22c0-3.15-.41-6.01-1.24-8.6-.83-2.58-2.35-4.8-4.57-6.66-2.22-1.86-5.38-3.29-9.48-4.3-.52-.13-1.11-.22-1.67-.33v-1.87c.56-.11,1.15-.21,1.67-.33Z"/>
      <path class="cls-3" d="m214.76,177.9c-4.1-1.01-7.25-2.44-9.48-4.3-2.22-1.86-3.74-4.08-4.57-6.66-.83-2.58-1.24-5.45-1.24-8.6v-24.22c0-4.72-.56-8.61-1.67-11.66-1.11-3.05-3.01-5.3-5.69-6.75-2.68-1.45-6.37-2.18-11.05-2.18v-11.87c5.93,0,10.92.65,14.96,1.94,4.04,1.29,7.26,3.27,9.69,5.93,2.42,2.66,4.17,6.03,5.24,10.11,1.07,4.08,1.6,8.9,1.6,14.47v19.38c0,6.62,1.34,11.34,4.03,14.17,2.68,2.83,7.4,4.24,14.14,4.24v7.02s0,.48,0,.48v7.02c-6.74,0-11.45,1.41-14.14,4.24-2.68,2.83-4.03,7.55-4.03,14.17v19.37c0,5.57-.53,10.39-1.6,14.47-1.07,4.08-2.81,7.45-5.24,10.11-2.42,2.66-5.65,4.64-9.69,5.93-4.04,1.29-9.02,1.94-14.96,1.94v-11.87c4.68,0,8.37-.74,11.05-2.21,2.68-1.47,4.58-3.72,5.69-6.75,1.11-3.03,1.67-6.9,1.67-11.63v-24.22c0-3.15.41-6.01,1.24-8.6.83-2.58,2.35-4.8,4.57-6.66,2.22-1.86,5.38-3.29,9.48-4.3.52-.13,1.11-.22,1.67-.33v-1.87c-.56-.11-1.15-.21-1.67-.33Z"/>
    </g>
    <text class="cls-4" transform="translate(109.33 370.48)"><tspan x="0" y="0">Brandmark</tspan></text>
    <g>
      <path class="cls-3" d="m266.91,4.36h-1.06c-.06-.3-.17-.57-.33-.8-.15-.23-.34-.42-.56-.58-.22-.16-.46-.28-.73-.36-.27-.08-.54-.12-.83-.12-.53,0-1.01.13-1.43.4-.43.27-.77.66-1.02,1.18-.25.52-.38,1.16-.38,1.91s.13,1.39.38,1.91c.25.52.59.91,1.02,1.18.43.27.91.4,1.43.4.29,0,.57-.04.83-.12.27-.08.51-.2.73-.36.22-.16.41-.35.56-.58.16-.23.26-.5.33-.8h1.06c-.08.45-.22.84-.43,1.2-.21.35-.47.65-.78.9-.31.25-.66.43-1.05.56s-.8.19-1.24.19c-.74,0-1.41-.18-1.99-.54-.58-.36-1.04-.88-1.37-1.55-.33-.67-.5-1.47-.5-2.39s.17-1.72.5-2.39c.33-.67.79-1.19,1.37-1.55.58-.36,1.24-.55,1.99-.55.44,0,.85.06,1.24.19s.74.31,1.05.56c.31.25.57.54.78.89.21.35.36.75.43,1.2Z"/>
      <path class="cls-3" d="m269.48,1.64v8.73h-1V1.64h1Z"/>
      <path class="cls-3" d="m274.07,10.5c-.63,0-1.17-.14-1.63-.42-.46-.28-.81-.67-1.05-1.18-.25-.5-.37-1.09-.37-1.76s.12-1.26.37-1.77c.25-.51.59-.91,1.03-1.2.44-.29.96-.43,1.55-.43.34,0,.68.06,1.01.17.33.11.63.3.91.55.27.25.49.59.65,1.01s.24.93.24,1.54v.43h-5.05v-.87h4.02c0-.37-.07-.7-.22-.99-.15-.29-.35-.52-.62-.69s-.58-.25-.95-.25c-.4,0-.75.1-1.04.3-.29.2-.51.45-.67.77-.16.32-.23.65-.23,1.01v.58c0,.5.09.91.26,1.26.17.34.41.6.72.78.31.18.66.27,1.07.27.26,0,.5-.04.72-.11s.4-.19.56-.34.28-.34.36-.57l.97.27c-.1.33-.27.62-.52.87-.24.25-.54.44-.89.58s-.75.21-1.2.21Z"/>
      <path class="cls-3" d="m280.24,10.52c-.42,0-.79-.08-1.13-.24-.34-.16-.61-.39-.81-.69-.2-.3-.3-.66-.3-1.09,0-.38.07-.68.22-.91s.35-.42.59-.55c.25-.13.52-.23.82-.3s.6-.12.91-.16c.4-.05.72-.09.97-.12.25-.03.43-.07.54-.14.12-.07.17-.18.17-.34v-.03c0-.42-.11-.75-.34-.98-.23-.23-.58-.35-1.04-.35s-.86.11-1.13.32-.46.43-.58.67l-.96-.34c.17-.4.4-.71.68-.93.29-.22.6-.38.94-.47.34-.09.67-.13,1-.13.21,0,.45.03.73.08.27.05.54.15.8.3.26.15.47.38.64.69.17.31.26.72.26,1.24v4.31h-1.01v-.89h-.05c-.07.14-.18.29-.34.46-.16.16-.37.3-.64.41-.26.11-.59.17-.97.17Zm.15-.9c.4,0,.73-.08,1.01-.23s.48-.36.62-.6.21-.51.21-.78v-.92c-.04.05-.14.1-.28.14-.14.04-.31.08-.49.11-.19.03-.37.06-.54.08s-.32.04-.42.05c-.26.03-.5.09-.73.16-.23.08-.41.19-.54.34-.14.15-.21.35-.21.61,0,.35.13.61.39.79.26.18.59.27.99.27Z"/>
      <path class="cls-3" d="m285.08,10.36V3.82h.97v.99h.07c.12-.32.33-.59.65-.79.31-.2.66-.3,1.06-.3.07,0,.17,0,.28,0,.11,0,.2,0,.25.01v1.02s-.11-.02-.23-.04-.25-.03-.38-.03c-.32,0-.6.07-.85.2-.25.13-.44.31-.59.54s-.22.5-.22.79v4.14h-1Z"/>
      <path class="cls-3" d="m294.84,10.52c-.42,0-.79-.08-1.13-.24-.34-.16-.61-.39-.81-.69-.2-.3-.3-.66-.3-1.09,0-.38.07-.68.22-.91s.35-.42.59-.55c.25-.13.52-.23.82-.3s.6-.12.91-.16c.4-.05.72-.09.97-.12.25-.03.43-.07.54-.14.12-.07.17-.18.17-.34v-.03c0-.42-.11-.75-.34-.98-.23-.23-.58-.35-1.04-.35s-.86.11-1.13.32-.46.43-.58.67l-.96-.34c.17-.4.4-.71.68-.93.29-.22.6-.38.94-.47.34-.09.67-.13,1-.13.21,0,.45.03.73.08.27.05.54.15.8.3.26.15.47.38.64.69.17.31.26.72.26,1.24v4.31h-1.01v-.89h-.05c-.07.14-.18.29-.34.46-.16.16-.37.3-.64.41-.26.11-.59.17-.97.17Zm.15-.9c.4,0,.73-.08,1.01-.23s.48-.36.62-.6.21-.51.21-.78v-.92c-.04.05-.14.1-.28.14-.14.04-.31.08-.49.11-.19.03-.37.06-.54.08s-.32.04-.42.05c-.26.03-.5.09-.73.16-.23.08-.41.19-.54.34-.14.15-.21.35-.21.61,0,.35.13.61.39.79.26.18.59.27.99.27Z"/>
      <path class="cls-3" d="m299.69,10.36V3.82h.97v.99h.07c.12-.32.33-.59.65-.79.31-.2.66-.3,1.06-.3.07,0,.17,0,.28,0,.11,0,.2,0,.25.01v1.02s-.11-.02-.23-.04-.25-.03-.38-.03c-.32,0-.6.07-.85.2-.25.13-.44.31-.59.54s-.22.5-.22.79v4.14h-1Z"/>
      <path class="cls-3" d="m306.69,10.5c-.63,0-1.17-.14-1.63-.42-.46-.28-.81-.67-1.05-1.18-.25-.5-.37-1.09-.37-1.76s.12-1.26.37-1.77c.25-.51.59-.91,1.03-1.2.44-.29.96-.43,1.55-.43.34,0,.68.06,1.01.17.33.11.63.3.91.55.27.25.49.59.65,1.01s.24.93.24,1.54v.43h-5.05v-.87h4.02c0-.37-.07-.7-.22-.99-.15-.29-.35-.52-.62-.69s-.58-.25-.95-.25c-.4,0-.75.1-1.04.3-.29.2-.51.45-.67.77-.16.32-.23.65-.23,1.01v.58c0,.5.09.91.26,1.26.17.34.41.6.72.78.31.18.66.27,1.07.27.26,0,.5-.04.72-.11s.4-.19.56-.34.28-.34.36-.57l.97.27c-.1.33-.27.62-.52.87-.24.25-.54.44-.89.58s-.75.21-1.2.21Z"/>
      <path class="cls-3" d="m312.86,10.52c-.42,0-.79-.08-1.13-.24-.34-.16-.61-.39-.81-.69-.2-.3-.3-.66-.3-1.09,0-.38.07-.68.22-.91s.35-.42.59-.55c.25-.13.52-.23.82-.3s.6-.12.91-.16c.4-.05.72-.09.97-.12.25-.03.43-.07.54-.14.12-.07.17-.18.17-.34v-.03c0-.42-.11-.75-.34-.98-.23-.23-.58-.35-1.04-.35s-.86.11-1.13.32-.46.43-.58.67l-.96-.34c.17-.4.4-.71.68-.93.29-.22.6-.38.94-.47.34-.09.67-.13,1-.13.21,0,.45.03.73.08.27.05.54.15.8.3.26.15.47.38.64.69.17.31.26.72.26,1.24v4.31h-1.01v-.89h-.05c-.07.14-.18.29-.34.46-.16.16-.37.3-.64.41-.26.11-.59.17-.97.17Zm.15-.9c.4,0,.73-.08,1.01-.23s.48-.36.62-.6.21-.51.21-.78v-.92c-.04.05-.14.1-.28.14-.14.04-.31.08-.49.11-.19.03-.37.06-.54.08s-.32.04-.42.05c-.26.03-.5.09-.73.16-.23.08-.41.19-.54.34-.14.15-.21.35-.21.61,0,.35.13.61.39.79.26.18.59.27.99.27Z"/>
      <path class="cls-3" d="m319.63,10.52c-.42,0-.79-.08-1.13-.24-.34-.16-.61-.39-.81-.69-.2-.3-.3-.66-.3-1.09,0-.38.07-.68.22-.91s.35-.42.59-.55c.25-.13.52-.23.82-.3s.6-.12.91-.16c.4-.05.72-.09.97-.12.25-.03.43-.07.54-.14.12-.07.17-.18.17-.34v-.03c0-.42-.11-.75-.34-.98-.23-.23-.58-.35-1.04-.35s-.86.11-1.13.32-.46.43-.58.67l-.96-.34c.17-.4.4-.71.68-.93.29-.22.6-.38.94-.47.34-.09.67-.13,1-.13.21,0,.45.03.73.08.27.05.54.15.8.3.26.15.47.38.64.69.17.31.26.72.26,1.24v4.31h-1.01v-.89h-.05c-.07.14-.18.29-.34.46-.16.16-.37.3-.64.41-.26.11-.59.17-.97.17Zm.15-.9c.4,0,.73-.08,1.01-.23s.48-.36.62-.6.21-.51.21-.78v-.92c-.04.05-.14.1-.28.14-.14.04-.31.08-.49.11-.19.03-.37.06-.54.08s-.32.04-.42.05c-.26.03-.5.09-.73.16-.23.08-.41.19-.54.34-.14.15-.21.35-.21.61,0,.35.13.61.39.79.26.18.59.27.99.27Z"/>
      <path class="cls-3" d="m324.47,10.36V3.82h.97v.99h.07c.12-.32.33-.59.65-.79.31-.2.66-.3,1.06-.3.07,0,.17,0,.28,0,.11,0,.2,0,.25.01v1.02s-.11-.02-.23-.04-.25-.03-.38-.03c-.32,0-.6.07-.85.2-.25.13-.44.31-.59.54s-.22.5-.22.79v4.14h-1Z"/>
      <path class="cls-3" d="m331.39,10.5c-.59,0-1.11-.14-1.55-.42s-.79-.67-1.04-1.18c-.25-.51-.37-1.1-.37-1.77s.12-1.28.37-1.79c.25-.51.6-.9,1.04-1.19s.96-.42,1.55-.42,1.11.14,1.55.42.79.68,1.04,1.19c.25.51.37,1.1.37,1.79s-.12,1.27-.37,1.77c-.25.51-.6.9-1.04,1.18s-.96.42-1.55.42Zm0-.9c.45,0,.82-.12,1.11-.35.29-.23.5-.53.64-.91.14-.38.21-.78.21-1.22s-.07-.85-.21-1.22c-.14-.38-.35-.68-.64-.92-.29-.23-.66-.35-1.11-.35s-.82.12-1.11.35c-.29.23-.5.54-.64.92-.14.38-.21.79-.21,1.22s.07.84.21,1.22c.14.38.35.68.64.91.29.23.66.35,1.11.35Z"/>
      <path class="cls-3" d="m340.02,7.69v-3.87h1v6.54h-1v-1.11h-.07c-.15.33-.39.61-.72.85-.32.23-.73.35-1.23.35-.41,0-.77-.09-1.09-.27-.32-.18-.57-.45-.75-.82-.18-.37-.27-.83-.27-1.38V3.82h1v4.09c0,.48.13.86.4,1.14s.61.43,1.03.43c.25,0,.5-.06.76-.19s.48-.32.66-.59c.18-.26.27-.6.27-1.01Z"/>
      <path class="cls-3" d="m343.87,6.43v3.94h-1V3.82h.97v1.02h.09c.15-.33.39-.6.7-.8s.72-.3,1.21-.3c.44,0,.83.09,1.16.27.33.18.59.45.78.82.18.37.28.83.28,1.38v4.16h-1.01v-4.09c0-.51-.13-.92-.4-1.2-.27-.29-.63-.43-1.1-.43-.32,0-.61.07-.86.21-.25.14-.45.34-.59.61-.14.27-.22.59-.22.97Z"/>
      <path class="cls-3" d="m352.36,10.5c-.54,0-1.03-.14-1.44-.42-.42-.28-.74-.67-.98-1.18-.24-.51-.35-1.11-.35-1.8s.12-1.28.35-1.79c.24-.51.56-.9.98-1.17.42-.28.91-.41,1.46-.41.43,0,.76.07,1.01.21.25.14.44.3.57.48s.24.32.31.44h.09V1.64h1v8.73h-.97v-1.01h-.12c-.07.12-.18.27-.32.45-.14.18-.33.34-.58.48s-.59.21-1.01.21Zm.14-.9c.4,0,.74-.11,1.02-.32.28-.21.49-.51.64-.88.14-.38.22-.81.22-1.31s-.07-.92-.21-1.29c-.14-.37-.35-.65-.63-.86s-.62-.31-1.03-.31-.78.11-1.06.33c-.28.22-.49.51-.63.88-.14.37-.21.79-.21,1.25s.07.89.22,1.27c.14.38.36.68.64.9.28.22.63.33,1.05.33Z"/>
      <path class="cls-3" d="m262.59,18.22v.85h-3.39v-.85h3.39Zm-2.4-1.57h1.01v6.24c0,.28.04.5.13.64s.19.23.32.28c.13.05.27.07.42.07.11,0,.2,0,.27-.02.07-.01.13-.02.17-.03l.21.9c-.07.03-.16.05-.29.08-.12.03-.28.04-.46.04-.28,0-.56-.06-.83-.18-.27-.12-.5-.31-.67-.56s-.27-.57-.27-.95v-6.51Z"/>
      <path class="cls-3" d="m265.25,20.83v3.94h-1v-8.73h1v3.2h.09c.15-.34.38-.61.69-.81.31-.2.72-.3,1.23-.3.45,0,.84.09,1.17.27s.6.45.78.81c.19.37.28.83.28,1.39v4.16h-1.01v-4.09c0-.52-.13-.92-.4-1.21-.27-.29-.64-.43-1.11-.43-.33,0-.62.07-.88.21-.26.14-.46.34-.61.61-.15.27-.22.59-.22.97Z"/>
      <path class="cls-3" d="m274.08,24.9c-.63,0-1.17-.14-1.63-.42-.46-.28-.81-.67-1.05-1.18-.25-.5-.37-1.09-.37-1.76s.12-1.26.37-1.78c.25-.51.59-.91,1.03-1.2.44-.29.96-.43,1.55-.43.34,0,.68.06,1.01.17.33.11.63.3.91.55.27.25.49.59.65,1.01.16.42.24.93.24,1.54v.43h-5.05v-.87h4.02c0-.37-.07-.7-.22-.99s-.35-.52-.62-.69c-.27-.17-.58-.25-.95-.25-.4,0-.75.1-1.04.3-.29.2-.51.45-.67.77s-.23.65-.23,1.01v.58c0,.49.09.91.26,1.25.17.34.41.6.72.78.31.18.66.27,1.07.27.26,0,.5-.04.72-.11s.4-.19.56-.34c.16-.15.28-.34.36-.57l.97.27c-.1.33-.27.62-.52.87-.24.25-.54.44-.89.58s-.75.21-1.2.21Z"/>
      <path class="cls-3" d="m281.84,24.76v-8.73h1.01v3.22h.08c.07-.11.18-.26.31-.44.13-.18.32-.34.57-.48.25-.14.59-.21,1.01-.21.55,0,1.04.14,1.46.41.42.28.75.67.98,1.17.24.51.35,1.1.35,1.79s-.12,1.29-.35,1.8c-.24.51-.56.9-.98,1.18-.42.28-.9.42-1.44.42-.42,0-.76-.07-1.01-.21s-.45-.3-.58-.48c-.14-.18-.24-.33-.32-.45h-.12v1.01h-.97Zm.99-3.27c0,.5.07.93.22,1.31s.36.67.63.88c.28.21.62.32,1.02.32s.77-.11,1.05-.33c.28-.22.5-.52.64-.9.14-.38.21-.8.21-1.27s-.07-.88-.21-1.25-.35-.67-.63-.88c-.28-.22-.64-.33-1.06-.33s-.75.1-1.03.31c-.28.21-.49.49-.63.86-.14.37-.21.8-.21,1.28Z"/>
      <path class="cls-3" d="m289.15,24.76v-6.55h.97v.99h.07c.12-.32.33-.59.65-.79.31-.2.66-.3,1.06-.3.07,0,.17,0,.28,0,.11,0,.2,0,.25.01v1.02s-.11-.02-.23-.04-.25-.03-.38-.03c-.32,0-.6.07-.85.2-.25.13-.44.31-.59.55s-.22.5-.22.79v4.14h-1Z"/>
      <path class="cls-3" d="m295.54,24.92c-.42,0-.79-.08-1.13-.24-.34-.16-.61-.39-.81-.69-.2-.3-.3-.66-.3-1.09,0-.38.07-.68.22-.91s.35-.42.59-.55.52-.23.82-.3c.3-.07.6-.12.91-.16.4-.05.72-.09.97-.12.25-.03.43-.07.54-.14.12-.07.17-.18.17-.34v-.03c0-.42-.11-.75-.34-.98-.23-.23-.58-.35-1.04-.35s-.86.1-1.13.31c-.27.21-.46.44-.58.67l-.96-.34c.17-.4.4-.71.68-.93.29-.22.6-.38.94-.47.34-.09.67-.13,1-.13.21,0,.45.02.73.07.27.05.54.15.8.3.26.15.47.39.64.7.17.31.26.72.26,1.24v4.31h-1.01v-.89h-.05c-.07.14-.18.29-.34.46s-.37.3-.64.41c-.26.11-.59.17-.97.17Zm.15-.9c.4,0,.73-.08,1.01-.23s.48-.36.62-.61.21-.51.21-.78v-.92c-.04.05-.14.1-.28.14s-.31.08-.49.11c-.19.03-.37.06-.54.08-.17.02-.32.04-.42.05-.26.03-.5.09-.73.16-.23.08-.41.19-.54.34-.14.15-.21.35-.21.61,0,.35.13.61.39.79.26.18.59.27.99.27Z"/>
      <path class="cls-3" d="m301.39,20.83v3.94h-1v-6.55h.97v1.02h.09c.15-.33.39-.6.7-.8s.72-.3,1.21-.3c.44,0,.83.09,1.16.27s.59.45.78.82.28.83.28,1.38v4.16h-1.01v-4.09c0-.51-.13-.92-.4-1.2-.27-.29-.63-.43-1.1-.43-.32,0-.61.07-.86.21-.25.14-.45.34-.59.61-.14.27-.22.59-.22.97Z"/>
      <path class="cls-3" d="m309.88,24.9c-.54,0-1.03-.14-1.44-.42-.42-.28-.74-.67-.98-1.18-.24-.51-.35-1.11-.35-1.8s.12-1.28.35-1.79c.24-.51.56-.9.98-1.17.42-.28.91-.41,1.46-.41.43,0,.76.07,1.01.21.25.14.44.3.57.48s.24.32.31.44h.09v-3.22h1v8.73h-.97v-1.01h-.12c-.07.12-.18.27-.32.45-.14.18-.33.34-.58.48s-.59.21-1.01.21Zm.14-.9c.4,0,.74-.11,1.02-.32.28-.21.49-.51.64-.88.14-.38.22-.81.22-1.31s-.07-.92-.21-1.28c-.14-.37-.35-.66-.63-.86-.28-.21-.62-.31-1.03-.31s-.78.11-1.06.33c-.28.22-.49.51-.63.88s-.21.79-.21,1.25.07.89.22,1.27c.14.38.36.68.64.9.28.22.63.33,1.05.33Z"/>
      <path class="cls-3" d="m314.86,24.76v-6.55h.97v1.02h.09c.14-.35.36-.62.66-.82s.67-.29,1.1-.29.79.1,1.08.29c.29.19.51.47.67.82h.07c.17-.34.42-.61.75-.81.33-.2.74-.3,1.21-.3.59,0,1.06.18,1.44.55s.56.93.56,1.7v4.38h-1.01v-4.38c0-.48-.13-.83-.4-1.04-.26-.21-.58-.31-.93-.31-.46,0-.82.14-1.07.42-.25.28-.38.63-.38,1.05v4.26h-1.02v-4.48c0-.37-.12-.67-.36-.9-.24-.23-.55-.34-.93-.34-.26,0-.5.07-.73.21-.23.14-.41.33-.55.58-.14.25-.21.53-.21.85v4.09h-1Z"/>
      <path class="cls-3" d="m327.21,24.92c-.42,0-.79-.08-1.13-.24-.34-.16-.61-.39-.81-.69-.2-.3-.3-.66-.3-1.09,0-.38.07-.68.22-.91s.35-.42.59-.55.52-.23.82-.3c.3-.07.6-.12.91-.16.4-.05.72-.09.97-.12.25-.03.43-.07.54-.14.12-.07.17-.18.17-.34v-.03c0-.42-.11-.75-.34-.98-.23-.23-.58-.35-1.04-.35s-.86.1-1.13.31c-.27.21-.46.44-.58.67l-.96-.34c.17-.4.4-.71.68-.93.29-.22.6-.38.94-.47.34-.09.67-.13,1-.13.21,0,.45.02.73.07.27.05.54.15.8.3.26.15.47.39.64.7.17.31.26.72.26,1.24v4.31h-1.01v-.89h-.05c-.07.14-.18.29-.34.46s-.37.3-.64.41c-.26.11-.59.17-.97.17Zm.15-.9c.4,0,.73-.08,1.01-.23s.48-.36.62-.61.21-.51.21-.78v-.92c-.04.05-.14.1-.28.14s-.31.08-.49.11c-.19.03-.37.06-.54.08-.17.02-.32.04-.42.05-.26.03-.5.09-.73.16-.23.08-.41.19-.54.34-.14.15-.21.35-.21.61,0,.35.13.61.39.79.26.18.59.27.99.27Z"/>
      <path class="cls-3" d="m332.05,24.76v-6.55h.97v.99h.07c.12-.32.33-.59.65-.79.31-.2.66-.3,1.06-.3.07,0,.17,0,.28,0,.11,0,.2,0,.25.01v1.02s-.11-.02-.23-.04-.25-.03-.38-.03c-.32,0-.6.07-.85.2-.25.13-.44.31-.59.55s-.22.5-.22.79v4.14h-1Z"/>
      <path class="cls-3" d="m336.52,24.76v-8.73h1v8.73h-1Zm.94-2.39l-.02-1.24h.21l2.86-2.92h1.24l-3.05,3.08h-.09l-1.16,1.07Zm3.22,2.39l-2.56-3.24.72-.7,3.12,3.94h-1.28Z"/>
      <path class="cls-3" d="m346.93,17.13c-.2,0-.36-.07-.5-.2s-.21-.29-.21-.48.07-.35.21-.48.31-.2.5-.2.36.07.5.2.21.29.21.48-.07.35-.21.48-.31.2-.5.2Zm-.51,7.64v-6.55h1v6.55h-1Z"/>
      <path class="cls-3" d="m353.91,19.68l-.9.26c-.06-.15-.14-.3-.25-.44-.11-.14-.26-.26-.45-.36s-.43-.14-.72-.14c-.4,0-.73.09-1,.28-.27.18-.4.42-.4.7,0,.25.09.45.27.59.18.14.47.27.85.36l.97.24c.58.14,1.02.36,1.31.65.29.29.43.67.43,1.12,0,.38-.11.71-.32,1.01s-.51.53-.9.7c-.38.17-.83.25-1.34.25-.67,0-1.22-.14-1.66-.43-.44-.29-.71-.71-.83-1.27l.95-.24c.09.35.26.62.52.79.25.18.59.26,1,.26.47,0,.84-.1,1.12-.3.28-.2.42-.44.42-.72,0-.23-.08-.42-.24-.57-.16-.16-.4-.27-.73-.35l-1.09-.26c-.6-.14-1.04-.36-1.32-.66-.28-.3-.42-.68-.42-1.13,0-.37.1-.7.31-.98s.49-.51.86-.67c.36-.16.77-.24,1.23-.24.65,0,1.16.14,1.53.43.37.28.63.66.79,1.12Z"/>
      <path class="cls-3" d="m262.49,39.3c-.63,0-1.17-.14-1.63-.42-.46-.28-.81-.67-1.05-1.18-.25-.5-.37-1.09-.37-1.76s.12-1.26.37-1.77c.25-.51.59-.91,1.03-1.2.44-.29.96-.43,1.55-.43.34,0,.68.06,1.01.17.33.11.63.3.91.55.27.25.49.59.65,1.01s.24.93.24,1.54v.43h-5.05v-.87h4.02c0-.37-.07-.7-.22-.99-.15-.29-.35-.52-.62-.69s-.58-.25-.95-.25c-.4,0-.75.1-1.04.3-.29.2-.51.45-.67.77-.16.32-.23.65-.23,1.01v.58c0,.5.09.91.26,1.26.17.34.41.6.72.78.31.18.66.27,1.07.27.26,0,.5-.04.72-.11s.4-.19.56-.34.28-.34.36-.57l.97.27c-.1.33-.27.62-.52.87-.24.25-.54.44-.89.58s-.75.21-1.2.21Z"/>
      <path class="cls-3" d="m271.2,41.62v-3.46h-.09c-.07.12-.18.27-.32.45-.14.18-.33.34-.58.48s-.59.21-1.01.21c-.54,0-1.03-.14-1.44-.42-.42-.28-.74-.67-.98-1.18-.24-.51-.35-1.11-.35-1.8s.12-1.28.35-1.79c.24-.51.56-.9.98-1.17.42-.28.91-.41,1.46-.41.43,0,.76.07,1.01.21.25.14.44.3.57.48s.24.32.31.44h.12v-1.04h.97v9h-1Zm-1.86-3.22c.4,0,.74-.11,1.02-.32.28-.21.49-.51.64-.88.14-.38.22-.81.22-1.31s-.07-.92-.21-1.29c-.14-.37-.35-.65-.63-.86s-.62-.31-1.03-.31-.78.11-1.06.33c-.28.22-.49.51-.63.88-.14.37-.21.79-.21,1.25s.07.89.22,1.27c.14.38.36.68.64.9.28.22.63.33,1.05.33Z"/>
      <path class="cls-3" d="m278.17,36.49v-3.87h1v6.54h-1v-1.11h-.07c-.15.33-.39.61-.72.85-.32.23-.73.35-1.23.35-.41,0-.77-.09-1.09-.27-.32-.18-.57-.45-.75-.82-.18-.37-.27-.83-.27-1.38v-4.16h1v4.09c0,.48.13.86.4,1.14s.61.43,1.03.43c.25,0,.5-.06.76-.19s.48-.32.66-.59c.18-.26.27-.6.27-1.01Z"/>
      <path class="cls-3" d="m282.95,39.32c-.42,0-.79-.08-1.13-.24-.34-.16-.61-.39-.81-.69-.2-.3-.3-.66-.3-1.09,0-.38.07-.68.22-.91s.35-.42.59-.55c.25-.13.52-.23.82-.3s.6-.12.91-.16c.4-.05.72-.09.97-.12.25-.03.43-.07.54-.14.12-.07.17-.18.17-.34v-.03c0-.42-.11-.75-.34-.98-.23-.23-.58-.35-1.04-.35s-.86.11-1.13.32-.46.43-.58.67l-.96-.34c.17-.4.4-.71.68-.93.29-.22.6-.38.94-.47.34-.09.67-.13,1-.13.21,0,.45.03.73.08.27.05.54.15.8.3.26.15.47.38.64.69.17.31.26.72.26,1.24v4.31h-1.01v-.89h-.05c-.07.14-.18.29-.34.46-.16.16-.37.3-.64.41-.26.11-.59.17-.97.17Zm.15-.9c.4,0,.73-.08,1.01-.23s.48-.36.62-.6.21-.51.21-.78v-.92c-.04.05-.14.1-.28.14-.14.04-.31.08-.49.11-.19.03-.37.06-.54.08s-.32.04-.42.05c-.26.03-.5.09-.73.16-.23.08-.41.19-.54.34-.14.15-.21.35-.21.61,0,.35.13.61.39.79.26.18.59.27.99.27Z"/>
      <path class="cls-3" d="m288.79,30.44v8.73h-1v-8.73h1Z"/>
      <path class="cls-3" d="m296.86,32.62v.85h-3.39v-.85h3.39Zm-2.4-1.57h1.01v6.24c0,.28.04.5.13.64s.19.23.32.28c.13.05.27.07.42.07.11,0,.2,0,.27-.02.07-.01.13-.02.17-.03l.21.9c-.07.03-.16.05-.29.08s-.28.04-.46.04c-.28,0-.56-.06-.83-.18-.27-.12-.5-.31-.67-.56s-.27-.57-.27-.95v-6.51Z"/>
      <path class="cls-3" d="m300.96,39.3c-.59,0-1.11-.14-1.55-.42s-.79-.67-1.04-1.18c-.25-.51-.37-1.1-.37-1.77s.12-1.28.37-1.79c.25-.51.6-.9,1.04-1.19s.96-.42,1.55-.42,1.11.14,1.55.42.79.68,1.04,1.19c.25.51.37,1.1.37,1.79s-.12,1.27-.37,1.77c-.25.51-.6.9-1.04,1.18s-.96.42-1.55.42Zm0-.9c.45,0,.82-.12,1.11-.35.29-.23.5-.53.64-.91.14-.38.21-.78.21-1.22s-.07-.85-.21-1.22c-.14-.38-.35-.68-.64-.92-.29-.23-.66-.35-1.11-.35s-.82.12-1.11.35c-.29.23-.5.54-.64.92-.14.38-.21.79-.21,1.22s.07.84.21,1.22c.14.38.35.68.64.91.29.23.66.35,1.11.35Z"/>
      <path class="cls-3" d="m311.89,30.44v8.73h-1.06v-7.62h-.05l-2.13,1.42v-1.07l2.18-1.45h1.06Z"/>
      <path class="cls-3" d="m317.92,39.16v-8.73h1.01v3.22h.08c.07-.11.18-.26.31-.44.13-.18.32-.34.57-.48.25-.14.59-.21,1.01-.21.55,0,1.04.14,1.46.41.42.28.75.67.98,1.17.24.51.35,1.1.35,1.79s-.12,1.29-.35,1.8c-.24.51-.56.9-.98,1.18-.42.28-.9.42-1.44.42-.42,0-.76-.07-1.01-.21s-.45-.3-.58-.48c-.14-.18-.24-.33-.32-.45h-.12v1.01h-.97Zm.99-3.27c0,.49.07.93.22,1.31.14.38.36.67.63.88.28.21.62.32,1.02.32s.77-.11,1.05-.33c.28-.22.5-.52.64-.9.14-.38.21-.8.21-1.27s-.07-.88-.21-1.25c-.14-.37-.35-.67-.63-.88-.28-.22-.64-.33-1.06-.33s-.75.1-1.03.31c-.28.21-.49.49-.63.86-.14.37-.21.8-.21,1.29Z"/>
      <path class="cls-3" d="m325.24,39.16v-6.54h.97v.99h.07c.12-.32.33-.59.65-.79.31-.2.66-.3,1.06-.3.07,0,.17,0,.28,0,.11,0,.2,0,.25.01v1.02s-.11-.02-.23-.04-.25-.03-.38-.03c-.32,0-.6.07-.85.2-.25.13-.44.31-.59.54s-.22.5-.22.79v4.14h-1Z"/>
      <path class="cls-3" d="m331.63,39.32c-.42,0-.79-.08-1.13-.24-.34-.16-.61-.39-.81-.69-.2-.3-.3-.66-.3-1.09,0-.38.07-.68.22-.91s.35-.42.59-.55c.25-.13.52-.23.82-.3s.6-.12.91-.16c.4-.05.72-.09.97-.12.25-.03.43-.07.54-.14.12-.07.17-.18.17-.34v-.03c0-.42-.11-.75-.34-.98-.23-.23-.58-.35-1.04-.35s-.86.11-1.13.32-.46.43-.58.67l-.96-.34c.17-.4.4-.71.68-.93.29-.22.6-.38.94-.47.34-.09.67-.13,1-.13.21,0,.45.03.73.08.27.05.54.15.8.3.26.15.47.38.64.69.17.31.26.72.26,1.24v4.31h-1.01v-.89h-.05c-.07.14-.18.29-.34.46-.16.16-.37.3-.64.41-.26.11-.59.17-.97.17Zm.15-.9c.4,0,.73-.08,1.01-.23s.48-.36.62-.6.21-.51.21-.78v-.92c-.04.05-.14.1-.28.14-.14.04-.31.08-.49.11-.19.03-.37.06-.54.08s-.32.04-.42.05c-.26.03-.5.09-.73.16-.23.08-.41.19-.54.34-.14.15-.21.35-.21.61,0,.35.13.61.39.79.26.18.59.27.99.27Z"/>
      <path class="cls-3" d="m339.13,39.3c-.61,0-1.14-.14-1.58-.43s-.78-.69-1.02-1.2c-.24-.51-.36-1.09-.36-1.74s.12-1.25.37-1.76c.25-.51.59-.91,1.03-1.2.44-.29.96-.43,1.55-.43.46,0,.88.09,1.24.26.37.17.67.41.91.72.24.31.38.67.44,1.07h-1.01c-.08-.3-.25-.56-.51-.79s-.62-.35-1.06-.35c-.39,0-.73.1-1.03.3s-.52.49-.69.86c-.16.37-.25.8-.25,1.29s.08.95.24,1.32c.16.38.39.67.68.87.29.21.64.31,1.04.31.26,0,.5-.05.71-.14s.39-.22.54-.39c.15-.17.25-.38.32-.61h1.01c-.06.39-.2.73-.42,1.04-.22.31-.52.55-.88.73-.37.18-.79.27-1.27.27Z"/>
      <path class="cls-3" d="m343.17,39.16v-8.73h1v8.73h-1Zm.94-2.39l-.02-1.25h.21l2.86-2.91h1.24l-3.05,3.08h-.09l-1.16,1.07Zm3.22,2.39l-2.56-3.24.72-.7,3.12,3.94h-1.28Z"/>
      <path class="cls-3" d="m352.17,39.3c-.63,0-1.17-.14-1.63-.42-.46-.28-.81-.67-1.05-1.18-.25-.5-.37-1.09-.37-1.76s.12-1.26.37-1.77c.25-.51.59-.91,1.03-1.2.44-.29.96-.43,1.55-.43.34,0,.68.06,1.01.17.33.11.63.3.91.55.27.25.49.59.65,1.01s.24.93.24,1.54v.43h-5.05v-.87h4.02c0-.37-.07-.7-.22-.99-.15-.29-.35-.52-.62-.69s-.58-.25-.95-.25c-.4,0-.75.1-1.04.3-.29.2-.51.45-.67.77-.16.32-.23.65-.23,1.01v.58c0,.5.09.91.26,1.26.17.34.41.6.72.78.31.18.66.27,1.07.27.26,0,.5-.04.72-.11s.4-.19.56-.34.28-.34.36-.57l.97.27c-.1.33-.27.62-.52.87-.24.25-.54.44-.89.58s-.75.21-1.2.21Z"/>
      <path class="cls-3" d="m359.26,32.62v.85h-3.39v-.85h3.39Zm-2.4-1.57h1.01v6.24c0,.28.04.5.13.64s.19.23.32.28c.13.05.27.07.42.07.11,0,.2,0,.27-.02.07-.01.13-.02.17-.03l.21.9c-.07.03-.16.05-.29.08s-.28.04-.46.04c-.28,0-.56-.06-.83-.18-.27-.12-.5-.31-.67-.56s-.27-.57-.27-.95v-6.51Z"/>
    </g>
    <g>
      <line class="cls-1" x1="53.22" y1="341.83" x2="227.14" y2="341.83"/>
      <path class="cls-5" d="m53.41,345.59c-2.08,0-3.76-1.68-3.76-3.76s1.68-3.76,3.76-3.76,3.76,1.68,3.76,3.76-1.68,3.76-3.76,3.76Z"/>
      <path class="cls-5" d="m226.96,345.59c2.08,0,3.76-1.68,3.76-3.76s-1.68-3.76-3.76-3.76-3.76,1.68-3.76,3.76,1.68,3.76,3.76,3.76Z"/>
    </g>
    <g>
      <line class="cls-1" x1="254.45" y1="1.95" x2="254.45" y2="140.67"/>
      <path class="cls-5" d="m250.69,140.48c0,2.08,1.68,3.76,3.76,3.76s3.76-1.68,3.76-3.76-1.68-3.76-3.76-3.76-3.76,1.68-3.76,3.76Z"/>
    </g>
  </g>
</svg>