<?xml version="1.0" encoding="utf-8"?>
<!-- Generator: Adobe Illustrator 27.7.0, SVG Export Plug-In . SVG Version: 6.00 Build 0)  -->
<svg version="1.1" id="Layer_2_00000093881603508328294950000017842090671770426790_"
	 xmlns="http://www.w3.org/2000/svg" xmlns:xlink="http://www.w3.org/1999/xlink" x="0px" y="0px" viewBox="0 0 1740 600"
	 style="enable-background:new 0 0 1740 600;" xml:space="preserve">
<style type="text/css">
	.st0{fill:url(#SVGID_1_);}
	.st1{fill:#FFFFFF;}
	.st2{font-family:'Inter-SemiBold';}
	.st3{font-size:64.1px;}
	.st4{letter-spacing:-1;}
</style>
<g id="Layer_1-2">
	
		<linearGradient id="SVGID_1_" gradientUnits="userSpaceOnUse" x1="564.6684" y1="-708.64" x2="2256.0386" y2="-1866.0402" gradientTransform="matrix(1 0 0 1 0 1217.5776)">
		<stop  offset="0" style="stop-color:#002CC4"/>
		<stop  offset="1" style="stop-color:#5468FF"/>
	</linearGradient>
	<path class="st0" d="M1720,0H20C8.9,0,0,8.9,0,20v560c0,11,8.9,20,20,20h1700c11.1,0,20-9,20-20V20C1740,8.9,1731.1,0,1720,0z"/>
	<g>
		<g>
			<path id="path4548" class="st1" d="M151.3,217c-3-2.8-2.5-7.6,1.1-12.3c2.7-3.5,13.9-14.9,22.1-22.4l3.3-3l-5.2-11.2
				c-5.9-12.6-5.8-12.8,1.9-13.7l4.3-0.5l4.8,7.2c2.6,3.9,5.1,7.2,5.6,7.2s5.1-3.8,10.4-8.4c9.2-8,9.7-8.3,12.8-7.9
				c1.9,0.3,3.5,0.1,3.9-0.4c0.9-1.1,3.6,0.5,3.6,2.2c0,0.7-1.3,2.4-2.9,3.9c-6.6,5.9-20.6,19.9-20.6,20.5c0,0.4,2.8,5.3,6.3,10.8
				l5.8,9.4c0.3,0.4,0.2,1-0.1,1.3l-1.4,1.1c-1.1,1.2-1.8,2.1-1.9,3.2c0.2,0.7-0.8,1-1.8,1.5c-2.4,1.1-4.2-0.2-11.6-8.9
				c-3.4-4-6.5-7.2-6.9-7.2c-0.9,0-11,11-18.8,20.5C159.1,218.5,153.1,218.6,151.3,217L151.3,217L151.3,217z"/>
			<path id="path4550" class="st1" d="M143.1,151.6c0-0.1-0.1-0.1-0.1-0.2c-15.3-22.9-26.5-26.9-26.1-27.2
				c5.8-3.8,16.8-0.1,23.6,5.9c0.1,0.1,0.2,0.2,0.2,0.2c1.6,1.4,2,1.9,3.9,4.1c0.4,0,7.8-12.4,7.9-12.5c15.1-23.8,30.8-33.8,40-33.8
				c4.4,0,5,1.5,5,1.5c-14.8,7.7-27.4,21.5-40.3,46.9c-3.6,7.3-9.7,19-10.1,19.8C146.4,157.7,146.3,155.9,143.1,151.6L143.1,151.6z"
				/>
			<path class="st1" d="M93,152.9c4.1-1,7.3-2.4,9.5-4.3s3.8-4.1,4.6-6.7c0.8-2.6,1.2-5.4,1.2-8.6V109c0-4.7,0.6-8.6,1.7-11.7
				c1.1-3.1,3-5.3,5.7-6.8c2.7-1.4,6.4-2.2,11.1-2.2V76.6c-5.9,0-10.9,0.7-15,1.9s-7.3,3.3-9.7,5.9c-2.4,2.7-4.2,6-5.2,10.1
				s-1.6,8.9-1.6,14.5v19.4c0,6.6-1.3,11.4-4,14.2c-2.7,2.8-7.4,4.2-14.2,4.2v14.5c6.7,0,11.5,1.4,14.2,4.2c2.7,2.8,4,7.6,4,14.2
				v19.4c0,5.6,0.5,10.4,1.6,14.5c1.1,4.1,2.8,7.4,5.2,10.1s5.7,4.6,9.7,5.9c4,1.3,9,1.9,15,1.9v-11.9c-4.7,0-8.4-0.7-11.1-2.2
				c-2.7-1.5-4.6-3.7-5.7-6.8s-1.7-6.9-1.7-11.6V175c0-3.1-0.4-6-1.2-8.6c-0.8-2.6-2.3-4.8-4.6-6.7s-5.4-3.3-9.5-4.3
				c-0.5-0.1-1.1-0.2-1.7-0.3v-1.9C91.9,153.1,92.4,153,93,152.9L93,152.9z"/>
			<path class="st1" d="M242.2,152.9c-4.1-1-7.3-2.4-9.5-4.3s-3.8-4.1-4.6-6.7c-0.8-2.6-1.2-5.4-1.2-8.6V109c0-4.7-0.6-8.6-1.7-11.7
				c-1.1-3.1-3-5.3-5.7-6.8c-2.7-1.4-6.4-2.2-11.1-2.2V76.6c5.9,0,10.9,0.7,15,1.9s7.3,3.3,9.7,5.9c2.4,2.7,4.2,6,5.2,10.1
				s1.6,8.9,1.6,14.5v19.4c0,6.6,1.3,11.4,4,14.2c2.7,2.8,7.4,4.2,14.2,4.2v7v0.5v7c-6.7,0-11.5,1.4-14.1,4.2c-2.7,2.8-4,7.6-4,14.2
				v19.4c0,5.6-0.5,10.4-1.6,14.5c-1.1,4.1-2.8,7.4-5.2,10.1s-5.6,4.6-9.7,5.9c-4,1.3-9,1.9-15,1.9v-11.9c4.7,0,8.4-0.7,11.1-2.2
				c2.7-1.5,4.6-3.7,5.7-6.8s1.7-6.9,1.7-11.6V175c0-3.1,0.4-6,1.2-8.6s2.4-4.8,4.6-6.7s5.4-3.3,9.5-4.3c0.5-0.1,1.1-0.2,1.7-0.3
				v-1.9C243.3,153.1,242.8,153,242.2,152.9L242.2,152.9z"/>
		</g>
		<g>
			<g>
				<path class="st1" d="M334.2,82.8h11.1v43.3c0,4-0.9,7.4-2.5,10.2c-1.7,2.9-4,5.1-7,6.6c-3,1.5-6.4,2.3-10.4,2.3
					c-3.6,0-6.9-0.6-9.7-1.9c-2.9-1.3-5.2-3.2-6.8-5.8c-1.7-2.5-2.5-5.7-2.5-9.5h11.1c0,1.7,0.4,3.1,1.1,4.3s1.7,2.1,3,2.8
					c1.3,0.6,2.7,1,4.4,1c1.8,0,3.3-0.4,4.5-1.1c1.2-0.8,2.2-1.9,2.8-3.4c0.6-1.5,1-3.3,1-5.5L334.2,82.8L334.2,82.8z"/>
				<path class="st1" d="M390.9,99.7c-0.3-2.6-1.5-4.7-3.5-6.1s-4.8-2.2-8.1-2.2c-2.3,0-4.3,0.3-6,1.1c-1.7,0.7-2.9,1.7-3.8,2.9
					c-0.9,1.2-1.3,2.6-1.4,4.1c0,1.3,0.3,2.4,0.9,3.3c0.6,0.9,1.4,1.7,2.4,2.4c1,0.7,2.1,1.2,3.4,1.6c1.2,0.4,2.5,0.8,3.8,1.1
					l5.8,1.4c2.3,0.5,4.6,1.3,6.7,2.2c2.1,0.9,4.1,2.1,5.8,3.5c1.7,1.4,3.1,3.1,4.1,5.1s1.5,4.3,1.5,7c0,3.6-0.9,6.8-2.8,9.5
					c-1.8,2.7-4.5,4.9-8,6.4s-7.7,2.3-12.6,2.3s-8.9-0.7-12.5-2.2c-3.5-1.5-6.3-3.6-8.2-6.5c-2-2.9-3-6.3-3.2-10.4h11
					c0.2,2.1,0.8,3.9,2,5.3s2.7,2.5,4.5,3.2s4,1.1,6.3,1.1s4.5-0.4,6.4-1.1c1.8-0.7,3.3-1.8,4.3-3.1c1-1.3,1.6-2.9,1.6-4.6
					c0-1.6-0.5-2.9-1.4-4s-2.2-1.9-3.9-2.7s-3.6-1.3-5.8-1.9l-7-1.8c-5.1-1.3-9.1-3.3-12-5.9c-2.9-2.7-4.4-6.2-4.4-10.6
					c0-3.6,1-6.8,3-9.5c2-2.7,4.7-4.8,8.1-6.4s7.3-2.3,11.6-2.3s8.2,0.8,11.5,2.3c3.3,1.5,5.9,3.6,7.8,6.3c1.9,2.7,2.9,5.8,2.9,9.2
					L390.9,99.7L390.9,99.7z"/>
				<path class="st1" d="M467.4,113.6c0,6.6-1.2,12.3-3.7,17c-2.5,4.7-5.8,8.3-10.1,10.8s-9.1,3.8-14.5,3.8s-10.2-1.3-14.5-3.8
					c-4.3-2.5-7.6-6.1-10.1-10.9c-2.5-4.7-3.7-10.4-3.7-17s1.2-12.3,3.7-17s5.8-8.3,10.1-10.8c4.3-2.5,9.1-3.8,14.5-3.8
					s10.2,1.2,14.5,3.8s7.6,6.1,10.1,10.8C466.2,101.3,467.4,107,467.4,113.6L467.4,113.6z M456.2,113.6c0-4.7-0.7-8.6-2.2-11.8
					c-1.5-3.2-3.5-5.7-6-7.3c-2.6-1.7-5.5-2.5-8.9-2.5s-6.3,0.8-8.9,2.5s-4.6,4.1-6,7.3c-1.5,3.2-2.2,7.2-2.2,11.8s0.7,8.6,2.2,11.8
					c1.5,3.2,3.5,5.7,6,7.3c2.6,1.6,5.5,2.5,8.9,2.5s6.3-0.8,8.9-2.5s4.6-4.1,6-7.3C455.5,122.2,456.2,118.3,456.2,113.6z"/>
				<path class="st1" d="M528.6,82.8v61.6h-9.9l-29-41.9h-0.5v41.9H478V82.8h10l29,42h0.5v-42H528.6z"/>
			</g>
			<g>
				<path class="st1" d="M342,180.7c-0.3-2.6-1.5-4.7-3.5-6.1s-4.8-2.2-8.1-2.2c-2.3,0-4.3,0.4-6,1.1s-2.9,1.6-3.8,2.9
					c-0.9,1.2-1.3,2.6-1.4,4.1c0,1.3,0.3,2.4,0.9,3.3c0.6,0.9,1.4,1.7,2.4,2.4c1,0.6,2.1,1.2,3.4,1.6c1.2,0.4,2.5,0.8,3.8,1.1
					l5.8,1.4c2.3,0.5,4.6,1.3,6.7,2.2c2.1,0.9,4.1,2.1,5.8,3.5c1.7,1.4,3.1,3.1,4.1,5.1s1.5,4.3,1.5,7c0,3.6-0.9,6.8-2.8,9.5
					c-1.8,2.7-4.5,4.9-8,6.4s-7.7,2.3-12.6,2.3s-8.9-0.7-12.5-2.2c-3.5-1.5-6.3-3.6-8.2-6.5c-2-2.9-3-6.3-3.2-10.4h11
					c0.2,2.1,0.8,3.9,2,5.4c1.2,1.4,2.7,2.5,4.5,3.2s4,1.1,6.3,1.1s4.5-0.4,6.4-1.1c1.8-0.7,3.3-1.8,4.3-3.1c1-1.3,1.6-2.9,1.6-4.6
					c0-1.6-0.5-2.9-1.4-4s-2.2-1.9-3.9-2.6c-1.6-0.7-3.6-1.4-5.8-1.9l-7-1.8c-5.1-1.3-9.1-3.3-12-5.9c-2.9-2.7-4.4-6.2-4.4-10.6
					c0-3.6,1-6.8,3-9.5s4.7-4.9,8.1-6.4s7.3-2.3,11.6-2.3s8.2,0.8,11.5,2.3c3.3,1.5,5.9,3.6,7.8,6.3c1.9,2.7,2.9,5.8,2.9,9.2
					L342,180.7L342,180.7z"/>
				<path class="st1" d="M383.2,226.3c-4.6,0-8.6-1-11.9-3s-5.8-4.8-7.6-8.4c-1.8-3.6-2.7-7.7-2.7-12.4s0.9-8.8,2.7-12.4
					c1.8-3.6,4.4-6.4,7.6-8.4c3.3-2,7.2-3,11.7-3c3.8,0,7.1,0.7,10,2.1s5.2,3.3,6.9,5.8c1.7,2.5,2.7,5.4,3,8.7h-10.4
					c-0.4-2.2-1.4-4.1-3-5.6c-1.6-1.5-3.7-2.2-6.3-2.2c-2.2,0-4.2,0.6-5.9,1.8c-1.7,1.2-3,2.9-3.9,5.1c-0.9,2.2-1.4,4.9-1.4,8
					s0.5,5.9,1.4,8.1s2.2,4,3.9,5.2c1.7,1.2,3.6,1.8,5.9,1.8c1.6,0,3-0.3,4.3-0.9s2.3-1.5,3.2-2.7c0.9-1.2,1.5-2.6,1.8-4.2H403
					c-0.3,3.3-1.2,6.2-2.9,8.7c-1.7,2.5-3.9,4.5-6.8,5.9C390.4,225.6,387.1,226.3,383.2,226.3L383.2,226.3z"/>
				<path class="st1" d="M422.8,198.3v27.1h-10.9v-61.6h10.6V187h0.5c1.1-2.6,2.8-4.7,5-6.2c2.3-1.5,5.2-2.3,8.7-2.3
					c3.2,0,6,0.7,8.4,2s4.2,3.3,5.5,5.9c1.3,2.6,2,5.7,2,9.5v29.4h-10.9v-27.7c0-3.1-0.8-5.5-2.4-7.3c-1.6-1.7-3.8-2.6-6.7-2.6
					c-1.9,0-3.6,0.4-5.2,1.2c-1.5,0.8-2.7,2-3.5,3.6C423.2,194.2,422.8,196.1,422.8,198.3L422.8,198.3z"/>
				<path class="st1" d="M484.3,226.3c-4.6,0-8.6-1-12-2.9c-3.4-1.9-5.9-4.7-7.7-8.2c-1.8-3.6-2.7-7.8-2.7-12.6s0.9-8.9,2.7-12.5
					s4.4-6.4,7.6-8.4c3.3-2,7.1-3,11.5-3c2.9,0,5.5,0.5,8.1,1.4c2.5,0.9,4.8,2.3,6.7,4.2s3.5,4.3,4.6,7.3c1.1,2.9,1.7,6.4,1.7,10.5
					v3.3h-37.9v-7.3h27.4c0-2.1-0.5-3.9-1.4-5.6s-2.1-2.9-3.7-3.9s-3.4-1.4-5.5-1.4c-2.2,0-4.2,0.5-5.9,1.6s-3,2.5-3.9,4.2
					c-0.9,1.7-1.4,3.6-1.4,5.7v6.4c0,2.7,0.5,5,1.5,6.9c1,1.9,2.4,3.4,4.1,4.4s3.8,1.5,6.2,1.5c1.6,0,3-0.2,4.3-0.7s2.4-1.1,3.3-2
					c0.9-0.9,1.6-2,2.1-3.3l10.2,1.1c-0.6,2.7-1.9,5-3.6,7s-4.1,3.5-6.9,4.6C491,225.7,487.8,226.3,484.3,226.3L484.3,226.3z"/>
				<path class="st1" d="M514,225.4v-46.2h10.4v7.9h0.5c1-2.6,2.5-4.7,4.8-6.2c2.2-1.5,4.9-2.2,8-2.2s5.8,0.8,7.9,2.3
					c2.2,1.5,3.7,3.6,4.6,6.2h0.5c1-2.6,2.8-4.6,5.2-6.1c2.4-1.5,5.3-2.3,8.7-2.3c4.2,0,7.7,1.3,10.4,4c2.7,2.7,4,6.6,4,11.8v31H568
					V196c0-2.9-0.8-5-2.3-6.3s-3.4-2-5.6-2c-2.6,0-4.7,0.8-6.2,2.4c-1.5,1.6-2.2,3.8-2.2,6.4v28.8h-10.7v-29.8
					c0-2.4-0.7-4.3-2.2-5.7c-1.4-1.4-3.3-2.1-5.6-2.1c-1.6,0-3,0.4-4.3,1.2c-1.3,0.8-2.3,1.9-3.1,3.3c-0.8,1.4-1.1,3.1-1.1,5v28.1
					L514,225.4L514,225.4z"/>
				<path class="st1" d="M603.3,226.3c-2.9,0-5.6-0.5-7.9-1.6c-2.3-1.1-4.2-2.6-5.5-4.7c-1.3-2.1-2-4.6-2-7.6c0-2.6,0.5-4.8,1.4-6.5
					c1-1.7,2.3-3.1,3.9-4.1c1.7-1,3.5-1.8,5.6-2.3c2.1-0.5,4.3-0.9,6.5-1.2c2.7-0.3,4.9-0.5,6.6-0.8c1.7-0.2,2.9-0.6,3.7-1.1
					s1.2-1.3,1.2-2.3V194c0-2.3-0.7-4-2-5.3c-1.3-1.2-3.3-1.9-5.8-1.9c-2.7,0-4.8,0.6-6.3,1.7s-2.6,2.5-3.1,4.1l-10.2-1.4
					c0.8-2.8,2.1-5.2,4-7.1c1.8-1.9,4.1-3.3,6.8-4.3c2.7-0.9,5.6-1.4,8.8-1.4c2.2,0,4.4,0.3,6.6,0.8s4.2,1.4,6,2.6s3.3,2.8,4.4,4.9
					c1.1,2,1.7,4.6,1.7,7.7v30.9h-10.5V219h-0.4c-0.7,1.3-1.6,2.5-2.8,3.6s-2.7,2-4.5,2.7C607.8,226,605.7,226.3,603.3,226.3
					L603.3,226.3z M606.1,218.3c2.2,0,4.1-0.4,5.7-1.3s2.8-2,3.7-3.5s1.3-3,1.3-4.7v-5.4c-0.3,0.3-0.9,0.5-1.7,0.8s-1.7,0.4-2.7,0.6
					s-2,0.3-3,0.5c-1,0.1-1.8,0.3-2.6,0.4c-1.6,0.2-3.1,0.6-4.4,1.1c-1.3,0.5-2.3,1.2-3,2.1s-1.1,2-1.1,3.4c0,2,0.7,3.5,2.2,4.5
					C602,217.8,603.8,218.3,606.1,218.3L606.1,218.3z"/>
			</g>
		</g>
	</g>
	<text transform="matrix(1 0 0 1 74.36 510.99)" class="st1 st2 st3">Build mo</text>
	<text transform="matrix(1 0 0 1 341.71 510.99)" class="st1 st2 st3 st4">r</text>
	<text transform="matrix(1 0 0 1 365.68 510.99)" class="st1 st2 st3">e</text>
	<text transform="matrix(1 0 0 1 403.66 510.99)" class="st1 st2 st3 st4">,</text>
	<text transform="matrix(1 0 0 1 421.12 510.99)" class="st1 st2 st3"> B</text>
	<text transform="matrix(1 0 0 1 479.16 510.99)" class="st1 st2 st3 st4">r</text>
	<text transform="matrix(1 0 0 1 503.13 510.99)" class="st1 st2 st3">eak less</text>
	<text transform="matrix(1 0 0 1 755.39 510.99)" class="st1 st2 st3 st4">,</text>
	<text transform="matrix(1 0 0 1 772.85 510.99)" class="st1 st2 st3"> Emp</text>
	<text transform="matrix(1 0 0 1 925.28 510.99)" class="st1 st2 st3">ow</text>
	<text transform="matrix(1 0 0 1 1016 510.99)" class="st1 st2 st3">er o</text>
	<text transform="matrix(1 0 0 1 1134.29 510.99)" class="st1 st2 st3">t</text>
	<text transform="matrix(1 0 0 1 1159.37 510.99)" class="st1 st2 st3">hers</text>
	<text transform="matrix(1 0 0 1 1297.25 510.99)" class="st1 st2 st3 st4">.</text>
</g>
</svg>
