<?xml version="1.0" encoding="UTF-8"?>
<svg id="Layer_2" data-name="Layer 2" xmlns="http://www.w3.org/2000/svg" viewBox="0 0 170.01 170.01">
  <defs>
    <style>
      .cls-1, .cls-2, .cls-3 {
        fill: #fff;
      }

      .cls-4 {
        stroke-width: .5px;
      }

      .cls-4, .cls-5, .cls-2, .cls-3 {
        stroke: #000;
      }

      .cls-4, .cls-5, .cls-6, .cls-7, .cls-3 {
        stroke-miterlimit: 10;
      }

      .cls-5 {
        fill: none;
      }

      .cls-2 {
        stroke-linecap: round;
        stroke-linejoin: round;
      }

      .cls-6 {
        fill: #3b82f6;
      }

      .cls-6, .cls-7 {
        stroke: #fff;
      }
    </style>
  </defs>
  <g id="Layer_1-2" data-name="Layer 1">
    <path class="cls-7" d="m112.67,103.05h-11.04c-.61,0-1.16-.2-1.63-.59s-.77-.89-.88-1.51l-1.34-8.45c-1.06-.39-2.17-.92-3.35-1.59s-2.2-1.37-3.09-2.09l-7.78,3.6c-.61.28-1.23.32-1.84.13s-1.09-.6-1.42-1.21l-5.52-9.79c-.33-.56-.42-1.14-.25-1.76s.5-1.12,1-1.51l7.19-5.27c-.11-.5-.18-1.07-.21-1.71s-.04-1.21-.04-1.71.01-1.07.04-1.71.1-1.21.21-1.71l-7.19-5.27c-.5-.39-.84-.89-1-1.51s-.08-1.2.25-1.76l5.52-9.79c.33-.61.81-1.02,1.42-1.21s1.23-.15,1.84.13l7.78,3.6c.89-.72,1.92-1.42,3.09-2.09s2.29-1.17,3.35-1.51l1.34-8.53c.11-.61.4-1.12.88-1.51s1.02-.59,1.63-.59h11.04c.61,0,1.16.2,1.63.59s.77.89.88,1.51l1.34,8.45c1.06.39,2.19.91,3.39,1.55s2.22,1.35,3.05,2.13l7.78-3.6c.61-.28,1.23-.32,1.84-.13s1.09.6,1.42,1.21l5.52,9.7c.33.56.43,1.16.29,1.8s-.49,1.16-1.05,1.55l-7.19,5.1c.11.56.18,1.16.21,1.8s.04,1.24.04,1.8-.01,1.14-.04,1.76-.1,1.2-.21,1.76l7.19,5.19c.5.39.84.89,1,1.51s.08,1.2-.25,1.76l-5.52,9.79c-.33.61-.81,1.02-1.42,1.21s-1.23.15-1.84-.13l-7.78-3.6c-.89.72-1.91,1.44-3.05,2.13s-2.27,1.21-3.39,1.55l-1.34,8.45c-.11.61-.4,1.12-.88,1.51s-1.02.59-1.63.59Z"/>
    <circle class="cls-3" cx="107.16" cy="69.59" r="12.89"/>
    <g>
      <path class="cls-6" d="m88.98,64.86c0-18.87-15.95-34.02-35.1-32.69-16,1.11-28.67,13.35-30.27,29.31-1.62,16.18,8.54,30.24,22.93,34.68-.02.03-.03.05-.04.08-.01,0-.03,0-.04,0-2.29,0-4.15,1.86-4.15,4.15,0,1.07.41,2.04,1.08,2.78.57.63.57,1.63,0,2.25-.67.73-1.08,1.7-1.08,2.78,0,.97.33,1.86.89,2.56s.57,1.75,0,2.48-.89,1.6-.89,2.56c0,2.29,1.86,4.15,4.15,4.15.07,0,.13-.02.19-.02l1.28.1.41,1.21c.58,1.71,2.19,2.86,3.99,2.86h7.73c1.8,0,3.41-1.15,3.99-2.86h0s.95.07.95.07c.15.01.78-.02.96-.02,2.29,0,4.15-1.86,4.15-4.15,0-.85-.26-1.64-.7-2.3-.6-.9-.6-2.11,0-3.01.44-.66.7-1.45.7-2.3,0-.99-.35-1.89-.92-2.6-.62-.77-.62-1.85,0-2.61.58-.71.92-1.61.92-2.6,0-2.28-1.84-4.13-4.11-4.15l-.04-1.44c13.83-3.76,23.01-16.55,23.01-31.28Z"/>
      <path class="cls-2" d="m88.98,64.86c0-18.87-15.95-34.02-35.1-32.69-16,1.11-28.67,13.35-30.27,29.31-1.62,16.18,8.54,30.24,22.93,34.68-.02.03-.03.05-.04.08-.01,0-.03,0-.04,0-2.29,0-4.15,1.86-4.15,4.15,0,1.07.41,2.04,1.08,2.78.57.63.57,1.63,0,2.25-.67.73-1.08,1.7-1.08,2.78,0,.97.33,1.86.89,2.56s.57,1.75,0,2.48-.89,1.6-.89,2.56c0,2.29,1.86,4.15,4.15,4.15.07,0,.13-.02.19-.02l1.28.1.41,1.21c.58,1.71,2.19,2.86,3.99,2.86h7.73c1.8,0,3.41-1.15,3.99-2.86h0s.95.07.95.07c.15.01.78-.02.96-.02,2.29,0,4.15-1.86,4.15-4.15,0-.85-.26-1.64-.7-2.3-.6-.9-.6-2.11,0-3.01.44-.66.7-1.45.7-2.3,0-.99-.35-1.89-.92-2.6-.62-.77-.62-1.85,0-2.61.58-.71.92-1.61.92-2.6,0-2.28-1.84-4.13-4.11-4.15l-.04-1.44c13.83-3.76,23.01-16.55,23.01-31.28Z"/>
      <path d="m64.26,87.51c-.29-5.66-.38-11.34-.1-17,.14-2.82.36-5.64.72-8.44.28-2.19,1.39-4.52,3.89-4.75s4.26,1.52,4.41,3.96c.12,2.05-1.15,3.49-2.92,4.31-1.48.68-3.08.9-4.7.97-2.24.09-4.61.15-6.82-.33-2.06-.45-4.12-1.76-5.14-3.65s-.81-4.88,1.38-5.91,4.61.09,5.16,2.37c.59,2.48-.84,4.71-2.86,6.03-1.87,1.23-4.05,1.45-6.23,1.52-1.87.06-3.83.11-5.68-.25-1.59-.31-3.34-.93-4.41-2.21-1.32-1.58-1.17-4.34.31-5.78,2.01-1.96,5.24-.97,6.47,1.32.62,1.16.66,2.52.81,3.8.17,1.56.31,3.12.42,4.68.44,6.45.36,12.92.03,19.37-.01.2.18.38.38.38,4.84,0,9.68,0,14.52,0,.48,0,.48-.75,0-.75-4.84,0-9.68,0-14.52,0l.38.38c.38-7.54.43-15.13-.3-22.65-.24-2.47-.22-5.21-2.17-7.03-1.6-1.5-4.21-1.71-6.03-.44-1.65,1.16-2.28,3.58-1.77,5.48s2.07,2.96,3.74,3.62c2.01.79,4.16.86,6.3.86,2.56.01,5.29-.04,7.59-1.3,2.05-1.13,3.81-3.12,3.92-5.55.1-2.05-.91-4.11-2.97-4.74-1.93-.59-4.18.1-5.19,1.91-1.09,1.95-.68,4.39.64,6.12,1.45,1.91,3.68,3,6.02,3.33,2.52.35,5.26.4,7.79.06,3.96-.53,7.99-3.29,6.23-7.79-.85-2.18-3.27-3.26-5.52-2.69-2.53.64-3.59,3.02-3.89,5.38-1.06,8.43-1.04,16.97-.61,25.44.02.48.77.48.75,0Z"/>
    </g>
    <g>
      <path class="cls-5" d="m85.01.5c21.63,0,43.25,8.25,59.76,24.75,31.29,31.29,32.91,81.02,4.86,114.22"/>
      <polygon points="146.86 135.01 144.76 144.76 154.25 141.71 146.86 135.01"/>
    </g>
    <g>
      <path class="cls-5" d="m85.67,169.51c-21.85.17-43.75-8.08-60.42-24.75C-6.04,113.47-7.66,63.74,20.39,30.54"/>
      <polygon points="23.15 35 25.25 25.25 15.76 28.3 23.15 35"/>
    </g>
    <g>
      <polygon class="cls-1" points="91.17 120.82 91.17 155.64 56.35 135.89 56.35 101.06 91.17 120.82"/>
      <polygon class="cls-1" points="89.86 119.94 89.86 154.01 123.93 134.68 123.93 100.62 89.86 119.94"/>
      <g>
        <polygon class="cls-1" points="54.69 101.01 89.56 83.98 124.43 101.01 89.56 120.79 54.69 101.01"/>
        <polygon class="cls-1" points="55.8 100.62 89.86 119.94 123.93 100.62 89.86 83.98 55.8 100.62"/>
        <path class="cls-1" d="m54.38,135.51v-35.78l35.48-17.33,35.48,17.33v35.78l-35.48,20.13-35.48-20.13Zm36.9,16.07l31.24-17.72v-30.81l-31.24,17.72v30.81Zm-2.83,0v-30.81l-31.24-17.72v30.81l31.24,17.72Zm1.42-33.26l31.03-17.6-31.03-15.16-31.03,15.16,31.03,17.6Z"/>
        <path class="cls-4" d="m124.19,100.45l-34.33-16.77-34.33,16.77v34.38l34.33,19.47,34.33-19.47v-34.38Zm-34.33-16.19l33.51,16.37-5.58,3.17-27.93,15.84-33.51-19.01,33.51-16.37Zm-33.81,50.27v-33.47l33.55,19.03v33.47l-33.55-19.03Zm67.62,0l-33.55,19.03v-33.47l33.55-19.03v33.47Z"/>
      </g>
    </g>
  </g>
</svg>