<?xml version="1.0" encoding="UTF-8"?>
<svg id="Layer_2" data-name="Layer 2" xmlns="http://www.w3.org/2000/svg" viewBox="0 0 222.53 171.51">
  <defs>
    <style>
      .cls-1 {
        stroke: #999;
      }

      .cls-1, .cls-2, .cls-3, .cls-4, .cls-5, .cls-6, .cls-7 {
        stroke-miterlimit: 10;
      }

      .cls-1, .cls-2, .cls-4, .cls-6 {
        fill: none;
      }

      .cls-1, .cls-4 {
        stroke-linecap: round;
      }

      .cls-1, .cls-4, .cls-6 {
        stroke-width: 2px;
      }

      .cls-8, .cls-3, .cls-5 {
        fill: #fff;
      }

      .cls-2, .cls-7 {
        stroke: #fff;
      }

      .cls-3, .cls-6 {
        stroke: #231f20;
      }

      .cls-4, .cls-5 {
        stroke: #000;
      }

      .cls-9 {
        opacity: .75;
      }

      .cls-6 {
        stroke-dasharray: 0 0 0 0 0 0 6 2 2 6 2 2;
      }

      .cls-7 {
        fill: #184fa8;
        stroke-width: 4px;
      }

      .cls-10 {
        opacity: .25;
      }

      .cls-11 {
        fill: #231f20;
      }

      .cls-12 {
        fill: #dfdfdf;
      }
    </style>
  </defs>
  <g id="Layer_1-2" data-name="Layer 1">
    <g>
      <rect class="cls-5" x=".5" y=".5" width="85.7" height="85.7" rx="12" ry="12"/>
      <path d="m43.39,13.65c-16.4,0-28.38,4.15-28.38,9.28v7.42c0,5.12,11.98,9.28,28.38,9.28s28.29-4.15,28.29-9.28v-7.42c0-5.13-11.89-9.28-28.29-9.28m-.09,29.69c-13.3,0-24.51-2.73-28.29-6.5v10.21c0,5.13,11.98,9.28,28.38,9.28s28.29-4.15,28.29-9.28v-10.21c-3.78,3.77-15.09,6.5-28.38,6.5m0,16.7c-13.3,0-24.51-2.73-28.29-6.5v10.21c0,5.13,11.98,9.28,28.38,9.28s28.29-4.15,28.29-9.28v-10.21c-3.78,3.77-15.09,6.5-28.38,6.5"/>
    </g>
    <g>
      <path class="cls-6" d="m142.73,61.15v-10.51c0-4.03-4.07-7.3-9.1-7.3h-44.75"/>
      <polygon class="cls-11" points="147.71 59.7 142.73 68.33 137.74 59.7 147.71 59.7"/>
    </g>
    <g>
      <rect class="cls-7" x="86.2" y="72.45" width="134.33" height="79.45" rx="8.5" ry="8.5"/>
      <rect class="cls-3" x="86.2" y="72.45" width="134.33" height="79.45" rx="8.5" ry="8.5"/>
    </g>
    <g>
      <rect class="cls-7" x="77.39" y="81.26" width="134.33" height="79.45" rx="8.5" ry="8.5"/>
      <rect class="cls-3" x="77.39" y="81.26" width="134.33" height="79.45" rx="8.5" ry="8.5"/>
    </g>
    <g>
      <path class="cls-6" d="m43.35,97.24v23.8c0,5.98,4.85,10.83,10.83,10.83h25.77"/>
      <polygon class="cls-11" points="38.36 98.7 43.35 90.07 48.33 98.7 38.36 98.7"/>
    </g>
    <g>
      <g>
        <rect class="cls-7" x="68.58" y="90.07" width="134.33" height="79.45" rx="8.5" ry="8.5"/>
        <rect class="cls-3" x="68.58" y="90.07" width="134.33" height="79.45" rx="8.5" ry="8.5"/>
      </g>
      <rect x="76.26" y="108.52" width="48.8" height="48.8" rx="5.61" ry="5.61"/>
      <g>
        <g>
          <g class="cls-10">
            <path class="cls-12" d="m100.67,132.92l19.56,4.16c-2.3,10.81-12.92,17.7-23.72,15.41-10.81-2.3-17.7-12.92-15.41-23.72,1.97-9.26,10.1-15.84,19.56-15.84v20Z"/>
          </g>
          <g class="cls-9">
            <path class="cls-8" d="m100.67,132.92v-20c11.05,0,20,8.95,20,20,0,1.57-.11,2.62-.44,4.16l-19.56-4.16Z"/>
          </g>
        </g>
        <g>
          <path class="cls-2" d="m100.67,132.92l19.56,4.16c-2.3,10.81-12.92,17.7-23.72,15.41-10.81-2.3-17.7-12.92-15.41-23.72,1.97-9.26,10.1-15.84,19.56-15.84v20Z"/>
          <path class="cls-2" d="m100.67,132.92v-20c11.05,0,20,8.95,20,20,0,1.57-.11,2.62-.44,4.16l-19.56-4.16Z"/>
        </g>
      </g>
      <rect x="76.26" y="97.32" width="78.57" height="6.66" rx="3.33" ry="3.33"/>
      <line class="cls-4" x1="140.25" y1="111.56" x2="188.69" y2="111.56"/>
      <line class="cls-4" x1="140.25" y1="121.72" x2="188.69" y2="121.72"/>
      <line class="cls-4" x1="140.25" y1="116.64" x2="188.69" y2="116.64"/>
      <line class="cls-4" x1="140.25" y1="126.8" x2="188.69" y2="126.8"/>
      <line class="cls-4" x1="140.25" y1="131.88" x2="188.69" y2="131.88"/>
      <line class="cls-4" x1="140.25" y1="156.4" x2="188.69" y2="156.4"/>
      <g>
        <line class="cls-1" x1="144.9" y1="139.86" x2="183.73" y2="139.86"/>
        <line class="cls-1" x1="144.9" y1="144.06" x2="183.73" y2="144.06"/>
        <line class="cls-1" x1="144.9" y1="148.25" x2="183.73" y2="148.25"/>
      </g>
      <path d="m139.16,143.77c1.03,0,1.18-.57,1.18-1.08,0-.41-.06-.81-.12-1.22-.06-.41-.12-.8-.12-1.21,0-1.34.87-1.91,2.11-1.91h.31v.8h-.26c-.86,0-1.15.46-1.15,1.25,0,.33.04.68.1,1.03.06.36.1.71.1,1.1.01.93-.39,1.4-1.05,1.57v.03c.65.16,1.06.65,1.05,1.58,0,.39-.04.76-.1,1.11-.06.36-.1.7-.1,1.05,0,.81.33,1.27,1.15,1.27h.26v.8h-.31c-1.21,0-2.11-.52-2.11-1.99,0-.39.06-.8.12-1.19s.12-.79.12-1.18c0-.45-.15-1.08-1.18-1.08v-.74Z"/>
      <path d="m189.48,144.52c-1.03,0-1.18.62-1.18,1.08,0,.39.06.79.12,1.18s.12.8.12,1.19c0,1.47-.92,1.99-2.11,1.99h-.31v-.8h.25c.81-.01,1.16-.45,1.16-1.27,0-.35-.06-.68-.1-1.05-.06-.35-.12-.71-.12-1.11,0-.93.41-1.42,1.05-1.58v-.03c-.64-.17-1.05-.64-1.05-1.57,0-.39.06-.74.12-1.1.04-.35.1-.7.1-1.03,0-.79-.31-1.24-1.15-1.25h-.26v-.8h.29c1.24,0,2.12.57,2.12,1.91,0,.41-.06.8-.12,1.21-.06.41-.12.81-.12,1.22,0,.51.15,1.08,1.18,1.08v.74Z"/>
    </g>
  </g>
</svg>