<?xml version="1.0" encoding="UTF-8"?>
<svg id="Layer_2" data-name="Layer 2" xmlns="http://www.w3.org/2000/svg" viewBox="0 0 170.72 170.72">
  <defs>
    <style>
      .cls-1 {
        fill: #c2c2c2;
      }

      .cls-1, .cls-2, .cls-3, .cls-4, .cls-5, .cls-6, .cls-7, .cls-8, .cls-9, .cls-10 {
        stroke-miterlimit: 10;
      }

      .cls-1, .cls-3, .cls-4, .cls-5, .cls-6, .cls-7, .cls-8, .cls-9, .cls-10 {
        stroke: #fff;
      }

      .cls-1, .cls-4, .cls-5, .cls-6, .cls-7, .cls-8, .cls-9, .cls-10 {
        stroke-width: 2px;
      }

      .cls-2 {
        stroke: #000;
      }

      .cls-2, .cls-3 {
        fill: none;
      }

      .cls-4 {
        fill: #666;
      }

      .cls-5 {
        fill: #191919;
      }

      .cls-6 {
        fill: #333;
      }

      .cls-7 {
        fill: #a3a3a3;
      }

      .cls-8 {
        fill: #4d4d4d;
      }

      .cls-9 {
        fill: #e0e0e0;
      }

      .cls-10 {
        fill: #858585;
      }
    </style>
  </defs>
  <g id="Layer_1-2" data-name="Layer 1">
    <line class="cls-2" x1="85.69" y1="158.89" x2="85.69" y2="14.46"/>
    <line class="cls-2" x1="33.37" y1="137.35" x2="135.5" y2="35.22"/>
    <line class="cls-2" x1="137.35" y1="137.35" x2="35.22" y2="35.22"/>
    <line class="cls-2" x1="11.83" y1="85.36" x2="156.26" y2="85.36"/>
    <circle class="cls-9" cx="85.69" cy="14.46" r="13.46"/>
    <circle class="cls-4" cx="85.69" cy="156.26" r="13.46"/>
    <circle class="cls-1" cx="135.5" cy="35.22" r="13.46"/>
    <circle cx="85.69" cy="85.36" r="36.12"/>
    <circle class="cls-8" cx="35.22" cy="135.5" r="13.46"/>
    <circle class="cls-5" cx="35.22" cy="35.22" r="13.46"/>
    <circle class="cls-10" cx="135.5" cy="135.5" r="13.46"/>
    <circle class="cls-7" cx="156.26" cy="85.36" r="13.46"/>
    <path class="cls-6" d="m1,85.36c0-7.43,6.02-13.46,13.46-13.46s13.46,6.02,13.46,13.46-6.02,13.46-13.46,13.46c-7.43,0-13.46-6.02-13.46-13.46Z"/>
    <g>
      <g>
        <path class="cls-3" d="m113.25,85.36c0-7.64-3.11-14.55-8.13-19.54-1.91,1.9-4.1,3.52-6.5,4.8,1.5,4.26,2.38,9.32,2.38,14.74s-.87,10.48-2.38,14.74c2.4,1.28,4.59,2.9,6.5,4.8,5.02-4.99,8.13-11.9,8.13-19.54Z"/>
        <path class="cls-3" d="m70.38,85.36c0-5.42.87-10.48,2.38-14.74-2.4-1.28-4.59-2.9-6.5-4.8-5.02,4.99-8.13,11.9-8.13,19.54s3.11,14.55,8.13,19.54c1.91-1.9,4.1-3.52,6.5-4.8-1.5-4.26-2.38-9.32-2.38-14.74Z"/>
        <path class="cls-3" d="m85.69,112.91c7.58,0,14.45-3.06,19.43-8.02-1.91-1.9-4.1-3.52-6.5-4.8-2.72,7.7-7.49,12.81-12.93,12.81Z"/>
        <path class="cls-3" d="m72.76,100.1c-2.4,1.28-4.59,2.9-6.5,4.8,4.98,4.95,11.85,8.02,19.43,8.02-5.44,0-10.22-5.11-12.93-12.81Z"/>
        <path class="cls-3" d="m85.69,57.8c-7.58,0-14.45,3.06-19.43,8.02,1.91,1.9,4.1,3.52,6.5,4.8,2.72-7.7,7.49-12.81,12.93-12.81Z"/>
        <path class="cls-3" d="m98.63,70.62c2.4-1.28,4.59-2.9,6.5-4.8-4.98-4.95-11.85-8.02-19.43-8.02,5.44,0,10.22,5.11,12.93,12.81Z"/>
        <path class="cls-3" d="m72.76,70.62c-1.5,4.26-2.38,9.32-2.38,14.74s.87,10.48,2.38,14.74c3.86-2.05,8.26-3.22,12.93-3.22s9.08,1.17,12.93,3.22c1.5-4.26,2.38-9.32,2.38-14.74s-.87-10.48-2.38-14.74c-3.86,2.05-8.26,3.22-12.93,3.22s-9.08-1.17-12.93-3.22Z"/>
        <path class="cls-3" d="m72.76,100.1c2.72,7.7,7.49,12.81,12.93,12.81s10.22-5.11,12.93-12.81c-3.86-2.05-8.26-3.22-12.93-3.22s-9.08,1.17-12.93,3.22Z"/>
        <path class="cls-3" d="m85.69,57.8c-5.44,0-10.22,5.11-12.93,12.81,3.86,2.05,8.26,3.22,12.93,3.22s9.08-1.17,12.93-3.22c-2.72-7.7-7.49-12.81-12.93-12.81Z"/>
      </g>
      <line class="cls-3" x1="85.69" y1="57.8" x2="85.69" y2="112.91"/>
      <line class="cls-3" x1="58.14" y1="85.36" x2="113.25" y2="85.36"/>
    </g>
  </g>
</svg>