<?xml version="1.0" encoding="utf-8"?>
<!-- Generator: Adobe Illustrator 27.4.1, SVG Export Plug-In . SVG Version: 6.00 Build 0)  -->
<svg version="1.1" id="Layer_1" xmlns="http://www.w3.org/2000/svg" xmlns:xlink="http://www.w3.org/1999/xlink" x="0px" y="0px"
	 viewBox="0 0 316.3 96" style="enable-background:new 0 0 316.3 96;" xml:space="preserve">
<style type="text/css">
	.st0{fill:#F97142;}
</style>
<g>
	<path class="st0" d="M54.5,0.4c13.2,1.9,24,8,32.1,18.5c8.1,10.6,11.2,22.6,9.5,35.8c-1.4,10.8-6.1,20.1-13.9,27.7
		c-7.7,7.6-17,12.1-27.9,13.5c-1.6,0.2-9.6,0.3-11.3,0c-0.7-0.1-1.3-0.1-1.9-0.2c-5.6-0.9-10.9-2.7-15.8-5.5
		c-5.1-2.9-9.6-6.5-13.3-11c-4.1-4.9-7.2-10.5-9.1-16.6c-2.1-6.6-2.7-13.4-1.9-20.3c0.7-6,2.5-11.7,5.4-17
		c3.2-5.8,7.4-10.8,12.6-14.9c5-3.9,10.5-6.7,16.7-8.5c1.9-0.6,3.9-1,5.9-1.3C41.8,0.6,44.5-0.2,54.5,0.4z M47,53.7c0,0-0.1,0-0.2,0
		c-2,0.4-4.1,0.9-6.1,1.3c-0.3,0.1-0.6,0.2-0.9,0.5c-0.7,0.7-1.5,1.4-2.2,2.1c-2.5,2.5-5.1,5.1-7.6,7.6c-1.5,1.5-3,3-4.5,4.5
		c-0.2,0.2-0.4,0.4-0.1,0.8c1.5,1.5,3,3,4.5,4.4c0.2,0.2,0.4,0.3,0.7,0.1c0.3-0.2,0.2-0.4,0.1-0.7c-0.2-0.9-0.4-1.7-0.6-2.6
		c-0.3-1.3-0.2-1.5,1-2.1c2.3-1.1,4.5-2.3,6.7-3.6c4.4-2.5,8.6-5.3,12.5-8.6c0.3-0.3,0.4-0.5,0.1-0.8c-0.9-0.9-1.8-1.7-2.6-2.6
		C47.4,53.8,47.3,53.7,47,53.7z M61.7,29.4c-1.8,0-3.1,0.8-4.4,1.5c-1.8,1-3.3,2.3-4.9,3.6c-4,3.3-7.5,7.1-11.3,10.6
		c-0.3,0.3-0.3,0.5,0,0.8c0.9,0.9,1.8,1.8,2.7,2.7c0.5,0.5,0.5,0.5,1.1,0C50.5,43,56,37.4,61.6,31.9c0.6-0.6,1.2-1.1,2-1.3
		c0.1,0,0.3-0.1,0.3-0.3c0-0.2-0.2-0.3-0.3-0.3C62.9,29.6,62.2,29.3,61.7,29.4z M64.6,31.6c-0.5,0-1,0.2-1.4,0.5
		c-0.6,0.5-1.3,1.1-1.8,1.6C56.1,39,50.8,44.2,45.5,49.5c-0.3,0.3-0.3,0.5,0,0.7c0.5,0.4,0.9,0.9,1.3,1.3c0.6,0.6,0.6,0.6,1.2,0
		c2.4-2.1,4.9-4.3,7.3-6.4c2.5-2.2,5-4.3,7.4-6.5c1.2-1,2.4-2.1,3.5-3.2c0.8-0.7,0.8-1.7,0.4-2.6C66.4,32,65.6,31.6,64.6,31.6z
		 M71.5,32.5c0.5,0,1.2-0.1,1.9-0.3c0.7-0.3,0.7-0.4,0.2-0.9c-1.3-1.3-2.6-2.7-4-4c-0.7-0.7-0.7-0.8,0-1.5c1.8-1.8,3.6-3.6,5.4-5.4
		c0.5-0.5,0.5-0.6-0.1-0.9c-2.3-1.4-4.8-1.6-7.2-0.3c-2.4,1.3-3.7,3.4-3.8,6C63.8,29.2,67.2,32.5,71.5,32.5z M67,36.8
		c0-0.1,0-0.2-0.1-0.2c-0.2,0-0.3,0.1-0.4,0.2c-2.4,2.2-4.9,4.3-7.3,6.5c-2.5,2.2-5,4.4-7.5,6.6c-1.1,0.9-2.1,1.9-3.1,2.8
		c-0.3,0.3-0.4,0.6,0,0.9c0.8,0.8,1.6,1.6,2.4,2.4c0.3,0.3,0.5,0.3,0.8,0c0.3-0.3,0.6-0.6,0.9-0.9c3.3-3.2,6.6-6.4,9.6-10
		c1.7-2,3.2-4.1,4.3-6.6C66.8,37.9,67,37.3,67,36.8z M78.3,25.8c0-2-0.5-3.3-1.4-4.7c-0.3-0.4-0.5-0.4-0.8-0.1
		c-1.7,1.7-3.4,3.5-5.2,5.2c-0.3,0.3-0.3,0.5,0,0.8c1.3,1.3,2.7,2.6,4,4c0.3,0.3,0.5,0.3,0.8,0C77.4,29.5,78.3,27.6,78.3,25.8z
		 M28.2,75.5c0.1,0,0.3,0.1,0.4,0c0.1-0.2-0.1-0.3-0.2-0.4c-1.2-1.2-2.5-2.5-3.7-3.7c-0.4-0.4-0.6-0.3-0.9,0c-1,1-1.9,1.9-2.9,2.9
		c-0.2,0.2-0.4,0.3-0.3,0.6c0.1,0.2,0.4,0.2,0.6,0.2c0.1,0,0.2,0,0.3,0C23.7,75.2,25.9,75.4,28.2,75.5z M35.5,51.3c0,0,0.1,0,0.1,0
		c2.3-0.5,4.6-1,6.9-1.5c0.5-0.1,0.5-0.3,0.1-0.6c-0.8-0.8-1.6-1.6-2.4-2.4c-0.4-0.4-0.6-0.3-0.9,0c-1.2,1.3-2.5,2.5-3.8,3.8
		c-0.1,0.1-0.3,0.3-0.4,0.5C35.2,51.2,35.3,51.3,35.5,51.3z M42.4,53.5c1.1-0.2,2.2-0.5,3.4-0.8c0.3-0.1,0.2-0.2,0.1-0.4
		c-0.4-0.4-0.9-0.9-1.3-1.3c-0.2-0.2-0.3-0.2-0.5,0c-0.7,0.7-1.4,1.3-2,2c-0.1,0.1-0.2,0.2-0.1,0.4C42,53.5,42.1,53.5,42.4,53.5z"/>
	<path class="st0" d="M316.4,62.6c-0.4,0.1-0.8,0.4-1.2,0.5c-1.1,0.2-2-0.4-2.6-1.6c-1.4-2.6-2.7-5.3-4.1-7.9c-2-3.9-4-7.8-6.1-11.6
		c-0.1-0.1-0.1-0.2-0.2-0.4c0-0.1-0.1-0.1-0.2-0.1c-0.1,0-0.1,0.1-0.2,0.2c0,0.2,0,0.4,0,0.6c0,6.4,0,12.8,0,19.1c0,1-0.2,1.3-1,1.6
		c-0.8,0.3-1.9,0-2.3-0.5c-0.2-0.3-0.2-0.6-0.2-0.9c0-1.7,0-3.4,0-5.2c0-7.3,0-14.6,0-22c0-1.4,0.9-2,2.2-1.7c0.9,0.2,1.5,0.9,2,1.6
		c0.6,1.2,1.2,2.4,1.8,3.5c1.5,2.9,3,5.8,4.5,8.7c1.2,2.3,2.3,4.6,3.5,7c0.2,0.3,0.3,0.6,0.5,0.9c0.2-0.1,0.1-0.3,0.1-0.4
		c0-6.5,0-12.9,0-19.4c0-1.6,1.2-2.4,2.7-1.8c0.3,0.1,0.5,0.2,0.7,0.4C316.4,43.1,316.4,52.9,316.4,62.6z"/>
	<path class="st0" d="M249.7,40.8c-0.2,0-0.2,0.2-0.3,0.3c-1.9,3.6-3.7,7.1-5.6,10.7c-0.3,0.6-0.6,1.1-1.3,1.2
		c-0.7,0.1-1.1-0.3-1.5-0.9c-0.5-0.9-0.9-1.8-1.4-2.7c-1.5-2.8-2.9-5.7-4.4-8.5c-0.1-0.1-0.1-0.2-0.2-0.3c-0.2,0.3-0.1,0.5-0.1,0.8
		c0,6.6,0,13.2,0,19.9c0,0.7-0.1,1.4-0.8,1.8c-0.8,0.4-1.6,0.3-2.3-0.2c-0.4-0.2-0.5-0.6-0.5-1c0-1.5,0-3,0-4.5c0-7.5,0-14.9,0-22.4
		c0-1.1,0.4-1.8,1.3-1.9c1-0.1,1.9,0.1,2.6,0.9c0.2,0.3,0.4,0.5,0.6,0.8c1,2,2.1,3.9,3.1,5.9c1.1,2.1,2.2,4.2,3.3,6.3
		c0.1,0.1,0.1,0.3,0.3,0.3c0.2,0,0.2-0.2,0.3-0.3c2-3.9,4.1-7.7,6.1-11.6c0.4-0.8,0.8-1.5,1.6-2c0.2-0.1,0.4-0.2,0.6-0.3
		c1.5-0.4,2.5,0.1,2.5,1.8c0,8.9,0,17.8,0,26.6c0,1.4-0.9,1.8-2,1.7c-1.3-0.1-1.6-0.5-1.6-1.8c0-6.6,0-13.2,0-19.8
		C249.8,41.3,249.9,41,249.7,40.8z"/>
	<path class="st0" d="M160,48.1c0,2.1,0,4.2,0,6.3c0,1.6-0.2,3.1-0.9,4.6c-0.9,2-2.6,3.2-4.6,3.8c-3.3,1.1-6.4,0.7-9.4-1.1
		c-1.8-1.1-2.6-2.9-2.9-4.9c-0.2-1.1-0.3-2.3-0.3-3.4c0-3.7,0-7.3,0-11c0-1.1,0.1-2.2,0.3-3.3c0.5-2.4,1.7-4.2,4-5.3
		c3.4-1.5,6.7-1.4,10,0.3c2.1,1.1,3.1,3,3.5,5.2c0.2,1.1,0.2,2.2,0.2,3.3C160,44.5,160,46.3,160,48.1C160,48.1,160,48.1,160,48.1z
		 M156.3,48.2c0-2.3,0.1-4.6,0-7c-0.1-2.6-1.4-4.4-3.8-5c-0.7-0.2-1.3-0.2-2-0.1c-3.2,0.2-4.8,2.5-4.8,5.1c-0.1,4.7,0,9.3,0,14
		c0,0.9,0.2,1.8,0.7,2.6c1.4,2,3.4,2.5,5.7,2.1c2.7-0.5,4.2-2.4,4.2-5.1C156.3,52.6,156.3,50.4,156.3,48.2z"/>
	<path class="st0" d="M275.8,32.9c1.4,0,1.9,0.3,2.3,1.7c2.7,8.7,5.4,17.4,8.1,26.1c0.5,1.7-0.1,2.5-1.9,2.5c-1,0-1.3-0.2-1.6-1.4
		c-0.4-1.5-0.9-2.9-1.3-4.4c-0.3-1-0.3-1-1.4-1c-3,0-5.9,0-8.9,0c-0.5,0-0.8,0.2-0.9,0.7c-0.4,1.6-0.9,3.2-1.4,4.8
		c-0.2,0.6-0.4,1.3-1.2,1.5c-0.8,0.1-1.6-0.2-2.2-0.8c-0.3-0.3-0.3-0.7-0.2-1.1c0.5-1.5,0.9-3.1,1.4-4.6c2.3-7.3,4.5-14.6,6.8-21.9
		C274,33.2,274.3,32.9,275.8,32.9z M275.8,38.4c-0.1,0.2-0.2,0.4-0.2,0.5c-1.4,4.6-2.8,9.2-4.1,13.8c-0.2,0.5,0,0.7,0.5,0.7
		c2.6,0,5.1,0,7.7,0c0.7,0,0.7-0.1,0.5-0.7c-1.3-4.2-2.5-8.5-3.8-12.7C276.2,39.5,276.2,39,275.8,38.4z"/>
	<path class="st0" d="M112,47.9c0-4.5,0-9.1,0-13.6c0-1.1,0.3-1.5,1.3-1.5c3.3,0,6.6-0.3,9.9,0.2c4.2,0.6,6.6,3.4,6.8,7.7
		c0.1,1.4,0.1,2.8-0.2,4.2c-0.6,3.3-2.7,5.2-5.7,6.1c-1.2,0.4-2.4,0.5-3.7,0.5c-1.4,0-2.9,0.1-4.3-0.1c-0.4-0.1-0.5,0.2-0.5,0.5
		c0,1.1,0,2.2,0,3.3c0,2.1,0,4.2,0,6.3c0,0.9-0.2,1.3-1,1.6c-0.8,0.3-2,0.1-2.4-0.4c-0.2-0.3-0.2-0.6-0.2-1
		C112,57,112,52.5,112,47.9C112,47.9,112,47.9,112,47.9z M119,36.1c-1,0-1.8,0-2.6,0c-0.6,0-0.8,0.2-0.8,0.7c0,1.8,0,3.6-0.1,5.5
		c-0.1,1.8,0,3.5,0,5.3c0,0.5,0.2,0.6,0.7,0.6c0.4,0,0.7-0.1,1.1,0c1.5,0.1,3,0.1,4.5,0c2.3-0.2,4.1-1.9,4.6-4.1c0.2-1,0.2-2,0.1-3
		c-0.2-2.4-2-4.3-4.4-4.7C121,36.1,119.9,36.2,119,36.1z"/>
	<path class="st0" d="M181,63.6c-2.8,0-5.4-0.6-7.6-2.5c-0.6-0.5-1.1-1-1.3-1.8c-0.3-0.9,0.2-1.9,0.9-2.3c0.5-0.3,1-0.1,1.4,0.2
		c0.3,0.3,0.6,0.7,1,1c2.3,1.9,4.9,2.6,7.8,1.5c4.1-1.5,3.9-6.4,1.3-8.6c-1.5-1.2-3.2-1.9-5-2.6c-1.5-0.6-3-1.1-4.2-2.2
		c-2.2-2-2.8-4.4-2.4-7.2c0.5-2.8,2.1-4.7,4.8-5.6c3.2-1.1,6.4-0.9,9.6,0.2c0.4,0.1,0.8,0.4,1.2,0.7c1.2,0.9,0.6,2.7-0.4,3.2
		c-0.3,0.2-0.6,0.1-0.9-0.1c-0.9-0.4-1.8-0.7-2.8-1c-1.8-0.5-3.6-0.5-5.3,0.2c-2.6,0.9-3.4,3.7-1.8,6c0.7,1,1.7,1.7,2.8,2.1
		c1.5,0.6,3,1.2,4.4,1.8c4.1,1.8,5.8,5.3,5.4,9.5c-0.1,1.5-0.5,2.9-1.3,4.1c-1.4,2-3.3,2.9-5.6,3.4C182.4,63.6,181.7,63.6,181,63.6z
		"/>
	<path class="st0" d="M211.7,49.4c0,4,0,8.1,0,12.1c0,1.2-0.5,1.6-1.7,1.7c-1.3,0-1.9-0.5-1.9-1.7c0-8.1,0-16.2,0-24.4
		c0-0.9,0-0.9-0.9-0.9c-1.7,0-3.5,0-5.2,0c-1.4,0-2.2-1.3-1.6-2.6c0.3-0.6,0.8-0.8,1.4-0.8c1.3,0,2.6,0,4,0c4,0,8,0,12,0
		c1.3,0,2,1,1.7,2.3c-0.2,0.8-0.7,1.1-1.5,1.2c-1.8,0-3.6,0-5.5,0c-0.8,0-0.8,0-0.8,0.8C211.7,41.1,211.7,45.2,211.7,49.4
		C211.7,49.4,211.7,49.4,211.7,49.4z"/>
	<path class="st0" d="M77.1,25.7c0,0.7-0.2,1.2-0.5,1.7c-0.2,0.3-0.6,0.5-0.9,0.3c-0.4-0.2-0.3-0.6-0.1-0.8c0.3-0.6,0.4-1.3,0.2-2
		c-0.1-0.3,0-0.6,0.3-0.8c0.4-0.1,0.6,0.1,0.8,0.4C77,24.8,77.1,25.2,77.1,25.7z"/>
</g>
</svg>
